<?xml version="1.0" encoding="utf-8" standalone="no"?>
<!DOCTYPE svg PUBLIC "-//W3C//DTD SVG 1.1//EN"
  "http://www.w3.org/Graphics/SVG/1.1/DTD/svg11.dtd">
<svg xmlns:xlink="http://www.w3.org/1999/xlink" width="1296pt" height="716.4pt" viewBox="0 0 1296 716.4" xmlns="http://www.w3.org/2000/svg" version="1.1">
 <metadata>
  <rdf:RDF xmlns:dc="http://purl.org/dc/elements/1.1/" xmlns:cc="http://creativecommons.org/ns#" xmlns:rdf="http://www.w3.org/1999/02/22-rdf-syntax-ns#">
   <cc:Work>
    <dc:type rdf:resource="http://purl.org/dc/dcmitype/StillImage"/>
    <dc:date>2024-09-06T12:50:25.274819</dc:date>
    <dc:format>image/svg+xml</dc:format>
    <dc:creator>
     <cc:Agent>
      <dc:title>Matplotlib v3.9.2, https://matplotlib.org/</dc:title>
     </cc:Agent>
    </dc:creator>
   </cc:Work>
  </rdf:RDF>
 </metadata>
 <defs>
  <style type="text/css">*{stroke-linejoin: round; stroke-linecap: butt}</style>
 </defs>
 <g id="figure_1">
  <g id="patch_1">
   <path d="M 0 716.4 
L 1296 716.4 
L 1296 0 
L 0 0 
z
" style="fill: #ffffff"/>
  </g>
  <g id="axes_1">
   <g id="patch_2">
    <path d="M 41.278365 685.166478 
L 1292.99976 685.166478 
L 1292.99976 3.00024 
L 41.278365 3.00024 
z
" style="fill: #ffffff"/>
   </g>
   <g id="patch_3">
    <path d="M 98.174792 151164.286434 
L 107.737217 151164.286434 
L 107.737217 645.689003 
L 98.174792 645.689003 
z
" clip-path="url(#p0e6bc7f7f2)" style="fill: #1f77b4"/>
   </g>
   <g id="patch_4">
    <path d="M 145.986916 151164.286434 
L 155.54934 151164.286434 
L 155.54934 627.125937 
L 145.986916 627.125937 
z
" clip-path="url(#p0e6bc7f7f2)" style="fill: #1f77b4"/>
   </g>
   <g id="patch_5">
    <path d="M 193.799039 151164.286434 
L 203.361464 151164.286434 
L 203.361464 622.882482 
L 193.799039 622.882482 
z
" clip-path="url(#p0e6bc7f7f2)" style="fill: #1f77b4"/>
   </g>
   <g id="patch_6">
    <path d="M 241.611163 151164.286434 
L 251.173587 151164.286434 
L 251.173587 645.851652 
L 241.611163 645.851652 
z
" clip-path="url(#p0e6bc7f7f2)" style="fill: #1f77b4"/>
   </g>
   <g id="patch_7">
    <path d="M 289.423286 151164.286434 
L 298.985711 151164.286434 
L 298.985711 641.231485 
L 289.423286 641.231485 
z
" clip-path="url(#p0e6bc7f7f2)" style="fill: #1f77b4"/>
   </g>
   <g id="patch_8">
    <path d="M 337.23541 151164.286434 
L 346.797835 151164.286434 
L 346.797835 650.530556 
L 337.23541 650.530556 
z
" clip-path="url(#p0e6bc7f7f2)" style="fill: #1f77b4"/>
   </g>
   <g id="patch_9">
    <path d="M 385.047533 151164.286434 
L 394.609958 151164.286434 
L 394.609958 601.642624 
L 385.047533 601.642624 
z
" clip-path="url(#p0e6bc7f7f2)" style="fill: #1f77b4"/>
   </g>
   <g id="patch_10">
    <path d="M 432.859657 151164.286434 
L 442.422082 151164.286434 
L 442.422082 565.050369 
L 432.859657 565.050369 
z
" clip-path="url(#p0e6bc7f7f2)" style="fill: #1f77b4"/>
   </g>
   <g id="patch_11">
    <path d="M 480.671781 151164.286434 
L 490.234205 151164.286434 
L 490.234205 598.48112 
L 480.671781 598.48112 
z
" clip-path="url(#p0e6bc7f7f2)" style="fill: #1f77b4"/>
   </g>
   <g id="patch_12">
    <path d="M 528.483904 151164.286434 
L 538.046329 151164.286434 
L 538.046329 599.904488 
L 528.483904 599.904488 
z
" clip-path="url(#p0e6bc7f7f2)" style="fill: #1f77b4"/>
   </g>
   <g id="patch_13">
    <path d="M 576.296028 151164.286434 
L 585.858452 151164.286434 
L 585.858452 583.08177 
L 576.296028 583.08177 
z
" clip-path="url(#p0e6bc7f7f2)" style="fill: #1f77b4"/>
   </g>
   <g id="patch_14">
    <path d="M 624.108151 151164.286434 
L 633.670576 151164.286434 
L 633.670576 580.078165 
L 624.108151 580.078165 
z
" clip-path="url(#p0e6bc7f7f2)" style="fill: #1f77b4"/>
   </g>
   <g id="patch_15">
    <path d="M 671.920275 151164.286434 
L 681.4827 151164.286434 
L 681.4827 515.43686 
L 671.920275 515.43686 
z
" clip-path="url(#p0e6bc7f7f2)" style="fill: #1f77b4"/>
   </g>
   <g id="patch_16">
    <path d="M 719.732398 151164.286434 
L 729.294823 151164.286434 
L 729.294823 512.997378 
L 719.732398 512.997378 
z
" clip-path="url(#p0e6bc7f7f2)" style="fill: #1f77b4"/>
   </g>
   <g id="patch_17">
    <path d="M 767.544522 151164.286434 
L 777.106947 151164.286434 
L 777.106947 502.951939 
L 767.544522 502.951939 
z
" clip-path="url(#p0e6bc7f7f2)" style="fill: #1f77b4"/>
   </g>
   <g id="patch_18">
    <path d="M 815.356646 151164.286434 
L 824.91907 151164.286434 
L 824.91907 543.088343 
L 815.356646 543.088343 
z
" clip-path="url(#p0e6bc7f7f2)" style="fill: #1f77b4"/>
   </g>
   <g id="patch_19">
    <path d="M 863.168769 151164.286434 
L 872.731194 151164.286434 
L 872.731194 477.517266 
L 863.168769 477.517266 
z
" clip-path="url(#p0e6bc7f7f2)" style="fill: #1f77b4"/>
   </g>
   <g id="patch_20">
    <path d="M 910.980893 151164.286434 
L 920.543317 151164.286434 
L 920.543317 613.450357 
L 910.980893 613.450357 
z
" clip-path="url(#p0e6bc7f7f2)" style="fill: #1f77b4"/>
   </g>
   <g id="patch_21">
    <path d="M 958.793016 151164.286434 
L 968.355441 151164.286434 
L 968.355441 438.905249 
L 958.793016 438.905249 
z
" clip-path="url(#p0e6bc7f7f2)" style="fill: #1f77b4"/>
   </g>
   <g id="patch_22">
    <path d="M 1006.60514 151164.286434 
L 1016.167565 151164.286434 
L 1016.167565 521.690917 
L 1006.60514 521.690917 
z
" clip-path="url(#p0e6bc7f7f2)" style="fill: #1f77b4"/>
   </g>
   <g id="patch_23">
    <path d="M 1054.417263 151164.286434 
L 1063.979688 151164.286434 
L 1063.979688 34.007796 
L 1054.417263 34.007796 
z
" clip-path="url(#p0e6bc7f7f2)" style="fill: #1f77b4"/>
   </g>
   <g id="patch_24">
    <path d="M 1102.229387 151164.286434 
L 1111.791812 151164.286434 
L 1111.791812 34.007796 
L 1102.229387 34.007796 
z
" clip-path="url(#p0e6bc7f7f2)" style="fill: #1f77b4"/>
   </g>
   <g id="patch_25">
    <path d="M 1150.041511 151164.286434 
L 1159.603935 151164.286434 
L 1159.603935 34.007796 
L 1150.041511 34.007796 
z
" clip-path="url(#p0e6bc7f7f2)" style="fill: #1f77b4"/>
   </g>
   <g id="patch_26">
    <path d="M 1197.853634 151164.286434 
L 1207.416059 151164.286434 
L 1207.416059 34.007796 
L 1197.853634 34.007796 
z
" clip-path="url(#p0e6bc7f7f2)" style="fill: #1f77b4"/>
   </g>
   <g id="patch_27">
    <path d="M 107.737217 151164.286434 
L 117.299641 151164.286434 
L 117.299641 654.034665 
L 107.737217 654.034665 
z
" clip-path="url(#p0e6bc7f7f2)" style="fill: #ff7f0e"/>
   </g>
   <g id="patch_28">
    <path d="M 155.54934 151164.286434 
L 165.111765 151164.286434 
L 165.111765 605.734809 
L 155.54934 605.734809 
z
" clip-path="url(#p0e6bc7f7f2)" style="fill: #ff7f0e"/>
   </g>
   <g id="patch_29">
    <path d="M 203.361464 151164.286434 
L 212.923889 151164.286434 
L 212.923889 637.37661 
L 203.361464 637.37661 
z
" clip-path="url(#p0e6bc7f7f2)" style="fill: #ff7f0e"/>
   </g>
   <g id="patch_30">
    <path d="M 251.173587 151164.286434 
L 260.736012 151164.286434 
L 260.736012 654.158922 
L 251.173587 654.158922 
z
" clip-path="url(#p0e6bc7f7f2)" style="fill: #ff7f0e"/>
   </g>
   <g id="patch_31">
    <path d="M 298.985711 151164.286434 
L 308.548136 151164.286434 
L 308.548136 648.635951 
L 298.985711 648.635951 
z
" clip-path="url(#p0e6bc7f7f2)" style="fill: #ff7f0e"/>
   </g>
   <g id="patch_32">
    <path d="M 346.797835 151164.286434 
L 356.360259 151164.286434 
L 356.360259 652.748765 
L 346.797835 652.748765 
z
" clip-path="url(#p0e6bc7f7f2)" style="fill: #ff7f0e"/>
   </g>
   <g id="patch_33">
    <path d="M 394.609958 151164.286434 
L 404.172383 151164.286434 
L 404.172383 615.222164 
L 394.609958 615.222164 
z
" clip-path="url(#p0e6bc7f7f2)" style="fill: #ff7f0e"/>
   </g>
   <g id="patch_34">
    <path d="M 442.422082 151164.286434 
L 451.984506 151164.286434 
L 451.984506 595.465127 
L 442.422082 595.465127 
z
" clip-path="url(#p0e6bc7f7f2)" style="fill: #ff7f0e"/>
   </g>
   <g id="patch_35">
    <path d="M 490.234205 151164.286434 
L 499.79663 151164.286434 
L 499.79663 603.064132 
L 490.234205 603.064132 
z
" clip-path="url(#p0e6bc7f7f2)" style="fill: #ff7f0e"/>
   </g>
   <g id="patch_36">
    <path d="M 538.046329 151164.286434 
L 547.608754 151164.286434 
L 547.608754 594.604401 
L 538.046329 594.604401 
z
" clip-path="url(#p0e6bc7f7f2)" style="fill: #ff7f0e"/>
   </g>
   <g id="patch_37">
    <path d="M 585.858452 151164.286434 
L 595.420877 151164.286434 
L 595.420877 607.308999 
L 585.858452 607.308999 
z
" clip-path="url(#p0e6bc7f7f2)" style="fill: #ff7f0e"/>
   </g>
   <g id="patch_38">
    <path d="M 633.670576 151164.286434 
L 643.233001 151164.286434 
L 643.233001 597.954965 
L 633.670576 597.954965 
z
" clip-path="url(#p0e6bc7f7f2)" style="fill: #ff7f0e"/>
   </g>
   <g id="patch_39">
    <path d="M 681.4827 151164.286434 
L 691.045124 151164.286434 
L 691.045124 525.834478 
L 681.4827 525.834478 
z
" clip-path="url(#p0e6bc7f7f2)" style="fill: #ff7f0e"/>
   </g>
   <g id="patch_40">
    <path d="M 729.294823 151164.286434 
L 738.857248 151164.286434 
L 738.857248 541.75494 
L 729.294823 541.75494 
z
" clip-path="url(#p0e6bc7f7f2)" style="fill: #ff7f0e"/>
   </g>
   <g id="patch_41">
    <path d="M 777.106947 151164.286434 
L 786.669371 151164.286434 
L 786.669371 541.629998 
L 777.106947 541.629998 
z
" clip-path="url(#p0e6bc7f7f2)" style="fill: #ff7f0e"/>
   </g>
   <g id="patch_42">
    <path d="M 824.91907 151164.286434 
L 834.481495 151164.286434 
L 834.481495 573.518028 
L 824.91907 573.518028 
z
" clip-path="url(#p0e6bc7f7f2)" style="fill: #ff7f0e"/>
   </g>
   <g id="patch_43">
    <path d="M 872.731194 151164.286434 
L 882.293619 151164.286434 
L 882.293619 521.424177 
L 872.731194 521.424177 
z
" clip-path="url(#p0e6bc7f7f2)" style="fill: #ff7f0e"/>
   </g>
   <g id="patch_44">
    <path d="M 920.543317 151164.286434 
L 930.105742 151164.286434 
L 930.105742 625.445971 
L 920.543317 625.445971 
z
" clip-path="url(#p0e6bc7f7f2)" style="fill: #ff7f0e"/>
   </g>
   <g id="patch_45">
    <path d="M 968.355441 151164.286434 
L 977.917866 151164.286434 
L 977.917866 446.146666 
L 968.355441 446.146666 
z
" clip-path="url(#p0e6bc7f7f2)" style="fill: #ff7f0e"/>
   </g>
   <g id="patch_46">
    <path d="M 1016.167565 151164.286434 
L 1025.729989 151164.286434 
L 1025.729989 279.491206 
L 1016.167565 279.491206 
z
" clip-path="url(#p0e6bc7f7f2)" style="fill: #ff7f0e"/>
   </g>
   <g id="patch_47">
    <path d="M 1063.979688 151164.286434 
L 1073.542113 151164.286434 
L 1073.542113 217.282727 
L 1063.979688 217.282727 
z
" clip-path="url(#p0e6bc7f7f2)" style="fill: #ff7f0e"/>
   </g>
   <g id="patch_48">
    <path d="M 1111.791812 151164.286434 
L 1121.354236 151164.286434 
L 1121.354236 34.007796 
L 1111.791812 34.007796 
z
" clip-path="url(#p0e6bc7f7f2)" style="fill: #ff7f0e"/>
   </g>
   <g id="patch_49">
    <path d="M 1159.603935 151164.286434 
L 1169.16636 151164.286434 
L 1169.16636 34.007796 
L 1159.603935 34.007796 
z
" clip-path="url(#p0e6bc7f7f2)" style="fill: #ff7f0e"/>
   </g>
   <g id="patch_50">
    <path d="M 1207.416059 151164.286434 
L 1216.978484 151164.286434 
L 1216.978484 34.007796 
L 1207.416059 34.007796 
z
" clip-path="url(#p0e6bc7f7f2)" style="fill: #ff7f0e"/>
   </g>
   <g id="patch_51">
    <path d="M 117.299641 151164.286434 
L 126.862066 151164.286434 
L 126.862066 639.902522 
L 117.299641 639.902522 
z
" clip-path="url(#p0e6bc7f7f2)" style="fill: #2ca02c"/>
   </g>
   <g id="patch_52">
    <path d="M 165.111765 151164.286434 
L 174.67419 151164.286434 
L 174.67419 605.665412 
L 165.111765 605.665412 
z
" clip-path="url(#p0e6bc7f7f2)" style="fill: #2ca02c"/>
   </g>
   <g id="patch_53">
    <path d="M 212.923889 151164.286434 
L 222.486313 151164.286434 
L 222.486313 628.774291 
L 212.923889 628.774291 
z
" clip-path="url(#p0e6bc7f7f2)" style="fill: #2ca02c"/>
   </g>
   <g id="patch_54">
    <path d="M 260.736012 151164.286434 
L 270.298437 151164.286434 
L 270.298437 643.050075 
L 260.736012 643.050075 
z
" clip-path="url(#p0e6bc7f7f2)" style="fill: #2ca02c"/>
   </g>
   <g id="patch_55">
    <path d="M 308.548136 151164.286434 
L 318.11056 151164.286434 
L 318.11056 639.730556 
L 308.548136 639.730556 
z
" clip-path="url(#p0e6bc7f7f2)" style="fill: #2ca02c"/>
   </g>
   <g id="patch_56">
    <path d="M 356.360259 151164.286434 
L 365.922684 151164.286434 
L 365.922684 645.976331 
L 356.360259 645.976331 
z
" clip-path="url(#p0e6bc7f7f2)" style="fill: #2ca02c"/>
   </g>
   <g id="patch_57">
    <path d="M 404.172383 151164.286434 
L 413.734808 151164.286434 
L 413.734808 606.985632 
L 404.172383 606.985632 
z
" clip-path="url(#p0e6bc7f7f2)" style="fill: #2ca02c"/>
   </g>
   <g id="patch_58">
    <path d="M 451.984506 151164.286434 
L 461.546931 151164.286434 
L 461.546931 611.377047 
L 451.984506 611.377047 
z
" clip-path="url(#p0e6bc7f7f2)" style="fill: #2ca02c"/>
   </g>
   <g id="patch_59">
    <path d="M 499.79663 151164.286434 
L 509.359055 151164.286434 
L 509.359055 581.810833 
L 499.79663 581.810833 
z
" clip-path="url(#p0e6bc7f7f2)" style="fill: #2ca02c"/>
   </g>
   <g id="patch_60">
    <path d="M 547.608754 151164.286434 
L 557.171178 151164.286434 
L 557.171178 582.807853 
L 547.608754 582.807853 
z
" clip-path="url(#p0e6bc7f7f2)" style="fill: #2ca02c"/>
   </g>
   <g id="patch_61">
    <path d="M 595.420877 151164.286434 
L 604.983302 151164.286434 
L 604.983302 595.294502 
L 595.420877 595.294502 
z
" clip-path="url(#p0e6bc7f7f2)" style="fill: #2ca02c"/>
   </g>
   <g id="patch_62">
    <path d="M 643.233001 151164.286434 
L 652.795425 151164.286434 
L 652.795425 593.8221 
L 643.233001 593.8221 
z
" clip-path="url(#p0e6bc7f7f2)" style="fill: #2ca02c"/>
   </g>
   <g id="patch_63">
    <path d="M 691.045124 151164.286434 
L 700.607549 151164.286434 
L 700.607549 465.796708 
L 691.045124 465.796708 
z
" clip-path="url(#p0e6bc7f7f2)" style="fill: #2ca02c"/>
   </g>
   <g id="patch_64">
    <path d="M 738.857248 151164.286434 
L 748.419673 151164.286434 
L 748.419673 527.126423 
L 738.857248 527.126423 
z
" clip-path="url(#p0e6bc7f7f2)" style="fill: #2ca02c"/>
   </g>
   <g id="patch_65">
    <path d="M 786.669371 151164.286434 
L 796.231796 151164.286434 
L 796.231796 521.49809 
L 786.669371 521.49809 
z
" clip-path="url(#p0e6bc7f7f2)" style="fill: #2ca02c"/>
   </g>
   <g id="patch_66">
    <path d="M 834.481495 151164.286434 
L 844.04392 151164.286434 
L 844.04392 541.887089 
L 834.481495 541.887089 
z
" clip-path="url(#p0e6bc7f7f2)" style="fill: #2ca02c"/>
   </g>
   <g id="patch_67">
    <path d="M 882.293619 151164.286434 
L 891.856043 151164.286434 
L 891.856043 513.782529 
L 882.293619 513.782529 
z
" clip-path="url(#p0e6bc7f7f2)" style="fill: #2ca02c"/>
   </g>
   <g id="patch_68">
    <path d="M 930.105742 151164.286434 
L 939.668167 151164.286434 
L 939.668167 608.570085 
L 930.105742 608.570085 
z
" clip-path="url(#p0e6bc7f7f2)" style="fill: #2ca02c"/>
   </g>
   <g id="patch_69">
    <path d="M 977.917866 151164.286434 
L 987.48029 151164.286434 
L 987.48029 427.694088 
L 977.917866 427.694088 
z
" clip-path="url(#p0e6bc7f7f2)" style="fill: #2ca02c"/>
   </g>
   <g id="patch_70">
    <path d="M 1025.729989 151164.286434 
L 1035.292414 151164.286434 
L 1035.292414 523.102212 
L 1025.729989 523.102212 
z
" clip-path="url(#p0e6bc7f7f2)" style="fill: #2ca02c"/>
   </g>
   <g id="patch_71">
    <path d="M 1073.542113 151164.286434 
L 1083.104538 151164.286434 
L 1083.104538 34.007796 
L 1073.542113 34.007796 
z
" clip-path="url(#p0e6bc7f7f2)" style="fill: #2ca02c"/>
   </g>
   <g id="patch_72">
    <path d="M 1121.354236 151164.286434 
L 1130.916661 151164.286434 
L 1130.916661 202.114783 
L 1121.354236 202.114783 
z
" clip-path="url(#p0e6bc7f7f2)" style="fill: #2ca02c"/>
   </g>
   <g id="patch_73">
    <path d="M 1169.16636 151164.286434 
L 1178.728785 151164.286434 
L 1178.728785 34.007796 
L 1169.16636 34.007796 
z
" clip-path="url(#p0e6bc7f7f2)" style="fill: #2ca02c"/>
   </g>
   <g id="patch_74">
    <path d="M 1216.978484 151164.286434 
L 1226.540908 151164.286434 
L 1226.540908 258.028665 
L 1216.978484 258.028665 
z
" clip-path="url(#p0e6bc7f7f2)" style="fill: #2ca02c"/>
   </g>
   <g id="patch_75">
    <path d="M 126.862066 151164.286434 
L 136.424491 151164.286434 
L 136.424491 636.929655 
L 126.862066 636.929655 
z
" clip-path="url(#p0e6bc7f7f2)" style="fill: #d62728"/>
   </g>
   <g id="patch_76">
    <path d="M 174.67419 151164.286434 
L 184.236614 151164.286434 
L 184.236614 594.378133 
L 174.67419 594.378133 
z
" clip-path="url(#p0e6bc7f7f2)" style="fill: #d62728"/>
   </g>
   <g id="patch_77">
    <path d="M 222.486313 151164.286434 
L 232.048738 151164.286434 
L 232.048738 615.411707 
L 222.486313 615.411707 
z
" clip-path="url(#p0e6bc7f7f2)" style="fill: #d62728"/>
   </g>
   <g id="patch_78">
    <path d="M 270.298437 151164.286434 
L 279.860862 151164.286434 
L 279.860862 643.217534 
L 270.298437 643.217534 
z
" clip-path="url(#p0e6bc7f7f2)" style="fill: #d62728"/>
   </g>
   <g id="patch_79">
    <path d="M 318.11056 151164.286434 
L 327.672985 151164.286434 
L 327.672985 636.890159 
L 318.11056 636.890159 
z
" clip-path="url(#p0e6bc7f7f2)" style="fill: #d62728"/>
   </g>
   <g id="patch_80">
    <path d="M 365.922684 151164.286434 
L 375.485109 151164.286434 
L 375.485109 637.05552 
L 365.922684 637.05552 
z
" clip-path="url(#p0e6bc7f7f2)" style="fill: #d62728"/>
   </g>
   <g id="patch_81">
    <path d="M 413.734808 151164.286434 
L 423.297232 151164.286434 
L 423.297232 592.265991 
L 413.734808 592.265991 
z
" clip-path="url(#p0e6bc7f7f2)" style="fill: #d62728"/>
   </g>
   <g id="patch_82">
    <path d="M 461.546931 151164.286434 
L 471.109356 151164.286434 
L 471.109356 596.612622 
L 461.546931 596.612622 
z
" clip-path="url(#p0e6bc7f7f2)" style="fill: #d62728"/>
   </g>
   <g id="patch_83">
    <path d="M 509.359055 151164.286434 
L 518.921479 151164.286434 
L 518.921479 556.435943 
L 509.359055 556.435943 
z
" clip-path="url(#p0e6bc7f7f2)" style="fill: #d62728"/>
   </g>
   <g id="patch_84">
    <path d="M 557.171178 151164.286434 
L 566.733603 151164.286434 
L 566.733603 562.722642 
L 557.171178 562.722642 
z
" clip-path="url(#p0e6bc7f7f2)" style="fill: #d62728"/>
   </g>
   <g id="patch_85">
    <path d="M 604.983302 151164.286434 
L 614.545727 151164.286434 
L 614.545727 570.186037 
L 604.983302 570.186037 
z
" clip-path="url(#p0e6bc7f7f2)" style="fill: #d62728"/>
   </g>
   <g id="patch_86">
    <path d="M 652.795425 151164.286434 
L 662.35785 151164.286434 
L 662.35785 581.788056 
L 652.795425 581.788056 
z
" clip-path="url(#p0e6bc7f7f2)" style="fill: #d62728"/>
   </g>
   <g id="patch_87">
    <path d="M 700.607549 151164.286434 
L 710.169974 151164.286434 
L 710.169974 230.77401 
L 700.607549 230.77401 
z
" clip-path="url(#p0e6bc7f7f2)" style="fill: #d62728"/>
   </g>
   <g id="patch_88">
    <path d="M 748.419673 151164.286434 
L 757.982097 151164.286434 
L 757.982097 259.600962 
L 748.419673 259.600962 
z
" clip-path="url(#p0e6bc7f7f2)" style="fill: #d62728"/>
   </g>
   <g id="patch_89">
    <path d="M 796.231796 151164.286434 
L 805.794221 151164.286434 
L 805.794221 34.007796 
L 796.231796 34.007796 
z
" clip-path="url(#p0e6bc7f7f2)" style="fill: #d62728"/>
   </g>
   <g id="patch_90">
    <path d="M 844.04392 151164.286434 
L 853.606344 151164.286434 
L 853.606344 430.905988 
L 844.04392 430.905988 
z
" clip-path="url(#p0e6bc7f7f2)" style="fill: #d62728"/>
   </g>
   <g id="patch_91">
    <path d="M 891.856043 151164.286434 
L 901.418468 151164.286434 
L 901.418468 451.24145 
L 891.856043 451.24145 
z
" clip-path="url(#p0e6bc7f7f2)" style="fill: #d62728"/>
   </g>
   <g id="patch_92">
    <path d="M 939.668167 151164.286434 
L 949.230592 151164.286434 
L 949.230592 605.183195 
L 939.668167 605.183195 
z
" clip-path="url(#p0e6bc7f7f2)" style="fill: #d62728"/>
   </g>
   <g id="patch_93">
    <path d="M 987.48029 151164.286434 
L 997.042715 151164.286434 
L 997.042715 34.007796 
L 987.48029 34.007796 
z
" clip-path="url(#p0e6bc7f7f2)" style="fill: #d62728"/>
   </g>
   <g id="patch_94">
    <path d="M 1035.292414 151164.286434 
L 1044.854839 151164.286434 
L 1044.854839 520.909052 
L 1035.292414 520.909052 
z
" clip-path="url(#p0e6bc7f7f2)" style="fill: #d62728"/>
   </g>
   <g id="patch_95">
    <path d="M 1083.104538 151164.286434 
L 1092.666962 151164.286434 
L 1092.666962 34.007796 
L 1083.104538 34.007796 
z
" clip-path="url(#p0e6bc7f7f2)" style="fill: #d62728"/>
   </g>
   <g id="patch_96">
    <path d="M 1130.916661 151164.286434 
L 1140.479086 151164.286434 
L 1140.479086 34.007796 
L 1130.916661 34.007796 
z
" clip-path="url(#p0e6bc7f7f2)" style="fill: #d62728"/>
   </g>
   <g id="patch_97">
    <path d="M 1178.728785 151164.286434 
L 1188.291209 151164.286434 
L 1188.291209 34.007796 
L 1178.728785 34.007796 
z
" clip-path="url(#p0e6bc7f7f2)" style="fill: #d62728"/>
   </g>
   <g id="patch_98">
    <path d="M 1226.540908 151164.286434 
L 1236.103333 151164.286434 
L 1236.103333 507.326482 
L 1226.540908 507.326482 
z
" clip-path="url(#p0e6bc7f7f2)" style="fill: #d62728"/>
   </g>
   <g id="matplotlib.axis_1">
    <g id="xtick_1">
     <g id="line2d_1">
      <defs>
       <path id="mea0818e986" d="M 0 0 
L 0 3.5 
" style="stroke: #000000; stroke-width: 0.8"/>
      </defs>
      <g>
       <use xlink:href="#mea0818e986" x="112.518429" y="685.166478" style="stroke: #000000; stroke-width: 0.8"/>
      </g>
     </g>
     <g id="text_1">
      <!-- p01 -->
      <g transform="translate(106.663715 694.765297) rotate(-290) scale(0.1 -0.1)">
       <defs>
        <path id="DejaVuSans-70" d="M 1159 525 
L 1159 -1331 
L 581 -1331 
L 581 3500 
L 1159 3500 
L 1159 2969 
Q 1341 3281 1617 3432 
Q 1894 3584 2278 3584 
Q 2916 3584 3314 3078 
Q 3713 2572 3713 1747 
Q 3713 922 3314 415 
Q 2916 -91 2278 -91 
Q 1894 -91 1617 61 
Q 1341 213 1159 525 
z
M 3116 1747 
Q 3116 2381 2855 2742 
Q 2594 3103 2138 3103 
Q 1681 3103 1420 2742 
Q 1159 2381 1159 1747 
Q 1159 1113 1420 752 
Q 1681 391 2138 391 
Q 2594 391 2855 752 
Q 3116 1113 3116 1747 
z
" transform="scale(0.015625)"/>
        <path id="DejaVuSans-30" d="M 2034 4250 
Q 1547 4250 1301 3770 
Q 1056 3291 1056 2328 
Q 1056 1369 1301 889 
Q 1547 409 2034 409 
Q 2525 409 2770 889 
Q 3016 1369 3016 2328 
Q 3016 3291 2770 3770 
Q 2525 4250 2034 4250 
z
M 2034 4750 
Q 2819 4750 3233 4129 
Q 3647 3509 3647 2328 
Q 3647 1150 3233 529 
Q 2819 -91 2034 -91 
Q 1250 -91 836 529 
Q 422 1150 422 2328 
Q 422 3509 836 4129 
Q 1250 4750 2034 4750 
z
" transform="scale(0.015625)"/>
        <path id="DejaVuSans-31" d="M 794 531 
L 1825 531 
L 1825 4091 
L 703 3866 
L 703 4441 
L 1819 4666 
L 2450 4666 
L 2450 531 
L 3481 531 
L 3481 0 
L 794 0 
L 794 531 
z
" transform="scale(0.015625)"/>
       </defs>
       <use xlink:href="#DejaVuSans-70"/>
       <use xlink:href="#DejaVuSans-30" x="63.476562"/>
       <use xlink:href="#DejaVuSans-31" x="127.099609"/>
      </g>
     </g>
    </g>
    <g id="xtick_2">
     <g id="line2d_2">
      <g>
       <use xlink:href="#mea0818e986" x="160.330553" y="685.166478" style="stroke: #000000; stroke-width: 0.8"/>
      </g>
     </g>
     <g id="text_2">
      <!-- p02 -->
      <g transform="translate(154.475838 694.765297) rotate(-290) scale(0.1 -0.1)">
       <defs>
        <path id="DejaVuSans-32" d="M 1228 531 
L 3431 531 
L 3431 0 
L 469 0 
L 469 531 
Q 828 903 1448 1529 
Q 2069 2156 2228 2338 
Q 2531 2678 2651 2914 
Q 2772 3150 2772 3378 
Q 2772 3750 2511 3984 
Q 2250 4219 1831 4219 
Q 1534 4219 1204 4116 
Q 875 4013 500 3803 
L 500 4441 
Q 881 4594 1212 4672 
Q 1544 4750 1819 4750 
Q 2544 4750 2975 4387 
Q 3406 4025 3406 3419 
Q 3406 3131 3298 2873 
Q 3191 2616 2906 2266 
Q 2828 2175 2409 1742 
Q 1991 1309 1228 531 
z
" transform="scale(0.015625)"/>
       </defs>
       <use xlink:href="#DejaVuSans-70"/>
       <use xlink:href="#DejaVuSans-30" x="63.476562"/>
       <use xlink:href="#DejaVuSans-32" x="127.099609"/>
      </g>
     </g>
    </g>
    <g id="xtick_3">
     <g id="line2d_3">
      <g>
       <use xlink:href="#mea0818e986" x="208.142676" y="685.166478" style="stroke: #000000; stroke-width: 0.8"/>
      </g>
     </g>
     <g id="text_3">
      <!-- p03 -->
      <g transform="translate(202.287962 694.765297) rotate(-290) scale(0.1 -0.1)">
       <defs>
        <path id="DejaVuSans-33" d="M 2597 2516 
Q 3050 2419 3304 2112 
Q 3559 1806 3559 1356 
Q 3559 666 3084 287 
Q 2609 -91 1734 -91 
Q 1441 -91 1130 -33 
Q 819 25 488 141 
L 488 750 
Q 750 597 1062 519 
Q 1375 441 1716 441 
Q 2309 441 2620 675 
Q 2931 909 2931 1356 
Q 2931 1769 2642 2001 
Q 2353 2234 1838 2234 
L 1294 2234 
L 1294 2753 
L 1863 2753 
Q 2328 2753 2575 2939 
Q 2822 3125 2822 3475 
Q 2822 3834 2567 4026 
Q 2313 4219 1838 4219 
Q 1578 4219 1281 4162 
Q 984 4106 628 3988 
L 628 4550 
Q 988 4650 1302 4700 
Q 1616 4750 1894 4750 
Q 2613 4750 3031 4423 
Q 3450 4097 3450 3541 
Q 3450 3153 3228 2886 
Q 3006 2619 2597 2516 
z
" transform="scale(0.015625)"/>
       </defs>
       <use xlink:href="#DejaVuSans-70"/>
       <use xlink:href="#DejaVuSans-30" x="63.476562"/>
       <use xlink:href="#DejaVuSans-33" x="127.099609"/>
      </g>
     </g>
    </g>
    <g id="xtick_4">
     <g id="line2d_4">
      <g>
       <use xlink:href="#mea0818e986" x="255.9548" y="685.166478" style="stroke: #000000; stroke-width: 0.8"/>
      </g>
     </g>
     <g id="text_4">
      <!-- p04 -->
      <g transform="translate(250.100086 694.765297) rotate(-290) scale(0.1 -0.1)">
       <defs>
        <path id="DejaVuSans-34" d="M 2419 4116 
L 825 1625 
L 2419 1625 
L 2419 4116 
z
M 2253 4666 
L 3047 4666 
L 3047 1625 
L 3713 1625 
L 3713 1100 
L 3047 1100 
L 3047 0 
L 2419 0 
L 2419 1100 
L 313 1100 
L 313 1709 
L 2253 4666 
z
" transform="scale(0.015625)"/>
       </defs>
       <use xlink:href="#DejaVuSans-70"/>
       <use xlink:href="#DejaVuSans-30" x="63.476562"/>
       <use xlink:href="#DejaVuSans-34" x="127.099609"/>
      </g>
     </g>
    </g>
    <g id="xtick_5">
     <g id="line2d_5">
      <g>
       <use xlink:href="#mea0818e986" x="303.766923" y="685.166478" style="stroke: #000000; stroke-width: 0.8"/>
      </g>
     </g>
     <g id="text_5">
      <!-- p05 -->
      <g transform="translate(297.912209 694.765297) rotate(-290) scale(0.1 -0.1)">
       <defs>
        <path id="DejaVuSans-35" d="M 691 4666 
L 3169 4666 
L 3169 4134 
L 1269 4134 
L 1269 2991 
Q 1406 3038 1543 3061 
Q 1681 3084 1819 3084 
Q 2600 3084 3056 2656 
Q 3513 2228 3513 1497 
Q 3513 744 3044 326 
Q 2575 -91 1722 -91 
Q 1428 -91 1123 -41 
Q 819 9 494 109 
L 494 744 
Q 775 591 1075 516 
Q 1375 441 1709 441 
Q 2250 441 2565 725 
Q 2881 1009 2881 1497 
Q 2881 1984 2565 2268 
Q 2250 2553 1709 2553 
Q 1456 2553 1204 2497 
Q 953 2441 691 2322 
L 691 4666 
z
" transform="scale(0.015625)"/>
       </defs>
       <use xlink:href="#DejaVuSans-70"/>
       <use xlink:href="#DejaVuSans-30" x="63.476562"/>
       <use xlink:href="#DejaVuSans-35" x="127.099609"/>
      </g>
     </g>
    </g>
    <g id="xtick_6">
     <g id="line2d_6">
      <g>
       <use xlink:href="#mea0818e986" x="351.579047" y="685.166478" style="stroke: #000000; stroke-width: 0.8"/>
      </g>
     </g>
     <g id="text_6">
      <!-- p06 -->
      <g transform="translate(345.724333 694.765297) rotate(-290) scale(0.1 -0.1)">
       <defs>
        <path id="DejaVuSans-36" d="M 2113 2584 
Q 1688 2584 1439 2293 
Q 1191 2003 1191 1497 
Q 1191 994 1439 701 
Q 1688 409 2113 409 
Q 2538 409 2786 701 
Q 3034 994 3034 1497 
Q 3034 2003 2786 2293 
Q 2538 2584 2113 2584 
z
M 3366 4563 
L 3366 3988 
Q 3128 4100 2886 4159 
Q 2644 4219 2406 4219 
Q 1781 4219 1451 3797 
Q 1122 3375 1075 2522 
Q 1259 2794 1537 2939 
Q 1816 3084 2150 3084 
Q 2853 3084 3261 2657 
Q 3669 2231 3669 1497 
Q 3669 778 3244 343 
Q 2819 -91 2113 -91 
Q 1303 -91 875 529 
Q 447 1150 447 2328 
Q 447 3434 972 4092 
Q 1497 4750 2381 4750 
Q 2619 4750 2861 4703 
Q 3103 4656 3366 4563 
z
" transform="scale(0.015625)"/>
       </defs>
       <use xlink:href="#DejaVuSans-70"/>
       <use xlink:href="#DejaVuSans-30" x="63.476562"/>
       <use xlink:href="#DejaVuSans-36" x="127.099609"/>
      </g>
     </g>
    </g>
    <g id="xtick_7">
     <g id="line2d_7">
      <g>
       <use xlink:href="#mea0818e986" x="399.391171" y="685.166478" style="stroke: #000000; stroke-width: 0.8"/>
      </g>
     </g>
     <g id="text_7">
      <!-- p07 -->
      <g transform="translate(393.536456 694.765297) rotate(-290) scale(0.1 -0.1)">
       <defs>
        <path id="DejaVuSans-37" d="M 525 4666 
L 3525 4666 
L 3525 4397 
L 1831 0 
L 1172 0 
L 2766 4134 
L 525 4134 
L 525 4666 
z
" transform="scale(0.015625)"/>
       </defs>
       <use xlink:href="#DejaVuSans-70"/>
       <use xlink:href="#DejaVuSans-30" x="63.476562"/>
       <use xlink:href="#DejaVuSans-37" x="127.099609"/>
      </g>
     </g>
    </g>
    <g id="xtick_8">
     <g id="line2d_8">
      <g>
       <use xlink:href="#mea0818e986" x="447.203294" y="685.166478" style="stroke: #000000; stroke-width: 0.8"/>
      </g>
     </g>
     <g id="text_8">
      <!-- p08 -->
      <g transform="translate(441.34858 694.765297) rotate(-290) scale(0.1 -0.1)">
       <defs>
        <path id="DejaVuSans-38" d="M 2034 2216 
Q 1584 2216 1326 1975 
Q 1069 1734 1069 1313 
Q 1069 891 1326 650 
Q 1584 409 2034 409 
Q 2484 409 2743 651 
Q 3003 894 3003 1313 
Q 3003 1734 2745 1975 
Q 2488 2216 2034 2216 
z
M 1403 2484 
Q 997 2584 770 2862 
Q 544 3141 544 3541 
Q 544 4100 942 4425 
Q 1341 4750 2034 4750 
Q 2731 4750 3128 4425 
Q 3525 4100 3525 3541 
Q 3525 3141 3298 2862 
Q 3072 2584 2669 2484 
Q 3125 2378 3379 2068 
Q 3634 1759 3634 1313 
Q 3634 634 3220 271 
Q 2806 -91 2034 -91 
Q 1263 -91 848 271 
Q 434 634 434 1313 
Q 434 1759 690 2068 
Q 947 2378 1403 2484 
z
M 1172 3481 
Q 1172 3119 1398 2916 
Q 1625 2713 2034 2713 
Q 2441 2713 2670 2916 
Q 2900 3119 2900 3481 
Q 2900 3844 2670 4047 
Q 2441 4250 2034 4250 
Q 1625 4250 1398 4047 
Q 1172 3844 1172 3481 
z
" transform="scale(0.015625)"/>
       </defs>
       <use xlink:href="#DejaVuSans-70"/>
       <use xlink:href="#DejaVuSans-30" x="63.476562"/>
       <use xlink:href="#DejaVuSans-38" x="127.099609"/>
      </g>
     </g>
    </g>
    <g id="xtick_9">
     <g id="line2d_9">
      <g>
       <use xlink:href="#mea0818e986" x="495.015418" y="685.166478" style="stroke: #000000; stroke-width: 0.8"/>
      </g>
     </g>
     <g id="text_9">
      <!-- p09 -->
      <g transform="translate(489.160703 694.765297) rotate(-290) scale(0.1 -0.1)">
       <defs>
        <path id="DejaVuSans-39" d="M 703 97 
L 703 672 
Q 941 559 1184 500 
Q 1428 441 1663 441 
Q 2288 441 2617 861 
Q 2947 1281 2994 2138 
Q 2813 1869 2534 1725 
Q 2256 1581 1919 1581 
Q 1219 1581 811 2004 
Q 403 2428 403 3163 
Q 403 3881 828 4315 
Q 1253 4750 1959 4750 
Q 2769 4750 3195 4129 
Q 3622 3509 3622 2328 
Q 3622 1225 3098 567 
Q 2575 -91 1691 -91 
Q 1453 -91 1209 -44 
Q 966 3 703 97 
z
M 1959 2075 
Q 2384 2075 2632 2365 
Q 2881 2656 2881 3163 
Q 2881 3666 2632 3958 
Q 2384 4250 1959 4250 
Q 1534 4250 1286 3958 
Q 1038 3666 1038 3163 
Q 1038 2656 1286 2365 
Q 1534 2075 1959 2075 
z
" transform="scale(0.015625)"/>
       </defs>
       <use xlink:href="#DejaVuSans-70"/>
       <use xlink:href="#DejaVuSans-30" x="63.476562"/>
       <use xlink:href="#DejaVuSans-39" x="127.099609"/>
      </g>
     </g>
    </g>
    <g id="xtick_10">
     <g id="line2d_10">
      <g>
       <use xlink:href="#mea0818e986" x="542.827541" y="685.166478" style="stroke: #000000; stroke-width: 0.8"/>
      </g>
     </g>
     <g id="text_10">
      <!-- p10 -->
      <g transform="translate(536.972827 694.765297) rotate(-290) scale(0.1 -0.1)">
       <use xlink:href="#DejaVuSans-70"/>
       <use xlink:href="#DejaVuSans-31" x="63.476562"/>
       <use xlink:href="#DejaVuSans-30" x="127.099609"/>
      </g>
     </g>
    </g>
    <g id="xtick_11">
     <g id="line2d_11">
      <g>
       <use xlink:href="#mea0818e986" x="590.639665" y="685.166478" style="stroke: #000000; stroke-width: 0.8"/>
      </g>
     </g>
     <g id="text_11">
      <!-- p11 -->
      <g transform="translate(584.784951 694.765297) rotate(-290) scale(0.1 -0.1)">
       <use xlink:href="#DejaVuSans-70"/>
       <use xlink:href="#DejaVuSans-31" x="63.476562"/>
       <use xlink:href="#DejaVuSans-31" x="127.099609"/>
      </g>
     </g>
    </g>
    <g id="xtick_12">
     <g id="line2d_12">
      <g>
       <use xlink:href="#mea0818e986" x="638.451788" y="685.166478" style="stroke: #000000; stroke-width: 0.8"/>
      </g>
     </g>
     <g id="text_12">
      <!-- p12 -->
      <g transform="translate(632.597074 694.765297) rotate(-290) scale(0.1 -0.1)">
       <use xlink:href="#DejaVuSans-70"/>
       <use xlink:href="#DejaVuSans-31" x="63.476562"/>
       <use xlink:href="#DejaVuSans-32" x="127.099609"/>
      </g>
     </g>
    </g>
    <g id="xtick_13">
     <g id="line2d_13">
      <g>
       <use xlink:href="#mea0818e986" x="686.263912" y="685.166478" style="stroke: #000000; stroke-width: 0.8"/>
      </g>
     </g>
     <g id="text_13">
      <!-- p13 -->
      <g transform="translate(680.409198 694.765297) rotate(-290) scale(0.1 -0.1)">
       <use xlink:href="#DejaVuSans-70"/>
       <use xlink:href="#DejaVuSans-31" x="63.476562"/>
       <use xlink:href="#DejaVuSans-33" x="127.099609"/>
      </g>
     </g>
    </g>
    <g id="xtick_14">
     <g id="line2d_14">
      <g>
       <use xlink:href="#mea0818e986" x="734.076035" y="685.166478" style="stroke: #000000; stroke-width: 0.8"/>
      </g>
     </g>
     <g id="text_14">
      <!-- p14 -->
      <g transform="translate(728.221321 694.765297) rotate(-290) scale(0.1 -0.1)">
       <use xlink:href="#DejaVuSans-70"/>
       <use xlink:href="#DejaVuSans-31" x="63.476562"/>
       <use xlink:href="#DejaVuSans-34" x="127.099609"/>
      </g>
     </g>
    </g>
    <g id="xtick_15">
     <g id="line2d_15">
      <g>
       <use xlink:href="#mea0818e986" x="781.888159" y="685.166478" style="stroke: #000000; stroke-width: 0.8"/>
      </g>
     </g>
     <g id="text_15">
      <!-- p15 -->
      <g transform="translate(776.033445 694.765297) rotate(-290) scale(0.1 -0.1)">
       <use xlink:href="#DejaVuSans-70"/>
       <use xlink:href="#DejaVuSans-31" x="63.476562"/>
       <use xlink:href="#DejaVuSans-35" x="127.099609"/>
      </g>
     </g>
    </g>
    <g id="xtick_16">
     <g id="line2d_16">
      <g>
       <use xlink:href="#mea0818e986" x="829.700283" y="685.166478" style="stroke: #000000; stroke-width: 0.8"/>
      </g>
     </g>
     <g id="text_16">
      <!-- p16 -->
      <g transform="translate(823.845568 694.765297) rotate(-290) scale(0.1 -0.1)">
       <use xlink:href="#DejaVuSans-70"/>
       <use xlink:href="#DejaVuSans-31" x="63.476562"/>
       <use xlink:href="#DejaVuSans-36" x="127.099609"/>
      </g>
     </g>
    </g>
    <g id="xtick_17">
     <g id="line2d_17">
      <g>
       <use xlink:href="#mea0818e986" x="877.512406" y="685.166478" style="stroke: #000000; stroke-width: 0.8"/>
      </g>
     </g>
     <g id="text_17">
      <!-- p17 -->
      <g transform="translate(871.657692 694.765297) rotate(-290) scale(0.1 -0.1)">
       <use xlink:href="#DejaVuSans-70"/>
       <use xlink:href="#DejaVuSans-31" x="63.476562"/>
       <use xlink:href="#DejaVuSans-37" x="127.099609"/>
      </g>
     </g>
    </g>
    <g id="xtick_18">
     <g id="line2d_18">
      <g>
       <use xlink:href="#mea0818e986" x="925.32453" y="685.166478" style="stroke: #000000; stroke-width: 0.8"/>
      </g>
     </g>
     <g id="text_18">
      <!-- p18 -->
      <g transform="translate(919.469816 694.765297) rotate(-290) scale(0.1 -0.1)">
       <use xlink:href="#DejaVuSans-70"/>
       <use xlink:href="#DejaVuSans-31" x="63.476562"/>
       <use xlink:href="#DejaVuSans-38" x="127.099609"/>
      </g>
     </g>
    </g>
    <g id="xtick_19">
     <g id="line2d_19">
      <g>
       <use xlink:href="#mea0818e986" x="973.136653" y="685.166478" style="stroke: #000000; stroke-width: 0.8"/>
      </g>
     </g>
     <g id="text_19">
      <!-- p19 -->
      <g transform="translate(967.281939 694.765297) rotate(-290) scale(0.1 -0.1)">
       <use xlink:href="#DejaVuSans-70"/>
       <use xlink:href="#DejaVuSans-31" x="63.476562"/>
       <use xlink:href="#DejaVuSans-39" x="127.099609"/>
      </g>
     </g>
    </g>
    <g id="xtick_20">
     <g id="line2d_20">
      <g>
       <use xlink:href="#mea0818e986" x="1020.948777" y="685.166478" style="stroke: #000000; stroke-width: 0.8"/>
      </g>
     </g>
     <g id="text_20">
      <!-- p20 -->
      <g transform="translate(1015.094063 694.765297) rotate(-290) scale(0.1 -0.1)">
       <use xlink:href="#DejaVuSans-70"/>
       <use xlink:href="#DejaVuSans-32" x="63.476562"/>
       <use xlink:href="#DejaVuSans-30" x="127.099609"/>
      </g>
     </g>
    </g>
    <g id="xtick_21">
     <g id="line2d_21">
      <g>
       <use xlink:href="#mea0818e986" x="1068.7609" y="685.166478" style="stroke: #000000; stroke-width: 0.8"/>
      </g>
     </g>
     <g id="text_21">
      <!-- p21 -->
      <g transform="translate(1062.906186 694.765297) rotate(-290) scale(0.1 -0.1)">
       <use xlink:href="#DejaVuSans-70"/>
       <use xlink:href="#DejaVuSans-32" x="63.476562"/>
       <use xlink:href="#DejaVuSans-31" x="127.099609"/>
      </g>
     </g>
    </g>
    <g id="xtick_22">
     <g id="line2d_22">
      <g>
       <use xlink:href="#mea0818e986" x="1116.573024" y="685.166478" style="stroke: #000000; stroke-width: 0.8"/>
      </g>
     </g>
     <g id="text_22">
      <!-- p22 -->
      <g transform="translate(1110.71831 694.765297) rotate(-290) scale(0.1 -0.1)">
       <use xlink:href="#DejaVuSans-70"/>
       <use xlink:href="#DejaVuSans-32" x="63.476562"/>
       <use xlink:href="#DejaVuSans-32" x="127.099609"/>
      </g>
     </g>
    </g>
    <g id="xtick_23">
     <g id="line2d_23">
      <g>
       <use xlink:href="#mea0818e986" x="1164.385148" y="685.166478" style="stroke: #000000; stroke-width: 0.8"/>
      </g>
     </g>
     <g id="text_23">
      <!-- p23 -->
      <g transform="translate(1158.530433 694.765297) rotate(-290) scale(0.1 -0.1)">
       <use xlink:href="#DejaVuSans-70"/>
       <use xlink:href="#DejaVuSans-32" x="63.476562"/>
       <use xlink:href="#DejaVuSans-33" x="127.099609"/>
      </g>
     </g>
    </g>
    <g id="xtick_24">
     <g id="line2d_24">
      <g>
       <use xlink:href="#mea0818e986" x="1212.197271" y="685.166478" style="stroke: #000000; stroke-width: 0.8"/>
      </g>
     </g>
     <g id="text_24">
      <!-- p24 -->
      <g transform="translate(1206.342557 694.765297) rotate(-290) scale(0.1 -0.1)">
       <use xlink:href="#DejaVuSans-70"/>
       <use xlink:href="#DejaVuSans-32" x="63.476562"/>
       <use xlink:href="#DejaVuSans-34" x="127.099609"/>
      </g>
     </g>
    </g>
   </g>
   <g id="matplotlib.axis_2">
    <g id="ytick_1">
     <g id="line2d_25">
      <defs>
       <path id="md50e81ad89" d="M 0 0 
L -3.5 0 
" style="stroke: #000000; stroke-width: 0.8"/>
      </defs>
      <g>
       <use xlink:href="#md50e81ad89" x="41.278365" y="590.973963" style="stroke: #000000; stroke-width: 0.8"/>
      </g>
     </g>
     <g id="text_25">
      <!-- $\mathdefault{10^{0}}$ -->
      <g transform="translate(16.678365 594.773181) scale(0.1 -0.1)">
       <use xlink:href="#DejaVuSans-31" transform="translate(0 0.765625)"/>
       <use xlink:href="#DejaVuSans-30" transform="translate(63.623047 0.765625)"/>
       <use xlink:href="#DejaVuSans-30" transform="translate(128.203125 39.046875) scale(0.7)"/>
      </g>
     </g>
    </g>
    <g id="ytick_2">
     <g id="line2d_26">
      <g>
       <use xlink:href="#md50e81ad89" x="41.278365" y="440.40065" style="stroke: #000000; stroke-width: 0.8"/>
      </g>
     </g>
     <g id="text_26">
      <!-- $\mathdefault{10^{1}}$ -->
      <g transform="translate(16.678365 444.199869) scale(0.1 -0.1)">
       <use xlink:href="#DejaVuSans-31" transform="translate(0 0.684375)"/>
       <use xlink:href="#DejaVuSans-30" transform="translate(63.623047 0.684375)"/>
       <use xlink:href="#DejaVuSans-31" transform="translate(128.203125 38.965625) scale(0.7)"/>
      </g>
     </g>
    </g>
    <g id="ytick_3">
     <g id="line2d_27">
      <g>
       <use xlink:href="#md50e81ad89" x="41.278365" y="289.827338" style="stroke: #000000; stroke-width: 0.8"/>
      </g>
     </g>
     <g id="text_27">
      <!-- $\mathdefault{10^{2}}$ -->
      <g transform="translate(16.678365 293.626556) scale(0.1 -0.1)">
       <use xlink:href="#DejaVuSans-31" transform="translate(0 0.765625)"/>
       <use xlink:href="#DejaVuSans-30" transform="translate(63.623047 0.765625)"/>
       <use xlink:href="#DejaVuSans-32" transform="translate(128.203125 39.046875) scale(0.7)"/>
      </g>
     </g>
    </g>
    <g id="ytick_4">
     <g id="line2d_28">
      <g>
       <use xlink:href="#md50e81ad89" x="41.278365" y="139.254025" style="stroke: #000000; stroke-width: 0.8"/>
      </g>
     </g>
     <g id="text_28">
      <!-- $\mathdefault{10^{3}}$ -->
      <g transform="translate(16.678365 143.053244) scale(0.1 -0.1)">
       <use xlink:href="#DejaVuSans-31" transform="translate(0 0.765625)"/>
       <use xlink:href="#DejaVuSans-30" transform="translate(63.623047 0.765625)"/>
       <use xlink:href="#DejaVuSans-33" transform="translate(128.203125 39.046875) scale(0.7)"/>
      </g>
     </g>
    </g>
    <g id="ytick_5">
     <g id="line2d_29">
      <defs>
       <path id="mb7113ca5e3" d="M 0 0 
L -2 0 
" style="stroke: #000000; stroke-width: 0.6"/>
      </defs>
      <g>
       <use xlink:href="#mb7113ca5e3" x="41.278365" y="669.705547" style="stroke: #000000; stroke-width: 0.6"/>
      </g>
     </g>
    </g>
    <g id="ytick_6">
     <g id="line2d_30">
      <g>
       <use xlink:href="#mb7113ca5e3" x="41.278365" y="650.893108" style="stroke: #000000; stroke-width: 0.6"/>
      </g>
     </g>
    </g>
    <g id="ytick_7">
     <g id="line2d_31">
      <g>
       <use xlink:href="#mb7113ca5e3" x="41.278365" y="636.301046" style="stroke: #000000; stroke-width: 0.6"/>
      </g>
     </g>
    </g>
    <g id="ytick_8">
     <g id="line2d_32">
      <g>
       <use xlink:href="#mb7113ca5e3" x="41.278365" y="624.378464" style="stroke: #000000; stroke-width: 0.6"/>
      </g>
     </g>
    </g>
    <g id="ytick_9">
     <g id="line2d_33">
      <g>
       <use xlink:href="#mb7113ca5e3" x="41.278365" y="614.298064" style="stroke: #000000; stroke-width: 0.6"/>
      </g>
     </g>
    </g>
    <g id="ytick_10">
     <g id="line2d_34">
      <g>
       <use xlink:href="#mb7113ca5e3" x="41.278365" y="605.566024" style="stroke: #000000; stroke-width: 0.6"/>
      </g>
     </g>
    </g>
    <g id="ytick_11">
     <g id="line2d_35">
      <g>
       <use xlink:href="#mb7113ca5e3" x="41.278365" y="597.863819" style="stroke: #000000; stroke-width: 0.6"/>
      </g>
     </g>
    </g>
    <g id="ytick_12">
     <g id="line2d_36">
      <g>
       <use xlink:href="#mb7113ca5e3" x="41.278365" y="545.646879" style="stroke: #000000; stroke-width: 0.6"/>
      </g>
     </g>
    </g>
    <g id="ytick_13">
     <g id="line2d_37">
      <g>
       <use xlink:href="#mb7113ca5e3" x="41.278365" y="519.132235" style="stroke: #000000; stroke-width: 0.6"/>
      </g>
     </g>
    </g>
    <g id="ytick_14">
     <g id="line2d_38">
      <g>
       <use xlink:href="#mb7113ca5e3" x="41.278365" y="500.319795" style="stroke: #000000; stroke-width: 0.6"/>
      </g>
     </g>
    </g>
    <g id="ytick_15">
     <g id="line2d_39">
      <g>
       <use xlink:href="#mb7113ca5e3" x="41.278365" y="485.727734" style="stroke: #000000; stroke-width: 0.6"/>
      </g>
     </g>
    </g>
    <g id="ytick_16">
     <g id="line2d_40">
      <g>
       <use xlink:href="#mb7113ca5e3" x="41.278365" y="473.805151" style="stroke: #000000; stroke-width: 0.6"/>
      </g>
     </g>
    </g>
    <g id="ytick_17">
     <g id="line2d_41">
      <g>
       <use xlink:href="#mb7113ca5e3" x="41.278365" y="463.724751" style="stroke: #000000; stroke-width: 0.6"/>
      </g>
     </g>
    </g>
    <g id="ytick_18">
     <g id="line2d_42">
      <g>
       <use xlink:href="#mb7113ca5e3" x="41.278365" y="454.992712" style="stroke: #000000; stroke-width: 0.6"/>
      </g>
     </g>
    </g>
    <g id="ytick_19">
     <g id="line2d_43">
      <g>
       <use xlink:href="#mb7113ca5e3" x="41.278365" y="447.290507" style="stroke: #000000; stroke-width: 0.6"/>
      </g>
     </g>
    </g>
    <g id="ytick_20">
     <g id="line2d_44">
      <g>
       <use xlink:href="#mb7113ca5e3" x="41.278365" y="395.073566" style="stroke: #000000; stroke-width: 0.6"/>
      </g>
     </g>
    </g>
    <g id="ytick_21">
     <g id="line2d_45">
      <g>
       <use xlink:href="#mb7113ca5e3" x="41.278365" y="368.558922" style="stroke: #000000; stroke-width: 0.6"/>
      </g>
     </g>
    </g>
    <g id="ytick_22">
     <g id="line2d_46">
      <g>
       <use xlink:href="#mb7113ca5e3" x="41.278365" y="349.746483" style="stroke: #000000; stroke-width: 0.6"/>
      </g>
     </g>
    </g>
    <g id="ytick_23">
     <g id="line2d_47">
      <g>
       <use xlink:href="#mb7113ca5e3" x="41.278365" y="335.154421" style="stroke: #000000; stroke-width: 0.6"/>
      </g>
     </g>
    </g>
    <g id="ytick_24">
     <g id="line2d_48">
      <g>
       <use xlink:href="#mb7113ca5e3" x="41.278365" y="323.231839" style="stroke: #000000; stroke-width: 0.6"/>
      </g>
     </g>
    </g>
    <g id="ytick_25">
     <g id="line2d_49">
      <g>
       <use xlink:href="#mb7113ca5e3" x="41.278365" y="313.151439" style="stroke: #000000; stroke-width: 0.6"/>
      </g>
     </g>
    </g>
    <g id="ytick_26">
     <g id="line2d_50">
      <g>
       <use xlink:href="#mb7113ca5e3" x="41.278365" y="304.419399" style="stroke: #000000; stroke-width: 0.6"/>
      </g>
     </g>
    </g>
    <g id="ytick_27">
     <g id="line2d_51">
      <g>
       <use xlink:href="#mb7113ca5e3" x="41.278365" y="296.717195" style="stroke: #000000; stroke-width: 0.6"/>
      </g>
     </g>
    </g>
    <g id="ytick_28">
     <g id="line2d_52">
      <g>
       <use xlink:href="#mb7113ca5e3" x="41.278365" y="244.500254" style="stroke: #000000; stroke-width: 0.6"/>
      </g>
     </g>
    </g>
    <g id="ytick_29">
     <g id="line2d_53">
      <g>
       <use xlink:href="#mb7113ca5e3" x="41.278365" y="217.98561" style="stroke: #000000; stroke-width: 0.6"/>
      </g>
     </g>
    </g>
    <g id="ytick_30">
     <g id="line2d_54">
      <g>
       <use xlink:href="#mb7113ca5e3" x="41.278365" y="199.17317" style="stroke: #000000; stroke-width: 0.6"/>
      </g>
     </g>
    </g>
    <g id="ytick_31">
     <g id="line2d_55">
      <g>
       <use xlink:href="#mb7113ca5e3" x="41.278365" y="184.581109" style="stroke: #000000; stroke-width: 0.6"/>
      </g>
     </g>
    </g>
    <g id="ytick_32">
     <g id="line2d_56">
      <g>
       <use xlink:href="#mb7113ca5e3" x="41.278365" y="172.658526" style="stroke: #000000; stroke-width: 0.6"/>
      </g>
     </g>
    </g>
    <g id="ytick_33">
     <g id="line2d_57">
      <g>
       <use xlink:href="#mb7113ca5e3" x="41.278365" y="162.578126" style="stroke: #000000; stroke-width: 0.6"/>
      </g>
     </g>
    </g>
    <g id="ytick_34">
     <g id="line2d_58">
      <g>
       <use xlink:href="#mb7113ca5e3" x="41.278365" y="153.846087" style="stroke: #000000; stroke-width: 0.6"/>
      </g>
     </g>
    </g>
    <g id="ytick_35">
     <g id="line2d_59">
      <g>
       <use xlink:href="#mb7113ca5e3" x="41.278365" y="146.143882" style="stroke: #000000; stroke-width: 0.6"/>
      </g>
     </g>
    </g>
    <g id="ytick_36">
     <g id="line2d_60">
      <g>
       <use xlink:href="#mb7113ca5e3" x="41.278365" y="93.926942" style="stroke: #000000; stroke-width: 0.6"/>
      </g>
     </g>
    </g>
    <g id="ytick_37">
     <g id="line2d_61">
      <g>
       <use xlink:href="#mb7113ca5e3" x="41.278365" y="67.412297" style="stroke: #000000; stroke-width: 0.6"/>
      </g>
     </g>
    </g>
    <g id="ytick_38">
     <g id="line2d_62">
      <g>
       <use xlink:href="#mb7113ca5e3" x="41.278365" y="48.599858" style="stroke: #000000; stroke-width: 0.6"/>
      </g>
     </g>
    </g>
    <g id="ytick_39">
     <g id="line2d_63">
      <g>
       <use xlink:href="#mb7113ca5e3" x="41.278365" y="34.007796" style="stroke: #000000; stroke-width: 0.6"/>
      </g>
     </g>
    </g>
    <g id="ytick_40">
     <g id="line2d_64">
      <g>
       <use xlink:href="#mb7113ca5e3" x="41.278365" y="22.085214" style="stroke: #000000; stroke-width: 0.6"/>
      </g>
     </g>
    </g>
    <g id="ytick_41">
     <g id="line2d_65">
      <g>
       <use xlink:href="#mb7113ca5e3" x="41.278365" y="12.004814" style="stroke: #000000; stroke-width: 0.6"/>
      </g>
     </g>
    </g>
    <g id="ytick_42">
     <g id="line2d_66">
      <g>
       <use xlink:href="#mb7113ca5e3" x="41.278365" y="3.272774" style="stroke: #000000; stroke-width: 0.6"/>
      </g>
     </g>
    </g>
    <g id="text_29">
     <!-- Time (s) -->
     <g transform="translate(10.598678 364.412265) rotate(-90) scale(0.1 -0.1)">
      <defs>
       <path id="DejaVuSans-54" d="M -19 4666 
L 3928 4666 
L 3928 4134 
L 2272 4134 
L 2272 0 
L 1638 0 
L 1638 4134 
L -19 4134 
L -19 4666 
z
" transform="scale(0.015625)"/>
       <path id="DejaVuSans-69" d="M 603 3500 
L 1178 3500 
L 1178 0 
L 603 0 
L 603 3500 
z
M 603 4863 
L 1178 4863 
L 1178 4134 
L 603 4134 
L 603 4863 
z
" transform="scale(0.015625)"/>
       <path id="DejaVuSans-6d" d="M 3328 2828 
Q 3544 3216 3844 3400 
Q 4144 3584 4550 3584 
Q 5097 3584 5394 3201 
Q 5691 2819 5691 2113 
L 5691 0 
L 5113 0 
L 5113 2094 
Q 5113 2597 4934 2840 
Q 4756 3084 4391 3084 
Q 3944 3084 3684 2787 
Q 3425 2491 3425 1978 
L 3425 0 
L 2847 0 
L 2847 2094 
Q 2847 2600 2669 2842 
Q 2491 3084 2119 3084 
Q 1678 3084 1418 2786 
Q 1159 2488 1159 1978 
L 1159 0 
L 581 0 
L 581 3500 
L 1159 3500 
L 1159 2956 
Q 1356 3278 1631 3431 
Q 1906 3584 2284 3584 
Q 2666 3584 2933 3390 
Q 3200 3197 3328 2828 
z
" transform="scale(0.015625)"/>
       <path id="DejaVuSans-65" d="M 3597 1894 
L 3597 1613 
L 953 1613 
Q 991 1019 1311 708 
Q 1631 397 2203 397 
Q 2534 397 2845 478 
Q 3156 559 3463 722 
L 3463 178 
Q 3153 47 2828 -22 
Q 2503 -91 2169 -91 
Q 1331 -91 842 396 
Q 353 884 353 1716 
Q 353 2575 817 3079 
Q 1281 3584 2069 3584 
Q 2775 3584 3186 3129 
Q 3597 2675 3597 1894 
z
M 3022 2063 
Q 3016 2534 2758 2815 
Q 2500 3097 2075 3097 
Q 1594 3097 1305 2825 
Q 1016 2553 972 2059 
L 3022 2063 
z
" transform="scale(0.015625)"/>
       <path id="DejaVuSans-20" transform="scale(0.015625)"/>
       <path id="DejaVuSans-28" d="M 1984 4856 
Q 1566 4138 1362 3434 
Q 1159 2731 1159 2009 
Q 1159 1288 1364 580 
Q 1569 -128 1984 -844 
L 1484 -844 
Q 1016 -109 783 600 
Q 550 1309 550 2009 
Q 550 2706 781 3412 
Q 1013 4119 1484 4856 
L 1984 4856 
z
" transform="scale(0.015625)"/>
       <path id="DejaVuSans-73" d="M 2834 3397 
L 2834 2853 
Q 2591 2978 2328 3040 
Q 2066 3103 1784 3103 
Q 1356 3103 1142 2972 
Q 928 2841 928 2578 
Q 928 2378 1081 2264 
Q 1234 2150 1697 2047 
L 1894 2003 
Q 2506 1872 2764 1633 
Q 3022 1394 3022 966 
Q 3022 478 2636 193 
Q 2250 -91 1575 -91 
Q 1294 -91 989 -36 
Q 684 19 347 128 
L 347 722 
Q 666 556 975 473 
Q 1284 391 1588 391 
Q 1994 391 2212 530 
Q 2431 669 2431 922 
Q 2431 1156 2273 1281 
Q 2116 1406 1581 1522 
L 1381 1569 
Q 847 1681 609 1914 
Q 372 2147 372 2553 
Q 372 3047 722 3315 
Q 1072 3584 1716 3584 
Q 2034 3584 2315 3537 
Q 2597 3491 2834 3397 
z
" transform="scale(0.015625)"/>
       <path id="DejaVuSans-29" d="M 513 4856 
L 1013 4856 
Q 1481 4119 1714 3412 
Q 1947 2706 1947 2009 
Q 1947 1309 1714 600 
Q 1481 -109 1013 -844 
L 513 -844 
Q 928 -128 1133 580 
Q 1338 1288 1338 2009 
Q 1338 2731 1133 3434 
Q 928 4138 513 4856 
z
" transform="scale(0.015625)"/>
      </defs>
      <use xlink:href="#DejaVuSans-54"/>
      <use xlink:href="#DejaVuSans-69" x="57.958984"/>
      <use xlink:href="#DejaVuSans-6d" x="85.742188"/>
      <use xlink:href="#DejaVuSans-65" x="183.154297"/>
      <use xlink:href="#DejaVuSans-20" x="244.677734"/>
      <use xlink:href="#DejaVuSans-28" x="276.464844"/>
      <use xlink:href="#DejaVuSans-73" x="315.478516"/>
      <use xlink:href="#DejaVuSans-29" x="367.578125"/>
     </g>
    </g>
   </g>
   <g id="patch_99">
    <path d="M 41.278365 685.166478 
L 41.278365 3.00024 
" style="fill: none; stroke: #000000; stroke-width: 0.8; stroke-linejoin: miter; stroke-linecap: square"/>
   </g>
   <g id="patch_100">
    <path d="M 1292.99976 685.166478 
L 1292.99976 3.00024 
" style="fill: none; stroke: #000000; stroke-width: 0.8; stroke-linejoin: miter; stroke-linecap: square"/>
   </g>
   <g id="patch_101">
    <path d="M 41.278365 685.166478 
L 1292.99976 685.166478 
" style="fill: none; stroke: #000000; stroke-width: 0.8; stroke-linejoin: miter; stroke-linecap: square"/>
   </g>
   <g id="patch_102">
    <path d="M 41.278365 3.00024 
L 1292.99976 3.00024 
" style="fill: none; stroke: #000000; stroke-width: 0.8; stroke-linejoin: miter; stroke-linecap: square"/>
   </g>
   <g id="legend_1">
    <g id="patch_103">
     <path d="M 48.278365 40.91274 
L 498.815865 40.91274 
Q 500.815865 40.91274 500.815865 38.91274 
L 500.815865 10.00024 
Q 500.815865 8.00024 498.815865 8.00024 
L 48.278365 8.00024 
Q 46.278365 8.00024 46.278365 10.00024 
L 46.278365 38.91274 
Q 46.278365 40.91274 48.278365 40.91274 
z
" style="fill: #ffffff; opacity: 0.8; stroke: #cccccc; stroke-linejoin: miter"/>
    </g>
    <g id="patch_104">
     <path d="M 50.278365 19.598678 
L 70.278365 19.598678 
L 70.278365 12.598678 
L 50.278365 12.598678 
z
" style="fill: #1f77b4"/>
    </g>
    <g id="text_30">
     <!-- solve_external_yices -->
     <g transform="translate(78.278365 19.598678) scale(0.1 -0.1)">
      <defs>
       <path id="DejaVuSans-6f" d="M 1959 3097 
Q 1497 3097 1228 2736 
Q 959 2375 959 1747 
Q 959 1119 1226 758 
Q 1494 397 1959 397 
Q 2419 397 2687 759 
Q 2956 1122 2956 1747 
Q 2956 2369 2687 2733 
Q 2419 3097 1959 3097 
z
M 1959 3584 
Q 2709 3584 3137 3096 
Q 3566 2609 3566 1747 
Q 3566 888 3137 398 
Q 2709 -91 1959 -91 
Q 1206 -91 779 398 
Q 353 888 353 1747 
Q 353 2609 779 3096 
Q 1206 3584 1959 3584 
z
" transform="scale(0.015625)"/>
       <path id="DejaVuSans-6c" d="M 603 4863 
L 1178 4863 
L 1178 0 
L 603 0 
L 603 4863 
z
" transform="scale(0.015625)"/>
       <path id="DejaVuSans-76" d="M 191 3500 
L 800 3500 
L 1894 563 
L 2988 3500 
L 3597 3500 
L 2284 0 
L 1503 0 
L 191 3500 
z
" transform="scale(0.015625)"/>
       <path id="DejaVuSans-5f" d="M 3263 -1063 
L 3263 -1509 
L -63 -1509 
L -63 -1063 
L 3263 -1063 
z
" transform="scale(0.015625)"/>
       <path id="DejaVuSans-78" d="M 3513 3500 
L 2247 1797 
L 3578 0 
L 2900 0 
L 1881 1375 
L 863 0 
L 184 0 
L 1544 1831 
L 300 3500 
L 978 3500 
L 1906 2253 
L 2834 3500 
L 3513 3500 
z
" transform="scale(0.015625)"/>
       <path id="DejaVuSans-74" d="M 1172 4494 
L 1172 3500 
L 2356 3500 
L 2356 3053 
L 1172 3053 
L 1172 1153 
Q 1172 725 1289 603 
Q 1406 481 1766 481 
L 2356 481 
L 2356 0 
L 1766 0 
Q 1100 0 847 248 
Q 594 497 594 1153 
L 594 3053 
L 172 3053 
L 172 3500 
L 594 3500 
L 594 4494 
L 1172 4494 
z
" transform="scale(0.015625)"/>
       <path id="DejaVuSans-72" d="M 2631 2963 
Q 2534 3019 2420 3045 
Q 2306 3072 2169 3072 
Q 1681 3072 1420 2755 
Q 1159 2438 1159 1844 
L 1159 0 
L 581 0 
L 581 3500 
L 1159 3500 
L 1159 2956 
Q 1341 3275 1631 3429 
Q 1922 3584 2338 3584 
Q 2397 3584 2469 3576 
Q 2541 3569 2628 3553 
L 2631 2963 
z
" transform="scale(0.015625)"/>
       <path id="DejaVuSans-6e" d="M 3513 2113 
L 3513 0 
L 2938 0 
L 2938 2094 
Q 2938 2591 2744 2837 
Q 2550 3084 2163 3084 
Q 1697 3084 1428 2787 
Q 1159 2491 1159 1978 
L 1159 0 
L 581 0 
L 581 3500 
L 1159 3500 
L 1159 2956 
Q 1366 3272 1645 3428 
Q 1925 3584 2291 3584 
Q 2894 3584 3203 3211 
Q 3513 2838 3513 2113 
z
" transform="scale(0.015625)"/>
       <path id="DejaVuSans-61" d="M 2194 1759 
Q 1497 1759 1228 1600 
Q 959 1441 959 1056 
Q 959 750 1161 570 
Q 1363 391 1709 391 
Q 2188 391 2477 730 
Q 2766 1069 2766 1631 
L 2766 1759 
L 2194 1759 
z
M 3341 1997 
L 3341 0 
L 2766 0 
L 2766 531 
Q 2569 213 2275 61 
Q 1981 -91 1556 -91 
Q 1019 -91 701 211 
Q 384 513 384 1019 
Q 384 1609 779 1909 
Q 1175 2209 1959 2209 
L 2766 2209 
L 2766 2266 
Q 2766 2663 2505 2880 
Q 2244 3097 1772 3097 
Q 1472 3097 1187 3025 
Q 903 2953 641 2809 
L 641 3341 
Q 956 3463 1253 3523 
Q 1550 3584 1831 3584 
Q 2591 3584 2966 3190 
Q 3341 2797 3341 1997 
z
" transform="scale(0.015625)"/>
       <path id="DejaVuSans-79" d="M 2059 -325 
Q 1816 -950 1584 -1140 
Q 1353 -1331 966 -1331 
L 506 -1331 
L 506 -850 
L 844 -850 
Q 1081 -850 1212 -737 
Q 1344 -625 1503 -206 
L 1606 56 
L 191 3500 
L 800 3500 
L 1894 763 
L 2988 3500 
L 3597 3500 
L 2059 -325 
z
" transform="scale(0.015625)"/>
       <path id="DejaVuSans-63" d="M 3122 3366 
L 3122 2828 
Q 2878 2963 2633 3030 
Q 2388 3097 2138 3097 
Q 1578 3097 1268 2742 
Q 959 2388 959 1747 
Q 959 1106 1268 751 
Q 1578 397 2138 397 
Q 2388 397 2633 464 
Q 2878 531 3122 666 
L 3122 134 
Q 2881 22 2623 -34 
Q 2366 -91 2075 -91 
Q 1284 -91 818 406 
Q 353 903 353 1747 
Q 353 2603 823 3093 
Q 1294 3584 2113 3584 
Q 2378 3584 2631 3529 
Q 2884 3475 3122 3366 
z
" transform="scale(0.015625)"/>
      </defs>
      <use xlink:href="#DejaVuSans-73"/>
      <use xlink:href="#DejaVuSans-6f" x="52.099609"/>
      <use xlink:href="#DejaVuSans-6c" x="113.28125"/>
      <use xlink:href="#DejaVuSans-76" x="141.064453"/>
      <use xlink:href="#DejaVuSans-65" x="200.244141"/>
      <use xlink:href="#DejaVuSans-5f" x="261.767578"/>
      <use xlink:href="#DejaVuSans-65" x="311.767578"/>
      <use xlink:href="#DejaVuSans-78" x="371.541016"/>
      <use xlink:href="#DejaVuSans-74" x="430.720703"/>
      <use xlink:href="#DejaVuSans-65" x="469.929688"/>
      <use xlink:href="#DejaVuSans-72" x="531.453125"/>
      <use xlink:href="#DejaVuSans-6e" x="570.816406"/>
      <use xlink:href="#DejaVuSans-61" x="634.195312"/>
      <use xlink:href="#DejaVuSans-6c" x="695.474609"/>
      <use xlink:href="#DejaVuSans-5f" x="723.257812"/>
      <use xlink:href="#DejaVuSans-79" x="773.257812"/>
      <use xlink:href="#DejaVuSans-69" x="832.4375"/>
      <use xlink:href="#DejaVuSans-63" x="860.220703"/>
      <use xlink:href="#DejaVuSans-65" x="915.201172"/>
      <use xlink:href="#DejaVuSans-73" x="976.724609"/>
     </g>
    </g>
    <g id="patch_105">
     <path d="M 50.278365 34.554928 
L 70.278365 34.554928 
L 70.278365 27.554928 
L 50.278365 27.554928 
z
" style="fill: #ff7f0e"/>
    </g>
    <g id="text_31">
     <!-- solve_z3 -->
     <g transform="translate(78.278365 34.554928) scale(0.1 -0.1)">
      <defs>
       <path id="DejaVuSans-7a" d="M 353 3500 
L 3084 3500 
L 3084 2975 
L 922 459 
L 3084 459 
L 3084 0 
L 275 0 
L 275 525 
L 2438 3041 
L 353 3041 
L 353 3500 
z
" transform="scale(0.015625)"/>
      </defs>
      <use xlink:href="#DejaVuSans-73"/>
      <use xlink:href="#DejaVuSans-6f" x="52.099609"/>
      <use xlink:href="#DejaVuSans-6c" x="113.28125"/>
      <use xlink:href="#DejaVuSans-76" x="141.064453"/>
      <use xlink:href="#DejaVuSans-65" x="200.244141"/>
      <use xlink:href="#DejaVuSans-5f" x="261.767578"/>
      <use xlink:href="#DejaVuSans-7a" x="311.767578"/>
      <use xlink:href="#DejaVuSans-33" x="364.257812"/>
     </g>
    </g>
    <g id="patch_106">
     <path d="M 201.164303 19.598678 
L 221.164303 19.598678 
L 221.164303 12.598678 
L 201.164303 12.598678 
z
" style="fill: #2ca02c"/>
    </g>
    <g id="text_32">
     <!-- solve_external_bitwuzla -->
     <g transform="translate(229.164303 19.598678) scale(0.1 -0.1)">
      <defs>
       <path id="DejaVuSans-62" d="M 3116 1747 
Q 3116 2381 2855 2742 
Q 2594 3103 2138 3103 
Q 1681 3103 1420 2742 
Q 1159 2381 1159 1747 
Q 1159 1113 1420 752 
Q 1681 391 2138 391 
Q 2594 391 2855 752 
Q 3116 1113 3116 1747 
z
M 1159 2969 
Q 1341 3281 1617 3432 
Q 1894 3584 2278 3584 
Q 2916 3584 3314 3078 
Q 3713 2572 3713 1747 
Q 3713 922 3314 415 
Q 2916 -91 2278 -91 
Q 1894 -91 1617 61 
Q 1341 213 1159 525 
L 1159 0 
L 581 0 
L 581 4863 
L 1159 4863 
L 1159 2969 
z
" transform="scale(0.015625)"/>
       <path id="DejaVuSans-77" d="M 269 3500 
L 844 3500 
L 1563 769 
L 2278 3500 
L 2956 3500 
L 3675 769 
L 4391 3500 
L 4966 3500 
L 4050 0 
L 3372 0 
L 2619 2869 
L 1863 0 
L 1184 0 
L 269 3500 
z
" transform="scale(0.015625)"/>
       <path id="DejaVuSans-75" d="M 544 1381 
L 544 3500 
L 1119 3500 
L 1119 1403 
Q 1119 906 1312 657 
Q 1506 409 1894 409 
Q 2359 409 2629 706 
Q 2900 1003 2900 1516 
L 2900 3500 
L 3475 3500 
L 3475 0 
L 2900 0 
L 2900 538 
Q 2691 219 2414 64 
Q 2138 -91 1772 -91 
Q 1169 -91 856 284 
Q 544 659 544 1381 
z
M 1991 3584 
L 1991 3584 
z
" transform="scale(0.015625)"/>
      </defs>
      <use xlink:href="#DejaVuSans-73"/>
      <use xlink:href="#DejaVuSans-6f" x="52.099609"/>
      <use xlink:href="#DejaVuSans-6c" x="113.28125"/>
      <use xlink:href="#DejaVuSans-76" x="141.064453"/>
      <use xlink:href="#DejaVuSans-65" x="200.244141"/>
      <use xlink:href="#DejaVuSans-5f" x="261.767578"/>
      <use xlink:href="#DejaVuSans-65" x="311.767578"/>
      <use xlink:href="#DejaVuSans-78" x="371.541016"/>
      <use xlink:href="#DejaVuSans-74" x="430.720703"/>
      <use xlink:href="#DejaVuSans-65" x="469.929688"/>
      <use xlink:href="#DejaVuSans-72" x="531.453125"/>
      <use xlink:href="#DejaVuSans-6e" x="570.816406"/>
      <use xlink:href="#DejaVuSans-61" x="634.195312"/>
      <use xlink:href="#DejaVuSans-6c" x="695.474609"/>
      <use xlink:href="#DejaVuSans-5f" x="723.257812"/>
      <use xlink:href="#DejaVuSans-62" x="773.257812"/>
      <use xlink:href="#DejaVuSans-69" x="836.734375"/>
      <use xlink:href="#DejaVuSans-74" x="864.517578"/>
      <use xlink:href="#DejaVuSans-77" x="903.726562"/>
      <use xlink:href="#DejaVuSans-75" x="985.513672"/>
      <use xlink:href="#DejaVuSans-7a" x="1048.892578"/>
      <use xlink:href="#DejaVuSans-6c" x="1101.382812"/>
      <use xlink:href="#DejaVuSans-61" x="1129.166016"/>
     </g>
    </g>
    <g id="patch_107">
     <path d="M 368.209615 19.598678 
L 388.209615 19.598678 
L 388.209615 12.598678 
L 368.209615 12.598678 
z
" style="fill: #d62728"/>
    </g>
    <g id="text_33">
     <!-- solve_external_cvc5 -->
     <g transform="translate(396.209615 19.598678) scale(0.1 -0.1)">
      <use xlink:href="#DejaVuSans-73"/>
      <use xlink:href="#DejaVuSans-6f" x="52.099609"/>
      <use xlink:href="#DejaVuSans-6c" x="113.28125"/>
      <use xlink:href="#DejaVuSans-76" x="141.064453"/>
      <use xlink:href="#DejaVuSans-65" x="200.244141"/>
      <use xlink:href="#DejaVuSans-5f" x="261.767578"/>
      <use xlink:href="#DejaVuSans-65" x="311.767578"/>
      <use xlink:href="#DejaVuSans-78" x="371.541016"/>
      <use xlink:href="#DejaVuSans-74" x="430.720703"/>
      <use xlink:href="#DejaVuSans-65" x="469.929688"/>
      <use xlink:href="#DejaVuSans-72" x="531.453125"/>
      <use xlink:href="#DejaVuSans-6e" x="570.816406"/>
      <use xlink:href="#DejaVuSans-61" x="634.195312"/>
      <use xlink:href="#DejaVuSans-6c" x="695.474609"/>
      <use xlink:href="#DejaVuSans-5f" x="723.257812"/>
      <use xlink:href="#DejaVuSans-63" x="773.257812"/>
      <use xlink:href="#DejaVuSans-76" x="828.238281"/>
      <use xlink:href="#DejaVuSans-63" x="887.417969"/>
      <use xlink:href="#DejaVuSans-35" x="942.398438"/>
     </g>
    </g>
   </g>
  </g>
 </g>
 <defs>
  <clipPath id="p0e6bc7f7f2">
   <rect x="41.278365" y="3.00024" width="1251.721395" height="682.166238"/>
  </clipPath>
 </defs>
</svg>
