<?xml version="1.0" encoding="utf-8" standalone="no"?>
<!DOCTYPE svg PUBLIC "-//W3C//DTD SVG 1.1//EN"
  "http://www.w3.org/Graphics/SVG/1.1/DTD/svg11.dtd">
<svg xmlns:xlink="http://www.w3.org/1999/xlink" width="1296pt" height="718.56pt" viewBox="0 0 1296 718.56" xmlns="http://www.w3.org/2000/svg" version="1.1">
 <metadata>
  <rdf:RDF xmlns:dc="http://purl.org/dc/elements/1.1/" xmlns:cc="http://creativecommons.org/ns#" xmlns:rdf="http://www.w3.org/1999/02/22-rdf-syntax-ns#">
   <cc:Work>
    <dc:type rdf:resource="http://purl.org/dc/dcmitype/StillImage"/>
    <dc:date>2024-09-01T13:20:14.333268</dc:date>
    <dc:format>image/svg+xml</dc:format>
    <dc:creator>
     <cc:Agent>
      <dc:title>Matplotlib v3.9.1, https://matplotlib.org/</dc:title>
     </cc:Agent>
    </dc:creator>
   </cc:Work>
  </rdf:RDF>
 </metadata>
 <defs>
  <style type="text/css">*{stroke-linejoin: round; stroke-linecap: butt}</style>
 </defs>
 <g id="figure_1">
  <g id="patch_1">
   <path d="M 0 718.56 
L 1296 718.56 
L 1296 0 
L 0 0 
z
" style="fill: #ffffff"/>
  </g>
  <g id="axes_1">
   <g id="patch_2">
    <path d="M 47.178365 670.588516 
L 1292.99976 670.588516 
L 1292.99976 3.00024 
L 47.178365 3.00024 
z
" style="fill: #ffffff"/>
   </g>
   <g id="patch_3">
    <path d="M -1442.21265 272446.878259 
L -1226.883148 272446.878259 
L -1226.883148 72.445613 
L -1442.21265 72.445613 
z
" clip-path="url(#p9e6b9c4e32)" style="fill: #1f77b4"/>
   </g>
   <g id="patch_4">
    <path d="M -580.894644 272446.878259 
L -365.565142 272446.878259 
L -365.565142 -203.023277 
L -580.894644 -203.023277 
z
" clip-path="url(#p9e6b9c4e32)" style="fill: #1f77b4"/>
   </g>
   <g id="patch_5">
    <path d="M 280.423363 272446.878259 
L 495.752864 272446.878259 
L 495.752864 107.89625 
L 280.423363 107.89625 
z
" clip-path="url(#p9e6b9c4e32)" style="fill: #1f77b4"/>
   </g>
   <g id="patch_6">
    <path d="M 1141.741369 272446.878259 
L 1357.070871 272446.878259 
L 1357.070871 46.675528 
L 1141.741369 46.675528 
z
" clip-path="url(#p9e6b9c4e32)" style="fill: #1f77b4"/>
   </g>
   <g id="patch_7">
    <path d="M 2003.059376 272446.878259 
L 2218.388877 272446.878259 
L 2218.388877 -216.363641 
L 2003.059376 -216.363641 
z
" clip-path="url(#p9e6b9c4e32)" style="fill: #1f77b4"/>
   </g>
   <g id="patch_8">
    <path d="M 2864.377382 272446.878259 
L 3079.706884 272446.878259 
L 3079.706884 121.449742 
L 2864.377382 121.449742 
z
" clip-path="url(#p9e6b9c4e32)" style="fill: #1f77b4"/>
   </g>
   <g id="patch_9">
    <path d="M 3725.695389 272446.878259 
L 3941.02489 272446.878259 
L 3941.02489 63.686992 
L 3725.695389 63.686992 
z
" clip-path="url(#p9e6b9c4e32)" style="fill: #1f77b4"/>
   </g>
   <g id="patch_10">
    <path d="M 4587.013395 272446.878259 
L 4802.342897 272446.878259 
L 4802.342897 -183.985088 
L 4587.013395 -183.985088 
z
" clip-path="url(#p9e6b9c4e32)" style="fill: #1f77b4"/>
   </g>
   <g id="patch_11">
    <path d="M 5448.331402 272446.878259 
L 5663.660903 272446.878259 
L 5663.660903 110.361686 
L 5448.331402 110.361686 
z
" clip-path="url(#p9e6b9c4e32)" style="fill: #1f77b4"/>
   </g>
   <g id="patch_12">
    <path d="M 6309.649408 272446.878259 
L 6524.97891 272446.878259 
L 6524.97891 38.998514 
L 6309.649408 38.998514 
z
" clip-path="url(#p9e6b9c4e32)" style="fill: #1f77b4"/>
   </g>
   <g id="patch_13">
    <path d="M 7170.967415 272446.878259 
L 7386.296916 272446.878259 
L 7386.296916 -214.331847 
L 7170.967415 -214.331847 
z
" clip-path="url(#p9e6b9c4e32)" style="fill: #1f77b4"/>
   </g>
   <g id="patch_14">
    <path d="M 8032.285421 272446.878259 
L 8247.614923 272446.878259 
L 8247.614923 98.419434 
L 8032.285421 98.419434 
z
" clip-path="url(#p9e6b9c4e32)" style="fill: #1f77b4"/>
   </g>
   <g id="patch_15">
    <path d="M 8893.603428 272446.878259 
L 9108.932929 272446.878259 
L 9108.932929 52.389537 
L 8893.603428 52.389537 
z
" clip-path="url(#p9e6b9c4e32)" style="fill: #1f77b4"/>
   </g>
   <g id="patch_16">
    <path d="M 9754.921434 272446.878259 
L 9970.250936 272446.878259 
L 9970.250936 -300.301837 
L 9754.921434 -300.301837 
z
" clip-path="url(#p9e6b9c4e32)" style="fill: #1f77b4"/>
   </g>
   <g id="patch_17">
    <path d="M 10616.239441 272446.878259 
L 10831.568942 272446.878259 
L 10831.568942 122.68558 
L 10616.239441 122.68558 
z
" clip-path="url(#p9e6b9c4e32)" style="fill: #1f77b4"/>
   </g>
   <g id="patch_18">
    <path d="M 11477.557447 272446.878259 
L 11692.886949 272446.878259 
L 11692.886949 70.307049 
L 11477.557447 70.307049 
z
" clip-path="url(#p9e6b9c4e32)" style="fill: #1f77b4"/>
   </g>
   <g id="patch_19">
    <path d="M 12338.875453 272446.878259 
L 12554.204955 272446.878259 
L 12554.204955 -155.510532 
L 12338.875453 -155.510532 
z
" clip-path="url(#p9e6b9c4e32)" style="fill: #1f77b4"/>
   </g>
   <g id="patch_20">
    <path d="M 13200.19346 272446.878259 
L 13415.522962 272446.878259 
L 13415.522962 76.347611 
L 13200.19346 76.347611 
z
" clip-path="url(#p9e6b9c4e32)" style="fill: #1f77b4"/>
   </g>
   <g id="patch_21">
    <path d="M 14061.511466 272446.878259 
L 14276.840968 272446.878259 
L 14276.840968 -4.396768 
L 14061.511466 -4.396768 
z
" clip-path="url(#p9e6b9c4e32)" style="fill: #1f77b4"/>
   </g>
   <g id="patch_22">
    <path d="M 14922.829473 272446.878259 
L 15138.158975 272446.878259 
L 15138.158975 -404.832694 
L 14922.829473 -404.832694 
z
" clip-path="url(#p9e6b9c4e32)" style="fill: #1f77b4"/>
   </g>
   <g id="patch_23">
    <path d="M 15784.147479 272446.878259 
L 15999.476981 272446.878259 
L 15999.476981 33.867726 
L 15784.147479 33.867726 
z
" clip-path="url(#p9e6b9c4e32)" style="fill: #1f77b4"/>
   </g>
   <g id="patch_24">
    <path d="M 16645.465486 272446.878259 
L 16860.794987 272446.878259 
L 16860.794987 -38.805209 
L 16645.465486 -38.805209 
z
" clip-path="url(#p9e6b9c4e32)" style="fill: #1f77b4"/>
   </g>
   <g id="patch_25">
    <path d="M 17506.783492 272446.878259 
L 17722.112994 272446.878259 
L 17722.112994 -293.693311 
L 17506.783492 -293.693311 
z
" clip-path="url(#p9e6b9c4e32)" style="fill: #1f77b4"/>
   </g>
   <g id="patch_26">
    <path d="M 18368.101499 272446.878259 
L 18583.431 272446.878259 
L 18583.431 46.712029 
L 18368.101499 46.712029 
z
" clip-path="url(#p9e6b9c4e32)" style="fill: #1f77b4"/>
   </g>
   <g id="patch_27">
    <path d="M 19229.419505 272446.878259 
L 19444.749007 272446.878259 
L 19444.749007 -41.540628 
L 19229.419505 -41.540628 
z
" clip-path="url(#p9e6b9c4e32)" style="fill: #1f77b4"/>
   </g>
   <g id="patch_28">
    <path d="M 20090.737512 272446.878259 
L 20306.067013 272446.878259 
L 20306.067013 -335.548886 
L 20090.737512 -335.548886 
z
" clip-path="url(#p9e6b9c4e32)" style="fill: #1f77b4"/>
   </g>
   <g id="patch_29">
    <path d="M 20952.055518 272446.878259 
L 21167.38502 272446.878259 
L 21167.38502 -71.832326 
L 20952.055518 -71.832326 
z
" clip-path="url(#p9e6b9c4e32)" style="fill: #1f77b4"/>
   </g>
   <g id="patch_30">
    <path d="M 21813.373525 272446.878259 
L 22028.703026 272446.878259 
L 22028.703026 -16.197633 
L 21813.373525 -16.197633 
z
" clip-path="url(#p9e6b9c4e32)" style="fill: #1f77b4"/>
   </g>
   <g id="patch_31">
    <path d="M 22674.691531 272446.878259 
L 22890.021033 272446.878259 
L 22890.021033 -197.739596 
L 22674.691531 -197.739596 
z
" clip-path="url(#p9e6b9c4e32)" style="fill: #1f77b4"/>
   </g>
   <g id="patch_32">
    <path d="M 23536.009538 272446.878259 
L 23751.339039 272446.878259 
L 23751.339039 -514.579916 
L 23536.009538 -514.579916 
z
" clip-path="url(#p9e6b9c4e32)" style="fill: #1f77b4"/>
   </g>
   <g id="patch_33">
    <path d="M 24397.327544 272446.878259 
L 24612.657046 272446.878259 
L 24612.657046 -289.986193 
L 24397.327544 -289.986193 
z
" clip-path="url(#p9e6b9c4e32)" style="fill: #1f77b4"/>
   </g>
   <g id="patch_34">
    <path d="M 25258.645551 272446.878259 
L 25473.975052 272446.878259 
L 25473.975052 -878.455353 
L 25258.645551 -878.455353 
z
" clip-path="url(#p9e6b9c4e32)" style="fill: #1f77b4"/>
   </g>
   <g id="patch_35">
    <path d="M 26119.963557 272446.878259 
L 26335.293059 272446.878259 
L 26335.293059 -74.819637 
L 26119.963557 -74.819637 
z
" clip-path="url(#p9e6b9c4e32)" style="fill: #1f77b4"/>
   </g>
   <g id="patch_36">
    <path d="M 26981.281564 272446.878259 
L 27196.611065 272446.878259 
L 27196.611065 -236.29012 
L 26981.281564 -236.29012 
z
" clip-path="url(#p9e6b9c4e32)" style="fill: #1f77b4"/>
   </g>
   <g id="patch_37">
    <path d="M 27842.59957 272446.878259 
L 28057.929072 272446.878259 
L 28057.929072 -778.834211 
L 27842.59957 -778.834211 
z
" clip-path="url(#p9e6b9c4e32)" style="fill: #1f77b4"/>
   </g>
   <g id="patch_38">
    <path d="M 28703.917576 272446.878259 
L 28919.247078 272446.878259 
L 28919.247078 -58.937555 
L 28703.917576 -58.937555 
z
" clip-path="url(#p9e6b9c4e32)" style="fill: #1f77b4"/>
   </g>
   <g id="patch_39">
    <path d="M 29565.235583 272446.878259 
L 29780.565085 272446.878259 
L 29780.565085 -131.780489 
L 29565.235583 -131.780489 
z
" clip-path="url(#p9e6b9c4e32)" style="fill: #1f77b4"/>
   </g>
   <g id="patch_40">
    <path d="M 30426.553589 272446.878259 
L 30641.883091 272446.878259 
L 30641.883091 -792.919326 
L 30426.553589 -792.919326 
z
" clip-path="url(#p9e6b9c4e32)" style="fill: #1f77b4"/>
   </g>
   <g id="patch_41">
    <path d="M 31287.871596 272446.878259 
L 31503.201098 272446.878259 
L 31503.201098 -435.619546 
L 31287.871596 -435.619546 
z
" clip-path="url(#p9e6b9c4e32)" style="fill: #1f77b4"/>
   </g>
   <g id="patch_42">
    <path d="M 32149.189602 272446.878259 
L 32364.519104 272446.878259 
L 32364.519104 -695.16789 
L 32149.189602 -695.16789 
z
" clip-path="url(#p9e6b9c4e32)" style="fill: #1f77b4"/>
   </g>
   <g id="patch_43">
    <path d="M 33010.507609 272446.878259 
L 33225.83711 272446.878259 
L 33225.83711 -1011.932545 
L 33010.507609 -1011.932545 
z
" clip-path="url(#p9e6b9c4e32)" style="fill: #1f77b4"/>
   </g>
   <g id="patch_44">
    <path d="M 33871.825615 272446.878259 
L 34087.155117 272446.878259 
L 34087.155117 -553.648614 
L 33871.825615 -553.648614 
z
" clip-path="url(#p9e6b9c4e32)" style="fill: #1f77b4"/>
   </g>
   <g id="patch_45">
    <path d="M 34733.143622 272446.878259 
L 34948.473123 272446.878259 
L 34948.473123 -805.584087 
L 34733.143622 -805.584087 
z
" clip-path="url(#p9e6b9c4e32)" style="fill: #1f77b4"/>
   </g>
   <g id="patch_46">
    <path d="M 35594.461628 272446.878259 
L 35809.79113 272446.878259 
L 35809.79113 -1011.932545 
L 35594.461628 -1011.932545 
z
" clip-path="url(#p9e6b9c4e32)" style="fill: #1f77b4"/>
   </g>
   <g id="patch_47">
    <path d="M -1226.883148 272446.878259 
L -1011.553647 272446.878259 
L -1011.553647 -56.978529 
L -1226.883148 -56.978529 
z
" clip-path="url(#p9e6b9c4e32)" style="fill: #ff7f0e"/>
   </g>
   <g id="patch_48">
    <path d="M -365.565142 272446.878259 
L -150.23564 272446.878259 
L -150.23564 -113.428933 
L -365.565142 -113.428933 
z
" clip-path="url(#p9e6b9c4e32)" style="fill: #ff7f0e"/>
   </g>
   <g id="patch_49">
    <path d="M 495.752864 272446.878259 
L 711.082366 272446.878259 
L 711.082366 21.726324 
L 495.752864 21.726324 
z
" clip-path="url(#p9e6b9c4e32)" style="fill: #ff7f0e"/>
   </g>
   <g id="patch_50">
    <path d="M 1357.070871 272446.878259 
L 1572.400373 272446.878259 
L 1572.400373 -9.167675 
L 1357.070871 -9.167675 
z
" clip-path="url(#p9e6b9c4e32)" style="fill: #ff7f0e"/>
   </g>
   <g id="patch_51">
    <path d="M 2218.388877 272446.878259 
L 2433.718379 272446.878259 
L 2433.718379 -69.8687 
L 2218.388877 -69.8687 
z
" clip-path="url(#p9e6b9c4e32)" style="fill: #ff7f0e"/>
   </g>
   <g id="patch_52">
    <path d="M 3079.706884 272446.878259 
L 3295.036386 272446.878259 
L 3295.036386 29.068632 
L 3079.706884 29.068632 
z
" clip-path="url(#p9e6b9c4e32)" style="fill: #ff7f0e"/>
   </g>
   <g id="patch_53">
    <path d="M 3941.02489 272446.878259 
L 4156.354392 272446.878259 
L 4156.354392 -5.371835 
L 3941.02489 -5.371835 
z
" clip-path="url(#p9e6b9c4e32)" style="fill: #ff7f0e"/>
   </g>
   <g id="patch_54">
    <path d="M 4802.342897 272446.878259 
L 5017.672398 272446.878259 
L 5017.672398 -75.435242 
L 4802.342897 -75.435242 
z
" clip-path="url(#p9e6b9c4e32)" style="fill: #ff7f0e"/>
   </g>
   <g id="patch_55">
    <path d="M 5663.660903 272446.878259 
L 5878.990405 272446.878259 
L 5878.990405 24.443315 
L 5663.660903 24.443315 
z
" clip-path="url(#p9e6b9c4e32)" style="fill: #ff7f0e"/>
   </g>
   <g id="patch_56">
    <path d="M 6524.97891 272446.878259 
L 6740.308411 272446.878259 
L 6740.308411 -55.789725 
L 6524.97891 -55.789725 
z
" clip-path="url(#p9e6b9c4e32)" style="fill: #ff7f0e"/>
   </g>
   <g id="patch_57">
    <path d="M 7386.296916 272446.878259 
L 7601.626418 272446.878259 
L 7601.626418 -127.945236 
L 7386.296916 -127.945236 
z
" clip-path="url(#p9e6b9c4e32)" style="fill: #ff7f0e"/>
   </g>
   <g id="patch_58">
    <path d="M 8247.614923 272446.878259 
L 8462.944424 272446.878259 
L 8462.944424 -31.14114 
L 8247.614923 -31.14114 
z
" clip-path="url(#p9e6b9c4e32)" style="fill: #ff7f0e"/>
   </g>
   <g id="patch_59">
    <path d="M 9108.932929 272446.878259 
L 9324.262431 272446.878259 
L 9324.262431 -70.446184 
L 9108.932929 -70.446184 
z
" clip-path="url(#p9e6b9c4e32)" style="fill: #ff7f0e"/>
   </g>
   <g id="patch_60">
    <path d="M 9970.250936 272446.878259 
L 10185.580437 272446.878259 
L 10185.580437 -147.517422 
L 9970.250936 -147.517422 
z
" clip-path="url(#p9e6b9c4e32)" style="fill: #ff7f0e"/>
   </g>
   <g id="patch_61">
    <path d="M 10831.568942 272446.878259 
L 11046.898444 272446.878259 
L 11046.898444 -31.896966 
L 10831.568942 -31.896966 
z
" clip-path="url(#p9e6b9c4e32)" style="fill: #ff7f0e"/>
   </g>
   <g id="patch_62">
    <path d="M 11692.886949 272446.878259 
L 11908.21645 272446.878259 
L 11908.21645 -67.535056 
L 11692.886949 -67.535056 
z
" clip-path="url(#p9e6b9c4e32)" style="fill: #ff7f0e"/>
   </g>
   <g id="patch_63">
    <path d="M 12554.204955 272446.878259 
L 12769.534457 272446.878259 
L 12769.534457 -86.139485 
L 12554.204955 -86.139485 
z
" clip-path="url(#p9e6b9c4e32)" style="fill: #ff7f0e"/>
   </g>
   <g id="patch_64">
    <path d="M 13415.522962 272446.878259 
L 13630.852463 272446.878259 
L 13630.852463 -13.780455 
L 13415.522962 -13.780455 
z
" clip-path="url(#p9e6b9c4e32)" style="fill: #ff7f0e"/>
   </g>
   <g id="patch_65">
    <path d="M 14276.840968 272446.878259 
L 14492.17047 272446.878259 
L 14492.17047 -53.323396 
L 14276.840968 -53.323396 
z
" clip-path="url(#p9e6b9c4e32)" style="fill: #ff7f0e"/>
   </g>
   <g id="patch_66">
    <path d="M 15138.158975 272446.878259 
L 15353.488476 272446.878259 
L 15353.488476 -120.268056 
L 15138.158975 -120.268056 
z
" clip-path="url(#p9e6b9c4e32)" style="fill: #ff7f0e"/>
   </g>
   <g id="patch_67">
    <path d="M 15999.476981 272446.878259 
L 16214.806483 272446.878259 
L 16214.806483 -74.851955 
L 15999.476981 -74.851955 
z
" clip-path="url(#p9e6b9c4e32)" style="fill: #ff7f0e"/>
   </g>
   <g id="patch_68">
    <path d="M 16860.794987 272446.878259 
L 17076.124489 272446.878259 
L 17076.124489 -116.610761 
L 16860.794987 -116.610761 
z
" clip-path="url(#p9e6b9c4e32)" style="fill: #ff7f0e"/>
   </g>
   <g id="patch_69">
    <path d="M 17722.112994 272446.878259 
L 17937.442496 272446.878259 
L 17937.442496 -162.317252 
L 17722.112994 -162.317252 
z
" clip-path="url(#p9e6b9c4e32)" style="fill: #ff7f0e"/>
   </g>
   <g id="patch_70">
    <path d="M 18583.431 272446.878259 
L 18798.760502 272446.878259 
L 18798.760502 -1011.932545 
L 18583.431 -1011.932545 
z
" clip-path="url(#p9e6b9c4e32)" style="fill: #ff7f0e"/>
   </g>
   <g id="patch_71">
    <path d="M 19444.749007 272446.878259 
L 19660.078509 272446.878259 
L 19660.078509 -1011.932545 
L 19444.749007 -1011.932545 
z
" clip-path="url(#p9e6b9c4e32)" style="fill: #ff7f0e"/>
   </g>
   <g id="patch_72">
    <path d="M 20306.067013 272446.878259 
L 20521.396515 272446.878259 
L 20521.396515 -144.605467 
L 20306.067013 -144.605467 
z
" clip-path="url(#p9e6b9c4e32)" style="fill: #ff7f0e"/>
   </g>
   <g id="patch_73">
    <path d="M 21167.38502 272446.878259 
L 21382.714521 272446.878259 
L 21382.714521 -117.957386 
L 21167.38502 -117.957386 
z
" clip-path="url(#p9e6b9c4e32)" style="fill: #ff7f0e"/>
   </g>
   <g id="patch_74">
    <path d="M 22028.703026 272446.878259 
L 22244.032528 272446.878259 
L 22244.032528 -218.391514 
L 22028.703026 -218.391514 
z
" clip-path="url(#p9e6b9c4e32)" style="fill: #ff7f0e"/>
   </g>
   <g id="patch_75">
    <path d="M 22890.021033 272446.878259 
L 23105.350534 272446.878259 
L 23105.350534 -1011.932545 
L 22890.021033 -1011.932545 
z
" clip-path="url(#p9e6b9c4e32)" style="fill: #ff7f0e"/>
   </g>
   <g id="patch_76">
    <path d="M 23751.339039 272446.878259 
L 23966.668541 272446.878259 
L 23966.668541 -601.818334 
L 23751.339039 -601.818334 
z
" clip-path="url(#p9e6b9c4e32)" style="fill: #ff7f0e"/>
   </g>
   <g id="patch_77">
    <path d="M 24612.657046 272446.878259 
L 24827.986547 272446.878259 
L 24827.986547 -502.898626 
L 24612.657046 -502.898626 
z
" clip-path="url(#p9e6b9c4e32)" style="fill: #ff7f0e"/>
   </g>
   <g id="patch_78">
    <path d="M 25473.975052 272446.878259 
L 25689.304554 272446.878259 
L 25689.304554 -1011.932545 
L 25473.975052 -1011.932545 
z
" clip-path="url(#p9e6b9c4e32)" style="fill: #ff7f0e"/>
   </g>
   <g id="patch_79">
    <path d="M 26335.293059 272446.878259 
L 26550.62256 272446.878259 
L 26550.62256 -1011.932545 
L 26335.293059 -1011.932545 
z
" clip-path="url(#p9e6b9c4e32)" style="fill: #ff7f0e"/>
   </g>
   <g id="patch_80">
    <path d="M 27196.611065 272446.878259 
L 27411.940567 272446.878259 
L 27411.940567 -455.686991 
L 27196.611065 -455.686991 
z
" clip-path="url(#p9e6b9c4e32)" style="fill: #ff7f0e"/>
   </g>
   <g id="patch_81">
    <path d="M 28057.929072 272446.878259 
L 28273.258573 272446.878259 
L 28273.258573 -685.23692 
L 28057.929072 -685.23692 
z
" clip-path="url(#p9e6b9c4e32)" style="fill: #ff7f0e"/>
   </g>
   <g id="patch_82">
    <path d="M 28919.247078 272446.878259 
L 29134.57658 272446.878259 
L 29134.57658 -36.791295 
L 28919.247078 -36.791295 
z
" clip-path="url(#p9e6b9c4e32)" style="fill: #ff7f0e"/>
   </g>
   <g id="patch_83">
    <path d="M 29780.565085 272446.878259 
L 29995.894586 272446.878259 
L 29995.894586 -51.162108 
L 29780.565085 -51.162108 
z
" clip-path="url(#p9e6b9c4e32)" style="fill: #ff7f0e"/>
   </g>
   <g id="patch_84">
    <path d="M 30641.883091 272446.878259 
L 30857.212593 272446.878259 
L 30857.212593 -217.072653 
L 30641.883091 -217.072653 
z
" clip-path="url(#p9e6b9c4e32)" style="fill: #ff7f0e"/>
   </g>
   <g id="patch_85">
    <path d="M 31503.201098 272446.878259 
L 31718.530599 272446.878259 
L 31718.530599 -520.500426 
L 31503.201098 -520.500426 
z
" clip-path="url(#p9e6b9c4e32)" style="fill: #ff7f0e"/>
   </g>
   <g id="patch_86">
    <path d="M 32364.519104 272446.878259 
L 32579.848606 272446.878259 
L 32579.848606 -826.149374 
L 32364.519104 -826.149374 
z
" clip-path="url(#p9e6b9c4e32)" style="fill: #ff7f0e"/>
   </g>
   <g id="patch_87">
    <path d="M 33225.83711 272446.878259 
L 33441.166612 272446.878259 
L 33441.166612 -1011.932545 
L 33225.83711 -1011.932545 
z
" clip-path="url(#p9e6b9c4e32)" style="fill: #ff7f0e"/>
   </g>
   <g id="patch_88">
    <path d="M 34087.155117 272446.878259 
L 34302.484619 272446.878259 
L 34302.484619 -545.438668 
L 34087.155117 -545.438668 
z
" clip-path="url(#p9e6b9c4e32)" style="fill: #ff7f0e"/>
   </g>
   <g id="patch_89">
    <path d="M 34948.473123 272446.878259 
L 35163.802625 272446.878259 
L 35163.802625 -1011.932545 
L 34948.473123 -1011.932545 
z
" clip-path="url(#p9e6b9c4e32)" style="fill: #ff7f0e"/>
   </g>
   <g id="patch_90">
    <path d="M 35809.79113 272446.878259 
L 36025.120632 272446.878259 
L 36025.120632 -1011.932545 
L 35809.79113 -1011.932545 
z
" clip-path="url(#p9e6b9c4e32)" style="fill: #ff7f0e"/>
   </g>
   <g id="patch_91">
    <path d="M -1226.883148 272446.878259 
L -1011.553647 272446.878259 
L -1011.553647 272446.878259 
L -1226.883148 272446.878259 
z
" clip-path="url(#p9e6b9c4e32)" style="fill: #2ca02c"/>
   </g>
   <g id="patch_92">
    <path d="M -365.565142 272446.878259 
L -150.23564 272446.878259 
L -150.23564 272446.878259 
L -365.565142 272446.878259 
z
" clip-path="url(#p9e6b9c4e32)" style="fill: #2ca02c"/>
   </g>
   <g id="patch_93">
    <path d="M 495.752864 272446.878259 
L 711.082366 272446.878259 
L 711.082366 93.306434 
L 495.752864 93.306434 
z
" clip-path="url(#p9e6b9c4e32)" style="fill: #2ca02c"/>
   </g>
   <g id="patch_94">
    <path d="M 1357.070871 272446.878259 
L 1572.400373 272446.878259 
L 1572.400373 41.22703 
L 1357.070871 41.22703 
z
" clip-path="url(#p9e6b9c4e32)" style="fill: #2ca02c"/>
   </g>
   <g id="patch_95">
    <path d="M 2218.388877 272446.878259 
L 2433.718379 272446.878259 
L 2433.718379 -39.902921 
L 2218.388877 -39.902921 
z
" clip-path="url(#p9e6b9c4e32)" style="fill: #2ca02c"/>
   </g>
   <g id="patch_96">
    <path d="M 3079.706884 272446.878259 
L 3295.036386 272446.878259 
L 3295.036386 98.555794 
L 3079.706884 98.555794 
z
" clip-path="url(#p9e6b9c4e32)" style="fill: #2ca02c"/>
   </g>
   <g id="patch_97">
    <path d="M 3941.02489 272446.878259 
L 4156.354392 272446.878259 
L 4156.354392 43.43636 
L 3941.02489 43.43636 
z
" clip-path="url(#p9e6b9c4e32)" style="fill: #2ca02c"/>
   </g>
   <g id="patch_98">
    <path d="M 4802.342897 272446.878259 
L 5017.672398 272446.878259 
L 5017.672398 -45.477811 
L 4802.342897 -45.477811 
z
" clip-path="url(#p9e6b9c4e32)" style="fill: #2ca02c"/>
   </g>
   <g id="patch_99">
    <path d="M 5663.660903 272446.878259 
L 5878.990405 272446.878259 
L 5878.990405 272446.878259 
L 5663.660903 272446.878259 
z
" clip-path="url(#p9e6b9c4e32)" style="fill: #2ca02c"/>
   </g>
   <g id="patch_100">
    <path d="M 6524.97891 272446.878259 
L 6740.308411 272446.878259 
L 6740.308411 -12.68657 
L 6524.97891 -12.68657 
z
" clip-path="url(#p9e6b9c4e32)" style="fill: #2ca02c"/>
   </g>
   <g id="patch_101">
    <path d="M 7386.296916 272446.878259 
L 7601.626418 272446.878259 
L 7601.626418 272446.878259 
L 7386.296916 272446.878259 
z
" clip-path="url(#p9e6b9c4e32)" style="fill: #2ca02c"/>
   </g>
   <g id="patch_102">
    <path d="M 8247.614923 272446.878259 
L 8462.944424 272446.878259 
L 8462.944424 32.279706 
L 8247.614923 32.279706 
z
" clip-path="url(#p9e6b9c4e32)" style="fill: #2ca02c"/>
   </g>
   <g id="patch_103">
    <path d="M 9108.932929 272446.878259 
L 9324.262431 272446.878259 
L 9324.262431 -24.079118 
L 9108.932929 -24.079118 
z
" clip-path="url(#p9e6b9c4e32)" style="fill: #2ca02c"/>
   </g>
   <g id="patch_104">
    <path d="M 9970.250936 272446.878259 
L 10185.580437 272446.878259 
L 10185.580437 -123.752313 
L 9970.250936 -123.752313 
z
" clip-path="url(#p9e6b9c4e32)" style="fill: #2ca02c"/>
   </g>
   <g id="patch_105">
    <path d="M 10831.568942 272446.878259 
L 11046.898444 272446.878259 
L 11046.898444 30.024645 
L 10831.568942 30.024645 
z
" clip-path="url(#p9e6b9c4e32)" style="fill: #2ca02c"/>
   </g>
   <g id="patch_106">
    <path d="M 11692.886949 272446.878259 
L 11908.21645 272446.878259 
L 11908.21645 -29.864641 
L 11692.886949 -29.864641 
z
" clip-path="url(#p9e6b9c4e32)" style="fill: #2ca02c"/>
   </g>
   <g id="patch_107">
    <path d="M 12554.204955 272446.878259 
L 12769.534457 272446.878259 
L 12769.534457 -60.920831 
L 12554.204955 -60.920831 
z
" clip-path="url(#p9e6b9c4e32)" style="fill: #2ca02c"/>
   </g>
   <g id="patch_108">
    <path d="M 13415.522962 272446.878259 
L 13630.852463 272446.878259 
L 13630.852463 272446.878259 
L 13415.522962 272446.878259 
z
" clip-path="url(#p9e6b9c4e32)" style="fill: #2ca02c"/>
   </g>
   <g id="patch_109">
    <path d="M 14276.840968 272446.878259 
L 14492.17047 272446.878259 
L 14492.17047 272446.878259 
L 14276.840968 272446.878259 
z
" clip-path="url(#p9e6b9c4e32)" style="fill: #2ca02c"/>
   </g>
   <g id="patch_110">
    <path d="M 15138.158975 272446.878259 
L 15353.488476 272446.878259 
L 15353.488476 272446.878259 
L 15138.158975 272446.878259 
z
" clip-path="url(#p9e6b9c4e32)" style="fill: #2ca02c"/>
   </g>
   <g id="patch_111">
    <path d="M 15999.476981 272446.878259 
L 16214.806483 272446.878259 
L 16214.806483 272446.878259 
L 15999.476981 272446.878259 
z
" clip-path="url(#p9e6b9c4e32)" style="fill: #2ca02c"/>
   </g>
   <g id="patch_112">
    <path d="M 16860.794987 272446.878259 
L 17076.124489 272446.878259 
L 17076.124489 -93.658926 
L 16860.794987 -93.658926 
z
" clip-path="url(#p9e6b9c4e32)" style="fill: #2ca02c"/>
   </g>
   <g id="patch_113">
    <path d="M 17722.112994 272446.878259 
L 17937.442496 272446.878259 
L 17937.442496 -146.285531 
L 17722.112994 -146.285531 
z
" clip-path="url(#p9e6b9c4e32)" style="fill: #2ca02c"/>
   </g>
   <g id="patch_114">
    <path d="M 18583.431 272446.878259 
L 18798.760502 272446.878259 
L 18798.760502 272446.878259 
L 18583.431 272446.878259 
z
" clip-path="url(#p9e6b9c4e32)" style="fill: #2ca02c"/>
   </g>
   <g id="patch_115">
    <path d="M 19444.749007 272446.878259 
L 19660.078509 272446.878259 
L 19660.078509 272446.878259 
L 19444.749007 272446.878259 
z
" clip-path="url(#p9e6b9c4e32)" style="fill: #2ca02c"/>
   </g>
   <g id="patch_116">
    <path d="M 20306.067013 272446.878259 
L 20521.396515 272446.878259 
L 20521.396515 -70.69568 
L 20306.067013 -70.69568 
z
" clip-path="url(#p9e6b9c4e32)" style="fill: #2ca02c"/>
   </g>
   <g id="patch_117">
    <path d="M 21167.38502 272446.878259 
L 21382.714521 272446.878259 
L 21382.714521 21.198056 
L 21167.38502 21.198056 
z
" clip-path="url(#p9e6b9c4e32)" style="fill: #2ca02c"/>
   </g>
   <g id="patch_118">
    <path d="M 22028.703026 272446.878259 
L 22244.032528 272446.878259 
L 22244.032528 -201.960016 
L 22028.703026 -201.960016 
z
" clip-path="url(#p9e6b9c4e32)" style="fill: #2ca02c"/>
   </g>
   <g id="patch_119">
    <path d="M 22890.021033 272446.878259 
L 23105.350534 272446.878259 
L 23105.350534 272446.878259 
L 22890.021033 272446.878259 
z
" clip-path="url(#p9e6b9c4e32)" style="fill: #2ca02c"/>
   </g>
   <g id="patch_120">
    <path d="M 23751.339039 272446.878259 
L 23966.668541 272446.878259 
L 23966.668541 -362.066641 
L 23751.339039 -362.066641 
z
" clip-path="url(#p9e6b9c4e32)" style="fill: #2ca02c"/>
   </g>
   <g id="patch_121">
    <path d="M 24612.657046 272446.878259 
L 24827.986547 272446.878259 
L 24827.986547 -488.458622 
L 24612.657046 -488.458622 
z
" clip-path="url(#p9e6b9c4e32)" style="fill: #2ca02c"/>
   </g>
   <g id="patch_122">
    <path d="M 25473.975052 272446.878259 
L 25689.304554 272446.878259 
L 25689.304554 272446.878259 
L 25473.975052 272446.878259 
z
" clip-path="url(#p9e6b9c4e32)" style="fill: #2ca02c"/>
   </g>
   <g id="patch_123">
    <path d="M 26335.293059 272446.878259 
L 26550.62256 272446.878259 
L 26550.62256 272446.878259 
L 26335.293059 272446.878259 
z
" clip-path="url(#p9e6b9c4e32)" style="fill: #2ca02c"/>
   </g>
   <g id="patch_124">
    <path d="M 27196.611065 272446.878259 
L 27411.940567 272446.878259 
L 27411.940567 -433.854048 
L 27196.611065 -433.854048 
z
" clip-path="url(#p9e6b9c4e32)" style="fill: #2ca02c"/>
   </g>
   <g id="patch_125">
    <path d="M 28057.929072 272446.878259 
L 28273.258573 272446.878259 
L 28273.258573 -684.361056 
L 28057.929072 -684.361056 
z
" clip-path="url(#p9e6b9c4e32)" style="fill: #2ca02c"/>
   </g>
   <g id="patch_126">
    <path d="M 28919.247078 272446.878259 
L 29134.57658 272446.878259 
L 29134.57658 272446.878259 
L 28919.247078 272446.878259 
z
" clip-path="url(#p9e6b9c4e32)" style="fill: #2ca02c"/>
   </g>
   <g id="patch_127">
    <path d="M 29780.565085 272446.878259 
L 29995.894586 272446.878259 
L 29995.894586 272446.878259 
L 29780.565085 272446.878259 
z
" clip-path="url(#p9e6b9c4e32)" style="fill: #2ca02c"/>
   </g>
   <g id="patch_128">
    <path d="M 30641.883091 272446.878259 
L 30857.212593 272446.878259 
L 30857.212593 272446.878259 
L 30641.883091 272446.878259 
z
" clip-path="url(#p9e6b9c4e32)" style="fill: #2ca02c"/>
   </g>
   <g id="patch_129">
    <path d="M 31503.201098 272446.878259 
L 31718.530599 272446.878259 
L 31718.530599 -166.113239 
L 31503.201098 -166.113239 
z
" clip-path="url(#p9e6b9c4e32)" style="fill: #2ca02c"/>
   </g>
   <g id="patch_130">
    <path d="M 32364.519104 272446.878259 
L 32579.848606 272446.878259 
L 32579.848606 297.552634 
L 32364.519104 297.552634 
z
" clip-path="url(#p9e6b9c4e32)" style="fill: #2ca02c"/>
   </g>
   <g id="patch_131">
    <path d="M 33225.83711 272446.878259 
L 33441.166612 272446.878259 
L 33441.166612 272446.878259 
L 33225.83711 272446.878259 
z
" clip-path="url(#p9e6b9c4e32)" style="fill: #2ca02c"/>
   </g>
   <g id="patch_132">
    <path d="M 34087.155117 272446.878259 
L 34302.484619 272446.878259 
L 34302.484619 272446.878259 
L 34087.155117 272446.878259 
z
" clip-path="url(#p9e6b9c4e32)" style="fill: #2ca02c"/>
   </g>
   <g id="patch_133">
    <path d="M 34948.473123 272446.878259 
L 35163.802625 272446.878259 
L 35163.802625 272446.878259 
L 34948.473123 272446.878259 
z
" clip-path="url(#p9e6b9c4e32)" style="fill: #2ca02c"/>
   </g>
   <g id="patch_134">
    <path d="M 35809.79113 272446.878259 
L 36025.120632 272446.878259 
L 36025.120632 272446.878259 
L 35809.79113 272446.878259 
z
" clip-path="url(#p9e6b9c4e32)" style="fill: #2ca02c"/>
   </g>
   <g id="patch_135">
    <path d="M -1226.883148 272446.878259 
L -1011.553647 272446.878259 
L -1011.553647 272446.878259 
L -1226.883148 272446.878259 
z
" clip-path="url(#p9e6b9c4e32)" style="fill: #d62728"/>
   </g>
   <g id="patch_136">
    <path d="M -365.565142 272446.878259 
L -150.23564 272446.878259 
L -150.23564 272446.878259 
L -365.565142 272446.878259 
z
" clip-path="url(#p9e6b9c4e32)" style="fill: #d62728"/>
   </g>
   <g id="patch_137">
    <path d="M 495.752864 93.306434 
L 711.082366 93.306434 
L 711.082366 72.56384 
L 495.752864 72.56384 
z
" clip-path="url(#p9e6b9c4e32)" style="fill: #d62728"/>
   </g>
   <g id="patch_138">
    <path d="M 1357.070871 41.22703 
L 1572.400373 41.22703 
L 1572.400373 26.211728 
L 1357.070871 26.211728 
z
" clip-path="url(#p9e6b9c4e32)" style="fill: #d62728"/>
   </g>
   <g id="patch_139">
    <path d="M 2218.388877 -39.902921 
L 2433.718379 -39.902921 
L 2433.718379 -47.908175 
L 2218.388877 -47.908175 
z
" clip-path="url(#p9e6b9c4e32)" style="fill: #d62728"/>
   </g>
   <g id="patch_140">
    <path d="M 3079.706884 98.555794 
L 3295.036386 98.555794 
L 3295.036386 84.106112 
L 3079.706884 84.106112 
z
" clip-path="url(#p9e6b9c4e32)" style="fill: #d62728"/>
   </g>
   <g id="patch_141">
    <path d="M 3941.02489 43.43636 
L 4156.354392 43.43636 
L 4156.354392 34.508361 
L 3941.02489 34.508361 
z
" clip-path="url(#p9e6b9c4e32)" style="fill: #d62728"/>
   </g>
   <g id="patch_142">
    <path d="M 4802.342897 -45.477811 
L 5017.672398 -45.477811 
L 5017.672398 -51.479202 
L 4802.342897 -51.479202 
z
" clip-path="url(#p9e6b9c4e32)" style="fill: #d62728"/>
   </g>
   <g id="patch_143">
    <path d="M 5663.660903 272446.878259 
L 5878.990405 272446.878259 
L 5878.990405 272446.878259 
L 5663.660903 272446.878259 
z
" clip-path="url(#p9e6b9c4e32)" style="fill: #d62728"/>
   </g>
   <g id="patch_144">
    <path d="M 6524.97891 -12.68657 
L 6740.308411 -12.68657 
L 6740.308411 -22.145478 
L 6524.97891 -22.145478 
z
" clip-path="url(#p9e6b9c4e32)" style="fill: #d62728"/>
   </g>
   <g id="patch_145">
    <path d="M 7386.296916 272446.878259 
L 7601.626418 272446.878259 
L 7601.626418 272446.878259 
L 7386.296916 272446.878259 
z
" clip-path="url(#p9e6b9c4e32)" style="fill: #d62728"/>
   </g>
   <g id="patch_146">
    <path d="M 8247.614923 32.279706 
L 8462.944424 32.279706 
L 8462.944424 19.224811 
L 8247.614923 19.224811 
z
" clip-path="url(#p9e6b9c4e32)" style="fill: #d62728"/>
   </g>
   <g id="patch_147">
    <path d="M 9108.932929 -24.079118 
L 9324.262431 -24.079118 
L 9324.262431 -33.515007 
L 9108.932929 -33.515007 
z
" clip-path="url(#p9e6b9c4e32)" style="fill: #d62728"/>
   </g>
   <g id="patch_148">
    <path d="M 9970.250936 -123.752313 
L 10185.580437 -123.752313 
L 10185.580437 -128.436331 
L 9970.250936 -128.436331 
z
" clip-path="url(#p9e6b9c4e32)" style="fill: #d62728"/>
   </g>
   <g id="patch_149">
    <path d="M 10831.568942 30.024645 
L 11046.898444 30.024645 
L 11046.898444 18.278835 
L 10831.568942 18.278835 
z
" clip-path="url(#p9e6b9c4e32)" style="fill: #d62728"/>
   </g>
   <g id="patch_150">
    <path d="M 11692.886949 -29.864641 
L 11908.21645 -29.864641 
L 11908.21645 -37.664918 
L 11692.886949 -37.664918 
z
" clip-path="url(#p9e6b9c4e32)" style="fill: #d62728"/>
   </g>
   <g id="patch_151">
    <path d="M 12554.204955 -60.920831 
L 12769.534457 -60.920831 
L 12769.534457 -65.720673 
L 12554.204955 -65.720673 
z
" clip-path="url(#p9e6b9c4e32)" style="fill: #d62728"/>
   </g>
   <g id="patch_152">
    <path d="M 13415.522962 272446.878259 
L 13630.852463 272446.878259 
L 13630.852463 272446.878259 
L 13415.522962 272446.878259 
z
" clip-path="url(#p9e6b9c4e32)" style="fill: #d62728"/>
   </g>
   <g id="patch_153">
    <path d="M 14276.840968 272446.878259 
L 14492.17047 272446.878259 
L 14492.17047 272446.878259 
L 14276.840968 272446.878259 
z
" clip-path="url(#p9e6b9c4e32)" style="fill: #d62728"/>
   </g>
   <g id="patch_154">
    <path d="M 15138.158975 272446.878259 
L 15353.488476 272446.878259 
L 15353.488476 272446.878259 
L 15138.158975 272446.878259 
z
" clip-path="url(#p9e6b9c4e32)" style="fill: #d62728"/>
   </g>
   <g id="patch_155">
    <path d="M 15999.476981 272446.878259 
L 16214.806483 272446.878259 
L 16214.806483 272446.878259 
L 15999.476981 272446.878259 
z
" clip-path="url(#p9e6b9c4e32)" style="fill: #d62728"/>
   </g>
   <g id="patch_156">
    <path d="M 16860.794987 -93.658926 
L 17076.124489 -93.658926 
L 17076.124489 -96.951998 
L 16860.794987 -96.951998 
z
" clip-path="url(#p9e6b9c4e32)" style="fill: #d62728"/>
   </g>
   <g id="patch_157">
    <path d="M 17722.112994 -146.285531 
L 17937.442496 -146.285531 
L 17937.442496 -150.075904 
L 17722.112994 -150.075904 
z
" clip-path="url(#p9e6b9c4e32)" style="fill: #d62728"/>
   </g>
   <g id="patch_158">
    <path d="M 18583.431 272446.878259 
L 18798.760502 272446.878259 
L 18798.760502 272446.878259 
L 18583.431 272446.878259 
z
" clip-path="url(#p9e6b9c4e32)" style="fill: #d62728"/>
   </g>
   <g id="patch_159">
    <path d="M 19444.749007 272446.878259 
L 19660.078509 272446.878259 
L 19660.078509 272446.878259 
L 19444.749007 272446.878259 
z
" clip-path="url(#p9e6b9c4e32)" style="fill: #d62728"/>
   </g>
   <g id="patch_160">
    <path d="M 20306.067013 -70.69568 
L 20521.396515 -70.69568 
L 20521.396515 -137.431495 
L 20306.067013 -137.431495 
z
" clip-path="url(#p9e6b9c4e32)" style="fill: #d62728"/>
   </g>
   <g id="patch_161">
    <path d="M 21167.38502 21.198056 
L 21382.714521 21.198056 
L 21382.714521 16.769786 
L 21167.38502 16.769786 
z
" clip-path="url(#p9e6b9c4e32)" style="fill: #d62728"/>
   </g>
   <g id="patch_162">
    <path d="M 22028.703026 -201.960016 
L 22244.032528 -201.960016 
L 22244.032528 -203.184592 
L 22028.703026 -203.184592 
z
" clip-path="url(#p9e6b9c4e32)" style="fill: #d62728"/>
   </g>
   <g id="patch_163">
    <path d="M 22890.021033 272446.878259 
L 23105.350534 272446.878259 
L 23105.350534 272446.878259 
L 22890.021033 272446.878259 
z
" clip-path="url(#p9e6b9c4e32)" style="fill: #d62728"/>
   </g>
   <g id="patch_164">
    <path d="M 23751.339039 -362.066641 
L 23966.668541 -362.066641 
L 23966.668541 -362.269422 
L 23751.339039 -362.269422 
z
" clip-path="url(#p9e6b9c4e32)" style="fill: #d62728"/>
   </g>
   <g id="patch_165">
    <path d="M 24612.657046 -488.458622 
L 24827.986547 -488.458622 
L 24827.986547 -488.538918 
L 24612.657046 -488.538918 
z
" clip-path="url(#p9e6b9c4e32)" style="fill: #d62728"/>
   </g>
   <g id="patch_166">
    <path d="M 25473.975052 272446.878259 
L 25689.304554 272446.878259 
L 25689.304554 272446.878259 
L 25473.975052 272446.878259 
z
" clip-path="url(#p9e6b9c4e32)" style="fill: #d62728"/>
   </g>
   <g id="patch_167">
    <path d="M 26335.293059 272446.878259 
L 26550.62256 272446.878259 
L 26550.62256 272446.878259 
L 26335.293059 272446.878259 
z
" clip-path="url(#p9e6b9c4e32)" style="fill: #d62728"/>
   </g>
   <g id="patch_168">
    <path d="M 27196.611065 -433.854048 
L 27411.940567 -433.854048 
L 27411.940567 -434.060789 
L 27196.611065 -434.060789 
z
" clip-path="url(#p9e6b9c4e32)" style="fill: #d62728"/>
   </g>
   <g id="patch_169">
    <path d="M 28057.929072 -684.361056 
L 28273.258573 -684.361056 
L 28273.258573 -685.139356 
L 28057.929072 -685.139356 
z
" clip-path="url(#p9e6b9c4e32)" style="fill: #d62728"/>
   </g>
   <g id="patch_170">
    <path d="M 28919.247078 272446.878259 
L 29134.57658 272446.878259 
L 29134.57658 272446.878259 
L 28919.247078 272446.878259 
z
" clip-path="url(#p9e6b9c4e32)" style="fill: #d62728"/>
   </g>
   <g id="patch_171">
    <path d="M 29780.565085 272446.878259 
L 29995.894586 272446.878259 
L 29995.894586 272446.878259 
L 29780.565085 272446.878259 
z
" clip-path="url(#p9e6b9c4e32)" style="fill: #d62728"/>
   </g>
   <g id="patch_172">
    <path d="M 30641.883091 272446.878259 
L 30857.212593 272446.878259 
L 30857.212593 272446.878259 
L 30641.883091 272446.878259 
z
" clip-path="url(#p9e6b9c4e32)" style="fill: #d62728"/>
   </g>
   <g id="patch_173">
    <path d="M 31503.201098 -166.113239 
L 31718.530599 -166.113239 
L 31718.530599 -167.236238 
L 31503.201098 -167.236238 
z
" clip-path="url(#p9e6b9c4e32)" style="fill: #d62728"/>
   </g>
   <g id="patch_174">
    <path d="M 32364.519104 297.552634 
L 32579.848606 297.552634 
L 32579.848606 247.900176 
L 32364.519104 247.900176 
z
" clip-path="url(#p9e6b9c4e32)" style="fill: #d62728"/>
   </g>
   <g id="patch_175">
    <path d="M 33225.83711 272446.878259 
L 33441.166612 272446.878259 
L 33441.166612 272446.878259 
L 33225.83711 272446.878259 
z
" clip-path="url(#p9e6b9c4e32)" style="fill: #d62728"/>
   </g>
   <g id="patch_176">
    <path d="M 34087.155117 272446.878259 
L 34302.484619 272446.878259 
L 34302.484619 272446.878259 
L 34087.155117 272446.878259 
z
" clip-path="url(#p9e6b9c4e32)" style="fill: #d62728"/>
   </g>
   <g id="patch_177">
    <path d="M 34948.473123 272446.878259 
L 35163.802625 272446.878259 
L 35163.802625 272446.878259 
L 34948.473123 272446.878259 
z
" clip-path="url(#p9e6b9c4e32)" style="fill: #d62728"/>
   </g>
   <g id="patch_178">
    <path d="M 35809.79113 272446.878259 
L 36025.120632 272446.878259 
L 36025.120632 272446.878259 
L 35809.79113 272446.878259 
z
" clip-path="url(#p9e6b9c4e32)" style="fill: #d62728"/>
   </g>
   <g id="patch_179">
    <path d="M -1226.883148 272446.878259 
L -1011.553647 272446.878259 
L -1011.553647 -14.572189 
L -1226.883148 -14.572189 
z
" clip-path="url(#p9e6b9c4e32)" style="fill: #9467bd"/>
   </g>
   <g id="patch_180">
    <path d="M -365.565142 272446.878259 
L -150.23564 272446.878259 
L -150.23564 -92.874893 
L -365.565142 -92.874893 
z
" clip-path="url(#p9e6b9c4e32)" style="fill: #9467bd"/>
   </g>
   <g id="patch_181">
    <path d="M 495.752864 72.56384 
L 711.082366 72.56384 
L 711.082366 72.56384 
L 495.752864 72.56384 
z
" clip-path="url(#p9e6b9c4e32)" style="fill: #9467bd"/>
   </g>
   <g id="patch_182">
    <path d="M 1357.070871 26.211728 
L 1572.400373 26.211728 
L 1572.400373 26.211728 
L 1357.070871 26.211728 
z
" clip-path="url(#p9e6b9c4e32)" style="fill: #9467bd"/>
   </g>
   <g id="patch_183">
    <path d="M 2218.388877 -47.908175 
L 2433.718379 -47.908175 
L 2433.718379 -47.908175 
L 2218.388877 -47.908175 
z
" clip-path="url(#p9e6b9c4e32)" style="fill: #9467bd"/>
   </g>
   <g id="patch_184">
    <path d="M 3079.706884 84.106112 
L 3295.036386 84.106112 
L 3295.036386 84.106112 
L 3079.706884 84.106112 
z
" clip-path="url(#p9e6b9c4e32)" style="fill: #9467bd"/>
   </g>
   <g id="patch_185">
    <path d="M 3941.02489 34.508361 
L 4156.354392 34.508361 
L 4156.354392 34.508361 
L 3941.02489 34.508361 
z
" clip-path="url(#p9e6b9c4e32)" style="fill: #9467bd"/>
   </g>
   <g id="patch_186">
    <path d="M 4802.342897 -51.479202 
L 5017.672398 -51.479202 
L 5017.672398 -51.479202 
L 4802.342897 -51.479202 
z
" clip-path="url(#p9e6b9c4e32)" style="fill: #9467bd"/>
   </g>
   <g id="patch_187">
    <path d="M 5663.660903 272446.878259 
L 5878.990405 272446.878259 
L 5878.990405 82.528517 
L 5663.660903 82.528517 
z
" clip-path="url(#p9e6b9c4e32)" style="fill: #9467bd"/>
   </g>
   <g id="patch_188">
    <path d="M 6524.97891 -22.145478 
L 6740.308411 -22.145478 
L 6740.308411 -22.145478 
L 6524.97891 -22.145478 
z
" clip-path="url(#p9e6b9c4e32)" style="fill: #9467bd"/>
   </g>
   <g id="patch_189">
    <path d="M 7386.296916 272446.878259 
L 7601.626418 272446.878259 
L 7601.626418 -105.601911 
L 7386.296916 -105.601911 
z
" clip-path="url(#p9e6b9c4e32)" style="fill: #9467bd"/>
   </g>
   <g id="patch_190">
    <path d="M 8247.614923 19.224811 
L 8462.944424 19.224811 
L 8462.944424 19.224811 
L 8247.614923 19.224811 
z
" clip-path="url(#p9e6b9c4e32)" style="fill: #9467bd"/>
   </g>
   <g id="patch_191">
    <path d="M 9108.932929 -33.515007 
L 9324.262431 -33.515007 
L 9324.262431 -33.515007 
L 9108.932929 -33.515007 
z
" clip-path="url(#p9e6b9c4e32)" style="fill: #9467bd"/>
   </g>
   <g id="patch_192">
    <path d="M 9970.250936 -128.436331 
L 10185.580437 -128.436331 
L 10185.580437 -128.436331 
L 9970.250936 -128.436331 
z
" clip-path="url(#p9e6b9c4e32)" style="fill: #9467bd"/>
   </g>
   <g id="patch_193">
    <path d="M 10831.568942 18.278835 
L 11046.898444 18.278835 
L 11046.898444 18.278835 
L 10831.568942 18.278835 
z
" clip-path="url(#p9e6b9c4e32)" style="fill: #9467bd"/>
   </g>
   <g id="patch_194">
    <path d="M 11692.886949 -37.664918 
L 11908.21645 -37.664918 
L 11908.21645 -37.664918 
L 11692.886949 -37.664918 
z
" clip-path="url(#p9e6b9c4e32)" style="fill: #9467bd"/>
   </g>
   <g id="patch_195">
    <path d="M 12554.204955 -65.720673 
L 12769.534457 -65.720673 
L 12769.534457 -65.720673 
L 12554.204955 -65.720673 
z
" clip-path="url(#p9e6b9c4e32)" style="fill: #9467bd"/>
   </g>
   <g id="patch_196">
    <path d="M 13415.522962 272446.878259 
L 13630.852463 272446.878259 
L 13630.852463 26.494117 
L 13415.522962 26.494117 
z
" clip-path="url(#p9e6b9c4e32)" style="fill: #9467bd"/>
   </g>
   <g id="patch_197">
    <path d="M 14276.840968 272446.878259 
L 14492.17047 272446.878259 
L 14492.17047 -26.263489 
L 14276.840968 -26.263489 
z
" clip-path="url(#p9e6b9c4e32)" style="fill: #9467bd"/>
   </g>
   <g id="patch_198">
    <path d="M 15138.158975 272446.878259 
L 15353.488476 272446.878259 
L 15353.488476 -100.423435 
L 15138.158975 -100.423435 
z
" clip-path="url(#p9e6b9c4e32)" style="fill: #9467bd"/>
   </g>
   <g id="patch_199">
    <path d="M 15999.476981 272446.878259 
L 16214.806483 272446.878259 
L 16214.806483 -38.952339 
L 15999.476981 -38.952339 
z
" clip-path="url(#p9e6b9c4e32)" style="fill: #9467bd"/>
   </g>
   <g id="patch_200">
    <path d="M 16860.794987 -96.951998 
L 17076.124489 -96.951998 
L 17076.124489 -96.951998 
L 16860.794987 -96.951998 
z
" clip-path="url(#p9e6b9c4e32)" style="fill: #9467bd"/>
   </g>
   <g id="patch_201">
    <path d="M 17722.112994 -150.075904 
L 17937.442496 -150.075904 
L 17937.442496 -150.075904 
L 17722.112994 -150.075904 
z
" clip-path="url(#p9e6b9c4e32)" style="fill: #9467bd"/>
   </g>
   <g id="patch_202">
    <path d="M 18583.431 272446.878259 
L 18798.760502 272446.878259 
L 18798.760502 272446.878259 
L 18583.431 272446.878259 
z
" clip-path="url(#p9e6b9c4e32)" style="fill: #9467bd"/>
   </g>
   <g id="patch_203">
    <path d="M 19444.749007 272446.878259 
L 19660.078509 272446.878259 
L 19660.078509 272446.878259 
L 19444.749007 272446.878259 
z
" clip-path="url(#p9e6b9c4e32)" style="fill: #9467bd"/>
   </g>
   <g id="patch_204">
    <path d="M 20306.067013 -137.431495 
L 20521.396515 -137.431495 
L 20521.396515 -137.431495 
L 20306.067013 -137.431495 
z
" clip-path="url(#p9e6b9c4e32)" style="fill: #9467bd"/>
   </g>
   <g id="patch_205">
    <path d="M 21167.38502 16.769786 
L 21382.714521 16.769786 
L 21382.714521 -110.67725 
L 21167.38502 -110.67725 
z
" clip-path="url(#p9e6b9c4e32)" style="fill: #9467bd"/>
   </g>
   <g id="patch_206">
    <path d="M 22028.703026 -203.184592 
L 22244.032528 -203.184592 
L 22244.032528 -215.147708 
L 22028.703026 -215.147708 
z
" clip-path="url(#p9e6b9c4e32)" style="fill: #9467bd"/>
   </g>
   <g id="patch_207">
    <path d="M 22890.021033 272446.878259 
L 23105.350534 272446.878259 
L 23105.350534 272446.878259 
L 22890.021033 272446.878259 
z
" clip-path="url(#p9e6b9c4e32)" style="fill: #9467bd"/>
   </g>
   <g id="patch_208">
    <path d="M 23751.339039 -362.269422 
L 23966.668541 -362.269422 
L 23966.668541 -601.667358 
L 23751.339039 -601.667358 
z
" clip-path="url(#p9e6b9c4e32)" style="fill: #9467bd"/>
   </g>
   <g id="patch_209">
    <path d="M 24612.657046 -488.538918 
L 24827.986547 -488.538918 
L 24827.986547 -502.61625 
L 24612.657046 -502.61625 
z
" clip-path="url(#p9e6b9c4e32)" style="fill: #9467bd"/>
   </g>
   <g id="patch_210">
    <path d="M 25473.975052 272446.878259 
L 25689.304554 272446.878259 
L 25689.304554 272446.878259 
L 25473.975052 272446.878259 
z
" clip-path="url(#p9e6b9c4e32)" style="fill: #9467bd"/>
   </g>
   <g id="patch_211">
    <path d="M 26335.293059 272446.878259 
L 26550.62256 272446.878259 
L 26550.62256 272446.878259 
L 26335.293059 272446.878259 
z
" clip-path="url(#p9e6b9c4e32)" style="fill: #9467bd"/>
   </g>
   <g id="patch_212">
    <path d="M 27196.611065 -434.060789 
L 27411.940567 -434.060789 
L 27411.940567 -455.270891 
L 27196.611065 -455.270891 
z
" clip-path="url(#p9e6b9c4e32)" style="fill: #9467bd"/>
   </g>
   <g id="patch_213">
    <path d="M 28057.929072 -685.139356 
L 28273.258573 -685.139356 
L 28273.258573 -685.139356 
L 28057.929072 -685.139356 
z
" clip-path="url(#p9e6b9c4e32)" style="fill: #9467bd"/>
   </g>
   <g id="patch_214">
    <path d="M 28919.247078 272446.878259 
L 29134.57658 272446.878259 
L 29134.57658 -22.636493 
L 28919.247078 -22.636493 
z
" clip-path="url(#p9e6b9c4e32)" style="fill: #9467bd"/>
   </g>
   <g id="patch_215">
    <path d="M 29780.565085 272446.878259 
L 29995.894586 272446.878259 
L 29995.894586 -37.769772 
L 29780.565085 -37.769772 
z
" clip-path="url(#p9e6b9c4e32)" style="fill: #9467bd"/>
   </g>
   <g id="patch_216">
    <path d="M 30641.883091 272446.878259 
L 30857.212593 272446.878259 
L 30857.212593 -213.88303 
L 30641.883091 -213.88303 
z
" clip-path="url(#p9e6b9c4e32)" style="fill: #9467bd"/>
   </g>
   <g id="patch_217">
    <path d="M 31503.201098 -167.236238 
L 31718.530599 -167.236238 
L 31718.530599 -520.223035 
L 31503.201098 -520.223035 
z
" clip-path="url(#p9e6b9c4e32)" style="fill: #9467bd"/>
   </g>
   <g id="patch_218">
    <path d="M 32364.519104 247.900176 
L 32579.848606 247.900176 
L 32579.848606 -826.121102 
L 32364.519104 -826.121102 
z
" clip-path="url(#p9e6b9c4e32)" style="fill: #9467bd"/>
   </g>
   <g id="patch_219">
    <path d="M 33225.83711 272446.878259 
L 33441.166612 272446.878259 
L 33441.166612 272446.878259 
L 33225.83711 272446.878259 
z
" clip-path="url(#p9e6b9c4e32)" style="fill: #9467bd"/>
   </g>
   <g id="patch_220">
    <path d="M 34087.155117 272446.878259 
L 34302.484619 272446.878259 
L 34302.484619 -545.166781 
L 34087.155117 -545.166781 
z
" clip-path="url(#p9e6b9c4e32)" style="fill: #9467bd"/>
   </g>
   <g id="patch_221">
    <path d="M 34948.473123 272446.878259 
L 35163.802625 272446.878259 
L 35163.802625 272446.878259 
L 34948.473123 272446.878259 
z
" clip-path="url(#p9e6b9c4e32)" style="fill: #9467bd"/>
   </g>
   <g id="patch_222">
    <path d="M 35809.79113 272446.878259 
L 36025.120632 272446.878259 
L 36025.120632 272446.878259 
L 35809.79113 272446.878259 
z
" clip-path="url(#p9e6b9c4e32)" style="fill: #9467bd"/>
   </g>
   <g id="patch_223">
    <path d="M -1011.553647 272446.878259 
L -796.224145 272446.878259 
L -796.224145 550.98228 
L -1011.553647 550.98228 
z
" clip-path="url(#p9e6b9c4e32)" style="fill: #8c564b"/>
   </g>
   <g id="patch_224">
    <path d="M -150.23564 272446.878259 
L 65.093861 272446.878259 
L 65.093861 -281.73309 
L -150.23564 -281.73309 
z
" clip-path="url(#p9e6b9c4e32)" style="fill: #8c564b"/>
   </g>
   <g id="patch_225">
    <path d="M 711.082366 272446.878259 
L 926.411868 272446.878259 
L 926.411868 588.815339 
L 711.082366 588.815339 
z
" clip-path="url(#p9e6b9c4e32)" style="fill: #8c564b"/>
   </g>
   <g id="patch_226">
    <path d="M 1572.400373 272446.878259 
L 1787.729874 272446.878259 
L 1787.729874 534.655613 
L 1572.400373 534.655613 
z
" clip-path="url(#p9e6b9c4e32)" style="fill: #8c564b"/>
   </g>
   <g id="patch_227">
    <path d="M 2433.718379 272446.878259 
L 2649.047881 272446.878259 
L 2649.047881 -612.878556 
L 2433.718379 -612.878556 
z
" clip-path="url(#p9e6b9c4e32)" style="fill: #8c564b"/>
   </g>
   <g id="patch_228">
    <path d="M 3295.036386 272446.878259 
L 3510.365887 272446.878259 
L 3510.365887 590.468466 
L 3295.036386 590.468466 
z
" clip-path="url(#p9e6b9c4e32)" style="fill: #8c564b"/>
   </g>
   <g id="patch_229">
    <path d="M 4156.354392 272446.878259 
L 4371.683894 272446.878259 
L 4371.683894 539.9075 
L 4156.354392 539.9075 
z
" clip-path="url(#p9e6b9c4e32)" style="fill: #8c564b"/>
   </g>
   <g id="patch_230">
    <path d="M 5017.672398 272446.878259 
L 5233.0019 272446.878259 
L 5233.0019 -520.807101 
L 5017.672398 -520.807101 
z
" clip-path="url(#p9e6b9c4e32)" style="fill: #8c564b"/>
   </g>
   <g id="patch_231">
    <path d="M 5878.990405 272446.878259 
L 6094.319907 272446.878259 
L 6094.319907 565.276624 
L 5878.990405 565.276624 
z
" clip-path="url(#p9e6b9c4e32)" style="fill: #8c564b"/>
   </g>
   <g id="patch_232">
    <path d="M 6740.308411 272446.878259 
L 6955.637913 272446.878259 
L 6955.637913 495.827681 
L 6740.308411 495.827681 
z
" clip-path="url(#p9e6b9c4e32)" style="fill: #8c564b"/>
   </g>
   <g id="patch_233">
    <path d="M 7601.626418 272446.878259 
L 7816.95592 272446.878259 
L 7816.95592 -474.647273 
L 7601.626418 -474.647273 
z
" clip-path="url(#p9e6b9c4e32)" style="fill: #8c564b"/>
   </g>
   <g id="patch_234">
    <path d="M 8462.944424 272446.878259 
L 8678.273926 272446.878259 
L 8678.273926 547.362724 
L 8462.944424 547.362724 
z
" clip-path="url(#p9e6b9c4e32)" style="fill: #8c564b"/>
   </g>
   <g id="patch_235">
    <path d="M 9324.262431 272446.878259 
L 9539.591932 272446.878259 
L 9539.591932 508.649529 
L 9324.262431 508.649529 
z
" clip-path="url(#p9e6b9c4e32)" style="fill: #8c564b"/>
   </g>
   <g id="patch_236">
    <path d="M 10185.580437 272446.878259 
L 10400.909939 272446.878259 
L 10400.909939 -506.040035 
L 10185.580437 -506.040035 
z
" clip-path="url(#p9e6b9c4e32)" style="fill: #8c564b"/>
   </g>
   <g id="patch_237">
    <path d="M 11046.898444 272446.878259 
L 11262.227945 272446.878259 
L 11262.227945 553.860298 
L 11046.898444 553.860298 
z
" clip-path="url(#p9e6b9c4e32)" style="fill: #8c564b"/>
   </g>
   <g id="patch_238">
    <path d="M 11908.21645 272446.878259 
L 12123.545952 272446.878259 
L 12123.545952 520.744126 
L 11908.21645 520.744126 
z
" clip-path="url(#p9e6b9c4e32)" style="fill: #8c564b"/>
   </g>
   <g id="patch_239">
    <path d="M 12769.534457 272446.878259 
L 12984.863958 272446.878259 
L 12984.863958 -443.605499 
L 12769.534457 -443.605499 
z
" clip-path="url(#p9e6b9c4e32)" style="fill: #8c564b"/>
   </g>
   <g id="patch_240">
    <path d="M 13630.852463 272446.878259 
L 13846.181965 272446.878259 
L 13846.181965 524.562149 
L 13630.852463 524.562149 
z
" clip-path="url(#p9e6b9c4e32)" style="fill: #8c564b"/>
   </g>
   <g id="patch_241">
    <path d="M 14492.17047 272446.878259 
L 14707.499971 272446.878259 
L 14707.499971 333.64816 
L 14492.17047 333.64816 
z
" clip-path="url(#p9e6b9c4e32)" style="fill: #8c564b"/>
   </g>
   <g id="patch_242">
    <path d="M 15353.488476 272446.878259 
L 15568.817978 272446.878259 
L 15568.817978 -1011.932545 
L 15353.488476 -1011.932545 
z
" clip-path="url(#p9e6b9c4e32)" style="fill: #8c564b"/>
   </g>
   <g id="patch_243">
    <path d="M 16214.806483 272446.878259 
L 16430.135984 272446.878259 
L 16430.135984 498.857079 
L 16214.806483 498.857079 
z
" clip-path="url(#p9e6b9c4e32)" style="fill: #8c564b"/>
   </g>
   <g id="patch_244">
    <path d="M 17076.124489 272446.878259 
L 17291.453991 272446.878259 
L 17291.453991 428.029036 
L 17076.124489 428.029036 
z
" clip-path="url(#p9e6b9c4e32)" style="fill: #8c564b"/>
   </g>
   <g id="patch_245">
    <path d="M 17937.442496 272446.878259 
L 18152.771997 272446.878259 
L 18152.771997 -1011.932545 
L 17937.442496 -1011.932545 
z
" clip-path="url(#p9e6b9c4e32)" style="fill: #8c564b"/>
   </g>
   <g id="patch_246">
    <path d="M 18798.760502 272446.878259 
L 19014.090004 272446.878259 
L 19014.090004 227.948866 
L 18798.760502 227.948866 
z
" clip-path="url(#p9e6b9c4e32)" style="fill: #8c564b"/>
   </g>
   <g id="patch_247">
    <path d="M 19660.078509 272446.878259 
L 19875.40801 272446.878259 
L 19875.40801 -551.759101 
L 19660.078509 -551.759101 
z
" clip-path="url(#p9e6b9c4e32)" style="fill: #8c564b"/>
   </g>
   <g id="patch_248">
    <path d="M 20521.396515 272446.878259 
L 20736.726017 272446.878259 
L 20736.726017 -1011.932545 
L 20521.396515 -1011.932545 
z
" clip-path="url(#p9e6b9c4e32)" style="fill: #8c564b"/>
   </g>
   <g id="patch_249">
    <path d="M 21382.714521 272446.878259 
L 21598.044023 272446.878259 
L 21598.044023 130.754159 
L 21382.714521 130.754159 
z
" clip-path="url(#p9e6b9c4e32)" style="fill: #8c564b"/>
   </g>
   <g id="patch_250">
    <path d="M 22244.032528 272446.878259 
L 22459.36203 272446.878259 
L 22459.36203 -516.471247 
L 22244.032528 -516.471247 
z
" clip-path="url(#p9e6b9c4e32)" style="fill: #8c564b"/>
   </g>
   <g id="patch_251">
    <path d="M 23105.350534 272446.878259 
L 23320.680036 272446.878259 
L 23320.680036 -1011.932545 
L 23105.350534 -1011.932545 
z
" clip-path="url(#p9e6b9c4e32)" style="fill: #8c564b"/>
   </g>
   <g id="patch_252">
    <path d="M 23966.668541 272446.878259 
L 24181.998043 272446.878259 
L 24181.998043 -149.928826 
L 23966.668541 -149.928826 
z
" clip-path="url(#p9e6b9c4e32)" style="fill: #8c564b"/>
   </g>
   <g id="patch_253">
    <path d="M 24827.986547 272446.878259 
L 25043.316049 272446.878259 
L 25043.316049 -585.746119 
L 24827.986547 -585.746119 
z
" clip-path="url(#p9e6b9c4e32)" style="fill: #8c564b"/>
   </g>
   <g id="patch_254">
    <path d="M 25689.304554 272446.878259 
L 25904.634055 272446.878259 
L 25904.634055 -1011.932545 
L 25689.304554 -1011.932545 
z
" clip-path="url(#p9e6b9c4e32)" style="fill: #8c564b"/>
   </g>
   <g id="patch_255">
    <path d="M 26550.62256 272446.878259 
L 26765.952062 272446.878259 
L 26765.952062 -207.046815 
L 26550.62256 -207.046815 
z
" clip-path="url(#p9e6b9c4e32)" style="fill: #8c564b"/>
   </g>
   <g id="patch_256">
    <path d="M 27411.940567 272446.878259 
L 27627.270068 272446.878259 
L 27627.270068 -613.957212 
L 27411.940567 -613.957212 
z
" clip-path="url(#p9e6b9c4e32)" style="fill: #8c564b"/>
   </g>
   <g id="patch_257">
    <path d="M 28273.258573 272446.878259 
L 28488.588075 272446.878259 
L 28488.588075 -1011.932545 
L 28273.258573 -1011.932545 
z
" clip-path="url(#p9e6b9c4e32)" style="fill: #8c564b"/>
   </g>
   <g id="patch_258">
    <path d="M 29134.57658 272446.878259 
L 29349.906081 272446.878259 
L 29349.906081 258.30615 
L 29134.57658 258.30615 
z
" clip-path="url(#p9e6b9c4e32)" style="fill: #8c564b"/>
   </g>
   <g id="patch_259">
    <path d="M 29995.894586 272446.878259 
L 30211.224088 272446.878259 
L 30211.224088 193.524252 
L 29995.894586 193.524252 
z
" clip-path="url(#p9e6b9c4e32)" style="fill: #8c564b"/>
   </g>
   <g id="patch_260">
    <path d="M 30857.212593 272446.878259 
L 31072.542094 272446.878259 
L 31072.542094 -1011.932545 
L 30857.212593 -1011.932545 
z
" clip-path="url(#p9e6b9c4e32)" style="fill: #8c564b"/>
   </g>
   <g id="patch_261">
    <path d="M 31718.530599 272446.878259 
L 31933.860101 272446.878259 
L 31933.860101 -1011.932545 
L 31718.530599 -1011.932545 
z
" clip-path="url(#p9e6b9c4e32)" style="fill: #8c564b"/>
   </g>
   <g id="patch_262">
    <path d="M 32579.848606 272446.878259 
L 32795.178107 272446.878259 
L 32795.178107 -1011.932545 
L 32579.848606 -1011.932545 
z
" clip-path="url(#p9e6b9c4e32)" style="fill: #8c564b"/>
   </g>
   <g id="patch_263">
    <path d="M 33441.166612 272446.878259 
L 33656.496114 272446.878259 
L 33656.496114 -1011.932545 
L 33441.166612 -1011.932545 
z
" clip-path="url(#p9e6b9c4e32)" style="fill: #8c564b"/>
   </g>
   <g id="patch_264">
    <path d="M 34302.484619 272446.878259 
L 34517.81412 272446.878259 
L 34517.81412 531.938411 
L 34302.484619 531.938411 
z
" clip-path="url(#p9e6b9c4e32)" style="fill: #8c564b"/>
   </g>
   <g id="patch_265">
    <path d="M 35163.802625 272446.878259 
L 35379.132127 272446.878259 
L 35379.132127 537.250174 
L 35163.802625 537.250174 
z
" clip-path="url(#p9e6b9c4e32)" style="fill: #8c564b"/>
   </g>
   <g id="patch_266">
    <path d="M 36025.120632 272446.878259 
L 36240.450133 272446.878259 
L 36240.450133 539.153696 
L 36025.120632 539.153696 
z
" clip-path="url(#p9e6b9c4e32)" style="fill: #8c564b"/>
   </g>
   <g id="matplotlib.axis_1">
    <g id="xtick_1">
     <g id="line2d_1">
      <defs>
       <path id="m819ec4bb34" d="M 0 0 
L 0 3.5 
" style="stroke: #000000; stroke-width: 0.8"/>
      </defs>
      <g>
       <use xlink:href="#m819ec4bb34" x="603.417615" y="670.588516" style="stroke: #000000; stroke-width: 0.8"/>
      </g>
     </g>
     <g id="text_1">
      <!-- p02_d0 -->
      <g transform="translate(594.664828 680.187335) rotate(-290) scale(0.1 -0.1)">
       <defs>
        <path id="DejaVuSans-70" d="M 1159 525 
L 1159 -1331 
L 581 -1331 
L 581 3500 
L 1159 3500 
L 1159 2969 
Q 1341 3281 1617 3432 
Q 1894 3584 2278 3584 
Q 2916 3584 3314 3078 
Q 3713 2572 3713 1747 
Q 3713 922 3314 415 
Q 2916 -91 2278 -91 
Q 1894 -91 1617 61 
Q 1341 213 1159 525 
z
M 3116 1747 
Q 3116 2381 2855 2742 
Q 2594 3103 2138 3103 
Q 1681 3103 1420 2742 
Q 1159 2381 1159 1747 
Q 1159 1113 1420 752 
Q 1681 391 2138 391 
Q 2594 391 2855 752 
Q 3116 1113 3116 1747 
z
" transform="scale(0.015625)"/>
        <path id="DejaVuSans-30" d="M 2034 4250 
Q 1547 4250 1301 3770 
Q 1056 3291 1056 2328 
Q 1056 1369 1301 889 
Q 1547 409 2034 409 
Q 2525 409 2770 889 
Q 3016 1369 3016 2328 
Q 3016 3291 2770 3770 
Q 2525 4250 2034 4250 
z
M 2034 4750 
Q 2819 4750 3233 4129 
Q 3647 3509 3647 2328 
Q 3647 1150 3233 529 
Q 2819 -91 2034 -91 
Q 1250 -91 836 529 
Q 422 1150 422 2328 
Q 422 3509 836 4129 
Q 1250 4750 2034 4750 
z
" transform="scale(0.015625)"/>
        <path id="DejaVuSans-32" d="M 1228 531 
L 3431 531 
L 3431 0 
L 469 0 
L 469 531 
Q 828 903 1448 1529 
Q 2069 2156 2228 2338 
Q 2531 2678 2651 2914 
Q 2772 3150 2772 3378 
Q 2772 3750 2511 3984 
Q 2250 4219 1831 4219 
Q 1534 4219 1204 4116 
Q 875 4013 500 3803 
L 500 4441 
Q 881 4594 1212 4672 
Q 1544 4750 1819 4750 
Q 2544 4750 2975 4387 
Q 3406 4025 3406 3419 
Q 3406 3131 3298 2873 
Q 3191 2616 2906 2266 
Q 2828 2175 2409 1742 
Q 1991 1309 1228 531 
z
" transform="scale(0.015625)"/>
        <path id="DejaVuSans-5f" d="M 3263 -1063 
L 3263 -1509 
L -63 -1509 
L -63 -1063 
L 3263 -1063 
z
" transform="scale(0.015625)"/>
        <path id="DejaVuSans-64" d="M 2906 2969 
L 2906 4863 
L 3481 4863 
L 3481 0 
L 2906 0 
L 2906 525 
Q 2725 213 2448 61 
Q 2172 -91 1784 -91 
Q 1150 -91 751 415 
Q 353 922 353 1747 
Q 353 2572 751 3078 
Q 1150 3584 1784 3584 
Q 2172 3584 2448 3432 
Q 2725 3281 2906 2969 
z
M 947 1747 
Q 947 1113 1208 752 
Q 1469 391 1925 391 
Q 2381 391 2643 752 
Q 2906 1113 2906 1747 
Q 2906 2381 2643 2742 
Q 2381 3103 1925 3103 
Q 1469 3103 1208 2742 
Q 947 2381 947 1747 
z
" transform="scale(0.015625)"/>
       </defs>
       <use xlink:href="#DejaVuSans-70"/>
       <use xlink:href="#DejaVuSans-30" x="63.476562"/>
       <use xlink:href="#DejaVuSans-32" x="127.099609"/>
       <use xlink:href="#DejaVuSans-5f" x="190.722656"/>
       <use xlink:href="#DejaVuSans-64" x="240.722656"/>
       <use xlink:href="#DejaVuSans-30" x="304.199219"/>
      </g>
     </g>
    </g>
   </g>
   <g id="matplotlib.axis_2">
    <g id="ytick_1">
     <g id="line2d_2">
      <defs>
       <path id="m3750389e8f" d="M 0 0 
L -3.5 0 
" style="stroke: #000000; stroke-width: 0.8"/>
      </defs>
      <g>
       <use xlink:href="#m3750389e8f" x="47.178365" y="540.75766" style="stroke: #000000; stroke-width: 0.8"/>
      </g>
     </g>
     <g id="text_2">
      <!-- $\mathdefault{10^{-2}}$ -->
      <g transform="translate(16.678365 544.556879) scale(0.1 -0.1)">
       <defs>
        <path id="DejaVuSans-31" d="M 794 531 
L 1825 531 
L 1825 4091 
L 703 3866 
L 703 4441 
L 1819 4666 
L 2450 4666 
L 2450 531 
L 3481 531 
L 3481 0 
L 794 0 
L 794 531 
z
" transform="scale(0.015625)"/>
        <path id="DejaVuSans-2212" d="M 678 2272 
L 4684 2272 
L 4684 1741 
L 678 1741 
L 678 2272 
z
" transform="scale(0.015625)"/>
       </defs>
       <use xlink:href="#DejaVuSans-31" transform="translate(0 0.765625)"/>
       <use xlink:href="#DejaVuSans-30" transform="translate(63.623047 0.765625)"/>
       <use xlink:href="#DejaVuSans-2212" transform="translate(128.203125 39.046875) scale(0.7)"/>
       <use xlink:href="#DejaVuSans-32" transform="translate(186.855469 39.046875) scale(0.7)"/>
      </g>
     </g>
    </g>
    <g id="ytick_2">
     <g id="line2d_3">
      <g>
       <use xlink:href="#m3750389e8f" x="47.178365" y="268.306638" style="stroke: #000000; stroke-width: 0.8"/>
      </g>
     </g>
     <g id="text_3">
      <!-- $\mathdefault{10^{-1}}$ -->
      <g transform="translate(16.678365 272.105857) scale(0.1 -0.1)">
       <use xlink:href="#DejaVuSans-31" transform="translate(0 0.684375)"/>
       <use xlink:href="#DejaVuSans-30" transform="translate(63.623047 0.684375)"/>
       <use xlink:href="#DejaVuSans-2212" transform="translate(128.203125 38.965625) scale(0.7)"/>
       <use xlink:href="#DejaVuSans-31" transform="translate(186.855469 38.965625) scale(0.7)"/>
      </g>
     </g>
    </g>
    <g id="ytick_3">
     <g id="line2d_4">
      <defs>
       <path id="mb9c9d26897" d="M 0 0 
L -2 0 
" style="stroke: #000000; stroke-width: 0.6"/>
      </defs>
      <g>
       <use xlink:href="#mb9c9d26897" x="47.178365" y="649.176823" style="stroke: #000000; stroke-width: 0.6"/>
      </g>
     </g>
    </g>
    <g id="ytick_4">
     <g id="line2d_5">
      <g>
       <use xlink:href="#mb9c9d26897" x="47.178365" y="622.773591" style="stroke: #000000; stroke-width: 0.6"/>
      </g>
     </g>
    </g>
    <g id="ytick_5">
     <g id="line2d_6">
      <g>
       <use xlink:href="#mb9c9d26897" x="47.178365" y="601.200579" style="stroke: #000000; stroke-width: 0.6"/>
      </g>
     </g>
    </g>
    <g id="ytick_6">
     <g id="line2d_7">
      <g>
       <use xlink:href="#mb9c9d26897" x="47.178365" y="582.960858" style="stroke: #000000; stroke-width: 0.6"/>
      </g>
     </g>
    </g>
    <g id="ytick_7">
     <g id="line2d_8">
      <g>
       <use xlink:href="#mb9c9d26897" x="47.178365" y="567.160893" style="stroke: #000000; stroke-width: 0.6"/>
      </g>
     </g>
    </g>
    <g id="ytick_8">
     <g id="line2d_9">
      <g>
       <use xlink:href="#mb9c9d26897" x="47.178365" y="553.224336" style="stroke: #000000; stroke-width: 0.6"/>
      </g>
     </g>
    </g>
    <g id="ytick_9">
     <g id="line2d_10">
      <g>
       <use xlink:href="#mb9c9d26897" x="47.178365" y="458.74173" style="stroke: #000000; stroke-width: 0.6"/>
      </g>
     </g>
    </g>
    <g id="ytick_10">
     <g id="line2d_11">
      <g>
       <use xlink:href="#mb9c9d26897" x="47.178365" y="410.765487" style="stroke: #000000; stroke-width: 0.6"/>
      </g>
     </g>
    </g>
    <g id="ytick_11">
     <g id="line2d_12">
      <g>
       <use xlink:href="#mb9c9d26897" x="47.178365" y="376.7258" style="stroke: #000000; stroke-width: 0.6"/>
      </g>
     </g>
    </g>
    <g id="ytick_12">
     <g id="line2d_13">
      <g>
       <use xlink:href="#mb9c9d26897" x="47.178365" y="350.322568" style="stroke: #000000; stroke-width: 0.6"/>
      </g>
     </g>
    </g>
    <g id="ytick_13">
     <g id="line2d_14">
      <g>
       <use xlink:href="#mb9c9d26897" x="47.178365" y="328.749557" style="stroke: #000000; stroke-width: 0.6"/>
      </g>
     </g>
    </g>
    <g id="ytick_14">
     <g id="line2d_15">
      <g>
       <use xlink:href="#mb9c9d26897" x="47.178365" y="310.509835" style="stroke: #000000; stroke-width: 0.6"/>
      </g>
     </g>
    </g>
    <g id="ytick_15">
     <g id="line2d_16">
      <g>
       <use xlink:href="#mb9c9d26897" x="47.178365" y="294.70987" style="stroke: #000000; stroke-width: 0.6"/>
      </g>
     </g>
    </g>
    <g id="ytick_16">
     <g id="line2d_17">
      <g>
       <use xlink:href="#mb9c9d26897" x="47.178365" y="280.773313" style="stroke: #000000; stroke-width: 0.6"/>
      </g>
     </g>
    </g>
    <g id="ytick_17">
     <g id="line2d_18">
      <g>
       <use xlink:href="#mb9c9d26897" x="47.178365" y="186.290708" style="stroke: #000000; stroke-width: 0.6"/>
      </g>
     </g>
    </g>
    <g id="ytick_18">
     <g id="line2d_19">
      <g>
       <use xlink:href="#mb9c9d26897" x="47.178365" y="138.314464" style="stroke: #000000; stroke-width: 0.6"/>
      </g>
     </g>
    </g>
    <g id="ytick_19">
     <g id="line2d_20">
      <g>
       <use xlink:href="#mb9c9d26897" x="47.178365" y="104.274777" style="stroke: #000000; stroke-width: 0.6"/>
      </g>
     </g>
    </g>
    <g id="ytick_20">
     <g id="line2d_21">
      <g>
       <use xlink:href="#mb9c9d26897" x="47.178365" y="77.871545" style="stroke: #000000; stroke-width: 0.6"/>
      </g>
     </g>
    </g>
    <g id="ytick_21">
     <g id="line2d_22">
      <g>
       <use xlink:href="#mb9c9d26897" x="47.178365" y="56.298534" style="stroke: #000000; stroke-width: 0.6"/>
      </g>
     </g>
    </g>
    <g id="ytick_22">
     <g id="line2d_23">
      <g>
       <use xlink:href="#mb9c9d26897" x="47.178365" y="38.058813" style="stroke: #000000; stroke-width: 0.6"/>
      </g>
     </g>
    </g>
    <g id="ytick_23">
     <g id="line2d_24">
      <g>
       <use xlink:href="#mb9c9d26897" x="47.178365" y="22.258847" style="stroke: #000000; stroke-width: 0.6"/>
      </g>
     </g>
    </g>
    <g id="ytick_24">
     <g id="line2d_25">
      <g>
       <use xlink:href="#mb9c9d26897" x="47.178365" y="8.32229" style="stroke: #000000; stroke-width: 0.6"/>
      </g>
     </g>
    </g>
    <g id="text_4">
     <!-- Time (s) -->
     <g transform="translate(10.598677 357.123284) rotate(-90) scale(0.1 -0.1)">
      <defs>
       <path id="DejaVuSans-54" d="M -19 4666 
L 3928 4666 
L 3928 4134 
L 2272 4134 
L 2272 0 
L 1638 0 
L 1638 4134 
L -19 4134 
L -19 4666 
z
" transform="scale(0.015625)"/>
       <path id="DejaVuSans-69" d="M 603 3500 
L 1178 3500 
L 1178 0 
L 603 0 
L 603 3500 
z
M 603 4863 
L 1178 4863 
L 1178 4134 
L 603 4134 
L 603 4863 
z
" transform="scale(0.015625)"/>
       <path id="DejaVuSans-6d" d="M 3328 2828 
Q 3544 3216 3844 3400 
Q 4144 3584 4550 3584 
Q 5097 3584 5394 3201 
Q 5691 2819 5691 2113 
L 5691 0 
L 5113 0 
L 5113 2094 
Q 5113 2597 4934 2840 
Q 4756 3084 4391 3084 
Q 3944 3084 3684 2787 
Q 3425 2491 3425 1978 
L 3425 0 
L 2847 0 
L 2847 2094 
Q 2847 2600 2669 2842 
Q 2491 3084 2119 3084 
Q 1678 3084 1418 2786 
Q 1159 2488 1159 1978 
L 1159 0 
L 581 0 
L 581 3500 
L 1159 3500 
L 1159 2956 
Q 1356 3278 1631 3431 
Q 1906 3584 2284 3584 
Q 2666 3584 2933 3390 
Q 3200 3197 3328 2828 
z
" transform="scale(0.015625)"/>
       <path id="DejaVuSans-65" d="M 3597 1894 
L 3597 1613 
L 953 1613 
Q 991 1019 1311 708 
Q 1631 397 2203 397 
Q 2534 397 2845 478 
Q 3156 559 3463 722 
L 3463 178 
Q 3153 47 2828 -22 
Q 2503 -91 2169 -91 
Q 1331 -91 842 396 
Q 353 884 353 1716 
Q 353 2575 817 3079 
Q 1281 3584 2069 3584 
Q 2775 3584 3186 3129 
Q 3597 2675 3597 1894 
z
M 3022 2063 
Q 3016 2534 2758 2815 
Q 2500 3097 2075 3097 
Q 1594 3097 1305 2825 
Q 1016 2553 972 2059 
L 3022 2063 
z
" transform="scale(0.015625)"/>
       <path id="DejaVuSans-20" transform="scale(0.015625)"/>
       <path id="DejaVuSans-28" d="M 1984 4856 
Q 1566 4138 1362 3434 
Q 1159 2731 1159 2009 
Q 1159 1288 1364 580 
Q 1569 -128 1984 -844 
L 1484 -844 
Q 1016 -109 783 600 
Q 550 1309 550 2009 
Q 550 2706 781 3412 
Q 1013 4119 1484 4856 
L 1984 4856 
z
" transform="scale(0.015625)"/>
       <path id="DejaVuSans-73" d="M 2834 3397 
L 2834 2853 
Q 2591 2978 2328 3040 
Q 2066 3103 1784 3103 
Q 1356 3103 1142 2972 
Q 928 2841 928 2578 
Q 928 2378 1081 2264 
Q 1234 2150 1697 2047 
L 1894 2003 
Q 2506 1872 2764 1633 
Q 3022 1394 3022 966 
Q 3022 478 2636 193 
Q 2250 -91 1575 -91 
Q 1294 -91 989 -36 
Q 684 19 347 128 
L 347 722 
Q 666 556 975 473 
Q 1284 391 1588 391 
Q 1994 391 2212 530 
Q 2431 669 2431 922 
Q 2431 1156 2273 1281 
Q 2116 1406 1581 1522 
L 1381 1569 
Q 847 1681 609 1914 
Q 372 2147 372 2553 
Q 372 3047 722 3315 
Q 1072 3584 1716 3584 
Q 2034 3584 2315 3537 
Q 2597 3491 2834 3397 
z
" transform="scale(0.015625)"/>
       <path id="DejaVuSans-29" d="M 513 4856 
L 1013 4856 
Q 1481 4119 1714 3412 
Q 1947 2706 1947 2009 
Q 1947 1309 1714 600 
Q 1481 -109 1013 -844 
L 513 -844 
Q 928 -128 1133 580 
Q 1338 1288 1338 2009 
Q 1338 2731 1133 3434 
Q 928 4138 513 4856 
z
" transform="scale(0.015625)"/>
      </defs>
      <use xlink:href="#DejaVuSans-54"/>
      <use xlink:href="#DejaVuSans-69" x="57.958984"/>
      <use xlink:href="#DejaVuSans-6d" x="85.742188"/>
      <use xlink:href="#DejaVuSans-65" x="183.154297"/>
      <use xlink:href="#DejaVuSans-20" x="244.677734"/>
      <use xlink:href="#DejaVuSans-28" x="276.464844"/>
      <use xlink:href="#DejaVuSans-73" x="315.478516"/>
      <use xlink:href="#DejaVuSans-29" x="367.578125"/>
     </g>
    </g>
   </g>
   <g id="patch_267">
    <path d="M 47.178365 670.588516 
L 47.178365 3.00024 
" style="fill: none; stroke: #000000; stroke-width: 0.8; stroke-linejoin: miter; stroke-linecap: square"/>
   </g>
   <g id="patch_268">
    <path d="M 1292.99976 670.588516 
L 1292.99976 3.00024 
" style="fill: none; stroke: #000000; stroke-width: 0.8; stroke-linejoin: miter; stroke-linecap: square"/>
   </g>
   <g id="patch_269">
    <path d="M 47.178365 670.588516 
L 1292.99976 670.588516 
" style="fill: none; stroke: #000000; stroke-width: 0.8; stroke-linejoin: miter; stroke-linecap: square"/>
   </g>
   <g id="patch_270">
    <path d="M 47.178365 3.00024 
L 1292.99976 3.00024 
" style="fill: none; stroke: #000000; stroke-width: 0.8; stroke-linejoin: miter; stroke-linecap: square"/>
   </g>
   <g id="legend_1">
    <g id="patch_271">
     <path d="M 54.178365 40.91274 
L 939.908053 40.91274 
Q 941.908053 40.91274 941.908053 38.91274 
L 941.908053 10.00024 
Q 941.908053 8.00024 939.908053 8.00024 
L 54.178365 8.00024 
Q 52.178365 8.00024 52.178365 10.00024 
L 52.178365 38.91274 
Q 52.178365 40.91274 54.178365 40.91274 
z
" style="fill: #ffffff; opacity: 0.8; stroke: #cccccc; stroke-linejoin: miter"/>
    </g>
    <g id="patch_272">
     <path d="M 56.178365 19.598678 
L 76.178365 19.598678 
L 76.178365 12.598678 
L 56.178365 12.598678 
z
" style="fill: #1f77b4"/>
    </g>
    <g id="text_5">
     <!-- HacksynthHackdelFullSygus64 -->
     <g transform="translate(84.178365 19.598678) scale(0.1 -0.1)">
      <defs>
       <path id="DejaVuSans-48" d="M 628 4666 
L 1259 4666 
L 1259 2753 
L 3553 2753 
L 3553 4666 
L 4184 4666 
L 4184 0 
L 3553 0 
L 3553 2222 
L 1259 2222 
L 1259 0 
L 628 0 
L 628 4666 
z
" transform="scale(0.015625)"/>
       <path id="DejaVuSans-61" d="M 2194 1759 
Q 1497 1759 1228 1600 
Q 959 1441 959 1056 
Q 959 750 1161 570 
Q 1363 391 1709 391 
Q 2188 391 2477 730 
Q 2766 1069 2766 1631 
L 2766 1759 
L 2194 1759 
z
M 3341 1997 
L 3341 0 
L 2766 0 
L 2766 531 
Q 2569 213 2275 61 
Q 1981 -91 1556 -91 
Q 1019 -91 701 211 
Q 384 513 384 1019 
Q 384 1609 779 1909 
Q 1175 2209 1959 2209 
L 2766 2209 
L 2766 2266 
Q 2766 2663 2505 2880 
Q 2244 3097 1772 3097 
Q 1472 3097 1187 3025 
Q 903 2953 641 2809 
L 641 3341 
Q 956 3463 1253 3523 
Q 1550 3584 1831 3584 
Q 2591 3584 2966 3190 
Q 3341 2797 3341 1997 
z
" transform="scale(0.015625)"/>
       <path id="DejaVuSans-63" d="M 3122 3366 
L 3122 2828 
Q 2878 2963 2633 3030 
Q 2388 3097 2138 3097 
Q 1578 3097 1268 2742 
Q 959 2388 959 1747 
Q 959 1106 1268 751 
Q 1578 397 2138 397 
Q 2388 397 2633 464 
Q 2878 531 3122 666 
L 3122 134 
Q 2881 22 2623 -34 
Q 2366 -91 2075 -91 
Q 1284 -91 818 406 
Q 353 903 353 1747 
Q 353 2603 823 3093 
Q 1294 3584 2113 3584 
Q 2378 3584 2631 3529 
Q 2884 3475 3122 3366 
z
" transform="scale(0.015625)"/>
       <path id="DejaVuSans-6b" d="M 581 4863 
L 1159 4863 
L 1159 1991 
L 2875 3500 
L 3609 3500 
L 1753 1863 
L 3688 0 
L 2938 0 
L 1159 1709 
L 1159 0 
L 581 0 
L 581 4863 
z
" transform="scale(0.015625)"/>
       <path id="DejaVuSans-79" d="M 2059 -325 
Q 1816 -950 1584 -1140 
Q 1353 -1331 966 -1331 
L 506 -1331 
L 506 -850 
L 844 -850 
Q 1081 -850 1212 -737 
Q 1344 -625 1503 -206 
L 1606 56 
L 191 3500 
L 800 3500 
L 1894 763 
L 2988 3500 
L 3597 3500 
L 2059 -325 
z
" transform="scale(0.015625)"/>
       <path id="DejaVuSans-6e" d="M 3513 2113 
L 3513 0 
L 2938 0 
L 2938 2094 
Q 2938 2591 2744 2837 
Q 2550 3084 2163 3084 
Q 1697 3084 1428 2787 
Q 1159 2491 1159 1978 
L 1159 0 
L 581 0 
L 581 3500 
L 1159 3500 
L 1159 2956 
Q 1366 3272 1645 3428 
Q 1925 3584 2291 3584 
Q 2894 3584 3203 3211 
Q 3513 2838 3513 2113 
z
" transform="scale(0.015625)"/>
       <path id="DejaVuSans-74" d="M 1172 4494 
L 1172 3500 
L 2356 3500 
L 2356 3053 
L 1172 3053 
L 1172 1153 
Q 1172 725 1289 603 
Q 1406 481 1766 481 
L 2356 481 
L 2356 0 
L 1766 0 
Q 1100 0 847 248 
Q 594 497 594 1153 
L 594 3053 
L 172 3053 
L 172 3500 
L 594 3500 
L 594 4494 
L 1172 4494 
z
" transform="scale(0.015625)"/>
       <path id="DejaVuSans-68" d="M 3513 2113 
L 3513 0 
L 2938 0 
L 2938 2094 
Q 2938 2591 2744 2837 
Q 2550 3084 2163 3084 
Q 1697 3084 1428 2787 
Q 1159 2491 1159 1978 
L 1159 0 
L 581 0 
L 581 4863 
L 1159 4863 
L 1159 2956 
Q 1366 3272 1645 3428 
Q 1925 3584 2291 3584 
Q 2894 3584 3203 3211 
Q 3513 2838 3513 2113 
z
" transform="scale(0.015625)"/>
       <path id="DejaVuSans-6c" d="M 603 4863 
L 1178 4863 
L 1178 0 
L 603 0 
L 603 4863 
z
" transform="scale(0.015625)"/>
       <path id="DejaVuSans-46" d="M 628 4666 
L 3309 4666 
L 3309 4134 
L 1259 4134 
L 1259 2759 
L 3109 2759 
L 3109 2228 
L 1259 2228 
L 1259 0 
L 628 0 
L 628 4666 
z
" transform="scale(0.015625)"/>
       <path id="DejaVuSans-75" d="M 544 1381 
L 544 3500 
L 1119 3500 
L 1119 1403 
Q 1119 906 1312 657 
Q 1506 409 1894 409 
Q 2359 409 2629 706 
Q 2900 1003 2900 1516 
L 2900 3500 
L 3475 3500 
L 3475 0 
L 2900 0 
L 2900 538 
Q 2691 219 2414 64 
Q 2138 -91 1772 -91 
Q 1169 -91 856 284 
Q 544 659 544 1381 
z
M 1991 3584 
L 1991 3584 
z
" transform="scale(0.015625)"/>
       <path id="DejaVuSans-53" d="M 3425 4513 
L 3425 3897 
Q 3066 4069 2747 4153 
Q 2428 4238 2131 4238 
Q 1616 4238 1336 4038 
Q 1056 3838 1056 3469 
Q 1056 3159 1242 3001 
Q 1428 2844 1947 2747 
L 2328 2669 
Q 3034 2534 3370 2195 
Q 3706 1856 3706 1288 
Q 3706 609 3251 259 
Q 2797 -91 1919 -91 
Q 1588 -91 1214 -16 
Q 841 59 441 206 
L 441 856 
Q 825 641 1194 531 
Q 1563 422 1919 422 
Q 2459 422 2753 634 
Q 3047 847 3047 1241 
Q 3047 1584 2836 1778 
Q 2625 1972 2144 2069 
L 1759 2144 
Q 1053 2284 737 2584 
Q 422 2884 422 3419 
Q 422 4038 858 4394 
Q 1294 4750 2059 4750 
Q 2388 4750 2728 4690 
Q 3069 4631 3425 4513 
z
" transform="scale(0.015625)"/>
       <path id="DejaVuSans-67" d="M 2906 1791 
Q 2906 2416 2648 2759 
Q 2391 3103 1925 3103 
Q 1463 3103 1205 2759 
Q 947 2416 947 1791 
Q 947 1169 1205 825 
Q 1463 481 1925 481 
Q 2391 481 2648 825 
Q 2906 1169 2906 1791 
z
M 3481 434 
Q 3481 -459 3084 -895 
Q 2688 -1331 1869 -1331 
Q 1566 -1331 1297 -1286 
Q 1028 -1241 775 -1147 
L 775 -588 
Q 1028 -725 1275 -790 
Q 1522 -856 1778 -856 
Q 2344 -856 2625 -561 
Q 2906 -266 2906 331 
L 2906 616 
Q 2728 306 2450 153 
Q 2172 0 1784 0 
Q 1141 0 747 490 
Q 353 981 353 1791 
Q 353 2603 747 3093 
Q 1141 3584 1784 3584 
Q 2172 3584 2450 3431 
Q 2728 3278 2906 2969 
L 2906 3500 
L 3481 3500 
L 3481 434 
z
" transform="scale(0.015625)"/>
       <path id="DejaVuSans-36" d="M 2113 2584 
Q 1688 2584 1439 2293 
Q 1191 2003 1191 1497 
Q 1191 994 1439 701 
Q 1688 409 2113 409 
Q 2538 409 2786 701 
Q 3034 994 3034 1497 
Q 3034 2003 2786 2293 
Q 2538 2584 2113 2584 
z
M 3366 4563 
L 3366 3988 
Q 3128 4100 2886 4159 
Q 2644 4219 2406 4219 
Q 1781 4219 1451 3797 
Q 1122 3375 1075 2522 
Q 1259 2794 1537 2939 
Q 1816 3084 2150 3084 
Q 2853 3084 3261 2657 
Q 3669 2231 3669 1497 
Q 3669 778 3244 343 
Q 2819 -91 2113 -91 
Q 1303 -91 875 529 
Q 447 1150 447 2328 
Q 447 3434 972 4092 
Q 1497 4750 2381 4750 
Q 2619 4750 2861 4703 
Q 3103 4656 3366 4563 
z
" transform="scale(0.015625)"/>
       <path id="DejaVuSans-34" d="M 2419 4116 
L 825 1625 
L 2419 1625 
L 2419 4116 
z
M 2253 4666 
L 3047 4666 
L 3047 1625 
L 3713 1625 
L 3713 1100 
L 3047 1100 
L 3047 0 
L 2419 0 
L 2419 1100 
L 313 1100 
L 313 1709 
L 2253 4666 
z
" transform="scale(0.015625)"/>
      </defs>
      <use xlink:href="#DejaVuSans-48"/>
      <use xlink:href="#DejaVuSans-61" x="75.195312"/>
      <use xlink:href="#DejaVuSans-63" x="136.474609"/>
      <use xlink:href="#DejaVuSans-6b" x="191.455078"/>
      <use xlink:href="#DejaVuSans-73" x="249.365234"/>
      <use xlink:href="#DejaVuSans-79" x="301.464844"/>
      <use xlink:href="#DejaVuSans-6e" x="360.644531"/>
      <use xlink:href="#DejaVuSans-74" x="424.023438"/>
      <use xlink:href="#DejaVuSans-68" x="463.232422"/>
      <use xlink:href="#DejaVuSans-48" x="526.611328"/>
      <use xlink:href="#DejaVuSans-61" x="601.806641"/>
      <use xlink:href="#DejaVuSans-63" x="663.085938"/>
      <use xlink:href="#DejaVuSans-6b" x="718.066406"/>
      <use xlink:href="#DejaVuSans-64" x="775.976562"/>
      <use xlink:href="#DejaVuSans-65" x="839.453125"/>
      <use xlink:href="#DejaVuSans-6c" x="900.976562"/>
      <use xlink:href="#DejaVuSans-46" x="928.759766"/>
      <use xlink:href="#DejaVuSans-75" x="980.779297"/>
      <use xlink:href="#DejaVuSans-6c" x="1044.158203"/>
      <use xlink:href="#DejaVuSans-6c" x="1071.941406"/>
      <use xlink:href="#DejaVuSans-53" x="1099.724609"/>
      <use xlink:href="#DejaVuSans-79" x="1163.201172"/>
      <use xlink:href="#DejaVuSans-67" x="1222.380859"/>
      <use xlink:href="#DejaVuSans-75" x="1285.857422"/>
      <use xlink:href="#DejaVuSans-73" x="1349.236328"/>
      <use xlink:href="#DejaVuSans-36" x="1401.335938"/>
      <use xlink:href="#DejaVuSans-34" x="1464.958984"/>
     </g>
    </g>
    <g id="patch_273">
     <path d="M 56.178365 34.276803 
L 76.178365 34.276803 
L 76.178365 27.276803 
L 56.178365 27.276803 
z
" style="fill: #ff7f0e"/>
    </g>
    <g id="text_6">
     <!-- HacksynthHackdelFullSygusDownscaling64 -->
     <g transform="translate(84.178365 34.276803) scale(0.1 -0.1)">
      <defs>
       <path id="DejaVuSans-44" d="M 1259 4147 
L 1259 519 
L 2022 519 
Q 2988 519 3436 956 
Q 3884 1394 3884 2338 
Q 3884 3275 3436 3711 
Q 2988 4147 2022 4147 
L 1259 4147 
z
M 628 4666 
L 1925 4666 
Q 3281 4666 3915 4102 
Q 4550 3538 4550 2338 
Q 4550 1131 3912 565 
Q 3275 0 1925 0 
L 628 0 
L 628 4666 
z
" transform="scale(0.015625)"/>
       <path id="DejaVuSans-6f" d="M 1959 3097 
Q 1497 3097 1228 2736 
Q 959 2375 959 1747 
Q 959 1119 1226 758 
Q 1494 397 1959 397 
Q 2419 397 2687 759 
Q 2956 1122 2956 1747 
Q 2956 2369 2687 2733 
Q 2419 3097 1959 3097 
z
M 1959 3584 
Q 2709 3584 3137 3096 
Q 3566 2609 3566 1747 
Q 3566 888 3137 398 
Q 2709 -91 1959 -91 
Q 1206 -91 779 398 
Q 353 888 353 1747 
Q 353 2609 779 3096 
Q 1206 3584 1959 3584 
z
" transform="scale(0.015625)"/>
       <path id="DejaVuSans-77" d="M 269 3500 
L 844 3500 
L 1563 769 
L 2278 3500 
L 2956 3500 
L 3675 769 
L 4391 3500 
L 4966 3500 
L 4050 0 
L 3372 0 
L 2619 2869 
L 1863 0 
L 1184 0 
L 269 3500 
z
" transform="scale(0.015625)"/>
      </defs>
      <use xlink:href="#DejaVuSans-48"/>
      <use xlink:href="#DejaVuSans-61" x="75.195312"/>
      <use xlink:href="#DejaVuSans-63" x="136.474609"/>
      <use xlink:href="#DejaVuSans-6b" x="191.455078"/>
      <use xlink:href="#DejaVuSans-73" x="249.365234"/>
      <use xlink:href="#DejaVuSans-79" x="301.464844"/>
      <use xlink:href="#DejaVuSans-6e" x="360.644531"/>
      <use xlink:href="#DejaVuSans-74" x="424.023438"/>
      <use xlink:href="#DejaVuSans-68" x="463.232422"/>
      <use xlink:href="#DejaVuSans-48" x="526.611328"/>
      <use xlink:href="#DejaVuSans-61" x="601.806641"/>
      <use xlink:href="#DejaVuSans-63" x="663.085938"/>
      <use xlink:href="#DejaVuSans-6b" x="718.066406"/>
      <use xlink:href="#DejaVuSans-64" x="775.976562"/>
      <use xlink:href="#DejaVuSans-65" x="839.453125"/>
      <use xlink:href="#DejaVuSans-6c" x="900.976562"/>
      <use xlink:href="#DejaVuSans-46" x="928.759766"/>
      <use xlink:href="#DejaVuSans-75" x="980.779297"/>
      <use xlink:href="#DejaVuSans-6c" x="1044.158203"/>
      <use xlink:href="#DejaVuSans-6c" x="1071.941406"/>
      <use xlink:href="#DejaVuSans-53" x="1099.724609"/>
      <use xlink:href="#DejaVuSans-79" x="1163.201172"/>
      <use xlink:href="#DejaVuSans-67" x="1222.380859"/>
      <use xlink:href="#DejaVuSans-75" x="1285.857422"/>
      <use xlink:href="#DejaVuSans-73" x="1349.236328"/>
      <use xlink:href="#DejaVuSans-44" x="1401.335938"/>
      <use xlink:href="#DejaVuSans-6f" x="1478.337891"/>
      <use xlink:href="#DejaVuSans-77" x="1539.519531"/>
      <use xlink:href="#DejaVuSans-6e" x="1621.306641"/>
      <use xlink:href="#DejaVuSans-73" x="1684.685547"/>
      <use xlink:href="#DejaVuSans-63" x="1736.785156"/>
      <use xlink:href="#DejaVuSans-61" x="1791.765625"/>
      <use xlink:href="#DejaVuSans-6c" x="1853.044922"/>
      <use xlink:href="#DejaVuSans-69" x="1880.828125"/>
      <use xlink:href="#DejaVuSans-6e" x="1908.611328"/>
      <use xlink:href="#DejaVuSans-67" x="1971.990234"/>
      <use xlink:href="#DejaVuSans-36" x="2035.466797"/>
      <use xlink:href="#DejaVuSans-34" x="2099.089844"/>
     </g>
    </g>
    <g id="patch_274">
     <path d="M 320.451802 19.598678 
L 340.451802 19.598678 
L 340.451802 12.598678 
L 320.451802 12.598678 
z
" style="fill: #2ca02c"/>
    </g>
    <g id="text_7">
     <!-- HacksynthHackdelFullSygusDownscaling64ds_time -->
     <g transform="translate(348.451802 19.598678) scale(0.1 -0.1)">
      <use xlink:href="#DejaVuSans-48"/>
      <use xlink:href="#DejaVuSans-61" x="75.195312"/>
      <use xlink:href="#DejaVuSans-63" x="136.474609"/>
      <use xlink:href="#DejaVuSans-6b" x="191.455078"/>
      <use xlink:href="#DejaVuSans-73" x="249.365234"/>
      <use xlink:href="#DejaVuSans-79" x="301.464844"/>
      <use xlink:href="#DejaVuSans-6e" x="360.644531"/>
      <use xlink:href="#DejaVuSans-74" x="424.023438"/>
      <use xlink:href="#DejaVuSans-68" x="463.232422"/>
      <use xlink:href="#DejaVuSans-48" x="526.611328"/>
      <use xlink:href="#DejaVuSans-61" x="601.806641"/>
      <use xlink:href="#DejaVuSans-63" x="663.085938"/>
      <use xlink:href="#DejaVuSans-6b" x="718.066406"/>
      <use xlink:href="#DejaVuSans-64" x="775.976562"/>
      <use xlink:href="#DejaVuSans-65" x="839.453125"/>
      <use xlink:href="#DejaVuSans-6c" x="900.976562"/>
      <use xlink:href="#DejaVuSans-46" x="928.759766"/>
      <use xlink:href="#DejaVuSans-75" x="980.779297"/>
      <use xlink:href="#DejaVuSans-6c" x="1044.158203"/>
      <use xlink:href="#DejaVuSans-6c" x="1071.941406"/>
      <use xlink:href="#DejaVuSans-53" x="1099.724609"/>
      <use xlink:href="#DejaVuSans-79" x="1163.201172"/>
      <use xlink:href="#DejaVuSans-67" x="1222.380859"/>
      <use xlink:href="#DejaVuSans-75" x="1285.857422"/>
      <use xlink:href="#DejaVuSans-73" x="1349.236328"/>
      <use xlink:href="#DejaVuSans-44" x="1401.335938"/>
      <use xlink:href="#DejaVuSans-6f" x="1478.337891"/>
      <use xlink:href="#DejaVuSans-77" x="1539.519531"/>
      <use xlink:href="#DejaVuSans-6e" x="1621.306641"/>
      <use xlink:href="#DejaVuSans-73" x="1684.685547"/>
      <use xlink:href="#DejaVuSans-63" x="1736.785156"/>
      <use xlink:href="#DejaVuSans-61" x="1791.765625"/>
      <use xlink:href="#DejaVuSans-6c" x="1853.044922"/>
      <use xlink:href="#DejaVuSans-69" x="1880.828125"/>
      <use xlink:href="#DejaVuSans-6e" x="1908.611328"/>
      <use xlink:href="#DejaVuSans-67" x="1971.990234"/>
      <use xlink:href="#DejaVuSans-36" x="2035.466797"/>
      <use xlink:href="#DejaVuSans-34" x="2099.089844"/>
      <use xlink:href="#DejaVuSans-64" x="2162.712891"/>
      <use xlink:href="#DejaVuSans-73" x="2226.189453"/>
      <use xlink:href="#DejaVuSans-5f" x="2278.289062"/>
      <use xlink:href="#DejaVuSans-74" x="2328.289062"/>
      <use xlink:href="#DejaVuSans-69" x="2367.498047"/>
      <use xlink:href="#DejaVuSans-6d" x="2395.28125"/>
      <use xlink:href="#DejaVuSans-65" x="2492.693359"/>
     </g>
    </g>
    <g id="patch_275">
     <path d="M 320.451802 34.554928 
L 340.451802 34.554928 
L 340.451802 27.554928 
L 320.451802 27.554928 
z
" style="fill: #d62728"/>
    </g>
    <g id="text_8">
     <!-- HacksynthHackdelFullSygusDownscaling64const_time -->
     <g transform="translate(348.451802 34.554928) scale(0.1 -0.1)">
      <use xlink:href="#DejaVuSans-48"/>
      <use xlink:href="#DejaVuSans-61" x="75.195312"/>
      <use xlink:href="#DejaVuSans-63" x="136.474609"/>
      <use xlink:href="#DejaVuSans-6b" x="191.455078"/>
      <use xlink:href="#DejaVuSans-73" x="249.365234"/>
      <use xlink:href="#DejaVuSans-79" x="301.464844"/>
      <use xlink:href="#DejaVuSans-6e" x="360.644531"/>
      <use xlink:href="#DejaVuSans-74" x="424.023438"/>
      <use xlink:href="#DejaVuSans-68" x="463.232422"/>
      <use xlink:href="#DejaVuSans-48" x="526.611328"/>
      <use xlink:href="#DejaVuSans-61" x="601.806641"/>
      <use xlink:href="#DejaVuSans-63" x="663.085938"/>
      <use xlink:href="#DejaVuSans-6b" x="718.066406"/>
      <use xlink:href="#DejaVuSans-64" x="775.976562"/>
      <use xlink:href="#DejaVuSans-65" x="839.453125"/>
      <use xlink:href="#DejaVuSans-6c" x="900.976562"/>
      <use xlink:href="#DejaVuSans-46" x="928.759766"/>
      <use xlink:href="#DejaVuSans-75" x="980.779297"/>
      <use xlink:href="#DejaVuSans-6c" x="1044.158203"/>
      <use xlink:href="#DejaVuSans-6c" x="1071.941406"/>
      <use xlink:href="#DejaVuSans-53" x="1099.724609"/>
      <use xlink:href="#DejaVuSans-79" x="1163.201172"/>
      <use xlink:href="#DejaVuSans-67" x="1222.380859"/>
      <use xlink:href="#DejaVuSans-75" x="1285.857422"/>
      <use xlink:href="#DejaVuSans-73" x="1349.236328"/>
      <use xlink:href="#DejaVuSans-44" x="1401.335938"/>
      <use xlink:href="#DejaVuSans-6f" x="1478.337891"/>
      <use xlink:href="#DejaVuSans-77" x="1539.519531"/>
      <use xlink:href="#DejaVuSans-6e" x="1621.306641"/>
      <use xlink:href="#DejaVuSans-73" x="1684.685547"/>
      <use xlink:href="#DejaVuSans-63" x="1736.785156"/>
      <use xlink:href="#DejaVuSans-61" x="1791.765625"/>
      <use xlink:href="#DejaVuSans-6c" x="1853.044922"/>
      <use xlink:href="#DejaVuSans-69" x="1880.828125"/>
      <use xlink:href="#DejaVuSans-6e" x="1908.611328"/>
      <use xlink:href="#DejaVuSans-67" x="1971.990234"/>
      <use xlink:href="#DejaVuSans-36" x="2035.466797"/>
      <use xlink:href="#DejaVuSans-34" x="2099.089844"/>
      <use xlink:href="#DejaVuSans-63" x="2162.712891"/>
      <use xlink:href="#DejaVuSans-6f" x="2217.693359"/>
      <use xlink:href="#DejaVuSans-6e" x="2278.875"/>
      <use xlink:href="#DejaVuSans-73" x="2342.253906"/>
      <use xlink:href="#DejaVuSans-74" x="2394.353516"/>
      <use xlink:href="#DejaVuSans-5f" x="2433.5625"/>
      <use xlink:href="#DejaVuSans-74" x="2483.5625"/>
      <use xlink:href="#DejaVuSans-69" x="2522.771484"/>
      <use xlink:href="#DejaVuSans-6d" x="2550.554688"/>
      <use xlink:href="#DejaVuSans-65" x="2647.966797"/>
     </g>
    </g>
    <g id="patch_276">
     <path d="M 639.401803 19.598678 
L 659.401803 19.598678 
L 659.401803 12.598678 
L 639.401803 12.598678 
z
" style="fill: #9467bd"/>
    </g>
    <g id="text_9">
     <!-- HacksynthHackdelFullSygusDownscaling64other_time -->
     <g transform="translate(667.401803 19.598678) scale(0.1 -0.1)">
      <defs>
       <path id="DejaVuSans-72" d="M 2631 2963 
Q 2534 3019 2420 3045 
Q 2306 3072 2169 3072 
Q 1681 3072 1420 2755 
Q 1159 2438 1159 1844 
L 1159 0 
L 581 0 
L 581 3500 
L 1159 3500 
L 1159 2956 
Q 1341 3275 1631 3429 
Q 1922 3584 2338 3584 
Q 2397 3584 2469 3576 
Q 2541 3569 2628 3553 
L 2631 2963 
z
" transform="scale(0.015625)"/>
      </defs>
      <use xlink:href="#DejaVuSans-48"/>
      <use xlink:href="#DejaVuSans-61" x="75.195312"/>
      <use xlink:href="#DejaVuSans-63" x="136.474609"/>
      <use xlink:href="#DejaVuSans-6b" x="191.455078"/>
      <use xlink:href="#DejaVuSans-73" x="249.365234"/>
      <use xlink:href="#DejaVuSans-79" x="301.464844"/>
      <use xlink:href="#DejaVuSans-6e" x="360.644531"/>
      <use xlink:href="#DejaVuSans-74" x="424.023438"/>
      <use xlink:href="#DejaVuSans-68" x="463.232422"/>
      <use xlink:href="#DejaVuSans-48" x="526.611328"/>
      <use xlink:href="#DejaVuSans-61" x="601.806641"/>
      <use xlink:href="#DejaVuSans-63" x="663.085938"/>
      <use xlink:href="#DejaVuSans-6b" x="718.066406"/>
      <use xlink:href="#DejaVuSans-64" x="775.976562"/>
      <use xlink:href="#DejaVuSans-65" x="839.453125"/>
      <use xlink:href="#DejaVuSans-6c" x="900.976562"/>
      <use xlink:href="#DejaVuSans-46" x="928.759766"/>
      <use xlink:href="#DejaVuSans-75" x="980.779297"/>
      <use xlink:href="#DejaVuSans-6c" x="1044.158203"/>
      <use xlink:href="#DejaVuSans-6c" x="1071.941406"/>
      <use xlink:href="#DejaVuSans-53" x="1099.724609"/>
      <use xlink:href="#DejaVuSans-79" x="1163.201172"/>
      <use xlink:href="#DejaVuSans-67" x="1222.380859"/>
      <use xlink:href="#DejaVuSans-75" x="1285.857422"/>
      <use xlink:href="#DejaVuSans-73" x="1349.236328"/>
      <use xlink:href="#DejaVuSans-44" x="1401.335938"/>
      <use xlink:href="#DejaVuSans-6f" x="1478.337891"/>
      <use xlink:href="#DejaVuSans-77" x="1539.519531"/>
      <use xlink:href="#DejaVuSans-6e" x="1621.306641"/>
      <use xlink:href="#DejaVuSans-73" x="1684.685547"/>
      <use xlink:href="#DejaVuSans-63" x="1736.785156"/>
      <use xlink:href="#DejaVuSans-61" x="1791.765625"/>
      <use xlink:href="#DejaVuSans-6c" x="1853.044922"/>
      <use xlink:href="#DejaVuSans-69" x="1880.828125"/>
      <use xlink:href="#DejaVuSans-6e" x="1908.611328"/>
      <use xlink:href="#DejaVuSans-67" x="1971.990234"/>
      <use xlink:href="#DejaVuSans-36" x="2035.466797"/>
      <use xlink:href="#DejaVuSans-34" x="2099.089844"/>
      <use xlink:href="#DejaVuSans-6f" x="2162.712891"/>
      <use xlink:href="#DejaVuSans-74" x="2223.894531"/>
      <use xlink:href="#DejaVuSans-68" x="2263.103516"/>
      <use xlink:href="#DejaVuSans-65" x="2326.482422"/>
      <use xlink:href="#DejaVuSans-72" x="2388.005859"/>
      <use xlink:href="#DejaVuSans-5f" x="2429.119141"/>
      <use xlink:href="#DejaVuSans-74" x="2479.119141"/>
      <use xlink:href="#DejaVuSans-69" x="2518.328125"/>
      <use xlink:href="#DejaVuSans-6d" x="2546.111328"/>
      <use xlink:href="#DejaVuSans-65" x="2643.523438"/>
     </g>
    </g>
    <g id="patch_277">
     <path d="M 639.401803 34.554928 
L 659.401803 34.554928 
L 659.401803 27.554928 
L 639.401803 27.554928 
z
" style="fill: #8c564b"/>
    </g>
    <g id="text_10">
     <!-- cvc5-64bit-benchmark -->
     <g transform="translate(667.401803 34.554928) scale(0.1 -0.1)">
      <defs>
       <path id="DejaVuSans-76" d="M 191 3500 
L 800 3500 
L 1894 563 
L 2988 3500 
L 3597 3500 
L 2284 0 
L 1503 0 
L 191 3500 
z
" transform="scale(0.015625)"/>
       <path id="DejaVuSans-35" d="M 691 4666 
L 3169 4666 
L 3169 4134 
L 1269 4134 
L 1269 2991 
Q 1406 3038 1543 3061 
Q 1681 3084 1819 3084 
Q 2600 3084 3056 2656 
Q 3513 2228 3513 1497 
Q 3513 744 3044 326 
Q 2575 -91 1722 -91 
Q 1428 -91 1123 -41 
Q 819 9 494 109 
L 494 744 
Q 775 591 1075 516 
Q 1375 441 1709 441 
Q 2250 441 2565 725 
Q 2881 1009 2881 1497 
Q 2881 1984 2565 2268 
Q 2250 2553 1709 2553 
Q 1456 2553 1204 2497 
Q 953 2441 691 2322 
L 691 4666 
z
" transform="scale(0.015625)"/>
       <path id="DejaVuSans-2d" d="M 313 2009 
L 1997 2009 
L 1997 1497 
L 313 1497 
L 313 2009 
z
" transform="scale(0.015625)"/>
       <path id="DejaVuSans-62" d="M 3116 1747 
Q 3116 2381 2855 2742 
Q 2594 3103 2138 3103 
Q 1681 3103 1420 2742 
Q 1159 2381 1159 1747 
Q 1159 1113 1420 752 
Q 1681 391 2138 391 
Q 2594 391 2855 752 
Q 3116 1113 3116 1747 
z
M 1159 2969 
Q 1341 3281 1617 3432 
Q 1894 3584 2278 3584 
Q 2916 3584 3314 3078 
Q 3713 2572 3713 1747 
Q 3713 922 3314 415 
Q 2916 -91 2278 -91 
Q 1894 -91 1617 61 
Q 1341 213 1159 525 
L 1159 0 
L 581 0 
L 581 4863 
L 1159 4863 
L 1159 2969 
z
" transform="scale(0.015625)"/>
      </defs>
      <use xlink:href="#DejaVuSans-63"/>
      <use xlink:href="#DejaVuSans-76" x="54.980469"/>
      <use xlink:href="#DejaVuSans-63" x="114.160156"/>
      <use xlink:href="#DejaVuSans-35" x="169.140625"/>
      <use xlink:href="#DejaVuSans-2d" x="232.763672"/>
      <use xlink:href="#DejaVuSans-36" x="268.847656"/>
      <use xlink:href="#DejaVuSans-34" x="332.470703"/>
      <use xlink:href="#DejaVuSans-62" x="396.09375"/>
      <use xlink:href="#DejaVuSans-69" x="459.570312"/>
      <use xlink:href="#DejaVuSans-74" x="487.353516"/>
      <use xlink:href="#DejaVuSans-2d" x="526.5625"/>
      <use xlink:href="#DejaVuSans-62" x="562.646484"/>
      <use xlink:href="#DejaVuSans-65" x="626.123047"/>
      <use xlink:href="#DejaVuSans-6e" x="687.646484"/>
      <use xlink:href="#DejaVuSans-63" x="751.025391"/>
      <use xlink:href="#DejaVuSans-68" x="806.005859"/>
      <use xlink:href="#DejaVuSans-6d" x="869.384766"/>
      <use xlink:href="#DejaVuSans-61" x="966.796875"/>
      <use xlink:href="#DejaVuSans-72" x="1028.076172"/>
      <use xlink:href="#DejaVuSans-6b" x="1069.189453"/>
     </g>
    </g>
   </g>
  </g>
 </g>
 <defs>
  <clipPath id="p9e6b9c4e32">
   <rect x="47.178365" y="3.00024" width="1245.821395" height="667.588276"/>
  </clipPath>
 </defs>
</svg>
