<?xml version="1.0" encoding="utf-8" standalone="no"?>
<!DOCTYPE svg PUBLIC "-//W3C//DTD SVG 1.1//EN"
  "http://www.w3.org/Graphics/SVG/1.1/DTD/svg11.dtd">
<svg xmlns:xlink="http://www.w3.org/1999/xlink" width="1296pt" height="717.12pt" viewBox="0 0 1296 717.12" xmlns="http://www.w3.org/2000/svg" version="1.1">
 <metadata>
  <rdf:RDF xmlns:dc="http://purl.org/dc/elements/1.1/" xmlns:cc="http://creativecommons.org/ns#" xmlns:rdf="http://www.w3.org/1999/02/22-rdf-syntax-ns#">
   <cc:Work>
    <dc:type rdf:resource="http://purl.org/dc/dcmitype/StillImage"/>
    <dc:date>2024-09-10T11:11:34.930549</dc:date>
    <dc:format>image/svg+xml</dc:format>
    <dc:creator>
     <cc:Agent>
      <dc:title>Matplotlib v3.9.2, https://matplotlib.org/</dc:title>
     </cc:Agent>
    </dc:creator>
   </cc:Work>
  </rdf:RDF>
 </metadata>
 <defs>
  <style type="text/css">*{stroke-linejoin: round; stroke-linecap: butt}</style>
 </defs>
 <g id="figure_1">
  <g id="patch_1">
   <path d="M 0 717.12 
L 1296 717.12 
L 1296 0 
L 0 0 
z
" style="fill: #ffffff"/>
  </g>
  <g id="axes_1">
   <g id="patch_2">
    <path d="M 47.178365 685.886478 
L 1292.99976 685.886478 
L 1292.99976 3.00024 
L 47.178365 3.00024 
z
" style="fill: #ffffff"/>
   </g>
   <g id="patch_3">
    <path d="M 103.80661 131928.865598 
L 113.323962 131928.865598 
L 113.323962 571.027264 
L 103.80661 571.027264 
z
" clip-path="url(#pcc03d927af)" style="fill: #1f77b4"/>
   </g>
   <g id="patch_4">
    <path d="M 151.393371 131928.865598 
L 160.910723 131928.865598 
L 160.910723 537.329644 
L 151.393371 537.329644 
z
" clip-path="url(#pcc03d927af)" style="fill: #1f77b4"/>
   </g>
   <g id="patch_5">
    <path d="M 198.980132 131928.865598 
L 208.497484 131928.865598 
L 208.497484 652.057518 
L 198.980132 652.057518 
z
" clip-path="url(#pcc03d927af)" style="fill: #1f77b4"/>
   </g>
   <g id="patch_6">
    <path d="M 246.566892 131928.865598 
L 256.084244 131928.865598 
L 256.084244 568.311174 
L 246.566892 568.311174 
z
" clip-path="url(#pcc03d927af)" style="fill: #1f77b4"/>
   </g>
   <g id="patch_7">
    <path d="M 294.153653 131928.865598 
L 303.671005 131928.865598 
L 303.671005 567.208026 
L 294.153653 567.208026 
z
" clip-path="url(#pcc03d927af)" style="fill: #1f77b4"/>
   </g>
   <g id="patch_8">
    <path d="M 341.740414 131928.865598 
L 351.257766 131928.865598 
L 351.257766 564.953944 
L 341.740414 564.953944 
z
" clip-path="url(#pcc03d927af)" style="fill: #1f77b4"/>
   </g>
   <g id="patch_9">
    <path d="M 389.327174 131928.865598 
L 398.844527 131928.865598 
L 398.844527 547.536833 
L 389.327174 547.536833 
z
" clip-path="url(#pcc03d927af)" style="fill: #1f77b4"/>
   </g>
   <g id="patch_10">
    <path d="M 436.913935 131928.865598 
L 446.431287 131928.865598 
L 446.431287 540.628783 
L 436.913935 540.628783 
z
" clip-path="url(#pcc03d927af)" style="fill: #1f77b4"/>
   </g>
   <g id="patch_11">
    <path d="M 484.500696 131928.865598 
L 494.018048 131928.865598 
L 494.018048 534.706342 
L 484.500696 534.706342 
z
" clip-path="url(#pcc03d927af)" style="fill: #1f77b4"/>
   </g>
   <g id="patch_12">
    <path d="M 532.087456 131928.865598 
L 541.604809 131928.865598 
L 541.604809 645.187475 
L 532.087456 645.187475 
z
" clip-path="url(#pcc03d927af)" style="fill: #1f77b4"/>
   </g>
   <g id="patch_13">
    <path d="M 579.674217 131928.865598 
L 589.191569 131928.865598 
L 589.191569 645.770531 
L 579.674217 645.770531 
z
" clip-path="url(#pcc03d927af)" style="fill: #1f77b4"/>
   </g>
   <g id="patch_14">
    <path d="M 627.260978 131928.865598 
L 636.77833 131928.865598 
L 636.77833 645.65604 
L 627.260978 645.65604 
z
" clip-path="url(#pcc03d927af)" style="fill: #1f77b4"/>
   </g>
   <g id="patch_15">
    <path d="M 674.847739 131928.865598 
L 684.365091 131928.865598 
L 684.365091 469.788605 
L 674.847739 469.788605 
z
" clip-path="url(#pcc03d927af)" style="fill: #1f77b4"/>
   </g>
   <g id="patch_16">
    <path d="M 722.434499 131928.865598 
L 731.951851 131928.865598 
L 731.951851 515.977355 
L 722.434499 515.977355 
z
" clip-path="url(#pcc03d927af)" style="fill: #1f77b4"/>
   </g>
   <g id="patch_17">
    <path d="M 770.02126 131928.865598 
L 779.538612 131928.865598 
L 779.538612 481.527689 
L 770.02126 481.527689 
z
" clip-path="url(#pcc03d927af)" style="fill: #1f77b4"/>
   </g>
   <g id="patch_18">
    <path d="M 817.608021 131928.865598 
L 827.125373 131928.865598 
L 827.125373 654.667324 
L 817.608021 654.667324 
z
" clip-path="url(#pcc03d927af)" style="fill: #1f77b4"/>
   </g>
   <g id="patch_19">
    <path d="M 865.194781 131928.865598 
L 874.712133 131928.865598 
L 874.712133 479.020902 
L 865.194781 479.020902 
z
" clip-path="url(#pcc03d927af)" style="fill: #1f77b4"/>
   </g>
   <g id="patch_20">
    <path d="M 912.781542 131928.865598 
L 922.298894 131928.865598 
L 922.298894 653.230482 
L 912.781542 653.230482 
z
" clip-path="url(#pcc03d927af)" style="fill: #1f77b4"/>
   </g>
   <g id="patch_21">
    <path d="M 960.368303 131928.865598 
L 969.885655 131928.865598 
L 969.885655 651.569017 
L 960.368303 651.569017 
z
" clip-path="url(#pcc03d927af)" style="fill: #1f77b4"/>
   </g>
   <g id="patch_22">
    <path d="M 1007.955063 131928.865598 
L 1017.472416 131928.865598 
L 1017.472416 462.811312 
L 1007.955063 462.811312 
z
" clip-path="url(#pcc03d927af)" style="fill: #1f77b4"/>
   </g>
   <g id="patch_23">
    <path d="M 1055.541824 131928.865598 
L 1065.059176 131928.865598 
L 1065.059176 34.040524 
L 1055.541824 34.040524 
z
" clip-path="url(#pcc03d927af)" style="fill: #1f77b4"/>
   </g>
   <g id="patch_24">
    <path d="M 1103.128585 131928.865598 
L 1112.645937 131928.865598 
L 1112.645937 34.040524 
L 1103.128585 34.040524 
z
" clip-path="url(#pcc03d927af)" style="fill: #1f77b4"/>
   </g>
   <g id="patch_25">
    <path d="M 1150.715346 131928.865598 
L 1160.232698 131928.865598 
L 1160.232698 34.040524 
L 1150.715346 34.040524 
z
" clip-path="url(#pcc03d927af)" style="fill: #1f77b4"/>
   </g>
   <g id="patch_26">
    <path d="M 1198.302106 131928.865598 
L 1207.819458 131928.865598 
L 1207.819458 34.040524 
L 1198.302106 34.040524 
z
" clip-path="url(#pcc03d927af)" style="fill: #1f77b4"/>
   </g>
   <g id="patch_27">
    <path d="M 113.323962 131928.865598 
L 122.841315 131928.865598 
L 122.841315 570.727536 
L 113.323962 570.727536 
z
" clip-path="url(#pcc03d927af)" style="fill: #ff7f0e"/>
   </g>
   <g id="patch_28">
    <path d="M 160.910723 131928.865598 
L 170.428075 131928.865598 
L 170.428075 558.904938 
L 160.910723 558.904938 
z
" clip-path="url(#pcc03d927af)" style="fill: #ff7f0e"/>
   </g>
   <g id="patch_29">
    <path d="M 208.497484 131928.865598 
L 218.014836 131928.865598 
L 218.014836 653.018129 
L 208.497484 653.018129 
z
" clip-path="url(#pcc03d927af)" style="fill: #ff7f0e"/>
   </g>
   <g id="patch_30">
    <path d="M 256.084244 131928.865598 
L 265.601597 131928.865598 
L 265.601597 573.456345 
L 256.084244 573.456345 
z
" clip-path="url(#pcc03d927af)" style="fill: #ff7f0e"/>
   </g>
   <g id="patch_31">
    <path d="M 303.671005 131928.865598 
L 313.188357 131928.865598 
L 313.188357 572.925206 
L 303.671005 572.925206 
z
" clip-path="url(#pcc03d927af)" style="fill: #ff7f0e"/>
   </g>
   <g id="patch_32">
    <path d="M 351.257766 131928.865598 
L 360.775118 131928.865598 
L 360.775118 577.957007 
L 351.257766 577.957007 
z
" clip-path="url(#pcc03d927af)" style="fill: #ff7f0e"/>
   </g>
   <g id="patch_33">
    <path d="M 398.844527 131928.865598 
L 408.361879 131928.865598 
L 408.361879 548.65934 
L 398.844527 548.65934 
z
" clip-path="url(#pcc03d927af)" style="fill: #ff7f0e"/>
   </g>
   <g id="patch_34">
    <path d="M 446.431287 131928.865598 
L 455.948639 131928.865598 
L 455.948639 547.988062 
L 446.431287 547.988062 
z
" clip-path="url(#pcc03d927af)" style="fill: #ff7f0e"/>
   </g>
   <g id="patch_35">
    <path d="M 494.018048 131928.865598 
L 503.5354 131928.865598 
L 503.5354 536.172055 
L 494.018048 536.172055 
z
" clip-path="url(#pcc03d927af)" style="fill: #ff7f0e"/>
   </g>
   <g id="patch_36">
    <path d="M 541.604809 131928.865598 
L 551.122161 131928.865598 
L 551.122161 643.37907 
L 541.604809 643.37907 
z
" clip-path="url(#pcc03d927af)" style="fill: #ff7f0e"/>
   </g>
   <g id="patch_37">
    <path d="M 589.191569 131928.865598 
L 598.708921 131928.865598 
L 598.708921 645.363076 
L 589.191569 645.363076 
z
" clip-path="url(#pcc03d927af)" style="fill: #ff7f0e"/>
   </g>
   <g id="patch_38">
    <path d="M 636.77833 131928.865598 
L 646.295682 131928.865598 
L 646.295682 643.882007 
L 636.77833 643.882007 
z
" clip-path="url(#pcc03d927af)" style="fill: #ff7f0e"/>
   </g>
   <g id="patch_39">
    <path d="M 684.365091 131928.865598 
L 693.882443 131928.865598 
L 693.882443 467.341044 
L 684.365091 467.341044 
z
" clip-path="url(#pcc03d927af)" style="fill: #ff7f0e"/>
   </g>
   <g id="patch_40">
    <path d="M 731.951851 131928.865598 
L 741.469204 131928.865598 
L 741.469204 498.088942 
L 731.951851 498.088942 
z
" clip-path="url(#pcc03d927af)" style="fill: #ff7f0e"/>
   </g>
   <g id="patch_41">
    <path d="M 779.538612 131928.865598 
L 789.055964 131928.865598 
L 789.055964 458.802834 
L 779.538612 458.802834 
z
" clip-path="url(#pcc03d927af)" style="fill: #ff7f0e"/>
   </g>
   <g id="patch_42">
    <path d="M 827.125373 131928.865598 
L 836.642725 131928.865598 
L 836.642725 653.347556 
L 827.125373 653.347556 
z
" clip-path="url(#pcc03d927af)" style="fill: #ff7f0e"/>
   </g>
   <g id="patch_43">
    <path d="M 874.712133 131928.865598 
L 884.229486 131928.865598 
L 884.229486 455.567211 
L 874.712133 455.567211 
z
" clip-path="url(#pcc03d927af)" style="fill: #ff7f0e"/>
   </g>
   <g id="patch_44">
    <path d="M 922.298894 131928.865598 
L 931.816246 131928.865598 
L 931.816246 653.983047 
L 922.298894 653.983047 
z
" clip-path="url(#pcc03d927af)" style="fill: #ff7f0e"/>
   </g>
   <g id="patch_45">
    <path d="M 969.885655 131928.865598 
L 979.403007 131928.865598 
L 979.403007 652.515122 
L 969.885655 652.515122 
z
" clip-path="url(#pcc03d927af)" style="fill: #ff7f0e"/>
   </g>
   <g id="patch_46">
    <path d="M 1017.472416 131928.865598 
L 1026.989768 131928.865598 
L 1026.989768 34.040524 
L 1017.472416 34.040524 
z
" clip-path="url(#pcc03d927af)" style="fill: #ff7f0e"/>
   </g>
   <g id="patch_47">
    <path d="M 1065.059176 131928.865598 
L 1074.576528 131928.865598 
L 1074.576528 34.040524 
L 1065.059176 34.040524 
z
" clip-path="url(#pcc03d927af)" style="fill: #ff7f0e"/>
   </g>
   <g id="patch_48">
    <path d="M 1112.645937 131928.865598 
L 1122.163289 131928.865598 
L 1122.163289 94.265476 
L 1112.645937 94.265476 
z
" clip-path="url(#pcc03d927af)" style="fill: #ff7f0e"/>
   </g>
   <g id="patch_49">
    <path d="M 1160.232698 131928.865598 
L 1169.75005 131928.865598 
L 1169.75005 34.040524 
L 1160.232698 34.040524 
z
" clip-path="url(#pcc03d927af)" style="fill: #ff7f0e"/>
   </g>
   <g id="patch_50">
    <path d="M 1207.819458 131928.865598 
L 1217.33681 131928.865598 
L 1217.33681 34.040524 
L 1207.819458 34.040524 
z
" clip-path="url(#pcc03d927af)" style="fill: #ff7f0e"/>
   </g>
   <g id="patch_51">
    <path d="M 122.841315 131928.865598 
L 132.358667 131928.865598 
L 132.358667 568.802034 
L 122.841315 568.802034 
z
" clip-path="url(#pcc03d927af)" style="fill: #2ca02c"/>
   </g>
   <g id="patch_52">
    <path d="M 170.428075 131928.865598 
L 179.945427 131928.865598 
L 179.945427 536.853349 
L 170.428075 536.853349 
z
" clip-path="url(#pcc03d927af)" style="fill: #2ca02c"/>
   </g>
   <g id="patch_53">
    <path d="M 218.014836 131928.865598 
L 227.532188 131928.865598 
L 227.532188 653.905189 
L 218.014836 653.905189 
z
" clip-path="url(#pcc03d927af)" style="fill: #2ca02c"/>
   </g>
   <g id="patch_54">
    <path d="M 265.601597 131928.865598 
L 275.118949 131928.865598 
L 275.118949 570.810364 
L 265.601597 570.810364 
z
" clip-path="url(#pcc03d927af)" style="fill: #2ca02c"/>
   </g>
   <g id="patch_55">
    <path d="M 313.188357 131928.865598 
L 322.705709 131928.865598 
L 322.705709 558.55595 
L 313.188357 558.55595 
z
" clip-path="url(#pcc03d927af)" style="fill: #2ca02c"/>
   </g>
   <g id="patch_56">
    <path d="M 360.775118 131928.865598 
L 370.29247 131928.865598 
L 370.29247 569.274379 
L 360.775118 569.274379 
z
" clip-path="url(#pcc03d927af)" style="fill: #2ca02c"/>
   </g>
   <g id="patch_57">
    <path d="M 408.361879 131928.865598 
L 417.879231 131928.865598 
L 417.879231 541.854703 
L 408.361879 541.854703 
z
" clip-path="url(#pcc03d927af)" style="fill: #2ca02c"/>
   </g>
   <g id="patch_58">
    <path d="M 455.948639 131928.865598 
L 465.465992 131928.865598 
L 465.465992 543.123593 
L 455.948639 543.123593 
z
" clip-path="url(#pcc03d927af)" style="fill: #2ca02c"/>
   </g>
   <g id="patch_59">
    <path d="M 503.5354 131928.865598 
L 513.052752 131928.865598 
L 513.052752 525.537402 
L 503.5354 525.537402 
z
" clip-path="url(#pcc03d927af)" style="fill: #2ca02c"/>
   </g>
   <g id="patch_60">
    <path d="M 551.122161 131928.865598 
L 560.639513 131928.865598 
L 560.639513 643.049062 
L 551.122161 643.049062 
z
" clip-path="url(#pcc03d927af)" style="fill: #2ca02c"/>
   </g>
   <g id="patch_61">
    <path d="M 598.708921 131928.865598 
L 608.226274 131928.865598 
L 608.226274 645.45192 
L 598.708921 645.45192 
z
" clip-path="url(#pcc03d927af)" style="fill: #2ca02c"/>
   </g>
   <g id="patch_62">
    <path d="M 646.295682 131928.865598 
L 655.813034 131928.865598 
L 655.813034 645.398642 
L 646.295682 645.398642 
z
" clip-path="url(#pcc03d927af)" style="fill: #2ca02c"/>
   </g>
   <g id="patch_63">
    <path d="M 693.882443 131928.865598 
L 703.399795 131928.865598 
L 703.399795 448.040418 
L 693.882443 448.040418 
z
" clip-path="url(#pcc03d927af)" style="fill: #2ca02c"/>
   </g>
   <g id="patch_64">
    <path d="M 741.469204 131928.865598 
L 750.986556 131928.865598 
L 750.986556 508.143278 
L 741.469204 508.143278 
z
" clip-path="url(#pcc03d927af)" style="fill: #2ca02c"/>
   </g>
   <g id="patch_65">
    <path d="M 789.055964 131928.865598 
L 798.573316 131928.865598 
L 798.573316 480.02097 
L 789.055964 480.02097 
z
" clip-path="url(#pcc03d927af)" style="fill: #2ca02c"/>
   </g>
   <g id="patch_66">
    <path d="M 836.642725 131928.865598 
L 846.160077 131928.865598 
L 846.160077 654.484597 
L 836.642725 654.484597 
z
" clip-path="url(#pcc03d927af)" style="fill: #2ca02c"/>
   </g>
   <g id="patch_67">
    <path d="M 884.229486 131928.865598 
L 893.746838 131928.865598 
L 893.746838 484.890056 
L 884.229486 484.890056 
z
" clip-path="url(#pcc03d927af)" style="fill: #2ca02c"/>
   </g>
   <g id="patch_68">
    <path d="M 931.816246 131928.865598 
L 941.333598 131928.865598 
L 941.333598 651.339643 
L 931.816246 651.339643 
z
" clip-path="url(#pcc03d927af)" style="fill: #2ca02c"/>
   </g>
   <g id="patch_69">
    <path d="M 979.403007 131928.865598 
L 988.920359 131928.865598 
L 988.920359 652.246115 
L 979.403007 652.246115 
z
" clip-path="url(#pcc03d927af)" style="fill: #2ca02c"/>
   </g>
   <g id="patch_70">
    <path d="M 1026.989768 131928.865598 
L 1036.50712 131928.865598 
L 1036.50712 461.13519 
L 1026.989768 461.13519 
z
" clip-path="url(#pcc03d927af)" style="fill: #2ca02c"/>
   </g>
   <g id="patch_71">
    <path d="M 1074.576528 131928.865598 
L 1084.093881 131928.865598 
L 1084.093881 228.615039 
L 1074.576528 228.615039 
z
" clip-path="url(#pcc03d927af)" style="fill: #2ca02c"/>
   </g>
   <g id="patch_72">
    <path d="M 1122.163289 131928.865598 
L 1131.680641 131928.865598 
L 1131.680641 34.040524 
L 1122.163289 34.040524 
z
" clip-path="url(#pcc03d927af)" style="fill: #2ca02c"/>
   </g>
   <g id="patch_73">
    <path d="M 1169.75005 131928.865598 
L 1179.267402 131928.865598 
L 1179.267402 34.040524 
L 1169.75005 34.040524 
z
" clip-path="url(#pcc03d927af)" style="fill: #2ca02c"/>
   </g>
   <g id="patch_74">
    <path d="M 1217.33681 131928.865598 
L 1226.854163 131928.865598 
L 1226.854163 114.858128 
L 1217.33681 114.858128 
z
" clip-path="url(#pcc03d927af)" style="fill: #2ca02c"/>
   </g>
   <g id="patch_75">
    <path d="M 132.358667 131928.865598 
L 141.876019 131928.865598 
L 141.876019 562.07249 
L 132.358667 562.07249 
z
" clip-path="url(#pcc03d927af)" style="fill: #d62728"/>
   </g>
   <g id="patch_76">
    <path d="M 179.945427 131928.865598 
L 189.462779 131928.865598 
L 189.462779 530.162228 
L 179.945427 530.162228 
z
" clip-path="url(#pcc03d927af)" style="fill: #d62728"/>
   </g>
   <g id="patch_77">
    <path d="M 227.532188 131928.865598 
L 237.04954 131928.865598 
L 237.04954 654.846194 
L 227.532188 654.846194 
z
" clip-path="url(#pcc03d927af)" style="fill: #d62728"/>
   </g>
   <g id="patch_78">
    <path d="M 275.118949 131928.865598 
L 284.636301 131928.865598 
L 284.636301 566.567204 
L 275.118949 566.567204 
z
" clip-path="url(#pcc03d927af)" style="fill: #d62728"/>
   </g>
   <g id="patch_79">
    <path d="M 322.705709 131928.865598 
L 332.223062 131928.865598 
L 332.223062 567.348165 
L 322.705709 567.348165 
z
" clip-path="url(#pcc03d927af)" style="fill: #d62728"/>
   </g>
   <g id="patch_80">
    <path d="M 370.29247 131928.865598 
L 379.809822 131928.865598 
L 379.809822 565.851611 
L 370.29247 565.851611 
z
" clip-path="url(#pcc03d927af)" style="fill: #d62728"/>
   </g>
   <g id="patch_81">
    <path d="M 417.879231 131928.865598 
L 427.396583 131928.865598 
L 427.396583 539.795295 
L 417.879231 539.795295 
z
" clip-path="url(#pcc03d927af)" style="fill: #d62728"/>
   </g>
   <g id="patch_82">
    <path d="M 465.465992 131928.865598 
L 474.983344 131928.865598 
L 474.983344 534.744531 
L 465.465992 534.744531 
z
" clip-path="url(#pcc03d927af)" style="fill: #d62728"/>
   </g>
   <g id="patch_83">
    <path d="M 513.052752 131928.865598 
L 522.570104 131928.865598 
L 522.570104 507.557608 
L 513.052752 507.557608 
z
" clip-path="url(#pcc03d927af)" style="fill: #d62728"/>
   </g>
   <g id="patch_84">
    <path d="M 560.639513 131928.865598 
L 570.156865 131928.865598 
L 570.156865 645.385826 
L 560.639513 645.385826 
z
" clip-path="url(#pcc03d927af)" style="fill: #d62728"/>
   </g>
   <g id="patch_85">
    <path d="M 608.226274 131928.865598 
L 617.743626 131928.865598 
L 617.743626 644.049907 
L 608.226274 644.049907 
z
" clip-path="url(#pcc03d927af)" style="fill: #d62728"/>
   </g>
   <g id="patch_86">
    <path d="M 655.813034 131928.865598 
L 665.330386 131928.865598 
L 665.330386 645.184185 
L 655.813034 645.184185 
z
" clip-path="url(#pcc03d927af)" style="fill: #d62728"/>
   </g>
   <g id="patch_87">
    <path d="M 703.399795 131928.865598 
L 712.917147 131928.865598 
L 712.917147 281.388252 
L 703.399795 281.388252 
z
" clip-path="url(#pcc03d927af)" style="fill: #d62728"/>
   </g>
   <g id="patch_88">
    <path d="M 750.986556 131928.865598 
L 760.503908 131928.865598 
L 760.503908 351.410209 
L 750.986556 351.410209 
z
" clip-path="url(#pcc03d927af)" style="fill: #d62728"/>
   </g>
   <g id="patch_89">
    <path d="M 798.573316 131928.865598 
L 808.090669 131928.865598 
L 808.090669 336.466287 
L 798.573316 336.466287 
z
" clip-path="url(#pcc03d927af)" style="fill: #d62728"/>
   </g>
   <g id="patch_90">
    <path d="M 846.160077 131928.865598 
L 855.677429 131928.865598 
L 855.677429 651.485883 
L 846.160077 651.485883 
z
" clip-path="url(#pcc03d927af)" style="fill: #d62728"/>
   </g>
   <g id="patch_91">
    <path d="M 893.746838 131928.865598 
L 903.26419 131928.865598 
L 903.26419 446.641662 
L 893.746838 446.641662 
z
" clip-path="url(#pcc03d927af)" style="fill: #d62728"/>
   </g>
   <g id="patch_92">
    <path d="M 941.333598 131928.865598 
L 950.850951 131928.865598 
L 950.850951 651.956391 
L 941.333598 651.956391 
z
" clip-path="url(#pcc03d927af)" style="fill: #d62728"/>
   </g>
   <g id="patch_93">
    <path d="M 988.920359 131928.865598 
L 998.437711 131928.865598 
L 998.437711 652.467473 
L 988.920359 652.467473 
z
" clip-path="url(#pcc03d927af)" style="fill: #d62728"/>
   </g>
   <g id="patch_94">
    <path d="M 1036.50712 131928.865598 
L 1046.024472 131928.865598 
L 1046.024472 459.857854 
L 1036.50712 459.857854 
z
" clip-path="url(#pcc03d927af)" style="fill: #d62728"/>
   </g>
   <g id="patch_95">
    <path d="M 1084.093881 131928.865598 
L 1093.611233 131928.865598 
L 1093.611233 34.040524 
L 1084.093881 34.040524 
z
" clip-path="url(#pcc03d927af)" style="fill: #d62728"/>
   </g>
   <g id="patch_96">
    <path d="M 1131.680641 131928.865598 
L 1141.197993 131928.865598 
L 1141.197993 34.040524 
L 1131.680641 34.040524 
z
" clip-path="url(#pcc03d927af)" style="fill: #d62728"/>
   </g>
   <g id="patch_97">
    <path d="M 1179.267402 131928.865598 
L 1188.784754 131928.865598 
L 1188.784754 34.040524 
L 1179.267402 34.040524 
z
" clip-path="url(#pcc03d927af)" style="fill: #d62728"/>
   </g>
   <g id="patch_98">
    <path d="M 1226.854163 131928.865598 
L 1236.371515 131928.865598 
L 1236.371515 34.040524 
L 1226.854163 34.040524 
z
" clip-path="url(#pcc03d927af)" style="fill: #d62728"/>
   </g>
   <g id="matplotlib.axis_1">
    <g id="xtick_1">
     <g id="line2d_1">
      <defs>
       <path id="m7925290029" d="M 0 0 
L 0 3.5 
" style="stroke: #000000; stroke-width: 0.8"/>
      </defs>
      <g>
       <use xlink:href="#m7925290029" x="118.082638" y="685.886478" style="stroke: #000000; stroke-width: 0.8"/>
      </g>
     </g>
     <g id="text_1">
      <!-- p01 -->
      <g transform="translate(112.227924 695.485297) rotate(-290) scale(0.1 -0.1)">
       <defs>
        <path id="DejaVuSans-70" d="M 1159 525 
L 1159 -1331 
L 581 -1331 
L 581 3500 
L 1159 3500 
L 1159 2969 
Q 1341 3281 1617 3432 
Q 1894 3584 2278 3584 
Q 2916 3584 3314 3078 
Q 3713 2572 3713 1747 
Q 3713 922 3314 415 
Q 2916 -91 2278 -91 
Q 1894 -91 1617 61 
Q 1341 213 1159 525 
z
M 3116 1747 
Q 3116 2381 2855 2742 
Q 2594 3103 2138 3103 
Q 1681 3103 1420 2742 
Q 1159 2381 1159 1747 
Q 1159 1113 1420 752 
Q 1681 391 2138 391 
Q 2594 391 2855 752 
Q 3116 1113 3116 1747 
z
" transform="scale(0.015625)"/>
        <path id="DejaVuSans-30" d="M 2034 4250 
Q 1547 4250 1301 3770 
Q 1056 3291 1056 2328 
Q 1056 1369 1301 889 
Q 1547 409 2034 409 
Q 2525 409 2770 889 
Q 3016 1369 3016 2328 
Q 3016 3291 2770 3770 
Q 2525 4250 2034 4250 
z
M 2034 4750 
Q 2819 4750 3233 4129 
Q 3647 3509 3647 2328 
Q 3647 1150 3233 529 
Q 2819 -91 2034 -91 
Q 1250 -91 836 529 
Q 422 1150 422 2328 
Q 422 3509 836 4129 
Q 1250 4750 2034 4750 
z
" transform="scale(0.015625)"/>
        <path id="DejaVuSans-31" d="M 794 531 
L 1825 531 
L 1825 4091 
L 703 3866 
L 703 4441 
L 1819 4666 
L 2450 4666 
L 2450 531 
L 3481 531 
L 3481 0 
L 794 0 
L 794 531 
z
" transform="scale(0.015625)"/>
       </defs>
       <use xlink:href="#DejaVuSans-70"/>
       <use xlink:href="#DejaVuSans-30" x="63.476562"/>
       <use xlink:href="#DejaVuSans-31" x="127.099609"/>
      </g>
     </g>
    </g>
    <g id="xtick_2">
     <g id="line2d_2">
      <g>
       <use xlink:href="#m7925290029" x="165.669399" y="685.886478" style="stroke: #000000; stroke-width: 0.8"/>
      </g>
     </g>
     <g id="text_2">
      <!-- p02 -->
      <g transform="translate(159.814685 695.485297) rotate(-290) scale(0.1 -0.1)">
       <defs>
        <path id="DejaVuSans-32" d="M 1228 531 
L 3431 531 
L 3431 0 
L 469 0 
L 469 531 
Q 828 903 1448 1529 
Q 2069 2156 2228 2338 
Q 2531 2678 2651 2914 
Q 2772 3150 2772 3378 
Q 2772 3750 2511 3984 
Q 2250 4219 1831 4219 
Q 1534 4219 1204 4116 
Q 875 4013 500 3803 
L 500 4441 
Q 881 4594 1212 4672 
Q 1544 4750 1819 4750 
Q 2544 4750 2975 4387 
Q 3406 4025 3406 3419 
Q 3406 3131 3298 2873 
Q 3191 2616 2906 2266 
Q 2828 2175 2409 1742 
Q 1991 1309 1228 531 
z
" transform="scale(0.015625)"/>
       </defs>
       <use xlink:href="#DejaVuSans-70"/>
       <use xlink:href="#DejaVuSans-30" x="63.476562"/>
       <use xlink:href="#DejaVuSans-32" x="127.099609"/>
      </g>
     </g>
    </g>
    <g id="xtick_3">
     <g id="line2d_3">
      <g>
       <use xlink:href="#m7925290029" x="213.25616" y="685.886478" style="stroke: #000000; stroke-width: 0.8"/>
      </g>
     </g>
     <g id="text_3">
      <!-- p03 -->
      <g transform="translate(207.401446 695.485297) rotate(-290) scale(0.1 -0.1)">
       <defs>
        <path id="DejaVuSans-33" d="M 2597 2516 
Q 3050 2419 3304 2112 
Q 3559 1806 3559 1356 
Q 3559 666 3084 287 
Q 2609 -91 1734 -91 
Q 1441 -91 1130 -33 
Q 819 25 488 141 
L 488 750 
Q 750 597 1062 519 
Q 1375 441 1716 441 
Q 2309 441 2620 675 
Q 2931 909 2931 1356 
Q 2931 1769 2642 2001 
Q 2353 2234 1838 2234 
L 1294 2234 
L 1294 2753 
L 1863 2753 
Q 2328 2753 2575 2939 
Q 2822 3125 2822 3475 
Q 2822 3834 2567 4026 
Q 2313 4219 1838 4219 
Q 1578 4219 1281 4162 
Q 984 4106 628 3988 
L 628 4550 
Q 988 4650 1302 4700 
Q 1616 4750 1894 4750 
Q 2613 4750 3031 4423 
Q 3450 4097 3450 3541 
Q 3450 3153 3228 2886 
Q 3006 2619 2597 2516 
z
" transform="scale(0.015625)"/>
       </defs>
       <use xlink:href="#DejaVuSans-70"/>
       <use xlink:href="#DejaVuSans-30" x="63.476562"/>
       <use xlink:href="#DejaVuSans-33" x="127.099609"/>
      </g>
     </g>
    </g>
    <g id="xtick_4">
     <g id="line2d_4">
      <g>
       <use xlink:href="#m7925290029" x="260.842921" y="685.886478" style="stroke: #000000; stroke-width: 0.8"/>
      </g>
     </g>
     <g id="text_4">
      <!-- p04 -->
      <g transform="translate(254.988206 695.485297) rotate(-290) scale(0.1 -0.1)">
       <defs>
        <path id="DejaVuSans-34" d="M 2419 4116 
L 825 1625 
L 2419 1625 
L 2419 4116 
z
M 2253 4666 
L 3047 4666 
L 3047 1625 
L 3713 1625 
L 3713 1100 
L 3047 1100 
L 3047 0 
L 2419 0 
L 2419 1100 
L 313 1100 
L 313 1709 
L 2253 4666 
z
" transform="scale(0.015625)"/>
       </defs>
       <use xlink:href="#DejaVuSans-70"/>
       <use xlink:href="#DejaVuSans-30" x="63.476562"/>
       <use xlink:href="#DejaVuSans-34" x="127.099609"/>
      </g>
     </g>
    </g>
    <g id="xtick_5">
     <g id="line2d_5">
      <g>
       <use xlink:href="#m7925290029" x="308.429681" y="685.886478" style="stroke: #000000; stroke-width: 0.8"/>
      </g>
     </g>
     <g id="text_5">
      <!-- p05 -->
      <g transform="translate(302.574967 695.485297) rotate(-290) scale(0.1 -0.1)">
       <defs>
        <path id="DejaVuSans-35" d="M 691 4666 
L 3169 4666 
L 3169 4134 
L 1269 4134 
L 1269 2991 
Q 1406 3038 1543 3061 
Q 1681 3084 1819 3084 
Q 2600 3084 3056 2656 
Q 3513 2228 3513 1497 
Q 3513 744 3044 326 
Q 2575 -91 1722 -91 
Q 1428 -91 1123 -41 
Q 819 9 494 109 
L 494 744 
Q 775 591 1075 516 
Q 1375 441 1709 441 
Q 2250 441 2565 725 
Q 2881 1009 2881 1497 
Q 2881 1984 2565 2268 
Q 2250 2553 1709 2553 
Q 1456 2553 1204 2497 
Q 953 2441 691 2322 
L 691 4666 
z
" transform="scale(0.015625)"/>
       </defs>
       <use xlink:href="#DejaVuSans-70"/>
       <use xlink:href="#DejaVuSans-30" x="63.476562"/>
       <use xlink:href="#DejaVuSans-35" x="127.099609"/>
      </g>
     </g>
    </g>
    <g id="xtick_6">
     <g id="line2d_6">
      <g>
       <use xlink:href="#m7925290029" x="356.016442" y="685.886478" style="stroke: #000000; stroke-width: 0.8"/>
      </g>
     </g>
     <g id="text_6">
      <!-- p06 -->
      <g transform="translate(350.161728 695.485297) rotate(-290) scale(0.1 -0.1)">
       <defs>
        <path id="DejaVuSans-36" d="M 2113 2584 
Q 1688 2584 1439 2293 
Q 1191 2003 1191 1497 
Q 1191 994 1439 701 
Q 1688 409 2113 409 
Q 2538 409 2786 701 
Q 3034 994 3034 1497 
Q 3034 2003 2786 2293 
Q 2538 2584 2113 2584 
z
M 3366 4563 
L 3366 3988 
Q 3128 4100 2886 4159 
Q 2644 4219 2406 4219 
Q 1781 4219 1451 3797 
Q 1122 3375 1075 2522 
Q 1259 2794 1537 2939 
Q 1816 3084 2150 3084 
Q 2853 3084 3261 2657 
Q 3669 2231 3669 1497 
Q 3669 778 3244 343 
Q 2819 -91 2113 -91 
Q 1303 -91 875 529 
Q 447 1150 447 2328 
Q 447 3434 972 4092 
Q 1497 4750 2381 4750 
Q 2619 4750 2861 4703 
Q 3103 4656 3366 4563 
z
" transform="scale(0.015625)"/>
       </defs>
       <use xlink:href="#DejaVuSans-70"/>
       <use xlink:href="#DejaVuSans-30" x="63.476562"/>
       <use xlink:href="#DejaVuSans-36" x="127.099609"/>
      </g>
     </g>
    </g>
    <g id="xtick_7">
     <g id="line2d_7">
      <g>
       <use xlink:href="#m7925290029" x="403.603203" y="685.886478" style="stroke: #000000; stroke-width: 0.8"/>
      </g>
     </g>
     <g id="text_7">
      <!-- p07 -->
      <g transform="translate(397.748488 695.485297) rotate(-290) scale(0.1 -0.1)">
       <defs>
        <path id="DejaVuSans-37" d="M 525 4666 
L 3525 4666 
L 3525 4397 
L 1831 0 
L 1172 0 
L 2766 4134 
L 525 4134 
L 525 4666 
z
" transform="scale(0.015625)"/>
       </defs>
       <use xlink:href="#DejaVuSans-70"/>
       <use xlink:href="#DejaVuSans-30" x="63.476562"/>
       <use xlink:href="#DejaVuSans-37" x="127.099609"/>
      </g>
     </g>
    </g>
    <g id="xtick_8">
     <g id="line2d_8">
      <g>
       <use xlink:href="#m7925290029" x="451.189963" y="685.886478" style="stroke: #000000; stroke-width: 0.8"/>
      </g>
     </g>
     <g id="text_8">
      <!-- p08 -->
      <g transform="translate(445.335249 695.485297) rotate(-290) scale(0.1 -0.1)">
       <defs>
        <path id="DejaVuSans-38" d="M 2034 2216 
Q 1584 2216 1326 1975 
Q 1069 1734 1069 1313 
Q 1069 891 1326 650 
Q 1584 409 2034 409 
Q 2484 409 2743 651 
Q 3003 894 3003 1313 
Q 3003 1734 2745 1975 
Q 2488 2216 2034 2216 
z
M 1403 2484 
Q 997 2584 770 2862 
Q 544 3141 544 3541 
Q 544 4100 942 4425 
Q 1341 4750 2034 4750 
Q 2731 4750 3128 4425 
Q 3525 4100 3525 3541 
Q 3525 3141 3298 2862 
Q 3072 2584 2669 2484 
Q 3125 2378 3379 2068 
Q 3634 1759 3634 1313 
Q 3634 634 3220 271 
Q 2806 -91 2034 -91 
Q 1263 -91 848 271 
Q 434 634 434 1313 
Q 434 1759 690 2068 
Q 947 2378 1403 2484 
z
M 1172 3481 
Q 1172 3119 1398 2916 
Q 1625 2713 2034 2713 
Q 2441 2713 2670 2916 
Q 2900 3119 2900 3481 
Q 2900 3844 2670 4047 
Q 2441 4250 2034 4250 
Q 1625 4250 1398 4047 
Q 1172 3844 1172 3481 
z
" transform="scale(0.015625)"/>
       </defs>
       <use xlink:href="#DejaVuSans-70"/>
       <use xlink:href="#DejaVuSans-30" x="63.476562"/>
       <use xlink:href="#DejaVuSans-38" x="127.099609"/>
      </g>
     </g>
    </g>
    <g id="xtick_9">
     <g id="line2d_9">
      <g>
       <use xlink:href="#m7925290029" x="498.776724" y="685.886478" style="stroke: #000000; stroke-width: 0.8"/>
      </g>
     </g>
     <g id="text_9">
      <!-- p09 -->
      <g transform="translate(492.92201 695.485297) rotate(-290) scale(0.1 -0.1)">
       <defs>
        <path id="DejaVuSans-39" d="M 703 97 
L 703 672 
Q 941 559 1184 500 
Q 1428 441 1663 441 
Q 2288 441 2617 861 
Q 2947 1281 2994 2138 
Q 2813 1869 2534 1725 
Q 2256 1581 1919 1581 
Q 1219 1581 811 2004 
Q 403 2428 403 3163 
Q 403 3881 828 4315 
Q 1253 4750 1959 4750 
Q 2769 4750 3195 4129 
Q 3622 3509 3622 2328 
Q 3622 1225 3098 567 
Q 2575 -91 1691 -91 
Q 1453 -91 1209 -44 
Q 966 3 703 97 
z
M 1959 2075 
Q 2384 2075 2632 2365 
Q 2881 2656 2881 3163 
Q 2881 3666 2632 3958 
Q 2384 4250 1959 4250 
Q 1534 4250 1286 3958 
Q 1038 3666 1038 3163 
Q 1038 2656 1286 2365 
Q 1534 2075 1959 2075 
z
" transform="scale(0.015625)"/>
       </defs>
       <use xlink:href="#DejaVuSans-70"/>
       <use xlink:href="#DejaVuSans-30" x="63.476562"/>
       <use xlink:href="#DejaVuSans-39" x="127.099609"/>
      </g>
     </g>
    </g>
    <g id="xtick_10">
     <g id="line2d_10">
      <g>
       <use xlink:href="#m7925290029" x="546.363485" y="685.886478" style="stroke: #000000; stroke-width: 0.8"/>
      </g>
     </g>
     <g id="text_10">
      <!-- p10 -->
      <g transform="translate(540.50877 695.485297) rotate(-290) scale(0.1 -0.1)">
       <use xlink:href="#DejaVuSans-70"/>
       <use xlink:href="#DejaVuSans-31" x="63.476562"/>
       <use xlink:href="#DejaVuSans-30" x="127.099609"/>
      </g>
     </g>
    </g>
    <g id="xtick_11">
     <g id="line2d_11">
      <g>
       <use xlink:href="#m7925290029" x="593.950245" y="685.886478" style="stroke: #000000; stroke-width: 0.8"/>
      </g>
     </g>
     <g id="text_11">
      <!-- p11 -->
      <g transform="translate(588.095531 695.485297) rotate(-290) scale(0.1 -0.1)">
       <use xlink:href="#DejaVuSans-70"/>
       <use xlink:href="#DejaVuSans-31" x="63.476562"/>
       <use xlink:href="#DejaVuSans-31" x="127.099609"/>
      </g>
     </g>
    </g>
    <g id="xtick_12">
     <g id="line2d_12">
      <g>
       <use xlink:href="#m7925290029" x="641.537006" y="685.886478" style="stroke: #000000; stroke-width: 0.8"/>
      </g>
     </g>
     <g id="text_12">
      <!-- p12 -->
      <g transform="translate(635.682292 695.485297) rotate(-290) scale(0.1 -0.1)">
       <use xlink:href="#DejaVuSans-70"/>
       <use xlink:href="#DejaVuSans-31" x="63.476562"/>
       <use xlink:href="#DejaVuSans-32" x="127.099609"/>
      </g>
     </g>
    </g>
    <g id="xtick_13">
     <g id="line2d_13">
      <g>
       <use xlink:href="#m7925290029" x="689.123767" y="685.886478" style="stroke: #000000; stroke-width: 0.8"/>
      </g>
     </g>
     <g id="text_13">
      <!-- p13 -->
      <g transform="translate(683.269053 695.485297) rotate(-290) scale(0.1 -0.1)">
       <use xlink:href="#DejaVuSans-70"/>
       <use xlink:href="#DejaVuSans-31" x="63.476562"/>
       <use xlink:href="#DejaVuSans-33" x="127.099609"/>
      </g>
     </g>
    </g>
    <g id="xtick_14">
     <g id="line2d_14">
      <g>
       <use xlink:href="#m7925290029" x="736.710527" y="685.886478" style="stroke: #000000; stroke-width: 0.8"/>
      </g>
     </g>
     <g id="text_14">
      <!-- p14 -->
      <g transform="translate(730.855813 695.485297) rotate(-290) scale(0.1 -0.1)">
       <use xlink:href="#DejaVuSans-70"/>
       <use xlink:href="#DejaVuSans-31" x="63.476562"/>
       <use xlink:href="#DejaVuSans-34" x="127.099609"/>
      </g>
     </g>
    </g>
    <g id="xtick_15">
     <g id="line2d_15">
      <g>
       <use xlink:href="#m7925290029" x="784.297288" y="685.886478" style="stroke: #000000; stroke-width: 0.8"/>
      </g>
     </g>
     <g id="text_15">
      <!-- p15 -->
      <g transform="translate(778.442574 695.485297) rotate(-290) scale(0.1 -0.1)">
       <use xlink:href="#DejaVuSans-70"/>
       <use xlink:href="#DejaVuSans-31" x="63.476562"/>
       <use xlink:href="#DejaVuSans-35" x="127.099609"/>
      </g>
     </g>
    </g>
    <g id="xtick_16">
     <g id="line2d_16">
      <g>
       <use xlink:href="#m7925290029" x="831.884049" y="685.886478" style="stroke: #000000; stroke-width: 0.8"/>
      </g>
     </g>
     <g id="text_16">
      <!-- p16 -->
      <g transform="translate(826.029335 695.485297) rotate(-290) scale(0.1 -0.1)">
       <use xlink:href="#DejaVuSans-70"/>
       <use xlink:href="#DejaVuSans-31" x="63.476562"/>
       <use xlink:href="#DejaVuSans-36" x="127.099609"/>
      </g>
     </g>
    </g>
    <g id="xtick_17">
     <g id="line2d_17">
      <g>
       <use xlink:href="#m7925290029" x="879.47081" y="685.886478" style="stroke: #000000; stroke-width: 0.8"/>
      </g>
     </g>
     <g id="text_17">
      <!-- p17 -->
      <g transform="translate(873.616095 695.485297) rotate(-290) scale(0.1 -0.1)">
       <use xlink:href="#DejaVuSans-70"/>
       <use xlink:href="#DejaVuSans-31" x="63.476562"/>
       <use xlink:href="#DejaVuSans-37" x="127.099609"/>
      </g>
     </g>
    </g>
    <g id="xtick_18">
     <g id="line2d_18">
      <g>
       <use xlink:href="#m7925290029" x="927.05757" y="685.886478" style="stroke: #000000; stroke-width: 0.8"/>
      </g>
     </g>
     <g id="text_18">
      <!-- p18 -->
      <g transform="translate(921.202856 695.485297) rotate(-290) scale(0.1 -0.1)">
       <use xlink:href="#DejaVuSans-70"/>
       <use xlink:href="#DejaVuSans-31" x="63.476562"/>
       <use xlink:href="#DejaVuSans-38" x="127.099609"/>
      </g>
     </g>
    </g>
    <g id="xtick_19">
     <g id="line2d_19">
      <g>
       <use xlink:href="#m7925290029" x="974.644331" y="685.886478" style="stroke: #000000; stroke-width: 0.8"/>
      </g>
     </g>
     <g id="text_19">
      <!-- p19 -->
      <g transform="translate(968.789617 695.485297) rotate(-290) scale(0.1 -0.1)">
       <use xlink:href="#DejaVuSans-70"/>
       <use xlink:href="#DejaVuSans-31" x="63.476562"/>
       <use xlink:href="#DejaVuSans-39" x="127.099609"/>
      </g>
     </g>
    </g>
    <g id="xtick_20">
     <g id="line2d_20">
      <g>
       <use xlink:href="#m7925290029" x="1022.231092" y="685.886478" style="stroke: #000000; stroke-width: 0.8"/>
      </g>
     </g>
     <g id="text_20">
      <!-- p20 -->
      <g transform="translate(1016.376377 695.485297) rotate(-290) scale(0.1 -0.1)">
       <use xlink:href="#DejaVuSans-70"/>
       <use xlink:href="#DejaVuSans-32" x="63.476562"/>
       <use xlink:href="#DejaVuSans-30" x="127.099609"/>
      </g>
     </g>
    </g>
    <g id="xtick_21">
     <g id="line2d_21">
      <g>
       <use xlink:href="#m7925290029" x="1069.817852" y="685.886478" style="stroke: #000000; stroke-width: 0.8"/>
      </g>
     </g>
     <g id="text_21">
      <!-- p21 -->
      <g transform="translate(1063.963138 695.485297) rotate(-290) scale(0.1 -0.1)">
       <use xlink:href="#DejaVuSans-70"/>
       <use xlink:href="#DejaVuSans-32" x="63.476562"/>
       <use xlink:href="#DejaVuSans-31" x="127.099609"/>
      </g>
     </g>
    </g>
    <g id="xtick_22">
     <g id="line2d_22">
      <g>
       <use xlink:href="#m7925290029" x="1117.404613" y="685.886478" style="stroke: #000000; stroke-width: 0.8"/>
      </g>
     </g>
     <g id="text_22">
      <!-- p22 -->
      <g transform="translate(1111.549899 695.485297) rotate(-290) scale(0.1 -0.1)">
       <use xlink:href="#DejaVuSans-70"/>
       <use xlink:href="#DejaVuSans-32" x="63.476562"/>
       <use xlink:href="#DejaVuSans-32" x="127.099609"/>
      </g>
     </g>
    </g>
    <g id="xtick_23">
     <g id="line2d_23">
      <g>
       <use xlink:href="#m7925290029" x="1164.991374" y="685.886478" style="stroke: #000000; stroke-width: 0.8"/>
      </g>
     </g>
     <g id="text_23">
      <!-- p23 -->
      <g transform="translate(1159.136659 695.485297) rotate(-290) scale(0.1 -0.1)">
       <use xlink:href="#DejaVuSans-70"/>
       <use xlink:href="#DejaVuSans-32" x="63.476562"/>
       <use xlink:href="#DejaVuSans-33" x="127.099609"/>
      </g>
     </g>
    </g>
    <g id="xtick_24">
     <g id="line2d_24">
      <g>
       <use xlink:href="#m7925290029" x="1212.578134" y="685.886478" style="stroke: #000000; stroke-width: 0.8"/>
      </g>
     </g>
     <g id="text_24">
      <!-- p24 -->
      <g transform="translate(1206.72342 695.485297) rotate(-290) scale(0.1 -0.1)">
       <use xlink:href="#DejaVuSans-70"/>
       <use xlink:href="#DejaVuSans-32" x="63.476562"/>
       <use xlink:href="#DejaVuSans-34" x="127.099609"/>
      </g>
     </g>
    </g>
   </g>
   <g id="matplotlib.axis_2">
    <g id="ytick_1">
     <g id="line2d_25">
      <defs>
       <path id="m2d9d48c819" d="M 0 0 
L -3.5 0 
" style="stroke: #000000; stroke-width: 0.8"/>
      </defs>
      <g>
       <use xlink:href="#m2d9d48c819" x="47.178365" y="651.526289" style="stroke: #000000; stroke-width: 0.8"/>
      </g>
     </g>
     <g id="text_25">
      <!-- $\mathdefault{10^{-1}}$ -->
      <g transform="translate(16.678365 655.325508) scale(0.1 -0.1)">
       <defs>
        <path id="DejaVuSans-2212" d="M 678 2272 
L 4684 2272 
L 4684 1741 
L 678 1741 
L 678 2272 
z
" transform="scale(0.015625)"/>
       </defs>
       <use xlink:href="#DejaVuSans-31" transform="translate(0 0.684375)"/>
       <use xlink:href="#DejaVuSans-30" transform="translate(63.623047 0.684375)"/>
       <use xlink:href="#DejaVuSans-2212" transform="translate(128.203125 38.965625) scale(0.7)"/>
       <use xlink:href="#DejaVuSans-31" transform="translate(186.855469 38.965625) scale(0.7)"/>
      </g>
     </g>
    </g>
    <g id="ytick_2">
     <g id="line2d_26">
      <g>
       <use xlink:href="#m2d9d48c819" x="47.178365" y="520.117541" style="stroke: #000000; stroke-width: 0.8"/>
      </g>
     </g>
     <g id="text_26">
      <!-- $\mathdefault{10^{0}}$ -->
      <g transform="translate(22.578365 523.91676) scale(0.1 -0.1)">
       <use xlink:href="#DejaVuSans-31" transform="translate(0 0.765625)"/>
       <use xlink:href="#DejaVuSans-30" transform="translate(63.623047 0.765625)"/>
       <use xlink:href="#DejaVuSans-30" transform="translate(128.203125 39.046875) scale(0.7)"/>
      </g>
     </g>
    </g>
    <g id="ytick_3">
     <g id="line2d_27">
      <g>
       <use xlink:href="#m2d9d48c819" x="47.178365" y="388.708793" style="stroke: #000000; stroke-width: 0.8"/>
      </g>
     </g>
     <g id="text_27">
      <!-- $\mathdefault{10^{1}}$ -->
      <g transform="translate(22.578365 392.508012) scale(0.1 -0.1)">
       <use xlink:href="#DejaVuSans-31" transform="translate(0 0.684375)"/>
       <use xlink:href="#DejaVuSans-30" transform="translate(63.623047 0.684375)"/>
       <use xlink:href="#DejaVuSans-31" transform="translate(128.203125 38.965625) scale(0.7)"/>
      </g>
     </g>
    </g>
    <g id="ytick_4">
     <g id="line2d_28">
      <g>
       <use xlink:href="#m2d9d48c819" x="47.178365" y="257.300045" style="stroke: #000000; stroke-width: 0.8"/>
      </g>
     </g>
     <g id="text_28">
      <!-- $\mathdefault{10^{2}}$ -->
      <g transform="translate(22.578365 261.099264) scale(0.1 -0.1)">
       <use xlink:href="#DejaVuSans-31" transform="translate(0 0.765625)"/>
       <use xlink:href="#DejaVuSans-30" transform="translate(63.623047 0.765625)"/>
       <use xlink:href="#DejaVuSans-32" transform="translate(128.203125 39.046875) scale(0.7)"/>
      </g>
     </g>
    </g>
    <g id="ytick_5">
     <g id="line2d_29">
      <g>
       <use xlink:href="#m2d9d48c819" x="47.178365" y="125.891297" style="stroke: #000000; stroke-width: 0.8"/>
      </g>
     </g>
     <g id="text_29">
      <!-- $\mathdefault{10^{3}}$ -->
      <g transform="translate(22.578365 129.690515) scale(0.1 -0.1)">
       <use xlink:href="#DejaVuSans-31" transform="translate(0 0.765625)"/>
       <use xlink:href="#DejaVuSans-30" transform="translate(63.623047 0.765625)"/>
       <use xlink:href="#DejaVuSans-33" transform="translate(128.203125 39.046875) scale(0.7)"/>
      </g>
     </g>
    </g>
    <g id="ytick_6">
     <g id="line2d_30">
      <defs>
       <path id="m0a04d1a078" d="M 0 0 
L -2 0 
" style="stroke: #000000; stroke-width: 0.6"/>
      </defs>
      <g>
       <use xlink:href="#m0a04d1a078" x="47.178365" y="680.679155" style="stroke: #000000; stroke-width: 0.6"/>
      </g>
     </g>
    </g>
    <g id="ytick_7">
     <g id="line2d_31">
      <g>
       <use xlink:href="#m0a04d1a078" x="47.178365" y="671.881762" style="stroke: #000000; stroke-width: 0.6"/>
      </g>
     </g>
    </g>
    <g id="ytick_8">
     <g id="line2d_32">
      <g>
       <use xlink:href="#m0a04d1a078" x="47.178365" y="664.261112" style="stroke: #000000; stroke-width: 0.6"/>
      </g>
     </g>
    </g>
    <g id="ytick_9">
     <g id="line2d_33">
      <g>
       <use xlink:href="#m0a04d1a078" x="47.178365" y="657.539224" style="stroke: #000000; stroke-width: 0.6"/>
      </g>
     </g>
    </g>
    <g id="ytick_10">
     <g id="line2d_34">
      <g>
       <use xlink:href="#m0a04d1a078" x="47.178365" y="611.968314" style="stroke: #000000; stroke-width: 0.6"/>
      </g>
     </g>
    </g>
    <g id="ytick_11">
     <g id="line2d_35">
      <g>
       <use xlink:href="#m0a04d1a078" x="47.178365" y="588.828382" style="stroke: #000000; stroke-width: 0.6"/>
      </g>
     </g>
    </g>
    <g id="ytick_12">
     <g id="line2d_36">
      <g>
       <use xlink:href="#m0a04d1a078" x="47.178365" y="572.410339" style="stroke: #000000; stroke-width: 0.6"/>
      </g>
     </g>
    </g>
    <g id="ytick_13">
     <g id="line2d_37">
      <g>
       <use xlink:href="#m0a04d1a078" x="47.178365" y="559.675516" style="stroke: #000000; stroke-width: 0.6"/>
      </g>
     </g>
    </g>
    <g id="ytick_14">
     <g id="line2d_38">
      <g>
       <use xlink:href="#m0a04d1a078" x="47.178365" y="549.270407" style="stroke: #000000; stroke-width: 0.6"/>
      </g>
     </g>
    </g>
    <g id="ytick_15">
     <g id="line2d_39">
      <g>
       <use xlink:href="#m0a04d1a078" x="47.178365" y="540.473014" style="stroke: #000000; stroke-width: 0.6"/>
      </g>
     </g>
    </g>
    <g id="ytick_16">
     <g id="line2d_40">
      <g>
       <use xlink:href="#m0a04d1a078" x="47.178365" y="532.852364" style="stroke: #000000; stroke-width: 0.6"/>
      </g>
     </g>
    </g>
    <g id="ytick_17">
     <g id="line2d_41">
      <g>
       <use xlink:href="#m0a04d1a078" x="47.178365" y="526.130475" style="stroke: #000000; stroke-width: 0.6"/>
      </g>
     </g>
    </g>
    <g id="ytick_18">
     <g id="line2d_42">
      <g>
       <use xlink:href="#m0a04d1a078" x="47.178365" y="480.559566" style="stroke: #000000; stroke-width: 0.6"/>
      </g>
     </g>
    </g>
    <g id="ytick_19">
     <g id="line2d_43">
      <g>
       <use xlink:href="#m0a04d1a078" x="47.178365" y="457.419634" style="stroke: #000000; stroke-width: 0.6"/>
      </g>
     </g>
    </g>
    <g id="ytick_20">
     <g id="line2d_44">
      <g>
       <use xlink:href="#m0a04d1a078" x="47.178365" y="441.001591" style="stroke: #000000; stroke-width: 0.6"/>
      </g>
     </g>
    </g>
    <g id="ytick_21">
     <g id="line2d_45">
      <g>
       <use xlink:href="#m0a04d1a078" x="47.178365" y="428.266768" style="stroke: #000000; stroke-width: 0.6"/>
      </g>
     </g>
    </g>
    <g id="ytick_22">
     <g id="line2d_46">
      <g>
       <use xlink:href="#m0a04d1a078" x="47.178365" y="417.861659" style="stroke: #000000; stroke-width: 0.6"/>
      </g>
     </g>
    </g>
    <g id="ytick_23">
     <g id="line2d_47">
      <g>
       <use xlink:href="#m0a04d1a078" x="47.178365" y="409.064265" style="stroke: #000000; stroke-width: 0.6"/>
      </g>
     </g>
    </g>
    <g id="ytick_24">
     <g id="line2d_48">
      <g>
       <use xlink:href="#m0a04d1a078" x="47.178365" y="401.443616" style="stroke: #000000; stroke-width: 0.6"/>
      </g>
     </g>
    </g>
    <g id="ytick_25">
     <g id="line2d_49">
      <g>
       <use xlink:href="#m0a04d1a078" x="47.178365" y="394.721727" style="stroke: #000000; stroke-width: 0.6"/>
      </g>
     </g>
    </g>
    <g id="ytick_26">
     <g id="line2d_50">
      <g>
       <use xlink:href="#m0a04d1a078" x="47.178365" y="349.150818" style="stroke: #000000; stroke-width: 0.6"/>
      </g>
     </g>
    </g>
    <g id="ytick_27">
     <g id="line2d_51">
      <g>
       <use xlink:href="#m0a04d1a078" x="47.178365" y="326.010886" style="stroke: #000000; stroke-width: 0.6"/>
      </g>
     </g>
    </g>
    <g id="ytick_28">
     <g id="line2d_52">
      <g>
       <use xlink:href="#m0a04d1a078" x="47.178365" y="309.592843" style="stroke: #000000; stroke-width: 0.6"/>
      </g>
     </g>
    </g>
    <g id="ytick_29">
     <g id="line2d_53">
      <g>
       <use xlink:href="#m0a04d1a078" x="47.178365" y="296.85802" style="stroke: #000000; stroke-width: 0.6"/>
      </g>
     </g>
    </g>
    <g id="ytick_30">
     <g id="line2d_54">
      <g>
       <use xlink:href="#m0a04d1a078" x="47.178365" y="286.452911" style="stroke: #000000; stroke-width: 0.6"/>
      </g>
     </g>
    </g>
    <g id="ytick_31">
     <g id="line2d_55">
      <g>
       <use xlink:href="#m0a04d1a078" x="47.178365" y="277.655517" style="stroke: #000000; stroke-width: 0.6"/>
      </g>
     </g>
    </g>
    <g id="ytick_32">
     <g id="line2d_56">
      <g>
       <use xlink:href="#m0a04d1a078" x="47.178365" y="270.034868" style="stroke: #000000; stroke-width: 0.6"/>
      </g>
     </g>
    </g>
    <g id="ytick_33">
     <g id="line2d_57">
      <g>
       <use xlink:href="#m0a04d1a078" x="47.178365" y="263.312979" style="stroke: #000000; stroke-width: 0.6"/>
      </g>
     </g>
    </g>
    <g id="ytick_34">
     <g id="line2d_58">
      <g>
       <use xlink:href="#m0a04d1a078" x="47.178365" y="217.74207" style="stroke: #000000; stroke-width: 0.6"/>
      </g>
     </g>
    </g>
    <g id="ytick_35">
     <g id="line2d_59">
      <g>
       <use xlink:href="#m0a04d1a078" x="47.178365" y="194.602138" style="stroke: #000000; stroke-width: 0.6"/>
      </g>
     </g>
    </g>
    <g id="ytick_36">
     <g id="line2d_60">
      <g>
       <use xlink:href="#m0a04d1a078" x="47.178365" y="178.184095" style="stroke: #000000; stroke-width: 0.6"/>
      </g>
     </g>
    </g>
    <g id="ytick_37">
     <g id="line2d_61">
      <g>
       <use xlink:href="#m0a04d1a078" x="47.178365" y="165.449272" style="stroke: #000000; stroke-width: 0.6"/>
      </g>
     </g>
    </g>
    <g id="ytick_38">
     <g id="line2d_62">
      <g>
       <use xlink:href="#m0a04d1a078" x="47.178365" y="155.044163" style="stroke: #000000; stroke-width: 0.6"/>
      </g>
     </g>
    </g>
    <g id="ytick_39">
     <g id="line2d_63">
      <g>
       <use xlink:href="#m0a04d1a078" x="47.178365" y="146.246769" style="stroke: #000000; stroke-width: 0.6"/>
      </g>
     </g>
    </g>
    <g id="ytick_40">
     <g id="line2d_64">
      <g>
       <use xlink:href="#m0a04d1a078" x="47.178365" y="138.62612" style="stroke: #000000; stroke-width: 0.6"/>
      </g>
     </g>
    </g>
    <g id="ytick_41">
     <g id="line2d_65">
      <g>
       <use xlink:href="#m0a04d1a078" x="47.178365" y="131.904231" style="stroke: #000000; stroke-width: 0.6"/>
      </g>
     </g>
    </g>
    <g id="ytick_42">
     <g id="line2d_66">
      <g>
       <use xlink:href="#m0a04d1a078" x="47.178365" y="86.333322" style="stroke: #000000; stroke-width: 0.6"/>
      </g>
     </g>
    </g>
    <g id="ytick_43">
     <g id="line2d_67">
      <g>
       <use xlink:href="#m0a04d1a078" x="47.178365" y="63.19339" style="stroke: #000000; stroke-width: 0.6"/>
      </g>
     </g>
    </g>
    <g id="ytick_44">
     <g id="line2d_68">
      <g>
       <use xlink:href="#m0a04d1a078" x="47.178365" y="46.775347" style="stroke: #000000; stroke-width: 0.6"/>
      </g>
     </g>
    </g>
    <g id="ytick_45">
     <g id="line2d_69">
      <g>
       <use xlink:href="#m0a04d1a078" x="47.178365" y="34.040524" style="stroke: #000000; stroke-width: 0.6"/>
      </g>
     </g>
    </g>
    <g id="ytick_46">
     <g id="line2d_70">
      <g>
       <use xlink:href="#m0a04d1a078" x="47.178365" y="23.635415" style="stroke: #000000; stroke-width: 0.6"/>
      </g>
     </g>
    </g>
    <g id="ytick_47">
     <g id="line2d_71">
      <g>
       <use xlink:href="#m0a04d1a078" x="47.178365" y="14.838021" style="stroke: #000000; stroke-width: 0.6"/>
      </g>
     </g>
    </g>
    <g id="ytick_48">
     <g id="line2d_72">
      <g>
       <use xlink:href="#m0a04d1a078" x="47.178365" y="7.217372" style="stroke: #000000; stroke-width: 0.6"/>
      </g>
     </g>
    </g>
    <g id="text_30">
     <!-- Time (s) -->
     <g transform="translate(10.598677 364.772265) rotate(-90) scale(0.1 -0.1)">
      <defs>
       <path id="DejaVuSans-54" d="M -19 4666 
L 3928 4666 
L 3928 4134 
L 2272 4134 
L 2272 0 
L 1638 0 
L 1638 4134 
L -19 4134 
L -19 4666 
z
" transform="scale(0.015625)"/>
       <path id="DejaVuSans-69" d="M 603 3500 
L 1178 3500 
L 1178 0 
L 603 0 
L 603 3500 
z
M 603 4863 
L 1178 4863 
L 1178 4134 
L 603 4134 
L 603 4863 
z
" transform="scale(0.015625)"/>
       <path id="DejaVuSans-6d" d="M 3328 2828 
Q 3544 3216 3844 3400 
Q 4144 3584 4550 3584 
Q 5097 3584 5394 3201 
Q 5691 2819 5691 2113 
L 5691 0 
L 5113 0 
L 5113 2094 
Q 5113 2597 4934 2840 
Q 4756 3084 4391 3084 
Q 3944 3084 3684 2787 
Q 3425 2491 3425 1978 
L 3425 0 
L 2847 0 
L 2847 2094 
Q 2847 2600 2669 2842 
Q 2491 3084 2119 3084 
Q 1678 3084 1418 2786 
Q 1159 2488 1159 1978 
L 1159 0 
L 581 0 
L 581 3500 
L 1159 3500 
L 1159 2956 
Q 1356 3278 1631 3431 
Q 1906 3584 2284 3584 
Q 2666 3584 2933 3390 
Q 3200 3197 3328 2828 
z
" transform="scale(0.015625)"/>
       <path id="DejaVuSans-65" d="M 3597 1894 
L 3597 1613 
L 953 1613 
Q 991 1019 1311 708 
Q 1631 397 2203 397 
Q 2534 397 2845 478 
Q 3156 559 3463 722 
L 3463 178 
Q 3153 47 2828 -22 
Q 2503 -91 2169 -91 
Q 1331 -91 842 396 
Q 353 884 353 1716 
Q 353 2575 817 3079 
Q 1281 3584 2069 3584 
Q 2775 3584 3186 3129 
Q 3597 2675 3597 1894 
z
M 3022 2063 
Q 3016 2534 2758 2815 
Q 2500 3097 2075 3097 
Q 1594 3097 1305 2825 
Q 1016 2553 972 2059 
L 3022 2063 
z
" transform="scale(0.015625)"/>
       <path id="DejaVuSans-20" transform="scale(0.015625)"/>
       <path id="DejaVuSans-28" d="M 1984 4856 
Q 1566 4138 1362 3434 
Q 1159 2731 1159 2009 
Q 1159 1288 1364 580 
Q 1569 -128 1984 -844 
L 1484 -844 
Q 1016 -109 783 600 
Q 550 1309 550 2009 
Q 550 2706 781 3412 
Q 1013 4119 1484 4856 
L 1984 4856 
z
" transform="scale(0.015625)"/>
       <path id="DejaVuSans-73" d="M 2834 3397 
L 2834 2853 
Q 2591 2978 2328 3040 
Q 2066 3103 1784 3103 
Q 1356 3103 1142 2972 
Q 928 2841 928 2578 
Q 928 2378 1081 2264 
Q 1234 2150 1697 2047 
L 1894 2003 
Q 2506 1872 2764 1633 
Q 3022 1394 3022 966 
Q 3022 478 2636 193 
Q 2250 -91 1575 -91 
Q 1294 -91 989 -36 
Q 684 19 347 128 
L 347 722 
Q 666 556 975 473 
Q 1284 391 1588 391 
Q 1994 391 2212 530 
Q 2431 669 2431 922 
Q 2431 1156 2273 1281 
Q 2116 1406 1581 1522 
L 1381 1569 
Q 847 1681 609 1914 
Q 372 2147 372 2553 
Q 372 3047 722 3315 
Q 1072 3584 1716 3584 
Q 2034 3584 2315 3537 
Q 2597 3491 2834 3397 
z
" transform="scale(0.015625)"/>
       <path id="DejaVuSans-29" d="M 513 4856 
L 1013 4856 
Q 1481 4119 1714 3412 
Q 1947 2706 1947 2009 
Q 1947 1309 1714 600 
Q 1481 -109 1013 -844 
L 513 -844 
Q 928 -128 1133 580 
Q 1338 1288 1338 2009 
Q 1338 2731 1133 3434 
Q 928 4138 513 4856 
z
" transform="scale(0.015625)"/>
      </defs>
      <use xlink:href="#DejaVuSans-54"/>
      <use xlink:href="#DejaVuSans-69" x="57.958984"/>
      <use xlink:href="#DejaVuSans-6d" x="85.742188"/>
      <use xlink:href="#DejaVuSans-65" x="183.154297"/>
      <use xlink:href="#DejaVuSans-20" x="244.677734"/>
      <use xlink:href="#DejaVuSans-28" x="276.464844"/>
      <use xlink:href="#DejaVuSans-73" x="315.478516"/>
      <use xlink:href="#DejaVuSans-29" x="367.578125"/>
     </g>
    </g>
   </g>
   <g id="patch_99">
    <path d="M 47.178365 685.886478 
L 47.178365 3.00024 
" style="fill: none; stroke: #000000; stroke-width: 0.8; stroke-linejoin: miter; stroke-linecap: square"/>
   </g>
   <g id="patch_100">
    <path d="M 1292.99976 685.886478 
L 1292.99976 3.00024 
" style="fill: none; stroke: #000000; stroke-width: 0.8; stroke-linejoin: miter; stroke-linecap: square"/>
   </g>
   <g id="patch_101">
    <path d="M 47.178365 685.886478 
L 1292.99976 685.886478 
" style="fill: none; stroke: #000000; stroke-width: 0.8; stroke-linejoin: miter; stroke-linecap: square"/>
   </g>
   <g id="patch_102">
    <path d="M 47.178365 3.00024 
L 1292.99976 3.00024 
" style="fill: none; stroke: #000000; stroke-width: 0.8; stroke-linejoin: miter; stroke-linecap: square"/>
   </g>
   <g id="legend_1">
    <g id="patch_103">
     <path d="M 54.178365 40.91274 
L 504.715865 40.91274 
Q 506.715865 40.91274 506.715865 38.91274 
L 506.715865 10.00024 
Q 506.715865 8.00024 504.715865 8.00024 
L 54.178365 8.00024 
Q 52.178365 8.00024 52.178365 10.00024 
L 52.178365 38.91274 
Q 52.178365 40.91274 54.178365 40.91274 
z
" style="fill: #ffffff; opacity: 0.8; stroke: #cccccc; stroke-linejoin: miter"/>
    </g>
    <g id="patch_104">
     <path d="M 56.178365 19.598678 
L 76.178365 19.598678 
L 76.178365 12.598678 
L 56.178365 12.598678 
z
" style="fill: #1f77b4"/>
    </g>
    <g id="text_31">
     <!-- solve_external_yices -->
     <g transform="translate(84.178365 19.598678) scale(0.1 -0.1)">
      <defs>
       <path id="DejaVuSans-6f" d="M 1959 3097 
Q 1497 3097 1228 2736 
Q 959 2375 959 1747 
Q 959 1119 1226 758 
Q 1494 397 1959 397 
Q 2419 397 2687 759 
Q 2956 1122 2956 1747 
Q 2956 2369 2687 2733 
Q 2419 3097 1959 3097 
z
M 1959 3584 
Q 2709 3584 3137 3096 
Q 3566 2609 3566 1747 
Q 3566 888 3137 398 
Q 2709 -91 1959 -91 
Q 1206 -91 779 398 
Q 353 888 353 1747 
Q 353 2609 779 3096 
Q 1206 3584 1959 3584 
z
" transform="scale(0.015625)"/>
       <path id="DejaVuSans-6c" d="M 603 4863 
L 1178 4863 
L 1178 0 
L 603 0 
L 603 4863 
z
" transform="scale(0.015625)"/>
       <path id="DejaVuSans-76" d="M 191 3500 
L 800 3500 
L 1894 563 
L 2988 3500 
L 3597 3500 
L 2284 0 
L 1503 0 
L 191 3500 
z
" transform="scale(0.015625)"/>
       <path id="DejaVuSans-5f" d="M 3263 -1063 
L 3263 -1509 
L -63 -1509 
L -63 -1063 
L 3263 -1063 
z
" transform="scale(0.015625)"/>
       <path id="DejaVuSans-78" d="M 3513 3500 
L 2247 1797 
L 3578 0 
L 2900 0 
L 1881 1375 
L 863 0 
L 184 0 
L 1544 1831 
L 300 3500 
L 978 3500 
L 1906 2253 
L 2834 3500 
L 3513 3500 
z
" transform="scale(0.015625)"/>
       <path id="DejaVuSans-74" d="M 1172 4494 
L 1172 3500 
L 2356 3500 
L 2356 3053 
L 1172 3053 
L 1172 1153 
Q 1172 725 1289 603 
Q 1406 481 1766 481 
L 2356 481 
L 2356 0 
L 1766 0 
Q 1100 0 847 248 
Q 594 497 594 1153 
L 594 3053 
L 172 3053 
L 172 3500 
L 594 3500 
L 594 4494 
L 1172 4494 
z
" transform="scale(0.015625)"/>
       <path id="DejaVuSans-72" d="M 2631 2963 
Q 2534 3019 2420 3045 
Q 2306 3072 2169 3072 
Q 1681 3072 1420 2755 
Q 1159 2438 1159 1844 
L 1159 0 
L 581 0 
L 581 3500 
L 1159 3500 
L 1159 2956 
Q 1341 3275 1631 3429 
Q 1922 3584 2338 3584 
Q 2397 3584 2469 3576 
Q 2541 3569 2628 3553 
L 2631 2963 
z
" transform="scale(0.015625)"/>
       <path id="DejaVuSans-6e" d="M 3513 2113 
L 3513 0 
L 2938 0 
L 2938 2094 
Q 2938 2591 2744 2837 
Q 2550 3084 2163 3084 
Q 1697 3084 1428 2787 
Q 1159 2491 1159 1978 
L 1159 0 
L 581 0 
L 581 3500 
L 1159 3500 
L 1159 2956 
Q 1366 3272 1645 3428 
Q 1925 3584 2291 3584 
Q 2894 3584 3203 3211 
Q 3513 2838 3513 2113 
z
" transform="scale(0.015625)"/>
       <path id="DejaVuSans-61" d="M 2194 1759 
Q 1497 1759 1228 1600 
Q 959 1441 959 1056 
Q 959 750 1161 570 
Q 1363 391 1709 391 
Q 2188 391 2477 730 
Q 2766 1069 2766 1631 
L 2766 1759 
L 2194 1759 
z
M 3341 1997 
L 3341 0 
L 2766 0 
L 2766 531 
Q 2569 213 2275 61 
Q 1981 -91 1556 -91 
Q 1019 -91 701 211 
Q 384 513 384 1019 
Q 384 1609 779 1909 
Q 1175 2209 1959 2209 
L 2766 2209 
L 2766 2266 
Q 2766 2663 2505 2880 
Q 2244 3097 1772 3097 
Q 1472 3097 1187 3025 
Q 903 2953 641 2809 
L 641 3341 
Q 956 3463 1253 3523 
Q 1550 3584 1831 3584 
Q 2591 3584 2966 3190 
Q 3341 2797 3341 1997 
z
" transform="scale(0.015625)"/>
       <path id="DejaVuSans-79" d="M 2059 -325 
Q 1816 -950 1584 -1140 
Q 1353 -1331 966 -1331 
L 506 -1331 
L 506 -850 
L 844 -850 
Q 1081 -850 1212 -737 
Q 1344 -625 1503 -206 
L 1606 56 
L 191 3500 
L 800 3500 
L 1894 763 
L 2988 3500 
L 3597 3500 
L 2059 -325 
z
" transform="scale(0.015625)"/>
       <path id="DejaVuSans-63" d="M 3122 3366 
L 3122 2828 
Q 2878 2963 2633 3030 
Q 2388 3097 2138 3097 
Q 1578 3097 1268 2742 
Q 959 2388 959 1747 
Q 959 1106 1268 751 
Q 1578 397 2138 397 
Q 2388 397 2633 464 
Q 2878 531 3122 666 
L 3122 134 
Q 2881 22 2623 -34 
Q 2366 -91 2075 -91 
Q 1284 -91 818 406 
Q 353 903 353 1747 
Q 353 2603 823 3093 
Q 1294 3584 2113 3584 
Q 2378 3584 2631 3529 
Q 2884 3475 3122 3366 
z
" transform="scale(0.015625)"/>
      </defs>
      <use xlink:href="#DejaVuSans-73"/>
      <use xlink:href="#DejaVuSans-6f" x="52.099609"/>
      <use xlink:href="#DejaVuSans-6c" x="113.28125"/>
      <use xlink:href="#DejaVuSans-76" x="141.064453"/>
      <use xlink:href="#DejaVuSans-65" x="200.244141"/>
      <use xlink:href="#DejaVuSans-5f" x="261.767578"/>
      <use xlink:href="#DejaVuSans-65" x="311.767578"/>
      <use xlink:href="#DejaVuSans-78" x="371.541016"/>
      <use xlink:href="#DejaVuSans-74" x="430.720703"/>
      <use xlink:href="#DejaVuSans-65" x="469.929688"/>
      <use xlink:href="#DejaVuSans-72" x="531.453125"/>
      <use xlink:href="#DejaVuSans-6e" x="570.816406"/>
      <use xlink:href="#DejaVuSans-61" x="634.195312"/>
      <use xlink:href="#DejaVuSans-6c" x="695.474609"/>
      <use xlink:href="#DejaVuSans-5f" x="723.257812"/>
      <use xlink:href="#DejaVuSans-79" x="773.257812"/>
      <use xlink:href="#DejaVuSans-69" x="832.4375"/>
      <use xlink:href="#DejaVuSans-63" x="860.220703"/>
      <use xlink:href="#DejaVuSans-65" x="915.201172"/>
      <use xlink:href="#DejaVuSans-73" x="976.724609"/>
     </g>
    </g>
    <g id="patch_105">
     <path d="M 56.178365 34.554928 
L 76.178365 34.554928 
L 76.178365 27.554928 
L 56.178365 27.554928 
z
" style="fill: #ff7f0e"/>
    </g>
    <g id="text_32">
     <!-- solve_z3 -->
     <g transform="translate(84.178365 34.554928) scale(0.1 -0.1)">
      <defs>
       <path id="DejaVuSans-7a" d="M 353 3500 
L 3084 3500 
L 3084 2975 
L 922 459 
L 3084 459 
L 3084 0 
L 275 0 
L 275 525 
L 2438 3041 
L 353 3041 
L 353 3500 
z
" transform="scale(0.015625)"/>
      </defs>
      <use xlink:href="#DejaVuSans-73"/>
      <use xlink:href="#DejaVuSans-6f" x="52.099609"/>
      <use xlink:href="#DejaVuSans-6c" x="113.28125"/>
      <use xlink:href="#DejaVuSans-76" x="141.064453"/>
      <use xlink:href="#DejaVuSans-65" x="200.244141"/>
      <use xlink:href="#DejaVuSans-5f" x="261.767578"/>
      <use xlink:href="#DejaVuSans-7a" x="311.767578"/>
      <use xlink:href="#DejaVuSans-33" x="364.257812"/>
     </g>
    </g>
    <g id="patch_106">
     <path d="M 207.064302 19.598678 
L 227.064302 19.598678 
L 227.064302 12.598678 
L 207.064302 12.598678 
z
" style="fill: #2ca02c"/>
    </g>
    <g id="text_33">
     <!-- solve_external_bitwuzla -->
     <g transform="translate(235.064302 19.598678) scale(0.1 -0.1)">
      <defs>
       <path id="DejaVuSans-62" d="M 3116 1747 
Q 3116 2381 2855 2742 
Q 2594 3103 2138 3103 
Q 1681 3103 1420 2742 
Q 1159 2381 1159 1747 
Q 1159 1113 1420 752 
Q 1681 391 2138 391 
Q 2594 391 2855 752 
Q 3116 1113 3116 1747 
z
M 1159 2969 
Q 1341 3281 1617 3432 
Q 1894 3584 2278 3584 
Q 2916 3584 3314 3078 
Q 3713 2572 3713 1747 
Q 3713 922 3314 415 
Q 2916 -91 2278 -91 
Q 1894 -91 1617 61 
Q 1341 213 1159 525 
L 1159 0 
L 581 0 
L 581 4863 
L 1159 4863 
L 1159 2969 
z
" transform="scale(0.015625)"/>
       <path id="DejaVuSans-77" d="M 269 3500 
L 844 3500 
L 1563 769 
L 2278 3500 
L 2956 3500 
L 3675 769 
L 4391 3500 
L 4966 3500 
L 4050 0 
L 3372 0 
L 2619 2869 
L 1863 0 
L 1184 0 
L 269 3500 
z
" transform="scale(0.015625)"/>
       <path id="DejaVuSans-75" d="M 544 1381 
L 544 3500 
L 1119 3500 
L 1119 1403 
Q 1119 906 1312 657 
Q 1506 409 1894 409 
Q 2359 409 2629 706 
Q 2900 1003 2900 1516 
L 2900 3500 
L 3475 3500 
L 3475 0 
L 2900 0 
L 2900 538 
Q 2691 219 2414 64 
Q 2138 -91 1772 -91 
Q 1169 -91 856 284 
Q 544 659 544 1381 
z
M 1991 3584 
L 1991 3584 
z
" transform="scale(0.015625)"/>
      </defs>
      <use xlink:href="#DejaVuSans-73"/>
      <use xlink:href="#DejaVuSans-6f" x="52.099609"/>
      <use xlink:href="#DejaVuSans-6c" x="113.28125"/>
      <use xlink:href="#DejaVuSans-76" x="141.064453"/>
      <use xlink:href="#DejaVuSans-65" x="200.244141"/>
      <use xlink:href="#DejaVuSans-5f" x="261.767578"/>
      <use xlink:href="#DejaVuSans-65" x="311.767578"/>
      <use xlink:href="#DejaVuSans-78" x="371.541016"/>
      <use xlink:href="#DejaVuSans-74" x="430.720703"/>
      <use xlink:href="#DejaVuSans-65" x="469.929688"/>
      <use xlink:href="#DejaVuSans-72" x="531.453125"/>
      <use xlink:href="#DejaVuSans-6e" x="570.816406"/>
      <use xlink:href="#DejaVuSans-61" x="634.195312"/>
      <use xlink:href="#DejaVuSans-6c" x="695.474609"/>
      <use xlink:href="#DejaVuSans-5f" x="723.257812"/>
      <use xlink:href="#DejaVuSans-62" x="773.257812"/>
      <use xlink:href="#DejaVuSans-69" x="836.734375"/>
      <use xlink:href="#DejaVuSans-74" x="864.517578"/>
      <use xlink:href="#DejaVuSans-77" x="903.726562"/>
      <use xlink:href="#DejaVuSans-75" x="985.513672"/>
      <use xlink:href="#DejaVuSans-7a" x="1048.892578"/>
      <use xlink:href="#DejaVuSans-6c" x="1101.382812"/>
      <use xlink:href="#DejaVuSans-61" x="1129.166016"/>
     </g>
    </g>
    <g id="patch_107">
     <path d="M 374.109615 19.598678 
L 394.109615 19.598678 
L 394.109615 12.598678 
L 374.109615 12.598678 
z
" style="fill: #d62728"/>
    </g>
    <g id="text_34">
     <!-- solve_external_cvc5 -->
     <g transform="translate(402.109615 19.598678) scale(0.1 -0.1)">
      <use xlink:href="#DejaVuSans-73"/>
      <use xlink:href="#DejaVuSans-6f" x="52.099609"/>
      <use xlink:href="#DejaVuSans-6c" x="113.28125"/>
      <use xlink:href="#DejaVuSans-76" x="141.064453"/>
      <use xlink:href="#DejaVuSans-65" x="200.244141"/>
      <use xlink:href="#DejaVuSans-5f" x="261.767578"/>
      <use xlink:href="#DejaVuSans-65" x="311.767578"/>
      <use xlink:href="#DejaVuSans-78" x="371.541016"/>
      <use xlink:href="#DejaVuSans-74" x="430.720703"/>
      <use xlink:href="#DejaVuSans-65" x="469.929688"/>
      <use xlink:href="#DejaVuSans-72" x="531.453125"/>
      <use xlink:href="#DejaVuSans-6e" x="570.816406"/>
      <use xlink:href="#DejaVuSans-61" x="634.195312"/>
      <use xlink:href="#DejaVuSans-6c" x="695.474609"/>
      <use xlink:href="#DejaVuSans-5f" x="723.257812"/>
      <use xlink:href="#DejaVuSans-63" x="773.257812"/>
      <use xlink:href="#DejaVuSans-76" x="828.238281"/>
      <use xlink:href="#DejaVuSans-63" x="887.417969"/>
      <use xlink:href="#DejaVuSans-35" x="942.398438"/>
     </g>
    </g>
   </g>
  </g>
 </g>
 <defs>
  <clipPath id="pcc03d927af">
   <rect x="47.178365" y="3.00024" width="1245.821395" height="682.886238"/>
  </clipPath>
 </defs>
</svg>
