<?xml version="1.0" encoding="utf-8" standalone="no"?>
<!DOCTYPE svg PUBLIC "-//W3C//DTD SVG 1.1//EN"
  "http://www.w3.org/Graphics/SVG/1.1/DTD/svg11.dtd">
<svg xmlns:xlink="http://www.w3.org/1999/xlink" width="1382.4pt" height="713.52pt" viewBox="0 0 1382.4 713.52" xmlns="http://www.w3.org/2000/svg" version="1.1">
 <metadata>
  <rdf:RDF xmlns:dc="http://purl.org/dc/elements/1.1/" xmlns:cc="http://creativecommons.org/ns#" xmlns:rdf="http://www.w3.org/1999/02/22-rdf-syntax-ns#">
   <cc:Work>
    <dc:type rdf:resource="http://purl.org/dc/dcmitype/StillImage"/>
    <dc:date>2024-09-04T11:16:07.031187</dc:date>
    <dc:format>image/svg+xml</dc:format>
    <dc:creator>
     <cc:Agent>
      <dc:title>Matplotlib v3.9.1, https://matplotlib.org/</dc:title>
     </cc:Agent>
    </dc:creator>
   </cc:Work>
  </rdf:RDF>
 </metadata>
 <defs>
  <style type="text/css">*{stroke-linejoin: round; stroke-linecap: butt}</style>
 </defs>
 <g id="figure_1">
  <g id="patch_1">
   <path d="M 0 713.52 
L 1382.4 713.52 
L 1382.4 0 
L 0 0 
z
" style="fill: #ffffff"/>
  </g>
  <g id="axes_1">
   <g id="patch_2">
    <path d="M 41.278365 682.286478 
L 1379.39976 682.286478 
L 1379.39976 3.00024 
L 41.278365 3.00024 
z
" style="fill: #ffffff"/>
   </g>
   <g id="patch_3">
    <path d="M 102.102065 150526.10694 
L 112.324535 150526.10694 
L 112.324535 642.975671 
L 102.102065 642.975671 
z
" clip-path="url(#p98692c5c0b)" style="fill: #1f77b4"/>
   </g>
   <g id="patch_4">
    <path d="M 153.214418 150526.10694 
L 163.436888 150526.10694 
L 163.436888 624.490975 
L 153.214418 624.490975 
z
" clip-path="url(#p98692c5c0b)" style="fill: #1f77b4"/>
   </g>
   <g id="patch_5">
    <path d="M 204.32677 150526.10694 
L 214.549241 150526.10694 
L 214.549241 620.265435 
L 204.32677 620.265435 
z
" clip-path="url(#p98692c5c0b)" style="fill: #1f77b4"/>
   </g>
   <g id="patch_6">
    <path d="M 255.439123 150526.10694 
L 265.661594 150526.10694 
L 265.661594 643.137633 
L 255.439123 643.137633 
z
" clip-path="url(#p98692c5c0b)" style="fill: #1f77b4"/>
   </g>
   <g id="patch_7">
    <path d="M 306.551476 150526.10694 
L 316.773946 150526.10694 
L 316.773946 638.536972 
L 306.551476 638.536972 
z
" clip-path="url(#p98692c5c0b)" style="fill: #1f77b4"/>
   </g>
   <g id="patch_8">
    <path d="M 357.663829 150526.10694 
L 367.886299 150526.10694 
L 367.886299 647.796783 
L 357.663829 647.796783 
z
" clip-path="url(#p98692c5c0b)" style="fill: #1f77b4"/>
   </g>
   <g id="patch_9">
    <path d="M 408.776181 150526.10694 
L 418.998652 150526.10694 
L 418.998652 599.115249 
L 408.776181 599.115249 
z
" clip-path="url(#p98692c5c0b)" style="fill: #1f77b4"/>
   </g>
   <g id="patch_10">
    <path d="M 459.888534 150526.10694 
L 470.111005 150526.10694 
L 470.111005 562.677481 
L 459.888534 562.677481 
z
" clip-path="url(#p98692c5c0b)" style="fill: #1f77b4"/>
   </g>
   <g id="patch_11">
    <path d="M 511.000887 150526.10694 
L 521.223357 150526.10694 
L 521.223357 595.967092 
L 511.000887 595.967092 
z
" clip-path="url(#p98692c5c0b)" style="fill: #1f77b4"/>
   </g>
   <g id="patch_12">
    <path d="M 562.11324 150526.10694 
L 572.33571 150526.10694 
L 572.33571 597.384451 
L 562.11324 597.384451 
z
" clip-path="url(#p98692c5c0b)" style="fill: #1f77b4"/>
   </g>
   <g id="patch_13">
    <path d="M 613.225592 150526.10694 
L 623.448063 150526.10694 
L 623.448063 580.632756 
L 613.225592 580.632756 
z
" clip-path="url(#p98692c5c0b)" style="fill: #1f77b4"/>
   </g>
   <g id="patch_14">
    <path d="M 664.337945 150526.10694 
L 674.560416 150526.10694 
L 674.560416 577.641832 
L 664.337945 577.641832 
z
" clip-path="url(#p98692c5c0b)" style="fill: #1f77b4"/>
   </g>
   <g id="patch_15">
    <path d="M 715.450298 150526.10694 
L 725.672768 150526.10694 
L 725.672768 513.273432 
L 715.450298 513.273432 
z
" clip-path="url(#p98692c5c0b)" style="fill: #1f77b4"/>
   </g>
   <g id="patch_16">
    <path d="M 766.562651 150526.10694 
L 776.785121 150526.10694 
L 776.785121 510.844249 
L 766.562651 510.844249 
z
" clip-path="url(#p98692c5c0b)" style="fill: #1f77b4"/>
   </g>
   <g id="patch_17">
    <path d="M 817.675003 150526.10694 
L 827.897474 150526.10694 
L 827.897474 500.84122 
L 817.675003 500.84122 
z
" clip-path="url(#p98692c5c0b)" style="fill: #1f77b4"/>
   </g>
   <g id="patch_18">
    <path d="M 868.787356 150526.10694 
L 879.009827 150526.10694 
L 879.009827 540.808175 
L 868.787356 540.808175 
z
" clip-path="url(#p98692c5c0b)" style="fill: #1f77b4"/>
   </g>
   <g id="patch_19">
    <path d="M 919.899709 150526.10694 
L 930.122179 150526.10694 
L 930.122179 475.513929 
L 919.899709 475.513929 
z
" clip-path="url(#p98692c5c0b)" style="fill: #1f77b4"/>
   </g>
   <g id="patch_20">
    <path d="M 971.012062 150526.10694 
L 981.234532 150526.10694 
L 981.234532 610.873131 
L 971.012062 610.873131 
z
" clip-path="url(#p98692c5c0b)" style="fill: #1f77b4"/>
   </g>
   <g id="patch_21">
    <path d="M 1022.124414 150526.10694 
L 1032.346885 150526.10694 
L 1032.346885 437.064926 
L 1022.124414 437.064926 
z
" clip-path="url(#p98692c5c0b)" style="fill: #1f77b4"/>
   </g>
   <g id="patch_22">
    <path d="M 1073.236767 150526.10694 
L 1083.459238 150526.10694 
L 1083.459238 519.501086 
L 1073.236767 519.501086 
z
" clip-path="url(#p98692c5c0b)" style="fill: #1f77b4"/>
   </g>
   <g id="patch_23">
    <path d="M 1124.34912 150526.10694 
L 1134.57159 150526.10694 
L 1134.57159 33.876887 
L 1124.34912 33.876887 
z
" clip-path="url(#p98692c5c0b)" style="fill: #1f77b4"/>
   </g>
   <g id="patch_24">
    <path d="M 1175.461473 150526.10694 
L 1185.683943 150526.10694 
L 1185.683943 33.876887 
L 1175.461473 33.876887 
z
" clip-path="url(#p98692c5c0b)" style="fill: #1f77b4"/>
   </g>
   <g id="patch_25">
    <path d="M 1226.573825 150526.10694 
L 1236.796296 150526.10694 
L 1236.796296 33.876887 
L 1226.573825 33.876887 
z
" clip-path="url(#p98692c5c0b)" style="fill: #1f77b4"/>
   </g>
   <g id="patch_26">
    <path d="M 1277.686178 150526.10694 
L 1287.908649 150526.10694 
L 1287.908649 33.876887 
L 1277.686178 33.876887 
z
" clip-path="url(#p98692c5c0b)" style="fill: #1f77b4"/>
   </g>
   <g id="patch_27">
    <path d="M 112.324535 150526.10694 
L 122.547006 150526.10694 
L 122.547006 651.286098 
L 112.324535 651.286098 
z
" clip-path="url(#p98692c5c0b)" style="fill: #ff7f0e"/>
   </g>
   <g id="patch_28">
    <path d="M 163.436888 150526.10694 
L 173.659359 150526.10694 
L 173.659359 603.190157 
L 163.436888 603.190157 
z
" clip-path="url(#p98692c5c0b)" style="fill: #ff7f0e"/>
   </g>
   <g id="patch_29">
    <path d="M 214.549241 150526.10694 
L 224.771711 150526.10694 
L 224.771711 634.698371 
L 214.549241 634.698371 
z
" clip-path="url(#p98692c5c0b)" style="fill: #ff7f0e"/>
   </g>
   <g id="patch_30">
    <path d="M 265.661594 150526.10694 
L 275.884064 150526.10694 
L 275.884064 651.409831 
L 265.661594 651.409831 
z
" clip-path="url(#p98692c5c0b)" style="fill: #ff7f0e"/>
   </g>
   <g id="patch_31">
    <path d="M 316.773946 150526.10694 
L 326.996417 150526.10694 
L 326.996417 645.910178 
L 316.773946 645.910178 
z
" clip-path="url(#p98692c5c0b)" style="fill: #ff7f0e"/>
   </g>
   <g id="patch_32">
    <path d="M 367.886299 150526.10694 
L 378.10877 150526.10694 
L 378.10877 650.005627 
L 367.886299 650.005627 
z
" clip-path="url(#p98692c5c0b)" style="fill: #ff7f0e"/>
   </g>
   <g id="patch_33">
    <path d="M 418.998652 150526.10694 
L 429.221122 150526.10694 
L 429.221122 612.637458 
L 418.998652 612.637458 
z
" clip-path="url(#p98692c5c0b)" style="fill: #ff7f0e"/>
   </g>
   <g id="patch_34">
    <path d="M 470.111005 150526.10694 
L 480.333475 150526.10694 
L 480.333475 592.963832 
L 470.111005 592.963832 
z
" clip-path="url(#p98692c5c0b)" style="fill: #ff7f0e"/>
   </g>
   <g id="patch_35">
    <path d="M 521.223357 150526.10694 
L 531.445828 150526.10694 
L 531.445828 600.530756 
L 521.223357 600.530756 
z
" clip-path="url(#p98692c5c0b)" style="fill: #ff7f0e"/>
   </g>
   <g id="patch_36">
    <path d="M 572.33571 150526.10694 
L 582.558181 150526.10694 
L 582.558181 592.10674 
L 572.33571 592.10674 
z
" clip-path="url(#p98692c5c0b)" style="fill: #ff7f0e"/>
   </g>
   <g id="patch_37">
    <path d="M 623.448063 150526.10694 
L 633.670533 150526.10694 
L 633.670533 604.757701 
L 623.448063 604.757701 
z
" clip-path="url(#p98692c5c0b)" style="fill: #ff7f0e"/>
   </g>
   <g id="patch_38">
    <path d="M 674.560416 150526.10694 
L 684.782886 150526.10694 
L 684.782886 595.443159 
L 674.560416 595.443159 
z
" clip-path="url(#p98692c5c0b)" style="fill: #ff7f0e"/>
   </g>
   <g id="patch_39">
    <path d="M 725.672768 150526.10694 
L 735.895239 150526.10694 
L 735.895239 523.627153 
L 725.672768 523.627153 
z
" clip-path="url(#p98692c5c0b)" style="fill: #ff7f0e"/>
   </g>
   <g id="patch_40">
    <path d="M 776.785121 150526.10694 
L 787.007592 150526.10694 
L 787.007592 539.480401 
L 776.785121 539.480401 
z
" clip-path="url(#p98692c5c0b)" style="fill: #ff7f0e"/>
   </g>
   <g id="patch_41">
    <path d="M 827.897474 150526.10694 
L 838.119944 150526.10694 
L 838.119944 539.355987 
L 827.897474 539.355987 
z
" clip-path="url(#p98692c5c0b)" style="fill: #ff7f0e"/>
   </g>
   <g id="patch_42">
    <path d="M 879.009827 150526.10694 
L 889.232297 150526.10694 
L 889.232297 571.10939 
L 879.009827 571.10939 
z
" clip-path="url(#p98692c5c0b)" style="fill: #ff7f0e"/>
   </g>
   <g id="patch_43">
    <path d="M 930.122179 150526.10694 
L 940.34465 150526.10694 
L 940.34465 519.235472 
L 930.122179 519.235472 
z
" clip-path="url(#p98692c5c0b)" style="fill: #ff7f0e"/>
   </g>
   <g id="patch_44">
    <path d="M 981.234532 150526.10694 
L 991.457003 150526.10694 
L 991.457003 622.818102 
L 981.234532 622.818102 
z
" clip-path="url(#p98692c5c0b)" style="fill: #ff7f0e"/>
   </g>
   <g id="patch_45">
    <path d="M 1032.346885 150526.10694 
L 1042.569355 150526.10694 
L 1042.569355 444.275771 
L 1032.346885 444.275771 
z
" clip-path="url(#p98692c5c0b)" style="fill: #ff7f0e"/>
   </g>
   <g id="patch_46">
    <path d="M 1083.459238 150526.10694 
L 1093.681708 150526.10694 
L 1093.681708 278.323904 
L 1083.459238 278.323904 
z
" clip-path="url(#p98692c5c0b)" style="fill: #ff7f0e"/>
   </g>
   <g id="patch_47">
    <path d="M 1134.57159 150526.10694 
L 1144.794061 150526.10694 
L 1144.794061 216.378059 
L 1134.57159 216.378059 
z
" clip-path="url(#p98692c5c0b)" style="fill: #ff7f0e"/>
   </g>
   <g id="patch_48">
    <path d="M 1185.683943 150526.10694 
L 1195.906414 150526.10694 
L 1195.906414 33.876887 
L 1185.683943 33.876887 
z
" clip-path="url(#p98692c5c0b)" style="fill: #ff7f0e"/>
   </g>
   <g id="patch_49">
    <path d="M 1236.796296 150526.10694 
L 1247.018766 150526.10694 
L 1247.018766 33.876887 
L 1236.796296 33.876887 
z
" clip-path="url(#p98692c5c0b)" style="fill: #ff7f0e"/>
   </g>
   <g id="patch_50">
    <path d="M 1287.908649 150526.10694 
L 1298.131119 150526.10694 
L 1298.131119 33.876887 
L 1287.908649 33.876887 
z
" clip-path="url(#p98692c5c0b)" style="fill: #ff7f0e"/>
   </g>
   <g id="patch_51">
    <path d="M 122.547006 150526.10694 
L 132.769476 150526.10694 
L 132.769476 637.21362 
L 122.547006 637.21362 
z
" clip-path="url(#p98692c5c0b)" style="fill: #2ca02c"/>
   </g>
   <g id="patch_52">
    <path d="M 173.659359 150526.10694 
L 183.881829 150526.10694 
L 183.881829 603.121053 
L 173.659359 603.121053 
z
" clip-path="url(#p98692c5c0b)" style="fill: #2ca02c"/>
   </g>
   <g id="patch_53">
    <path d="M 224.771711 150526.10694 
L 234.994182 150526.10694 
L 234.994182 626.13237 
L 224.771711 626.13237 
z
" clip-path="url(#p98692c5c0b)" style="fill: #2ca02c"/>
   </g>
   <g id="patch_54">
    <path d="M 275.884064 150526.10694 
L 286.106535 150526.10694 
L 286.106535 640.347884 
L 275.884064 640.347884 
z
" clip-path="url(#p98692c5c0b)" style="fill: #2ca02c"/>
   </g>
   <g id="patch_55">
    <path d="M 326.996417 150526.10694 
L 337.218887 150526.10694 
L 337.218887 637.042379 
L 326.996417 637.042379 
z
" clip-path="url(#p98692c5c0b)" style="fill: #2ca02c"/>
   </g>
   <g id="patch_56">
    <path d="M 378.10877 150526.10694 
L 388.33124 150526.10694 
L 388.33124 643.261786 
L 378.10877 643.261786 
z
" clip-path="url(#p98692c5c0b)" style="fill: #2ca02c"/>
   </g>
   <g id="patch_57">
    <path d="M 429.221122 150526.10694 
L 439.443593 150526.10694 
L 439.443593 604.435699 
L 429.221122 604.435699 
z
" clip-path="url(#p98692c5c0b)" style="fill: #2ca02c"/>
   </g>
   <g id="patch_58">
    <path d="M 480.333475 150526.10694 
L 490.555946 150526.10694 
L 490.555946 608.808575 
L 480.333475 608.808575 
z
" clip-path="url(#p98692c5c0b)" style="fill: #2ca02c"/>
   </g>
   <g id="patch_59">
    <path d="M 531.445828 150526.10694 
L 541.668298 150526.10694 
L 541.668298 579.367185 
L 531.445828 579.367185 
z
" clip-path="url(#p98692c5c0b)" style="fill: #2ca02c"/>
   </g>
   <g id="patch_60">
    <path d="M 582.558181 150526.10694 
L 592.780651 150526.10694 
L 592.780651 580.359995 
L 582.558181 580.359995 
z
" clip-path="url(#p98692c5c0b)" style="fill: #2ca02c"/>
   </g>
   <g id="patch_61">
    <path d="M 633.670533 150526.10694 
L 643.893004 150526.10694 
L 643.893004 592.793927 
L 633.670533 592.793927 
z
" clip-path="url(#p98692c5c0b)" style="fill: #2ca02c"/>
   </g>
   <g id="patch_62">
    <path d="M 684.782886 150526.10694 
L 695.005357 150526.10694 
L 695.005357 591.327742 
L 684.782886 591.327742 
z
" clip-path="url(#p98692c5c0b)" style="fill: #2ca02c"/>
   </g>
   <g id="patch_63">
    <path d="M 735.895239 150526.10694 
L 746.117709 150526.10694 
L 746.117709 463.842853 
L 735.895239 463.842853 
z
" clip-path="url(#p98692c5c0b)" style="fill: #2ca02c"/>
   </g>
   <g id="patch_64">
    <path d="M 787.007592 150526.10694 
L 797.230062 150526.10694 
L 797.230062 524.913644 
L 787.007592 524.913644 
z
" clip-path="url(#p98692c5c0b)" style="fill: #2ca02c"/>
   </g>
   <g id="patch_65">
    <path d="M 838.119944 150526.10694 
L 848.342415 150526.10694 
L 848.342415 519.309073 
L 838.119944 519.309073 
z
" clip-path="url(#p98692c5c0b)" style="fill: #2ca02c"/>
   </g>
   <g id="patch_66">
    <path d="M 889.232297 150526.10694 
L 899.454768 150526.10694 
L 899.454768 539.611992 
L 889.232297 539.611992 
z
" clip-path="url(#p98692c5c0b)" style="fill: #2ca02c"/>
   </g>
   <g id="patch_67">
    <path d="M 940.34465 150526.10694 
L 950.56712 150526.10694 
L 950.56712 511.626086 
L 940.34465 511.626086 
z
" clip-path="url(#p98692c5c0b)" style="fill: #2ca02c"/>
   </g>
   <g id="patch_68">
    <path d="M 991.457003 150526.10694 
L 1001.679473 150526.10694 
L 1001.679473 606.013463 
L 991.457003 606.013463 
z
" clip-path="url(#p98692c5c0b)" style="fill: #2ca02c"/>
   </g>
   <g id="patch_69">
    <path d="M 1042.569355 150526.10694 
L 1052.791826 150526.10694 
L 1052.791826 425.901097 
L 1042.569355 425.901097 
z
" clip-path="url(#p98692c5c0b)" style="fill: #2ca02c"/>
   </g>
   <g id="patch_70">
    <path d="M 1093.681708 150526.10694 
L 1103.904179 150526.10694 
L 1103.904179 520.906422 
L 1093.681708 520.906422 
z
" clip-path="url(#p98692c5c0b)" style="fill: #2ca02c"/>
   </g>
   <g id="patch_71">
    <path d="M 1144.794061 150526.10694 
L 1155.016531 150526.10694 
L 1155.016531 33.876887 
L 1144.794061 33.876887 
z
" clip-path="url(#p98692c5c0b)" style="fill: #2ca02c"/>
   </g>
   <g id="patch_72">
    <path d="M 1195.906414 150526.10694 
L 1206.128884 150526.10694 
L 1206.128884 201.274152 
L 1195.906414 201.274152 
z
" clip-path="url(#p98692c5c0b)" style="fill: #2ca02c"/>
   </g>
   <g id="patch_73">
    <path d="M 1247.018766 150526.10694 
L 1257.241237 150526.10694 
L 1257.241237 33.876887 
L 1247.018766 33.876887 
z
" clip-path="url(#p98692c5c0b)" style="fill: #2ca02c"/>
   </g>
   <g id="patch_74">
    <path d="M 1298.131119 150526.10694 
L 1308.35359 150526.10694 
L 1308.35359 256.951975 
L 1298.131119 256.951975 
z
" clip-path="url(#p98692c5c0b)" style="fill: #2ca02c"/>
   </g>
   <g id="patch_75">
    <path d="M 132.769476 150526.10694 
L 142.991947 150526.10694 
L 142.991947 634.253303 
L 132.769476 634.253303 
z
" clip-path="url(#p98692c5c0b)" style="fill: #d62728"/>
   </g>
   <g id="patch_76">
    <path d="M 183.881829 150526.10694 
L 194.1043 150526.10694 
L 194.1043 591.881428 
L 183.881829 591.881428 
z
" clip-path="url(#p98692c5c0b)" style="fill: #d62728"/>
   </g>
   <g id="patch_77">
    <path d="M 234.994182 150526.10694 
L 245.216652 150526.10694 
L 245.216652 612.826201 
L 234.994182 612.826201 
z
" clip-path="url(#p98692c5c0b)" style="fill: #d62728"/>
   </g>
   <g id="patch_78">
    <path d="M 286.106535 150526.10694 
L 296.329005 150526.10694 
L 296.329005 640.514636 
L 286.106535 640.514636 
z
" clip-path="url(#p98692c5c0b)" style="fill: #d62728"/>
   </g>
   <g id="patch_79">
    <path d="M 337.218887 150526.10694 
L 347.441358 150526.10694 
L 347.441358 634.213974 
L 337.218887 634.213974 
z
" clip-path="url(#p98692c5c0b)" style="fill: #d62728"/>
   </g>
   <g id="patch_80">
    <path d="M 388.33124 150526.10694 
L 398.553711 150526.10694 
L 398.553711 634.378637 
L 388.33124 634.378637 
z
" clip-path="url(#p98692c5c0b)" style="fill: #d62728"/>
   </g>
   <g id="patch_81">
    <path d="M 439.443593 150526.10694 
L 449.666063 150526.10694 
L 449.666063 589.778203 
L 439.443593 589.778203 
z
" clip-path="url(#p98692c5c0b)" style="fill: #d62728"/>
   </g>
   <g id="patch_82">
    <path d="M 490.555946 150526.10694 
L 500.778416 150526.10694 
L 500.778416 594.106483 
L 490.555946 594.106483 
z
" clip-path="url(#p98692c5c0b)" style="fill: #d62728"/>
   </g>
   <g id="patch_83">
    <path d="M 541.668298 150526.10694 
L 551.890769 150526.10694 
L 551.890769 554.099423 
L 541.668298 554.099423 
z
" clip-path="url(#p98692c5c0b)" style="fill: #d62728"/>
   </g>
   <g id="patch_84">
    <path d="M 592.780651 150526.10694 
L 603.003122 150526.10694 
L 603.003122 560.359581 
L 592.780651 560.359581 
z
" clip-path="url(#p98692c5c0b)" style="fill: #d62728"/>
   </g>
   <g id="patch_85">
    <path d="M 643.893004 150526.10694 
L 654.115474 150526.10694 
L 654.115474 567.791467 
L 643.893004 567.791467 
z
" clip-path="url(#p98692c5c0b)" style="fill: #d62728"/>
   </g>
   <g id="patch_86">
    <path d="M 695.005357 150526.10694 
L 705.227827 150526.10694 
L 705.227827 579.344504 
L 695.005357 579.344504 
z
" clip-path="url(#p98692c5c0b)" style="fill: #d62728"/>
   </g>
   <g id="patch_87">
    <path d="M 746.117709 150526.10694 
L 756.34018 150526.10694 
L 756.34018 229.812384 
L 746.117709 229.812384 
z
" clip-path="url(#p98692c5c0b)" style="fill: #d62728"/>
   </g>
   <g id="patch_88">
    <path d="M 797.230062 150526.10694 
L 807.452533 150526.10694 
L 807.452533 258.517634 
L 797.230062 258.517634 
z
" clip-path="url(#p98692c5c0b)" style="fill: #d62728"/>
   </g>
   <g id="patch_89">
    <path d="M 848.342415 150526.10694 
L 858.564885 150526.10694 
L 858.564885 33.876887 
L 848.342415 33.876887 
z
" clip-path="url(#p98692c5c0b)" style="fill: #d62728"/>
   </g>
   <g id="patch_90">
    <path d="M 899.454768 150526.10694 
L 909.677238 150526.10694 
L 909.677238 429.099436 
L 899.454768 429.099436 
z
" clip-path="url(#p98692c5c0b)" style="fill: #d62728"/>
   </g>
   <g id="patch_91">
    <path d="M 950.56712 150526.10694 
L 960.789591 150526.10694 
L 960.789591 449.349045 
L 950.56712 449.349045 
z
" clip-path="url(#p98692c5c0b)" style="fill: #d62728"/>
   </g>
   <g id="patch_92">
    <path d="M 1001.679473 150526.10694 
L 1011.901944 150526.10694 
L 1011.901944 602.640872 
L 1001.679473 602.640872 
z
" clip-path="url(#p98692c5c0b)" style="fill: #d62728"/>
   </g>
   <g id="patch_93">
    <path d="M 1052.791826 150526.10694 
L 1063.014296 150526.10694 
L 1063.014296 33.876887 
L 1052.791826 33.876887 
z
" clip-path="url(#p98692c5c0b)" style="fill: #d62728"/>
   </g>
   <g id="patch_94">
    <path d="M 1103.904179 150526.10694 
L 1114.126649 150526.10694 
L 1114.126649 518.722521 
L 1103.904179 518.722521 
z
" clip-path="url(#p98692c5c0b)" style="fill: #d62728"/>
   </g>
   <g id="patch_95">
    <path d="M 1155.016531 150526.10694 
L 1165.239002 150526.10694 
L 1165.239002 33.876887 
L 1155.016531 33.876887 
z
" clip-path="url(#p98692c5c0b)" style="fill: #d62728"/>
   </g>
   <g id="patch_96">
    <path d="M 1206.128884 150526.10694 
L 1216.351355 150526.10694 
L 1216.351355 33.876887 
L 1206.128884 33.876887 
z
" clip-path="url(#p98692c5c0b)" style="fill: #d62728"/>
   </g>
   <g id="patch_97">
    <path d="M 1257.241237 150526.10694 
L 1267.463707 150526.10694 
L 1267.463707 33.876887 
L 1257.241237 33.876887 
z
" clip-path="url(#p98692c5c0b)" style="fill: #d62728"/>
   </g>
   <g id="patch_98">
    <path d="M 1308.35359 150526.10694 
L 1318.57606 150526.10694 
L 1318.57606 505.197295 
L 1308.35359 505.197295 
z
" clip-path="url(#p98692c5c0b)" style="fill: #d62728"/>
   </g>
   <g id="matplotlib.axis_1">
    <g id="xtick_1">
     <g id="line2d_1">
      <defs>
       <path id="mbc6e59689a" d="M 0 0 
L 0 3.5 
" style="stroke: #000000; stroke-width: 0.8"/>
      </defs>
      <g>
       <use xlink:href="#mbc6e59689a" x="117.435771" y="682.286478" style="stroke: #000000; stroke-width: 0.8"/>
      </g>
     </g>
     <g id="text_1">
      <!-- p01 -->
      <g transform="translate(111.581056 691.885297) rotate(-290) scale(0.1 -0.1)">
       <defs>
        <path id="DejaVuSans-70" d="M 1159 525 
L 1159 -1331 
L 581 -1331 
L 581 3500 
L 1159 3500 
L 1159 2969 
Q 1341 3281 1617 3432 
Q 1894 3584 2278 3584 
Q 2916 3584 3314 3078 
Q 3713 2572 3713 1747 
Q 3713 922 3314 415 
Q 2916 -91 2278 -91 
Q 1894 -91 1617 61 
Q 1341 213 1159 525 
z
M 3116 1747 
Q 3116 2381 2855 2742 
Q 2594 3103 2138 3103 
Q 1681 3103 1420 2742 
Q 1159 2381 1159 1747 
Q 1159 1113 1420 752 
Q 1681 391 2138 391 
Q 2594 391 2855 752 
Q 3116 1113 3116 1747 
z
" transform="scale(0.015625)"/>
        <path id="DejaVuSans-30" d="M 2034 4250 
Q 1547 4250 1301 3770 
Q 1056 3291 1056 2328 
Q 1056 1369 1301 889 
Q 1547 409 2034 409 
Q 2525 409 2770 889 
Q 3016 1369 3016 2328 
Q 3016 3291 2770 3770 
Q 2525 4250 2034 4250 
z
M 2034 4750 
Q 2819 4750 3233 4129 
Q 3647 3509 3647 2328 
Q 3647 1150 3233 529 
Q 2819 -91 2034 -91 
Q 1250 -91 836 529 
Q 422 1150 422 2328 
Q 422 3509 836 4129 
Q 1250 4750 2034 4750 
z
" transform="scale(0.015625)"/>
        <path id="DejaVuSans-31" d="M 794 531 
L 1825 531 
L 1825 4091 
L 703 3866 
L 703 4441 
L 1819 4666 
L 2450 4666 
L 2450 531 
L 3481 531 
L 3481 0 
L 794 0 
L 794 531 
z
" transform="scale(0.015625)"/>
       </defs>
       <use xlink:href="#DejaVuSans-70"/>
       <use xlink:href="#DejaVuSans-30" x="63.476562"/>
       <use xlink:href="#DejaVuSans-31" x="127.099609"/>
      </g>
     </g>
    </g>
    <g id="xtick_2">
     <g id="line2d_2">
      <g>
       <use xlink:href="#mbc6e59689a" x="168.548123" y="682.286478" style="stroke: #000000; stroke-width: 0.8"/>
      </g>
     </g>
     <g id="text_2">
      <!-- p02 -->
      <g transform="translate(162.693409 691.885297) rotate(-290) scale(0.1 -0.1)">
       <defs>
        <path id="DejaVuSans-32" d="M 1228 531 
L 3431 531 
L 3431 0 
L 469 0 
L 469 531 
Q 828 903 1448 1529 
Q 2069 2156 2228 2338 
Q 2531 2678 2651 2914 
Q 2772 3150 2772 3378 
Q 2772 3750 2511 3984 
Q 2250 4219 1831 4219 
Q 1534 4219 1204 4116 
Q 875 4013 500 3803 
L 500 4441 
Q 881 4594 1212 4672 
Q 1544 4750 1819 4750 
Q 2544 4750 2975 4387 
Q 3406 4025 3406 3419 
Q 3406 3131 3298 2873 
Q 3191 2616 2906 2266 
Q 2828 2175 2409 1742 
Q 1991 1309 1228 531 
z
" transform="scale(0.015625)"/>
       </defs>
       <use xlink:href="#DejaVuSans-70"/>
       <use xlink:href="#DejaVuSans-30" x="63.476562"/>
       <use xlink:href="#DejaVuSans-32" x="127.099609"/>
      </g>
     </g>
    </g>
    <g id="xtick_3">
     <g id="line2d_3">
      <g>
       <use xlink:href="#mbc6e59689a" x="219.660476" y="682.286478" style="stroke: #000000; stroke-width: 0.8"/>
      </g>
     </g>
     <g id="text_3">
      <!-- p03 -->
      <g transform="translate(213.805762 691.885297) rotate(-290) scale(0.1 -0.1)">
       <defs>
        <path id="DejaVuSans-33" d="M 2597 2516 
Q 3050 2419 3304 2112 
Q 3559 1806 3559 1356 
Q 3559 666 3084 287 
Q 2609 -91 1734 -91 
Q 1441 -91 1130 -33 
Q 819 25 488 141 
L 488 750 
Q 750 597 1062 519 
Q 1375 441 1716 441 
Q 2309 441 2620 675 
Q 2931 909 2931 1356 
Q 2931 1769 2642 2001 
Q 2353 2234 1838 2234 
L 1294 2234 
L 1294 2753 
L 1863 2753 
Q 2328 2753 2575 2939 
Q 2822 3125 2822 3475 
Q 2822 3834 2567 4026 
Q 2313 4219 1838 4219 
Q 1578 4219 1281 4162 
Q 984 4106 628 3988 
L 628 4550 
Q 988 4650 1302 4700 
Q 1616 4750 1894 4750 
Q 2613 4750 3031 4423 
Q 3450 4097 3450 3541 
Q 3450 3153 3228 2886 
Q 3006 2619 2597 2516 
z
" transform="scale(0.015625)"/>
       </defs>
       <use xlink:href="#DejaVuSans-70"/>
       <use xlink:href="#DejaVuSans-30" x="63.476562"/>
       <use xlink:href="#DejaVuSans-33" x="127.099609"/>
      </g>
     </g>
    </g>
    <g id="xtick_4">
     <g id="line2d_4">
      <g>
       <use xlink:href="#mbc6e59689a" x="270.772829" y="682.286478" style="stroke: #000000; stroke-width: 0.8"/>
      </g>
     </g>
     <g id="text_4">
      <!-- p04 -->
      <g transform="translate(264.918115 691.885297) rotate(-290) scale(0.1 -0.1)">
       <defs>
        <path id="DejaVuSans-34" d="M 2419 4116 
L 825 1625 
L 2419 1625 
L 2419 4116 
z
M 2253 4666 
L 3047 4666 
L 3047 1625 
L 3713 1625 
L 3713 1100 
L 3047 1100 
L 3047 0 
L 2419 0 
L 2419 1100 
L 313 1100 
L 313 1709 
L 2253 4666 
z
" transform="scale(0.015625)"/>
       </defs>
       <use xlink:href="#DejaVuSans-70"/>
       <use xlink:href="#DejaVuSans-30" x="63.476562"/>
       <use xlink:href="#DejaVuSans-34" x="127.099609"/>
      </g>
     </g>
    </g>
    <g id="xtick_5">
     <g id="line2d_5">
      <g>
       <use xlink:href="#mbc6e59689a" x="321.885182" y="682.286478" style="stroke: #000000; stroke-width: 0.8"/>
      </g>
     </g>
     <g id="text_5">
      <!-- p05 -->
      <g transform="translate(316.030467 691.885297) rotate(-290) scale(0.1 -0.1)">
       <defs>
        <path id="DejaVuSans-35" d="M 691 4666 
L 3169 4666 
L 3169 4134 
L 1269 4134 
L 1269 2991 
Q 1406 3038 1543 3061 
Q 1681 3084 1819 3084 
Q 2600 3084 3056 2656 
Q 3513 2228 3513 1497 
Q 3513 744 3044 326 
Q 2575 -91 1722 -91 
Q 1428 -91 1123 -41 
Q 819 9 494 109 
L 494 744 
Q 775 591 1075 516 
Q 1375 441 1709 441 
Q 2250 441 2565 725 
Q 2881 1009 2881 1497 
Q 2881 1984 2565 2268 
Q 2250 2553 1709 2553 
Q 1456 2553 1204 2497 
Q 953 2441 691 2322 
L 691 4666 
z
" transform="scale(0.015625)"/>
       </defs>
       <use xlink:href="#DejaVuSans-70"/>
       <use xlink:href="#DejaVuSans-30" x="63.476562"/>
       <use xlink:href="#DejaVuSans-35" x="127.099609"/>
      </g>
     </g>
    </g>
    <g id="xtick_6">
     <g id="line2d_6">
      <g>
       <use xlink:href="#mbc6e59689a" x="372.997534" y="682.286478" style="stroke: #000000; stroke-width: 0.8"/>
      </g>
     </g>
     <g id="text_6">
      <!-- p06 -->
      <g transform="translate(367.14282 691.885297) rotate(-290) scale(0.1 -0.1)">
       <defs>
        <path id="DejaVuSans-36" d="M 2113 2584 
Q 1688 2584 1439 2293 
Q 1191 2003 1191 1497 
Q 1191 994 1439 701 
Q 1688 409 2113 409 
Q 2538 409 2786 701 
Q 3034 994 3034 1497 
Q 3034 2003 2786 2293 
Q 2538 2584 2113 2584 
z
M 3366 4563 
L 3366 3988 
Q 3128 4100 2886 4159 
Q 2644 4219 2406 4219 
Q 1781 4219 1451 3797 
Q 1122 3375 1075 2522 
Q 1259 2794 1537 2939 
Q 1816 3084 2150 3084 
Q 2853 3084 3261 2657 
Q 3669 2231 3669 1497 
Q 3669 778 3244 343 
Q 2819 -91 2113 -91 
Q 1303 -91 875 529 
Q 447 1150 447 2328 
Q 447 3434 972 4092 
Q 1497 4750 2381 4750 
Q 2619 4750 2861 4703 
Q 3103 4656 3366 4563 
z
" transform="scale(0.015625)"/>
       </defs>
       <use xlink:href="#DejaVuSans-70"/>
       <use xlink:href="#DejaVuSans-30" x="63.476562"/>
       <use xlink:href="#DejaVuSans-36" x="127.099609"/>
      </g>
     </g>
    </g>
    <g id="xtick_7">
     <g id="line2d_7">
      <g>
       <use xlink:href="#mbc6e59689a" x="424.109887" y="682.286478" style="stroke: #000000; stroke-width: 0.8"/>
      </g>
     </g>
     <g id="text_7">
      <!-- p07 -->
      <g transform="translate(418.255173 691.885297) rotate(-290) scale(0.1 -0.1)">
       <defs>
        <path id="DejaVuSans-37" d="M 525 4666 
L 3525 4666 
L 3525 4397 
L 1831 0 
L 1172 0 
L 2766 4134 
L 525 4134 
L 525 4666 
z
" transform="scale(0.015625)"/>
       </defs>
       <use xlink:href="#DejaVuSans-70"/>
       <use xlink:href="#DejaVuSans-30" x="63.476562"/>
       <use xlink:href="#DejaVuSans-37" x="127.099609"/>
      </g>
     </g>
    </g>
    <g id="xtick_8">
     <g id="line2d_8">
      <g>
       <use xlink:href="#mbc6e59689a" x="475.22224" y="682.286478" style="stroke: #000000; stroke-width: 0.8"/>
      </g>
     </g>
     <g id="text_8">
      <!-- p08 -->
      <g transform="translate(469.367526 691.885297) rotate(-290) scale(0.1 -0.1)">
       <defs>
        <path id="DejaVuSans-38" d="M 2034 2216 
Q 1584 2216 1326 1975 
Q 1069 1734 1069 1313 
Q 1069 891 1326 650 
Q 1584 409 2034 409 
Q 2484 409 2743 651 
Q 3003 894 3003 1313 
Q 3003 1734 2745 1975 
Q 2488 2216 2034 2216 
z
M 1403 2484 
Q 997 2584 770 2862 
Q 544 3141 544 3541 
Q 544 4100 942 4425 
Q 1341 4750 2034 4750 
Q 2731 4750 3128 4425 
Q 3525 4100 3525 3541 
Q 3525 3141 3298 2862 
Q 3072 2584 2669 2484 
Q 3125 2378 3379 2068 
Q 3634 1759 3634 1313 
Q 3634 634 3220 271 
Q 2806 -91 2034 -91 
Q 1263 -91 848 271 
Q 434 634 434 1313 
Q 434 1759 690 2068 
Q 947 2378 1403 2484 
z
M 1172 3481 
Q 1172 3119 1398 2916 
Q 1625 2713 2034 2713 
Q 2441 2713 2670 2916 
Q 2900 3119 2900 3481 
Q 2900 3844 2670 4047 
Q 2441 4250 2034 4250 
Q 1625 4250 1398 4047 
Q 1172 3844 1172 3481 
z
" transform="scale(0.015625)"/>
       </defs>
       <use xlink:href="#DejaVuSans-70"/>
       <use xlink:href="#DejaVuSans-30" x="63.476562"/>
       <use xlink:href="#DejaVuSans-38" x="127.099609"/>
      </g>
     </g>
    </g>
    <g id="xtick_9">
     <g id="line2d_9">
      <g>
       <use xlink:href="#mbc6e59689a" x="526.334593" y="682.286478" style="stroke: #000000; stroke-width: 0.8"/>
      </g>
     </g>
     <g id="text_9">
      <!-- p09 -->
      <g transform="translate(520.479878 691.885297) rotate(-290) scale(0.1 -0.1)">
       <defs>
        <path id="DejaVuSans-39" d="M 703 97 
L 703 672 
Q 941 559 1184 500 
Q 1428 441 1663 441 
Q 2288 441 2617 861 
Q 2947 1281 2994 2138 
Q 2813 1869 2534 1725 
Q 2256 1581 1919 1581 
Q 1219 1581 811 2004 
Q 403 2428 403 3163 
Q 403 3881 828 4315 
Q 1253 4750 1959 4750 
Q 2769 4750 3195 4129 
Q 3622 3509 3622 2328 
Q 3622 1225 3098 567 
Q 2575 -91 1691 -91 
Q 1453 -91 1209 -44 
Q 966 3 703 97 
z
M 1959 2075 
Q 2384 2075 2632 2365 
Q 2881 2656 2881 3163 
Q 2881 3666 2632 3958 
Q 2384 4250 1959 4250 
Q 1534 4250 1286 3958 
Q 1038 3666 1038 3163 
Q 1038 2656 1286 2365 
Q 1534 2075 1959 2075 
z
" transform="scale(0.015625)"/>
       </defs>
       <use xlink:href="#DejaVuSans-70"/>
       <use xlink:href="#DejaVuSans-30" x="63.476562"/>
       <use xlink:href="#DejaVuSans-39" x="127.099609"/>
      </g>
     </g>
    </g>
    <g id="xtick_10">
     <g id="line2d_10">
      <g>
       <use xlink:href="#mbc6e59689a" x="577.446945" y="682.286478" style="stroke: #000000; stroke-width: 0.8"/>
      </g>
     </g>
     <g id="text_10">
      <!-- p10 -->
      <g transform="translate(571.592231 691.885297) rotate(-290) scale(0.1 -0.1)">
       <use xlink:href="#DejaVuSans-70"/>
       <use xlink:href="#DejaVuSans-31" x="63.476562"/>
       <use xlink:href="#DejaVuSans-30" x="127.099609"/>
      </g>
     </g>
    </g>
    <g id="xtick_11">
     <g id="line2d_11">
      <g>
       <use xlink:href="#mbc6e59689a" x="628.559298" y="682.286478" style="stroke: #000000; stroke-width: 0.8"/>
      </g>
     </g>
     <g id="text_11">
      <!-- p11 -->
      <g transform="translate(622.704584 691.885297) rotate(-290) scale(0.1 -0.1)">
       <use xlink:href="#DejaVuSans-70"/>
       <use xlink:href="#DejaVuSans-31" x="63.476562"/>
       <use xlink:href="#DejaVuSans-31" x="127.099609"/>
      </g>
     </g>
    </g>
    <g id="xtick_12">
     <g id="line2d_12">
      <g>
       <use xlink:href="#mbc6e59689a" x="679.671651" y="682.286478" style="stroke: #000000; stroke-width: 0.8"/>
      </g>
     </g>
     <g id="text_12">
      <!-- p12 -->
      <g transform="translate(673.816937 691.885297) rotate(-290) scale(0.1 -0.1)">
       <use xlink:href="#DejaVuSans-70"/>
       <use xlink:href="#DejaVuSans-31" x="63.476562"/>
       <use xlink:href="#DejaVuSans-32" x="127.099609"/>
      </g>
     </g>
    </g>
    <g id="xtick_13">
     <g id="line2d_13">
      <g>
       <use xlink:href="#mbc6e59689a" x="730.784004" y="682.286478" style="stroke: #000000; stroke-width: 0.8"/>
      </g>
     </g>
     <g id="text_13">
      <!-- p13 -->
      <g transform="translate(724.929289 691.885297) rotate(-290) scale(0.1 -0.1)">
       <use xlink:href="#DejaVuSans-70"/>
       <use xlink:href="#DejaVuSans-31" x="63.476562"/>
       <use xlink:href="#DejaVuSans-33" x="127.099609"/>
      </g>
     </g>
    </g>
    <g id="xtick_14">
     <g id="line2d_14">
      <g>
       <use xlink:href="#mbc6e59689a" x="781.896356" y="682.286478" style="stroke: #000000; stroke-width: 0.8"/>
      </g>
     </g>
     <g id="text_14">
      <!-- p14 -->
      <g transform="translate(776.041642 691.885297) rotate(-290) scale(0.1 -0.1)">
       <use xlink:href="#DejaVuSans-70"/>
       <use xlink:href="#DejaVuSans-31" x="63.476562"/>
       <use xlink:href="#DejaVuSans-34" x="127.099609"/>
      </g>
     </g>
    </g>
    <g id="xtick_15">
     <g id="line2d_15">
      <g>
       <use xlink:href="#mbc6e59689a" x="833.008709" y="682.286478" style="stroke: #000000; stroke-width: 0.8"/>
      </g>
     </g>
     <g id="text_15">
      <!-- p15 -->
      <g transform="translate(827.153995 691.885297) rotate(-290) scale(0.1 -0.1)">
       <use xlink:href="#DejaVuSans-70"/>
       <use xlink:href="#DejaVuSans-31" x="63.476562"/>
       <use xlink:href="#DejaVuSans-35" x="127.099609"/>
      </g>
     </g>
    </g>
    <g id="xtick_16">
     <g id="line2d_16">
      <g>
       <use xlink:href="#mbc6e59689a" x="884.121062" y="682.286478" style="stroke: #000000; stroke-width: 0.8"/>
      </g>
     </g>
     <g id="text_16">
      <!-- p16 -->
      <g transform="translate(878.266348 691.885297) rotate(-290) scale(0.1 -0.1)">
       <use xlink:href="#DejaVuSans-70"/>
       <use xlink:href="#DejaVuSans-31" x="63.476562"/>
       <use xlink:href="#DejaVuSans-36" x="127.099609"/>
      </g>
     </g>
    </g>
    <g id="xtick_17">
     <g id="line2d_17">
      <g>
       <use xlink:href="#mbc6e59689a" x="935.233415" y="682.286478" style="stroke: #000000; stroke-width: 0.8"/>
      </g>
     </g>
     <g id="text_17">
      <!-- p17 -->
      <g transform="translate(929.3787 691.885297) rotate(-290) scale(0.1 -0.1)">
       <use xlink:href="#DejaVuSans-70"/>
       <use xlink:href="#DejaVuSans-31" x="63.476562"/>
       <use xlink:href="#DejaVuSans-37" x="127.099609"/>
      </g>
     </g>
    </g>
    <g id="xtick_18">
     <g id="line2d_18">
      <g>
       <use xlink:href="#mbc6e59689a" x="986.345767" y="682.286478" style="stroke: #000000; stroke-width: 0.8"/>
      </g>
     </g>
     <g id="text_18">
      <!-- p18 -->
      <g transform="translate(980.491053 691.885297) rotate(-290) scale(0.1 -0.1)">
       <use xlink:href="#DejaVuSans-70"/>
       <use xlink:href="#DejaVuSans-31" x="63.476562"/>
       <use xlink:href="#DejaVuSans-38" x="127.099609"/>
      </g>
     </g>
    </g>
    <g id="xtick_19">
     <g id="line2d_19">
      <g>
       <use xlink:href="#mbc6e59689a" x="1037.45812" y="682.286478" style="stroke: #000000; stroke-width: 0.8"/>
      </g>
     </g>
     <g id="text_19">
      <!-- p19 -->
      <g transform="translate(1031.603406 691.885297) rotate(-290) scale(0.1 -0.1)">
       <use xlink:href="#DejaVuSans-70"/>
       <use xlink:href="#DejaVuSans-31" x="63.476562"/>
       <use xlink:href="#DejaVuSans-39" x="127.099609"/>
      </g>
     </g>
    </g>
    <g id="xtick_20">
     <g id="line2d_20">
      <g>
       <use xlink:href="#mbc6e59689a" x="1088.570473" y="682.286478" style="stroke: #000000; stroke-width: 0.8"/>
      </g>
     </g>
     <g id="text_20">
      <!-- p20 -->
      <g transform="translate(1082.715759 691.885297) rotate(-290) scale(0.1 -0.1)">
       <use xlink:href="#DejaVuSans-70"/>
       <use xlink:href="#DejaVuSans-32" x="63.476562"/>
       <use xlink:href="#DejaVuSans-30" x="127.099609"/>
      </g>
     </g>
    </g>
    <g id="xtick_21">
     <g id="line2d_21">
      <g>
       <use xlink:href="#mbc6e59689a" x="1139.682826" y="682.286478" style="stroke: #000000; stroke-width: 0.8"/>
      </g>
     </g>
     <g id="text_21">
      <!-- p21 -->
      <g transform="translate(1133.828111 691.885297) rotate(-290) scale(0.1 -0.1)">
       <use xlink:href="#DejaVuSans-70"/>
       <use xlink:href="#DejaVuSans-32" x="63.476562"/>
       <use xlink:href="#DejaVuSans-31" x="127.099609"/>
      </g>
     </g>
    </g>
    <g id="xtick_22">
     <g id="line2d_22">
      <g>
       <use xlink:href="#mbc6e59689a" x="1190.795178" y="682.286478" style="stroke: #000000; stroke-width: 0.8"/>
      </g>
     </g>
     <g id="text_22">
      <!-- p22 -->
      <g transform="translate(1184.940464 691.885297) rotate(-290) scale(0.1 -0.1)">
       <use xlink:href="#DejaVuSans-70"/>
       <use xlink:href="#DejaVuSans-32" x="63.476562"/>
       <use xlink:href="#DejaVuSans-32" x="127.099609"/>
      </g>
     </g>
    </g>
    <g id="xtick_23">
     <g id="line2d_23">
      <g>
       <use xlink:href="#mbc6e59689a" x="1241.907531" y="682.286478" style="stroke: #000000; stroke-width: 0.8"/>
      </g>
     </g>
     <g id="text_23">
      <!-- p23 -->
      <g transform="translate(1236.052817 691.885297) rotate(-290) scale(0.1 -0.1)">
       <use xlink:href="#DejaVuSans-70"/>
       <use xlink:href="#DejaVuSans-32" x="63.476562"/>
       <use xlink:href="#DejaVuSans-33" x="127.099609"/>
      </g>
     </g>
    </g>
    <g id="xtick_24">
     <g id="line2d_24">
      <g>
       <use xlink:href="#mbc6e59689a" x="1293.019884" y="682.286478" style="stroke: #000000; stroke-width: 0.8"/>
      </g>
     </g>
     <g id="text_24">
      <!-- p24 -->
      <g transform="translate(1287.16517 691.885297) rotate(-290) scale(0.1 -0.1)">
       <use xlink:href="#DejaVuSans-70"/>
       <use xlink:href="#DejaVuSans-32" x="63.476562"/>
       <use xlink:href="#DejaVuSans-34" x="127.099609"/>
      </g>
     </g>
    </g>
   </g>
   <g id="matplotlib.axis_2">
    <g id="ytick_1">
     <g id="line2d_25">
      <defs>
       <path id="md5d62df4cb" d="M 0 0 
L -3.5 0 
" style="stroke: #000000; stroke-width: 0.8"/>
      </defs>
      <g>
       <use xlink:href="#md5d62df4cb" x="41.278365" y="588.491629" style="stroke: #000000; stroke-width: 0.8"/>
      </g>
     </g>
     <g id="text_25">
      <!-- $\mathdefault{10^{0}}$ -->
      <g transform="translate(16.678365 592.290847) scale(0.1 -0.1)">
       <use xlink:href="#DejaVuSans-31" transform="translate(0 0.765625)"/>
       <use xlink:href="#DejaVuSans-30" transform="translate(63.623047 0.765625)"/>
       <use xlink:href="#DejaVuSans-30" transform="translate(128.203125 39.046875) scale(0.7)"/>
      </g>
     </g>
    </g>
    <g id="ytick_2">
     <g id="line2d_26">
      <g>
       <use xlink:href="#md5d62df4cb" x="41.278365" y="438.554013" style="stroke: #000000; stroke-width: 0.8"/>
      </g>
     </g>
     <g id="text_26">
      <!-- $\mathdefault{10^{1}}$ -->
      <g transform="translate(16.678365 442.353232) scale(0.1 -0.1)">
       <use xlink:href="#DejaVuSans-31" transform="translate(0 0.684375)"/>
       <use xlink:href="#DejaVuSans-30" transform="translate(63.623047 0.684375)"/>
       <use xlink:href="#DejaVuSans-31" transform="translate(128.203125 38.965625) scale(0.7)"/>
      </g>
     </g>
    </g>
    <g id="ytick_3">
     <g id="line2d_27">
      <g>
       <use xlink:href="#md5d62df4cb" x="41.278365" y="288.616398" style="stroke: #000000; stroke-width: 0.8"/>
      </g>
     </g>
     <g id="text_27">
      <!-- $\mathdefault{10^{2}}$ -->
      <g transform="translate(16.678365 292.415617) scale(0.1 -0.1)">
       <use xlink:href="#DejaVuSans-31" transform="translate(0 0.765625)"/>
       <use xlink:href="#DejaVuSans-30" transform="translate(63.623047 0.765625)"/>
       <use xlink:href="#DejaVuSans-32" transform="translate(128.203125 39.046875) scale(0.7)"/>
      </g>
     </g>
    </g>
    <g id="ytick_4">
     <g id="line2d_28">
      <g>
       <use xlink:href="#md5d62df4cb" x="41.278365" y="138.678783" style="stroke: #000000; stroke-width: 0.8"/>
      </g>
     </g>
     <g id="text_28">
      <!-- $\mathdefault{10^{3}}$ -->
      <g transform="translate(16.678365 142.478002) scale(0.1 -0.1)">
       <use xlink:href="#DejaVuSans-31" transform="translate(0 0.765625)"/>
       <use xlink:href="#DejaVuSans-30" transform="translate(63.623047 0.765625)"/>
       <use xlink:href="#DejaVuSans-33" transform="translate(128.203125 39.046875) scale(0.7)"/>
      </g>
     </g>
    </g>
    <g id="ytick_5">
     <g id="line2d_29">
      <defs>
       <path id="mf053d3b536" d="M 0 0 
L -2 0 
" style="stroke: #000000; stroke-width: 0.6"/>
      </defs>
      <g>
       <use xlink:href="#mf053d3b536" x="41.278365" y="666.890821" style="stroke: #000000; stroke-width: 0.6"/>
      </g>
     </g>
    </g>
    <g id="ytick_6">
     <g id="line2d_30">
      <g>
       <use xlink:href="#mf053d3b536" x="41.278365" y="648.157805" style="stroke: #000000; stroke-width: 0.6"/>
      </g>
     </g>
    </g>
    <g id="ytick_7">
     <g id="line2d_31">
      <g>
       <use xlink:href="#mf053d3b536" x="41.278365" y="633.627348" style="stroke: #000000; stroke-width: 0.6"/>
      </g>
     </g>
    </g>
    <g id="ytick_8">
     <g id="line2d_32">
      <g>
       <use xlink:href="#mf053d3b536" x="41.278365" y="621.755101" style="stroke: #000000; stroke-width: 0.6"/>
      </g>
     </g>
    </g>
    <g id="ytick_9">
     <g id="line2d_33">
      <g>
       <use xlink:href="#mf053d3b536" x="41.278365" y="611.717259" style="stroke: #000000; stroke-width: 0.6"/>
      </g>
     </g>
    </g>
    <g id="ytick_10">
     <g id="line2d_34">
      <g>
       <use xlink:href="#mf053d3b536" x="41.278365" y="603.022085" style="stroke: #000000; stroke-width: 0.6"/>
      </g>
     </g>
    </g>
    <g id="ytick_11">
     <g id="line2d_35">
      <g>
       <use xlink:href="#mf053d3b536" x="41.278365" y="595.352398" style="stroke: #000000; stroke-width: 0.6"/>
      </g>
     </g>
    </g>
    <g id="ytick_12">
     <g id="line2d_36">
      <g>
       <use xlink:href="#mf053d3b536" x="41.278365" y="543.355909" style="stroke: #000000; stroke-width: 0.6"/>
      </g>
     </g>
    </g>
    <g id="ytick_13">
     <g id="line2d_37">
      <g>
       <use xlink:href="#mf053d3b536" x="41.278365" y="516.953206" style="stroke: #000000; stroke-width: 0.6"/>
      </g>
     </g>
    </g>
    <g id="ytick_14">
     <g id="line2d_38">
      <g>
       <use xlink:href="#mf053d3b536" x="41.278365" y="498.220189" style="stroke: #000000; stroke-width: 0.6"/>
      </g>
     </g>
    </g>
    <g id="ytick_15">
     <g id="line2d_39">
      <g>
       <use xlink:href="#mf053d3b536" x="41.278365" y="483.689733" style="stroke: #000000; stroke-width: 0.6"/>
      </g>
     </g>
    </g>
    <g id="ytick_16">
     <g id="line2d_40">
      <g>
       <use xlink:href="#mf053d3b536" x="41.278365" y="471.817486" style="stroke: #000000; stroke-width: 0.6"/>
      </g>
     </g>
    </g>
    <g id="ytick_17">
     <g id="line2d_41">
      <g>
       <use xlink:href="#mf053d3b536" x="41.278365" y="461.779644" style="stroke: #000000; stroke-width: 0.6"/>
      </g>
     </g>
    </g>
    <g id="ytick_18">
     <g id="line2d_42">
      <g>
       <use xlink:href="#mf053d3b536" x="41.278365" y="453.08447" style="stroke: #000000; stroke-width: 0.6"/>
      </g>
     </g>
    </g>
    <g id="ytick_19">
     <g id="line2d_43">
      <g>
       <use xlink:href="#mf053d3b536" x="41.278365" y="445.414782" style="stroke: #000000; stroke-width: 0.6"/>
      </g>
     </g>
    </g>
    <g id="ytick_20">
     <g id="line2d_44">
      <g>
       <use xlink:href="#mf053d3b536" x="41.278365" y="393.418294" style="stroke: #000000; stroke-width: 0.6"/>
      </g>
     </g>
    </g>
    <g id="ytick_21">
     <g id="line2d_45">
      <g>
       <use xlink:href="#mf053d3b536" x="41.278365" y="367.01559" style="stroke: #000000; stroke-width: 0.6"/>
      </g>
     </g>
    </g>
    <g id="ytick_22">
     <g id="line2d_46">
      <g>
       <use xlink:href="#mf053d3b536" x="41.278365" y="348.282574" style="stroke: #000000; stroke-width: 0.6"/>
      </g>
     </g>
    </g>
    <g id="ytick_23">
     <g id="line2d_47">
      <g>
       <use xlink:href="#mf053d3b536" x="41.278365" y="333.752118" style="stroke: #000000; stroke-width: 0.6"/>
      </g>
     </g>
    </g>
    <g id="ytick_24">
     <g id="line2d_48">
      <g>
       <use xlink:href="#mf053d3b536" x="41.278365" y="321.879871" style="stroke: #000000; stroke-width: 0.6"/>
      </g>
     </g>
    </g>
    <g id="ytick_25">
     <g id="line2d_49">
      <g>
       <use xlink:href="#mf053d3b536" x="41.278365" y="311.842029" style="stroke: #000000; stroke-width: 0.6"/>
      </g>
     </g>
    </g>
    <g id="ytick_26">
     <g id="line2d_50">
      <g>
       <use xlink:href="#mf053d3b536" x="41.278365" y="303.146854" style="stroke: #000000; stroke-width: 0.6"/>
      </g>
     </g>
    </g>
    <g id="ytick_27">
     <g id="line2d_51">
      <g>
       <use xlink:href="#mf053d3b536" x="41.278365" y="295.477167" style="stroke: #000000; stroke-width: 0.6"/>
      </g>
     </g>
    </g>
    <g id="ytick_28">
     <g id="line2d_52">
      <g>
       <use xlink:href="#mf053d3b536" x="41.278365" y="243.480678" style="stroke: #000000; stroke-width: 0.6"/>
      </g>
     </g>
    </g>
    <g id="ytick_29">
     <g id="line2d_53">
      <g>
       <use xlink:href="#mf053d3b536" x="41.278365" y="217.077975" style="stroke: #000000; stroke-width: 0.6"/>
      </g>
     </g>
    </g>
    <g id="ytick_30">
     <g id="line2d_54">
      <g>
       <use xlink:href="#mf053d3b536" x="41.278365" y="198.344959" style="stroke: #000000; stroke-width: 0.6"/>
      </g>
     </g>
    </g>
    <g id="ytick_31">
     <g id="line2d_55">
      <g>
       <use xlink:href="#mf053d3b536" x="41.278365" y="183.814502" style="stroke: #000000; stroke-width: 0.6"/>
      </g>
     </g>
    </g>
    <g id="ytick_32">
     <g id="line2d_56">
      <g>
       <use xlink:href="#mf053d3b536" x="41.278365" y="171.942255" style="stroke: #000000; stroke-width: 0.6"/>
      </g>
     </g>
    </g>
    <g id="ytick_33">
     <g id="line2d_57">
      <g>
       <use xlink:href="#mf053d3b536" x="41.278365" y="161.904413" style="stroke: #000000; stroke-width: 0.6"/>
      </g>
     </g>
    </g>
    <g id="ytick_34">
     <g id="line2d_58">
      <g>
       <use xlink:href="#mf053d3b536" x="41.278365" y="153.209239" style="stroke: #000000; stroke-width: 0.6"/>
      </g>
     </g>
    </g>
    <g id="ytick_35">
     <g id="line2d_59">
      <g>
       <use xlink:href="#mf053d3b536" x="41.278365" y="145.539552" style="stroke: #000000; stroke-width: 0.6"/>
      </g>
     </g>
    </g>
    <g id="ytick_36">
     <g id="line2d_60">
      <g>
       <use xlink:href="#mf053d3b536" x="41.278365" y="93.543063" style="stroke: #000000; stroke-width: 0.6"/>
      </g>
     </g>
    </g>
    <g id="ytick_37">
     <g id="line2d_61">
      <g>
       <use xlink:href="#mf053d3b536" x="41.278365" y="67.14036" style="stroke: #000000; stroke-width: 0.6"/>
      </g>
     </g>
    </g>
    <g id="ytick_38">
     <g id="line2d_62">
      <g>
       <use xlink:href="#mf053d3b536" x="41.278365" y="48.407343" style="stroke: #000000; stroke-width: 0.6"/>
      </g>
     </g>
    </g>
    <g id="ytick_39">
     <g id="line2d_63">
      <g>
       <use xlink:href="#mf053d3b536" x="41.278365" y="33.876887" style="stroke: #000000; stroke-width: 0.6"/>
      </g>
     </g>
    </g>
    <g id="ytick_40">
     <g id="line2d_64">
      <g>
       <use xlink:href="#mf053d3b536" x="41.278365" y="22.00464" style="stroke: #000000; stroke-width: 0.6"/>
      </g>
     </g>
    </g>
    <g id="ytick_41">
     <g id="line2d_65">
      <g>
       <use xlink:href="#mf053d3b536" x="41.278365" y="11.966798" style="stroke: #000000; stroke-width: 0.6"/>
      </g>
     </g>
    </g>
    <g id="ytick_42">
     <g id="line2d_66">
      <g>
       <use xlink:href="#mf053d3b536" x="41.278365" y="3.271624" style="stroke: #000000; stroke-width: 0.6"/>
      </g>
     </g>
    </g>
    <g id="text_29">
     <!-- Time (s) -->
     <g transform="translate(10.598678 362.972265) rotate(-90) scale(0.1 -0.1)">
      <defs>
       <path id="DejaVuSans-54" d="M -19 4666 
L 3928 4666 
L 3928 4134 
L 2272 4134 
L 2272 0 
L 1638 0 
L 1638 4134 
L -19 4134 
L -19 4666 
z
" transform="scale(0.015625)"/>
       <path id="DejaVuSans-69" d="M 603 3500 
L 1178 3500 
L 1178 0 
L 603 0 
L 603 3500 
z
M 603 4863 
L 1178 4863 
L 1178 4134 
L 603 4134 
L 603 4863 
z
" transform="scale(0.015625)"/>
       <path id="DejaVuSans-6d" d="M 3328 2828 
Q 3544 3216 3844 3400 
Q 4144 3584 4550 3584 
Q 5097 3584 5394 3201 
Q 5691 2819 5691 2113 
L 5691 0 
L 5113 0 
L 5113 2094 
Q 5113 2597 4934 2840 
Q 4756 3084 4391 3084 
Q 3944 3084 3684 2787 
Q 3425 2491 3425 1978 
L 3425 0 
L 2847 0 
L 2847 2094 
Q 2847 2600 2669 2842 
Q 2491 3084 2119 3084 
Q 1678 3084 1418 2786 
Q 1159 2488 1159 1978 
L 1159 0 
L 581 0 
L 581 3500 
L 1159 3500 
L 1159 2956 
Q 1356 3278 1631 3431 
Q 1906 3584 2284 3584 
Q 2666 3584 2933 3390 
Q 3200 3197 3328 2828 
z
" transform="scale(0.015625)"/>
       <path id="DejaVuSans-65" d="M 3597 1894 
L 3597 1613 
L 953 1613 
Q 991 1019 1311 708 
Q 1631 397 2203 397 
Q 2534 397 2845 478 
Q 3156 559 3463 722 
L 3463 178 
Q 3153 47 2828 -22 
Q 2503 -91 2169 -91 
Q 1331 -91 842 396 
Q 353 884 353 1716 
Q 353 2575 817 3079 
Q 1281 3584 2069 3584 
Q 2775 3584 3186 3129 
Q 3597 2675 3597 1894 
z
M 3022 2063 
Q 3016 2534 2758 2815 
Q 2500 3097 2075 3097 
Q 1594 3097 1305 2825 
Q 1016 2553 972 2059 
L 3022 2063 
z
" transform="scale(0.015625)"/>
       <path id="DejaVuSans-20" transform="scale(0.015625)"/>
       <path id="DejaVuSans-28" d="M 1984 4856 
Q 1566 4138 1362 3434 
Q 1159 2731 1159 2009 
Q 1159 1288 1364 580 
Q 1569 -128 1984 -844 
L 1484 -844 
Q 1016 -109 783 600 
Q 550 1309 550 2009 
Q 550 2706 781 3412 
Q 1013 4119 1484 4856 
L 1984 4856 
z
" transform="scale(0.015625)"/>
       <path id="DejaVuSans-73" d="M 2834 3397 
L 2834 2853 
Q 2591 2978 2328 3040 
Q 2066 3103 1784 3103 
Q 1356 3103 1142 2972 
Q 928 2841 928 2578 
Q 928 2378 1081 2264 
Q 1234 2150 1697 2047 
L 1894 2003 
Q 2506 1872 2764 1633 
Q 3022 1394 3022 966 
Q 3022 478 2636 193 
Q 2250 -91 1575 -91 
Q 1294 -91 989 -36 
Q 684 19 347 128 
L 347 722 
Q 666 556 975 473 
Q 1284 391 1588 391 
Q 1994 391 2212 530 
Q 2431 669 2431 922 
Q 2431 1156 2273 1281 
Q 2116 1406 1581 1522 
L 1381 1569 
Q 847 1681 609 1914 
Q 372 2147 372 2553 
Q 372 3047 722 3315 
Q 1072 3584 1716 3584 
Q 2034 3584 2315 3537 
Q 2597 3491 2834 3397 
z
" transform="scale(0.015625)"/>
       <path id="DejaVuSans-29" d="M 513 4856 
L 1013 4856 
Q 1481 4119 1714 3412 
Q 1947 2706 1947 2009 
Q 1947 1309 1714 600 
Q 1481 -109 1013 -844 
L 513 -844 
Q 928 -128 1133 580 
Q 1338 1288 1338 2009 
Q 1338 2731 1133 3434 
Q 928 4138 513 4856 
z
" transform="scale(0.015625)"/>
      </defs>
      <use xlink:href="#DejaVuSans-54"/>
      <use xlink:href="#DejaVuSans-69" x="57.958984"/>
      <use xlink:href="#DejaVuSans-6d" x="85.742188"/>
      <use xlink:href="#DejaVuSans-65" x="183.154297"/>
      <use xlink:href="#DejaVuSans-20" x="244.677734"/>
      <use xlink:href="#DejaVuSans-28" x="276.464844"/>
      <use xlink:href="#DejaVuSans-73" x="315.478516"/>
      <use xlink:href="#DejaVuSans-29" x="367.578125"/>
     </g>
    </g>
   </g>
   <g id="patch_99">
    <path d="M 41.278365 682.286478 
L 41.278365 3.00024 
" style="fill: none; stroke: #000000; stroke-width: 0.8; stroke-linejoin: miter; stroke-linecap: square"/>
   </g>
   <g id="patch_100">
    <path d="M 1379.39976 682.286478 
L 1379.39976 3.00024 
" style="fill: none; stroke: #000000; stroke-width: 0.8; stroke-linejoin: miter; stroke-linecap: square"/>
   </g>
   <g id="patch_101">
    <path d="M 41.278365 682.286478 
L 1379.39976 682.286478 
" style="fill: none; stroke: #000000; stroke-width: 0.8; stroke-linejoin: miter; stroke-linecap: square"/>
   </g>
   <g id="patch_102">
    <path d="M 41.278365 3.00024 
L 1379.39976 3.00024 
" style="fill: none; stroke: #000000; stroke-width: 0.8; stroke-linejoin: miter; stroke-linecap: square"/>
   </g>
   <g id="legend_1">
    <g id="patch_103">
     <path d="M 48.278365 40.91274 
L 498.815865 40.91274 
Q 500.815865 40.91274 500.815865 38.91274 
L 500.815865 10.00024 
Q 500.815865 8.00024 498.815865 8.00024 
L 48.278365 8.00024 
Q 46.278365 8.00024 46.278365 10.00024 
L 46.278365 38.91274 
Q 46.278365 40.91274 48.278365 40.91274 
z
" style="fill: #ffffff; opacity: 0.8; stroke: #cccccc; stroke-linejoin: miter"/>
    </g>
    <g id="patch_104">
     <path d="M 50.278365 19.598678 
L 70.278365 19.598678 
L 70.278365 12.598678 
L 50.278365 12.598678 
z
" style="fill: #1f77b4"/>
    </g>
    <g id="text_30">
     <!-- solve_external_yices -->
     <g transform="translate(78.278365 19.598678) scale(0.1 -0.1)">
      <defs>
       <path id="DejaVuSans-6f" d="M 1959 3097 
Q 1497 3097 1228 2736 
Q 959 2375 959 1747 
Q 959 1119 1226 758 
Q 1494 397 1959 397 
Q 2419 397 2687 759 
Q 2956 1122 2956 1747 
Q 2956 2369 2687 2733 
Q 2419 3097 1959 3097 
z
M 1959 3584 
Q 2709 3584 3137 3096 
Q 3566 2609 3566 1747 
Q 3566 888 3137 398 
Q 2709 -91 1959 -91 
Q 1206 -91 779 398 
Q 353 888 353 1747 
Q 353 2609 779 3096 
Q 1206 3584 1959 3584 
z
" transform="scale(0.015625)"/>
       <path id="DejaVuSans-6c" d="M 603 4863 
L 1178 4863 
L 1178 0 
L 603 0 
L 603 4863 
z
" transform="scale(0.015625)"/>
       <path id="DejaVuSans-76" d="M 191 3500 
L 800 3500 
L 1894 563 
L 2988 3500 
L 3597 3500 
L 2284 0 
L 1503 0 
L 191 3500 
z
" transform="scale(0.015625)"/>
       <path id="DejaVuSans-5f" d="M 3263 -1063 
L 3263 -1509 
L -63 -1509 
L -63 -1063 
L 3263 -1063 
z
" transform="scale(0.015625)"/>
       <path id="DejaVuSans-78" d="M 3513 3500 
L 2247 1797 
L 3578 0 
L 2900 0 
L 1881 1375 
L 863 0 
L 184 0 
L 1544 1831 
L 300 3500 
L 978 3500 
L 1906 2253 
L 2834 3500 
L 3513 3500 
z
" transform="scale(0.015625)"/>
       <path id="DejaVuSans-74" d="M 1172 4494 
L 1172 3500 
L 2356 3500 
L 2356 3053 
L 1172 3053 
L 1172 1153 
Q 1172 725 1289 603 
Q 1406 481 1766 481 
L 2356 481 
L 2356 0 
L 1766 0 
Q 1100 0 847 248 
Q 594 497 594 1153 
L 594 3053 
L 172 3053 
L 172 3500 
L 594 3500 
L 594 4494 
L 1172 4494 
z
" transform="scale(0.015625)"/>
       <path id="DejaVuSans-72" d="M 2631 2963 
Q 2534 3019 2420 3045 
Q 2306 3072 2169 3072 
Q 1681 3072 1420 2755 
Q 1159 2438 1159 1844 
L 1159 0 
L 581 0 
L 581 3500 
L 1159 3500 
L 1159 2956 
Q 1341 3275 1631 3429 
Q 1922 3584 2338 3584 
Q 2397 3584 2469 3576 
Q 2541 3569 2628 3553 
L 2631 2963 
z
" transform="scale(0.015625)"/>
       <path id="DejaVuSans-6e" d="M 3513 2113 
L 3513 0 
L 2938 0 
L 2938 2094 
Q 2938 2591 2744 2837 
Q 2550 3084 2163 3084 
Q 1697 3084 1428 2787 
Q 1159 2491 1159 1978 
L 1159 0 
L 581 0 
L 581 3500 
L 1159 3500 
L 1159 2956 
Q 1366 3272 1645 3428 
Q 1925 3584 2291 3584 
Q 2894 3584 3203 3211 
Q 3513 2838 3513 2113 
z
" transform="scale(0.015625)"/>
       <path id="DejaVuSans-61" d="M 2194 1759 
Q 1497 1759 1228 1600 
Q 959 1441 959 1056 
Q 959 750 1161 570 
Q 1363 391 1709 391 
Q 2188 391 2477 730 
Q 2766 1069 2766 1631 
L 2766 1759 
L 2194 1759 
z
M 3341 1997 
L 3341 0 
L 2766 0 
L 2766 531 
Q 2569 213 2275 61 
Q 1981 -91 1556 -91 
Q 1019 -91 701 211 
Q 384 513 384 1019 
Q 384 1609 779 1909 
Q 1175 2209 1959 2209 
L 2766 2209 
L 2766 2266 
Q 2766 2663 2505 2880 
Q 2244 3097 1772 3097 
Q 1472 3097 1187 3025 
Q 903 2953 641 2809 
L 641 3341 
Q 956 3463 1253 3523 
Q 1550 3584 1831 3584 
Q 2591 3584 2966 3190 
Q 3341 2797 3341 1997 
z
" transform="scale(0.015625)"/>
       <path id="DejaVuSans-79" d="M 2059 -325 
Q 1816 -950 1584 -1140 
Q 1353 -1331 966 -1331 
L 506 -1331 
L 506 -850 
L 844 -850 
Q 1081 -850 1212 -737 
Q 1344 -625 1503 -206 
L 1606 56 
L 191 3500 
L 800 3500 
L 1894 763 
L 2988 3500 
L 3597 3500 
L 2059 -325 
z
" transform="scale(0.015625)"/>
       <path id="DejaVuSans-63" d="M 3122 3366 
L 3122 2828 
Q 2878 2963 2633 3030 
Q 2388 3097 2138 3097 
Q 1578 3097 1268 2742 
Q 959 2388 959 1747 
Q 959 1106 1268 751 
Q 1578 397 2138 397 
Q 2388 397 2633 464 
Q 2878 531 3122 666 
L 3122 134 
Q 2881 22 2623 -34 
Q 2366 -91 2075 -91 
Q 1284 -91 818 406 
Q 353 903 353 1747 
Q 353 2603 823 3093 
Q 1294 3584 2113 3584 
Q 2378 3584 2631 3529 
Q 2884 3475 3122 3366 
z
" transform="scale(0.015625)"/>
      </defs>
      <use xlink:href="#DejaVuSans-73"/>
      <use xlink:href="#DejaVuSans-6f" x="52.099609"/>
      <use xlink:href="#DejaVuSans-6c" x="113.28125"/>
      <use xlink:href="#DejaVuSans-76" x="141.064453"/>
      <use xlink:href="#DejaVuSans-65" x="200.244141"/>
      <use xlink:href="#DejaVuSans-5f" x="261.767578"/>
      <use xlink:href="#DejaVuSans-65" x="311.767578"/>
      <use xlink:href="#DejaVuSans-78" x="371.541016"/>
      <use xlink:href="#DejaVuSans-74" x="430.720703"/>
      <use xlink:href="#DejaVuSans-65" x="469.929688"/>
      <use xlink:href="#DejaVuSans-72" x="531.453125"/>
      <use xlink:href="#DejaVuSans-6e" x="570.816406"/>
      <use xlink:href="#DejaVuSans-61" x="634.195312"/>
      <use xlink:href="#DejaVuSans-6c" x="695.474609"/>
      <use xlink:href="#DejaVuSans-5f" x="723.257812"/>
      <use xlink:href="#DejaVuSans-79" x="773.257812"/>
      <use xlink:href="#DejaVuSans-69" x="832.4375"/>
      <use xlink:href="#DejaVuSans-63" x="860.220703"/>
      <use xlink:href="#DejaVuSans-65" x="915.201172"/>
      <use xlink:href="#DejaVuSans-73" x="976.724609"/>
     </g>
    </g>
    <g id="patch_105">
     <path d="M 50.278365 34.554928 
L 70.278365 34.554928 
L 70.278365 27.554928 
L 50.278365 27.554928 
z
" style="fill: #ff7f0e"/>
    </g>
    <g id="text_31">
     <!-- solve_z3 -->
     <g transform="translate(78.278365 34.554928) scale(0.1 -0.1)">
      <defs>
       <path id="DejaVuSans-7a" d="M 353 3500 
L 3084 3500 
L 3084 2975 
L 922 459 
L 3084 459 
L 3084 0 
L 275 0 
L 275 525 
L 2438 3041 
L 353 3041 
L 353 3500 
z
" transform="scale(0.015625)"/>
      </defs>
      <use xlink:href="#DejaVuSans-73"/>
      <use xlink:href="#DejaVuSans-6f" x="52.099609"/>
      <use xlink:href="#DejaVuSans-6c" x="113.28125"/>
      <use xlink:href="#DejaVuSans-76" x="141.064453"/>
      <use xlink:href="#DejaVuSans-65" x="200.244141"/>
      <use xlink:href="#DejaVuSans-5f" x="261.767578"/>
      <use xlink:href="#DejaVuSans-7a" x="311.767578"/>
      <use xlink:href="#DejaVuSans-33" x="364.257812"/>
     </g>
    </g>
    <g id="patch_106">
     <path d="M 201.164303 19.598678 
L 221.164303 19.598678 
L 221.164303 12.598678 
L 201.164303 12.598678 
z
" style="fill: #2ca02c"/>
    </g>
    <g id="text_32">
     <!-- solve_external_bitwuzla -->
     <g transform="translate(229.164303 19.598678) scale(0.1 -0.1)">
      <defs>
       <path id="DejaVuSans-62" d="M 3116 1747 
Q 3116 2381 2855 2742 
Q 2594 3103 2138 3103 
Q 1681 3103 1420 2742 
Q 1159 2381 1159 1747 
Q 1159 1113 1420 752 
Q 1681 391 2138 391 
Q 2594 391 2855 752 
Q 3116 1113 3116 1747 
z
M 1159 2969 
Q 1341 3281 1617 3432 
Q 1894 3584 2278 3584 
Q 2916 3584 3314 3078 
Q 3713 2572 3713 1747 
Q 3713 922 3314 415 
Q 2916 -91 2278 -91 
Q 1894 -91 1617 61 
Q 1341 213 1159 525 
L 1159 0 
L 581 0 
L 581 4863 
L 1159 4863 
L 1159 2969 
z
" transform="scale(0.015625)"/>
       <path id="DejaVuSans-77" d="M 269 3500 
L 844 3500 
L 1563 769 
L 2278 3500 
L 2956 3500 
L 3675 769 
L 4391 3500 
L 4966 3500 
L 4050 0 
L 3372 0 
L 2619 2869 
L 1863 0 
L 1184 0 
L 269 3500 
z
" transform="scale(0.015625)"/>
       <path id="DejaVuSans-75" d="M 544 1381 
L 544 3500 
L 1119 3500 
L 1119 1403 
Q 1119 906 1312 657 
Q 1506 409 1894 409 
Q 2359 409 2629 706 
Q 2900 1003 2900 1516 
L 2900 3500 
L 3475 3500 
L 3475 0 
L 2900 0 
L 2900 538 
Q 2691 219 2414 64 
Q 2138 -91 1772 -91 
Q 1169 -91 856 284 
Q 544 659 544 1381 
z
M 1991 3584 
L 1991 3584 
z
" transform="scale(0.015625)"/>
      </defs>
      <use xlink:href="#DejaVuSans-73"/>
      <use xlink:href="#DejaVuSans-6f" x="52.099609"/>
      <use xlink:href="#DejaVuSans-6c" x="113.28125"/>
      <use xlink:href="#DejaVuSans-76" x="141.064453"/>
      <use xlink:href="#DejaVuSans-65" x="200.244141"/>
      <use xlink:href="#DejaVuSans-5f" x="261.767578"/>
      <use xlink:href="#DejaVuSans-65" x="311.767578"/>
      <use xlink:href="#DejaVuSans-78" x="371.541016"/>
      <use xlink:href="#DejaVuSans-74" x="430.720703"/>
      <use xlink:href="#DejaVuSans-65" x="469.929688"/>
      <use xlink:href="#DejaVuSans-72" x="531.453125"/>
      <use xlink:href="#DejaVuSans-6e" x="570.816406"/>
      <use xlink:href="#DejaVuSans-61" x="634.195312"/>
      <use xlink:href="#DejaVuSans-6c" x="695.474609"/>
      <use xlink:href="#DejaVuSans-5f" x="723.257812"/>
      <use xlink:href="#DejaVuSans-62" x="773.257812"/>
      <use xlink:href="#DejaVuSans-69" x="836.734375"/>
      <use xlink:href="#DejaVuSans-74" x="864.517578"/>
      <use xlink:href="#DejaVuSans-77" x="903.726562"/>
      <use xlink:href="#DejaVuSans-75" x="985.513672"/>
      <use xlink:href="#DejaVuSans-7a" x="1048.892578"/>
      <use xlink:href="#DejaVuSans-6c" x="1101.382812"/>
      <use xlink:href="#DejaVuSans-61" x="1129.166016"/>
     </g>
    </g>
    <g id="patch_107">
     <path d="M 368.209615 19.598678 
L 388.209615 19.598678 
L 388.209615 12.598678 
L 368.209615 12.598678 
z
" style="fill: #d62728"/>
    </g>
    <g id="text_33">
     <!-- solve_external_cvc5 -->
     <g transform="translate(396.209615 19.598678) scale(0.1 -0.1)">
      <use xlink:href="#DejaVuSans-73"/>
      <use xlink:href="#DejaVuSans-6f" x="52.099609"/>
      <use xlink:href="#DejaVuSans-6c" x="113.28125"/>
      <use xlink:href="#DejaVuSans-76" x="141.064453"/>
      <use xlink:href="#DejaVuSans-65" x="200.244141"/>
      <use xlink:href="#DejaVuSans-5f" x="261.767578"/>
      <use xlink:href="#DejaVuSans-65" x="311.767578"/>
      <use xlink:href="#DejaVuSans-78" x="371.541016"/>
      <use xlink:href="#DejaVuSans-74" x="430.720703"/>
      <use xlink:href="#DejaVuSans-65" x="469.929688"/>
      <use xlink:href="#DejaVuSans-72" x="531.453125"/>
      <use xlink:href="#DejaVuSans-6e" x="570.816406"/>
      <use xlink:href="#DejaVuSans-61" x="634.195312"/>
      <use xlink:href="#DejaVuSans-6c" x="695.474609"/>
      <use xlink:href="#DejaVuSans-5f" x="723.257812"/>
      <use xlink:href="#DejaVuSans-63" x="773.257812"/>
      <use xlink:href="#DejaVuSans-76" x="828.238281"/>
      <use xlink:href="#DejaVuSans-63" x="887.417969"/>
      <use xlink:href="#DejaVuSans-35" x="942.398438"/>
     </g>
    </g>
   </g>
  </g>
 </g>
 <defs>
  <clipPath id="p98692c5c0b">
   <rect x="41.278365" y="3.00024" width="1338.121395" height="679.286238"/>
  </clipPath>
 </defs>
</svg>
