<?xml version="1.0" encoding="utf-8" standalone="no"?>
<!DOCTYPE svg PUBLIC "-//W3C//DTD SVG 1.1//EN"
  "http://www.w3.org/Graphics/SVG/1.1/DTD/svg11.dtd">
<svg xmlns:xlink="http://www.w3.org/1999/xlink" width="1296pt" height="716.4pt" viewBox="0 0 1296 716.4" xmlns="http://www.w3.org/2000/svg" version="1.1">
 <metadata>
  <rdf:RDF xmlns:dc="http://purl.org/dc/elements/1.1/" xmlns:cc="http://creativecommons.org/ns#" xmlns:rdf="http://www.w3.org/1999/02/22-rdf-syntax-ns#">
   <cc:Work>
    <dc:type rdf:resource="http://purl.org/dc/dcmitype/StillImage"/>
    <dc:date>2024-11-20T15:57:10.329688</dc:date>
    <dc:format>image/svg+xml</dc:format>
    <dc:creator>
     <cc:Agent>
      <dc:title>Matplotlib v3.9.2, https://matplotlib.org/</dc:title>
     </cc:Agent>
    </dc:creator>
   </cc:Work>
  </rdf:RDF>
 </metadata>
 <defs>
  <style type="text/css">*{stroke-linejoin: round; stroke-linecap: butt}</style>
 </defs>
 <g id="figure_1">
  <g id="patch_1">
   <path d="M 0 716.4 
L 1296 716.4 
L 1296 0 
L 0 0 
z
" style="fill: #ffffff"/>
  </g>
  <g id="axes_1">
   <g id="patch_2">
    <path d="M 41.278365 685.166478 
L 1292.99976 685.166478 
L 1292.99976 3.00024 
L 41.278365 3.00024 
z
" style="fill: #ffffff"/>
   </g>
   <g id="patch_3">
    <path d="M 98.174792 161229.512392 
L 106.132334 161229.512392 
L 106.132334 649.928371 
L 98.174792 649.928371 
z
" clip-path="url(#p68e67e6034)" style="fill: #1f77b4"/>
   </g>
   <g id="patch_4">
    <path d="M 145.920046 161229.512392 
L 153.877588 161229.512392 
L 153.877588 637.136757 
L 145.920046 637.136757 
z
" clip-path="url(#p68e67e6034)" style="fill: #1f77b4"/>
   </g>
   <g id="patch_5">
    <path d="M 193.665299 161229.512392 
L 201.622841 161229.512392 
L 201.622841 641.299738 
L 193.665299 641.299738 
z
" clip-path="url(#p68e67e6034)" style="fill: #1f77b4"/>
   </g>
   <g id="patch_6">
    <path d="M 241.410552 161229.512392 
L 249.368095 161229.512392 
L 249.368095 649.835291 
L 241.410552 649.835291 
z
" clip-path="url(#p68e67e6034)" style="fill: #1f77b4"/>
   </g>
   <g id="patch_7">
    <path d="M 289.155806 161229.512392 
L 297.113348 161229.512392 
L 297.113348 647.990683 
L 289.155806 647.990683 
z
" clip-path="url(#p68e67e6034)" style="fill: #1f77b4"/>
   </g>
   <g id="patch_8">
    <path d="M 336.901059 161229.512392 
L 344.858602 161229.512392 
L 344.858602 650.591309 
L 336.901059 650.591309 
z
" clip-path="url(#p68e67e6034)" style="fill: #1f77b4"/>
   </g>
   <g id="patch_9">
    <path d="M 384.646313 161229.512392 
L 392.603855 161229.512392 
L 392.603855 628.893973 
L 384.646313 628.893973 
z
" clip-path="url(#p68e67e6034)" style="fill: #1f77b4"/>
   </g>
   <g id="patch_10">
    <path d="M 432.391566 161229.512392 
L 440.349109 161229.512392 
L 440.349109 626.211041 
L 432.391566 626.211041 
z
" clip-path="url(#p68e67e6034)" style="fill: #1f77b4"/>
   </g>
   <g id="patch_11">
    <path d="M 480.13682 161229.512392 
L 488.094362 161229.512392 
L 488.094362 630.842893 
L 480.13682 630.842893 
z
" clip-path="url(#p68e67e6034)" style="fill: #1f77b4"/>
   </g>
   <g id="patch_12">
    <path d="M 527.882073 161229.512392 
L 535.839615 161229.512392 
L 535.839615 626.105336 
L 527.882073 626.105336 
z
" clip-path="url(#p68e67e6034)" style="fill: #1f77b4"/>
   </g>
   <g id="patch_13">
    <path d="M 575.627327 161229.512392 
L 583.584869 161229.512392 
L 583.584869 625.561384 
L 575.627327 625.561384 
z
" clip-path="url(#p68e67e6034)" style="fill: #1f77b4"/>
   </g>
   <g id="patch_14">
    <path d="M 623.37258 161229.512392 
L 631.330122 161229.512392 
L 631.330122 631.550957 
L 623.37258 631.550957 
z
" clip-path="url(#p68e67e6034)" style="fill: #1f77b4"/>
   </g>
   <g id="patch_15">
    <path d="M 671.117834 161229.512392 
L 679.075376 161229.512392 
L 679.075376 569.185558 
L 671.117834 569.185558 
z
" clip-path="url(#p68e67e6034)" style="fill: #1f77b4"/>
   </g>
   <g id="patch_16">
    <path d="M 718.863087 161229.512392 
L 726.820629 161229.512392 
L 726.820629 591.914258 
L 718.863087 591.914258 
z
" clip-path="url(#p68e67e6034)" style="fill: #1f77b4"/>
   </g>
   <g id="patch_17">
    <path d="M 766.608341 161229.512392 
L 774.565883 161229.512392 
L 774.565883 600.339524 
L 766.608341 600.339524 
z
" clip-path="url(#p68e67e6034)" style="fill: #1f77b4"/>
   </g>
   <g id="patch_18">
    <path d="M 814.353594 161229.512392 
L 822.311136 161229.512392 
L 822.311136 594.861583 
L 814.353594 594.861583 
z
" clip-path="url(#p68e67e6034)" style="fill: #1f77b4"/>
   </g>
   <g id="patch_19">
    <path d="M 862.098847 161229.512392 
L 870.05639 161229.512392 
L 870.05639 595.180053 
L 862.098847 595.180053 
z
" clip-path="url(#p68e67e6034)" style="fill: #1f77b4"/>
   </g>
   <g id="patch_20">
    <path d="M 909.844101 161229.512392 
L 917.801643 161229.512392 
L 917.801643 636.143323 
L 909.844101 636.143323 
z
" clip-path="url(#p68e67e6034)" style="fill: #1f77b4"/>
   </g>
   <g id="patch_21">
    <path d="M 957.589354 161229.512392 
L 965.546897 161229.512392 
L 965.546897 446.882329 
L 957.589354 446.882329 
z
" clip-path="url(#p68e67e6034)" style="fill: #1f77b4"/>
   </g>
   <g id="patch_22">
    <path d="M 1005.334608 161229.512392 
L 1013.29215 161229.512392 
L 1013.29215 178.967251 
L 1005.334608 178.967251 
z
" clip-path="url(#p68e67e6034)" style="fill: #1f77b4"/>
   </g>
   <g id="patch_23">
    <path d="M 1053.079861 161229.512392 
L 1061.037404 161229.512392 
L 1061.037404 296.082203 
L 1053.079861 296.082203 
z
" clip-path="url(#p68e67e6034)" style="fill: #1f77b4"/>
   </g>
   <g id="patch_24">
    <path d="M 1100.825115 161229.512392 
L 1108.782657 161229.512392 
L 1108.782657 34.007796 
L 1100.825115 34.007796 
z
" clip-path="url(#p68e67e6034)" style="fill: #1f77b4"/>
   </g>
   <g id="patch_25">
    <path d="M 1148.570368 161229.512392 
L 1156.527911 161229.512392 
L 1156.527911 34.007796 
L 1148.570368 34.007796 
z
" clip-path="url(#p68e67e6034)" style="fill: #1f77b4"/>
   </g>
   <g id="patch_26">
    <path d="M 1196.315622 161229.512392 
L 1204.273164 161229.512392 
L 1204.273164 239.479508 
L 1196.315622 239.479508 
z
" clip-path="url(#p68e67e6034)" style="fill: #1f77b4"/>
   </g>
   <g id="patch_27">
    <path d="M 106.132334 161229.512392 
L 114.089877 161229.512392 
L 114.089877 652.375962 
L 106.132334 652.375962 
z
" clip-path="url(#p68e67e6034)" style="fill: #ff7f0e"/>
   </g>
   <g id="patch_28">
    <path d="M 153.877588 161229.512392 
L 161.83513 161229.512392 
L 161.83513 646.821431 
L 153.877588 646.821431 
z
" clip-path="url(#p68e67e6034)" style="fill: #ff7f0e"/>
   </g>
   <g id="patch_29">
    <path d="M 201.622841 161229.512392 
L 209.580383 161229.512392 
L 209.580383 651.063595 
L 201.622841 651.063595 
z
" clip-path="url(#p68e67e6034)" style="fill: #ff7f0e"/>
   </g>
   <g id="patch_30">
    <path d="M 249.368095 161229.512392 
L 257.325637 161229.512392 
L 257.325637 651.775251 
L 249.368095 651.775251 
z
" clip-path="url(#p68e67e6034)" style="fill: #ff7f0e"/>
   </g>
   <g id="patch_31">
    <path d="M 297.113348 161229.512392 
L 305.07089 161229.512392 
L 305.07089 652.818446 
L 297.113348 652.818446 
z
" clip-path="url(#p68e67e6034)" style="fill: #ff7f0e"/>
   </g>
   <g id="patch_32">
    <path d="M 344.858602 161229.512392 
L 352.816144 161229.512392 
L 352.816144 654.158922 
L 344.858602 654.158922 
z
" clip-path="url(#p68e67e6034)" style="fill: #ff7f0e"/>
   </g>
   <g id="patch_33">
    <path d="M 392.603855 161229.512392 
L 400.561397 161229.512392 
L 400.561397 637.67099 
L 392.603855 637.67099 
z
" clip-path="url(#p68e67e6034)" style="fill: #ff7f0e"/>
   </g>
   <g id="patch_34">
    <path d="M 440.349109 161229.512392 
L 448.306651 161229.512392 
L 448.306651 636.476661 
L 440.349109 636.476661 
z
" clip-path="url(#p68e67e6034)" style="fill: #ff7f0e"/>
   </g>
   <g id="patch_35">
    <path d="M 488.094362 161229.512392 
L 496.051904 161229.512392 
L 496.051904 626.73275 
L 488.094362 626.73275 
z
" clip-path="url(#p68e67e6034)" style="fill: #ff7f0e"/>
   </g>
   <g id="patch_36">
    <path d="M 535.839615 161229.512392 
L 543.797158 161229.512392 
L 543.797158 631.697665 
L 535.839615 631.697665 
z
" clip-path="url(#p68e67e6034)" style="fill: #ff7f0e"/>
   </g>
   <g id="patch_37">
    <path d="M 583.584869 161229.512392 
L 591.542411 161229.512392 
L 591.542411 632.492012 
L 583.584869 632.492012 
z
" clip-path="url(#p68e67e6034)" style="fill: #ff7f0e"/>
   </g>
   <g id="patch_38">
    <path d="M 631.330122 161229.512392 
L 639.287665 161229.512392 
L 639.287665 633.957592 
L 631.330122 633.957592 
z
" clip-path="url(#p68e67e6034)" style="fill: #ff7f0e"/>
   </g>
   <g id="patch_39">
    <path d="M 679.075376 161229.512392 
L 687.032918 161229.512392 
L 687.032918 586.594688 
L 679.075376 586.594688 
z
" clip-path="url(#p68e67e6034)" style="fill: #ff7f0e"/>
   </g>
   <g id="patch_40">
    <path d="M 726.820629 161229.512392 
L 734.778172 161229.512392 
L 734.778172 560.570628 
L 726.820629 560.570628 
z
" clip-path="url(#p68e67e6034)" style="fill: #ff7f0e"/>
   </g>
   <g id="patch_41">
    <path d="M 774.565883 161229.512392 
L 782.523425 161229.512392 
L 782.523425 568.366994 
L 774.565883 568.366994 
z
" clip-path="url(#p68e67e6034)" style="fill: #ff7f0e"/>
   </g>
   <g id="patch_42">
    <path d="M 822.311136 161229.512392 
L 830.268679 161229.512392 
L 830.268679 594.880212 
L 822.311136 594.880212 
z
" clip-path="url(#p68e67e6034)" style="fill: #ff7f0e"/>
   </g>
   <g id="patch_43">
    <path d="M 870.05639 161229.512392 
L 878.013932 161229.512392 
L 878.013932 553.195809 
L 870.05639 553.195809 
z
" clip-path="url(#p68e67e6034)" style="fill: #ff7f0e"/>
   </g>
   <g id="patch_44">
    <path d="M 917.801643 161229.512392 
L 925.759185 161229.512392 
L 925.759185 643.186953 
L 917.801643 643.186953 
z
" clip-path="url(#p68e67e6034)" style="fill: #ff7f0e"/>
   </g>
   <g id="patch_45">
    <path d="M 965.546897 161229.512392 
L 973.504439 161229.512392 
L 973.504439 369.990566 
L 965.546897 369.990566 
z
" clip-path="url(#p68e67e6034)" style="fill: #ff7f0e"/>
   </g>
   <g id="patch_46">
    <path d="M 1013.29215 161229.512392 
L 1021.249692 161229.512392 
L 1021.249692 34.007796 
L 1013.29215 34.007796 
z
" clip-path="url(#p68e67e6034)" style="fill: #ff7f0e"/>
   </g>
   <g id="patch_47">
    <path d="M 1061.037404 161229.512392 
L 1068.994946 161229.512392 
L 1068.994946 233.602053 
L 1061.037404 233.602053 
z
" clip-path="url(#p68e67e6034)" style="fill: #ff7f0e"/>
   </g>
   <g id="patch_48">
    <path d="M 1108.782657 161229.512392 
L 1116.740199 161229.512392 
L 1116.740199 127.010558 
L 1108.782657 127.010558 
z
" clip-path="url(#p68e67e6034)" style="fill: #ff7f0e"/>
   </g>
   <g id="patch_49">
    <path d="M 1156.527911 161229.512392 
L 1164.485453 161229.512392 
L 1164.485453 34.007796 
L 1156.527911 34.007796 
z
" clip-path="url(#p68e67e6034)" style="fill: #ff7f0e"/>
   </g>
   <g id="patch_50">
    <path d="M 1204.273164 161229.512392 
L 1212.230706 161229.512392 
L 1212.230706 324.313998 
L 1204.273164 324.313998 
z
" clip-path="url(#p68e67e6034)" style="fill: #ff7f0e"/>
   </g>
   <g id="patch_51">
    <path d="M 114.089877 161229.512392 
L 122.047419 161229.512392 
L 122.047419 647.191524 
L 114.089877 647.191524 
z
" clip-path="url(#p68e67e6034)" style="fill: #2ca02c"/>
   </g>
   <g id="patch_52">
    <path d="M 161.83513 161229.512392 
L 169.792672 161229.512392 
L 169.792672 634.568108 
L 161.83513 634.568108 
z
" clip-path="url(#p68e67e6034)" style="fill: #2ca02c"/>
   </g>
   <g id="patch_53">
    <path d="M 209.580383 161229.512392 
L 217.537926 161229.512392 
L 217.537926 644.660275 
L 209.580383 644.660275 
z
" clip-path="url(#p68e67e6034)" style="fill: #2ca02c"/>
   </g>
   <g id="patch_54">
    <path d="M 257.325637 161229.512392 
L 265.283179 161229.512392 
L 265.283179 646.86288 
L 257.325637 646.86288 
z
" clip-path="url(#p68e67e6034)" style="fill: #2ca02c"/>
   </g>
   <g id="patch_55">
    <path d="M 305.07089 161229.512392 
L 313.028433 161229.512392 
L 313.028433 645.112189 
L 305.07089 645.112189 
z
" clip-path="url(#p68e67e6034)" style="fill: #2ca02c"/>
   </g>
   <g id="patch_56">
    <path d="M 352.816144 161229.512392 
L 360.773686 161229.512392 
L 360.773686 648.538919 
L 352.816144 648.538919 
z
" clip-path="url(#p68e67e6034)" style="fill: #2ca02c"/>
   </g>
   <g id="patch_57">
    <path d="M 400.561397 161229.512392 
L 408.51894 161229.512392 
L 408.51894 628.995959 
L 400.561397 628.995959 
z
" clip-path="url(#p68e67e6034)" style="fill: #2ca02c"/>
   </g>
   <g id="patch_58">
    <path d="M 448.306651 161229.512392 
L 456.264193 161229.512392 
L 456.264193 631.072157 
L 448.306651 631.072157 
z
" clip-path="url(#p68e67e6034)" style="fill: #2ca02c"/>
   </g>
   <g id="patch_59">
    <path d="M 496.051904 161229.512392 
L 504.009446 161229.512392 
L 504.009446 631.626437 
L 496.051904 631.626437 
z
" clip-path="url(#p68e67e6034)" style="fill: #2ca02c"/>
   </g>
   <g id="patch_60">
    <path d="M 543.797158 161229.512392 
L 551.7547 161229.512392 
L 551.7547 621.467736 
L 543.797158 621.467736 
z
" clip-path="url(#p68e67e6034)" style="fill: #2ca02c"/>
   </g>
   <g id="patch_61">
    <path d="M 591.542411 161229.512392 
L 599.499953 161229.512392 
L 599.499953 628.481527 
L 591.542411 628.481527 
z
" clip-path="url(#p68e67e6034)" style="fill: #2ca02c"/>
   </g>
   <g id="patch_62">
    <path d="M 639.287665 161229.512392 
L 647.245207 161229.512392 
L 647.245207 629.024015 
L 639.287665 629.024015 
z
" clip-path="url(#p68e67e6034)" style="fill: #2ca02c"/>
   </g>
   <g id="patch_63">
    <path d="M 687.032918 161229.512392 
L 694.99046 161229.512392 
L 694.99046 591.569534 
L 687.032918 591.569534 
z
" clip-path="url(#p68e67e6034)" style="fill: #2ca02c"/>
   </g>
   <g id="patch_64">
    <path d="M 734.778172 161229.512392 
L 742.735714 161229.512392 
L 742.735714 597.305949 
L 734.778172 597.305949 
z
" clip-path="url(#p68e67e6034)" style="fill: #2ca02c"/>
   </g>
   <g id="patch_65">
    <path d="M 782.523425 161229.512392 
L 790.480967 161229.512392 
L 790.480967 579.220135 
L 782.523425 579.220135 
z
" clip-path="url(#p68e67e6034)" style="fill: #2ca02c"/>
   </g>
   <g id="patch_66">
    <path d="M 830.268679 161229.512392 
L 838.226221 161229.512392 
L 838.226221 590.539254 
L 830.268679 590.539254 
z
" clip-path="url(#p68e67e6034)" style="fill: #2ca02c"/>
   </g>
   <g id="patch_67">
    <path d="M 878.013932 161229.512392 
L 885.971474 161229.512392 
L 885.971474 578.801811 
L 878.013932 578.801811 
z
" clip-path="url(#p68e67e6034)" style="fill: #2ca02c"/>
   </g>
   <g id="patch_68">
    <path d="M 925.759185 161229.512392 
L 933.716728 161229.512392 
L 933.716728 636.856527 
L 925.759185 636.856527 
z
" clip-path="url(#p68e67e6034)" style="fill: #2ca02c"/>
   </g>
   <g id="patch_69">
    <path d="M 973.504439 161229.512392 
L 981.461981 161229.512392 
L 981.461981 510.977266 
L 973.504439 510.977266 
z
" clip-path="url(#p68e67e6034)" style="fill: #2ca02c"/>
   </g>
   <g id="patch_70">
    <path d="M 1021.249692 161229.512392 
L 1029.207235 161229.512392 
L 1029.207235 34.007796 
L 1021.249692 34.007796 
z
" clip-path="url(#p68e67e6034)" style="fill: #2ca02c"/>
   </g>
   <g id="patch_71">
    <path d="M 1068.994946 161229.512392 
L 1076.952488 161229.512392 
L 1076.952488 364.494823 
L 1068.994946 364.494823 
z
" clip-path="url(#p68e67e6034)" style="fill: #2ca02c"/>
   </g>
   <g id="patch_72">
    <path d="M 1116.740199 161229.512392 
L 1124.697742 161229.512392 
L 1124.697742 220.151457 
L 1116.740199 220.151457 
z
" clip-path="url(#p68e67e6034)" style="fill: #2ca02c"/>
   </g>
   <g id="patch_73">
    <path d="M 1164.485453 161229.512392 
L 1172.442995 161229.512392 
L 1172.442995 34.007796 
L 1164.485453 34.007796 
z
" clip-path="url(#p68e67e6034)" style="fill: #2ca02c"/>
   </g>
   <g id="patch_74">
    <path d="M 1212.230706 161229.512392 
L 1220.188248 161229.512392 
L 1220.188248 432.022342 
L 1212.230706 432.022342 
z
" clip-path="url(#p68e67e6034)" style="fill: #2ca02c"/>
   </g>
   <g id="patch_75">
    <path d="M 122.047419 161229.512392 
L 130.004961 161229.512392 
L 130.004961 642.716351 
L 122.047419 642.716351 
z
" clip-path="url(#p68e67e6034)" style="fill: #d62728"/>
   </g>
   <g id="patch_76">
    <path d="M 169.792672 161229.512392 
L 177.750214 161229.512392 
L 177.750214 623.965271 
L 169.792672 623.965271 
z
" clip-path="url(#p68e67e6034)" style="fill: #d62728"/>
   </g>
   <g id="patch_77">
    <path d="M 217.537926 161229.512392 
L 225.495468 161229.512392 
L 225.495468 638.627319 
L 217.537926 638.627319 
z
" clip-path="url(#p68e67e6034)" style="fill: #d62728"/>
   </g>
   <g id="patch_78">
    <path d="M 265.283179 161229.512392 
L 273.240721 161229.512392 
L 273.240721 647.26209 
L 265.283179 647.26209 
z
" clip-path="url(#p68e67e6034)" style="fill: #d62728"/>
   </g>
   <g id="patch_79">
    <path d="M 313.028433 161229.512392 
L 320.985975 161229.512392 
L 320.985975 646.787603 
L 313.028433 646.787603 
z
" clip-path="url(#p68e67e6034)" style="fill: #d62728"/>
   </g>
   <g id="patch_80">
    <path d="M 360.773686 161229.512392 
L 368.731228 161229.512392 
L 368.731228 644.513224 
L 360.773686 644.513224 
z
" clip-path="url(#p68e67e6034)" style="fill: #d62728"/>
   </g>
   <g id="patch_81">
    <path d="M 408.51894 161229.512392 
L 416.476482 161229.512392 
L 416.476482 623.081464 
L 408.51894 623.081464 
z
" clip-path="url(#p68e67e6034)" style="fill: #d62728"/>
   </g>
   <g id="patch_82">
    <path d="M 456.264193 161229.512392 
L 464.221735 161229.512392 
L 464.221735 622.12505 
L 456.264193 622.12505 
z
" clip-path="url(#p68e67e6034)" style="fill: #d62728"/>
   </g>
   <g id="patch_83">
    <path d="M 504.009446 161229.512392 
L 511.966989 161229.512392 
L 511.966989 617.664506 
L 504.009446 617.664506 
z
" clip-path="url(#p68e67e6034)" style="fill: #d62728"/>
   </g>
   <g id="patch_84">
    <path d="M 551.7547 161229.512392 
L 559.712242 161229.512392 
L 559.712242 618.377719 
L 551.7547 618.377719 
z
" clip-path="url(#p68e67e6034)" style="fill: #d62728"/>
   </g>
   <g id="patch_85">
    <path d="M 599.499953 161229.512392 
L 607.457496 161229.512392 
L 607.457496 609.772334 
L 599.499953 609.772334 
z
" clip-path="url(#p68e67e6034)" style="fill: #d62728"/>
   </g>
   <g id="patch_86">
    <path d="M 647.245207 161229.512392 
L 655.202749 161229.512392 
L 655.202749 622.127718 
L 647.245207 622.127718 
z
" clip-path="url(#p68e67e6034)" style="fill: #d62728"/>
   </g>
   <g id="patch_87">
    <path d="M 694.99046 161229.512392 
L 702.948003 161229.512392 
L 702.948003 469.687522 
L 694.99046 469.687522 
z
" clip-path="url(#p68e67e6034)" style="fill: #d62728"/>
   </g>
   <g id="patch_88">
    <path d="M 742.735714 161229.512392 
L 750.693256 161229.512392 
L 750.693256 497.852539 
L 742.735714 497.852539 
z
" clip-path="url(#p68e67e6034)" style="fill: #d62728"/>
   </g>
   <g id="patch_89">
    <path d="M 790.480967 161229.512392 
L 798.43851 161229.512392 
L 798.43851 462.883621 
L 790.480967 462.883621 
z
" clip-path="url(#p68e67e6034)" style="fill: #d62728"/>
   </g>
   <g id="patch_90">
    <path d="M 838.226221 161229.512392 
L 846.183763 161229.512392 
L 846.183763 562.17374 
L 838.226221 562.17374 
z
" clip-path="url(#p68e67e6034)" style="fill: #d62728"/>
   </g>
   <g id="patch_91">
    <path d="M 885.971474 161229.512392 
L 893.929016 161229.512392 
L 893.929016 511.100592 
L 885.971474 511.100592 
z
" clip-path="url(#p68e67e6034)" style="fill: #d62728"/>
   </g>
   <g id="patch_92">
    <path d="M 933.716728 161229.512392 
L 941.67427 161229.512392 
L 941.67427 630.404499 
L 933.716728 630.404499 
z
" clip-path="url(#p68e67e6034)" style="fill: #d62728"/>
   </g>
   <g id="patch_93">
    <path d="M 981.461981 161229.512392 
L 989.419523 161229.512392 
L 989.419523 34.007796 
L 981.461981 34.007796 
z
" clip-path="url(#p68e67e6034)" style="fill: #d62728"/>
   </g>
   <g id="patch_94">
    <path d="M 1029.207235 161229.512392 
L 1037.164777 161229.512392 
L 1037.164777 34.007796 
L 1029.207235 34.007796 
z
" clip-path="url(#p68e67e6034)" style="fill: #d62728"/>
   </g>
   <g id="patch_95">
    <path d="M 1076.952488 161229.512392 
L 1084.91003 161229.512392 
L 1084.91003 34.007796 
L 1076.952488 34.007796 
z
" clip-path="url(#p68e67e6034)" style="fill: #d62728"/>
   </g>
   <g id="patch_96">
    <path d="M 1124.697742 161229.512392 
L 1132.655284 161229.512392 
L 1132.655284 34.007796 
L 1124.697742 34.007796 
z
" clip-path="url(#p68e67e6034)" style="fill: #d62728"/>
   </g>
   <g id="patch_97">
    <path d="M 1172.442995 161229.512392 
L 1180.400537 161229.512392 
L 1180.400537 34.007796 
L 1172.442995 34.007796 
z
" clip-path="url(#p68e67e6034)" style="fill: #d62728"/>
   </g>
   <g id="patch_98">
    <path d="M 1220.188248 161229.512392 
L 1228.145791 161229.512392 
L 1228.145791 34.007796 
L 1220.188248 34.007796 
z
" clip-path="url(#p68e67e6034)" style="fill: #d62728"/>
   </g>
   <g id="patch_99">
    <path d="M 130.004961 161229.512392 
L 137.962503 161229.512392 
L 137.962503 645.012929 
L 130.004961 645.012929 
z
" clip-path="url(#p68e67e6034)" style="fill: #9467bd"/>
   </g>
   <g id="patch_100">
    <path d="M 177.750214 161229.512392 
L 185.707757 161229.512392 
L 185.707757 628.722335 
L 177.750214 628.722335 
z
" clip-path="url(#p68e67e6034)" style="fill: #9467bd"/>
   </g>
   <g id="patch_101">
    <path d="M 225.495468 161229.512392 
L 233.45301 161229.512392 
L 233.45301 636.681399 
L 225.495468 636.681399 
z
" clip-path="url(#p68e67e6034)" style="fill: #9467bd"/>
   </g>
   <g id="patch_102">
    <path d="M 273.240721 161229.512392 
L 281.198264 161229.512392 
L 281.198264 644.847061 
L 273.240721 644.847061 
z
" clip-path="url(#p68e67e6034)" style="fill: #9467bd"/>
   </g>
   <g id="patch_103">
    <path d="M 320.985975 161229.512392 
L 328.943517 161229.512392 
L 328.943517 643.053496 
L 320.985975 643.053496 
z
" clip-path="url(#p68e67e6034)" style="fill: #9467bd"/>
   </g>
   <g id="patch_104">
    <path d="M 368.731228 161229.512392 
L 376.688771 161229.512392 
L 376.688771 646.690504 
L 368.731228 646.690504 
z
" clip-path="url(#p68e67e6034)" style="fill: #9467bd"/>
   </g>
   <g id="patch_105">
    <path d="M 416.476482 161229.512392 
L 424.434024 161229.512392 
L 424.434024 616.999076 
L 416.476482 616.999076 
z
" clip-path="url(#p68e67e6034)" style="fill: #9467bd"/>
   </g>
   <g id="patch_106">
    <path d="M 464.221735 161229.512392 
L 472.179278 161229.512392 
L 472.179278 622.364334 
L 464.221735 622.364334 
z
" clip-path="url(#p68e67e6034)" style="fill: #9467bd"/>
   </g>
   <g id="patch_107">
    <path d="M 511.966989 161229.512392 
L 519.924531 161229.512392 
L 519.924531 619.031371 
L 511.966989 619.031371 
z
" clip-path="url(#p68e67e6034)" style="fill: #9467bd"/>
   </g>
   <g id="patch_108">
    <path d="M 559.712242 161229.512392 
L 567.669784 161229.512392 
L 567.669784 613.79325 
L 559.712242 613.79325 
z
" clip-path="url(#p68e67e6034)" style="fill: #9467bd"/>
   </g>
   <g id="patch_109">
    <path d="M 607.457496 161229.512392 
L 615.415038 161229.512392 
L 615.415038 621.793507 
L 607.457496 621.793507 
z
" clip-path="url(#p68e67e6034)" style="fill: #9467bd"/>
   </g>
   <g id="patch_110">
    <path d="M 655.202749 161229.512392 
L 663.160291 161229.512392 
L 663.160291 623.284176 
L 655.202749 623.284176 
z
" clip-path="url(#p68e67e6034)" style="fill: #9467bd"/>
   </g>
   <g id="patch_111">
    <path d="M 702.948003 161229.512392 
L 710.905545 161229.512392 
L 710.905545 560.417244 
L 702.948003 560.417244 
z
" clip-path="url(#p68e67e6034)" style="fill: #9467bd"/>
   </g>
   <g id="patch_112">
    <path d="M 750.693256 161229.512392 
L 758.650798 161229.512392 
L 758.650798 602.459572 
L 750.693256 602.459572 
z
" clip-path="url(#p68e67e6034)" style="fill: #9467bd"/>
   </g>
   <g id="patch_113">
    <path d="M 798.43851 161229.512392 
L 806.396052 161229.512392 
L 806.396052 581.798496 
L 798.43851 581.798496 
z
" clip-path="url(#p68e67e6034)" style="fill: #9467bd"/>
   </g>
   <g id="patch_114">
    <path d="M 846.183763 161229.512392 
L 854.141305 161229.512392 
L 854.141305 586.140837 
L 846.183763 586.140837 
z
" clip-path="url(#p68e67e6034)" style="fill: #9467bd"/>
   </g>
   <g id="patch_115">
    <path d="M 893.929016 161229.512392 
L 901.886559 161229.512392 
L 901.886559 561.051947 
L 893.929016 561.051947 
z
" clip-path="url(#p68e67e6034)" style="fill: #9467bd"/>
   </g>
   <g id="patch_116">
    <path d="M 941.67427 161229.512392 
L 949.631812 161229.512392 
L 949.631812 633.394737 
L 941.67427 633.394737 
z
" clip-path="url(#p68e67e6034)" style="fill: #9467bd"/>
   </g>
   <g id="patch_117">
    <path d="M 989.419523 161229.512392 
L 997.377066 161229.512392 
L 997.377066 528.090658 
L 989.419523 528.090658 
z
" clip-path="url(#p68e67e6034)" style="fill: #9467bd"/>
   </g>
   <g id="patch_118">
    <path d="M 1037.164777 161229.512392 
L 1045.122319 161229.512392 
L 1045.122319 291.827624 
L 1037.164777 291.827624 
z
" clip-path="url(#p68e67e6034)" style="fill: #9467bd"/>
   </g>
   <g id="patch_119">
    <path d="M 1084.91003 161229.512392 
L 1092.867573 161229.512392 
L 1092.867573 392.823593 
L 1084.91003 392.823593 
z
" clip-path="url(#p68e67e6034)" style="fill: #9467bd"/>
   </g>
   <g id="patch_120">
    <path d="M 1132.655284 161229.512392 
L 1140.612826 161229.512392 
L 1140.612826 34.007796 
L 1132.655284 34.007796 
z
" clip-path="url(#p68e67e6034)" style="fill: #9467bd"/>
   </g>
   <g id="patch_121">
    <path d="M 1180.400537 161229.512392 
L 1188.358079 161229.512392 
L 1188.358079 34.007796 
L 1180.400537 34.007796 
z
" clip-path="url(#p68e67e6034)" style="fill: #9467bd"/>
   </g>
   <g id="patch_122">
    <path d="M 1228.145791 161229.512392 
L 1236.103333 161229.512392 
L 1236.103333 34.007796 
L 1228.145791 34.007796 
z
" clip-path="url(#p68e67e6034)" style="fill: #9467bd"/>
   </g>
   <g id="matplotlib.axis_1">
    <g id="xtick_1">
     <g id="line2d_1">
      <defs>
       <path id="mb20bd030ec" d="M 0 0 
L 0 3.5 
" style="stroke: #000000; stroke-width: 0.8"/>
      </defs>
      <g>
       <use xlink:href="#mb20bd030ec" x="110.111105" y="685.166478" style="stroke: #000000; stroke-width: 0.8"/>
      </g>
     </g>
     <g id="text_1">
      <!-- p01 -->
      <g transform="translate(104.256391 694.765297) rotate(-290) scale(0.1 -0.1)">
       <defs>
        <path id="DejaVuSans-70" d="M 1159 525 
L 1159 -1331 
L 581 -1331 
L 581 3500 
L 1159 3500 
L 1159 2969 
Q 1341 3281 1617 3432 
Q 1894 3584 2278 3584 
Q 2916 3584 3314 3078 
Q 3713 2572 3713 1747 
Q 3713 922 3314 415 
Q 2916 -91 2278 -91 
Q 1894 -91 1617 61 
Q 1341 213 1159 525 
z
M 3116 1747 
Q 3116 2381 2855 2742 
Q 2594 3103 2138 3103 
Q 1681 3103 1420 2742 
Q 1159 2381 1159 1747 
Q 1159 1113 1420 752 
Q 1681 391 2138 391 
Q 2594 391 2855 752 
Q 3116 1113 3116 1747 
z
" transform="scale(0.015625)"/>
        <path id="DejaVuSans-30" d="M 2034 4250 
Q 1547 4250 1301 3770 
Q 1056 3291 1056 2328 
Q 1056 1369 1301 889 
Q 1547 409 2034 409 
Q 2525 409 2770 889 
Q 3016 1369 3016 2328 
Q 3016 3291 2770 3770 
Q 2525 4250 2034 4250 
z
M 2034 4750 
Q 2819 4750 3233 4129 
Q 3647 3509 3647 2328 
Q 3647 1150 3233 529 
Q 2819 -91 2034 -91 
Q 1250 -91 836 529 
Q 422 1150 422 2328 
Q 422 3509 836 4129 
Q 1250 4750 2034 4750 
z
" transform="scale(0.015625)"/>
        <path id="DejaVuSans-31" d="M 794 531 
L 1825 531 
L 1825 4091 
L 703 3866 
L 703 4441 
L 1819 4666 
L 2450 4666 
L 2450 531 
L 3481 531 
L 3481 0 
L 794 0 
L 794 531 
z
" transform="scale(0.015625)"/>
       </defs>
       <use xlink:href="#DejaVuSans-70"/>
       <use xlink:href="#DejaVuSans-30" x="63.476562"/>
       <use xlink:href="#DejaVuSans-31" x="127.099609"/>
      </g>
     </g>
    </g>
    <g id="xtick_2">
     <g id="line2d_2">
      <g>
       <use xlink:href="#mb20bd030ec" x="157.856359" y="685.166478" style="stroke: #000000; stroke-width: 0.8"/>
      </g>
     </g>
     <g id="text_2">
      <!-- p02 -->
      <g transform="translate(152.001645 694.765297) rotate(-290) scale(0.1 -0.1)">
       <defs>
        <path id="DejaVuSans-32" d="M 1228 531 
L 3431 531 
L 3431 0 
L 469 0 
L 469 531 
Q 828 903 1448 1529 
Q 2069 2156 2228 2338 
Q 2531 2678 2651 2914 
Q 2772 3150 2772 3378 
Q 2772 3750 2511 3984 
Q 2250 4219 1831 4219 
Q 1534 4219 1204 4116 
Q 875 4013 500 3803 
L 500 4441 
Q 881 4594 1212 4672 
Q 1544 4750 1819 4750 
Q 2544 4750 2975 4387 
Q 3406 4025 3406 3419 
Q 3406 3131 3298 2873 
Q 3191 2616 2906 2266 
Q 2828 2175 2409 1742 
Q 1991 1309 1228 531 
z
" transform="scale(0.015625)"/>
       </defs>
       <use xlink:href="#DejaVuSans-70"/>
       <use xlink:href="#DejaVuSans-30" x="63.476562"/>
       <use xlink:href="#DejaVuSans-32" x="127.099609"/>
      </g>
     </g>
    </g>
    <g id="xtick_3">
     <g id="line2d_3">
      <g>
       <use xlink:href="#mb20bd030ec" x="205.601612" y="685.166478" style="stroke: #000000; stroke-width: 0.8"/>
      </g>
     </g>
     <g id="text_3">
      <!-- p03 -->
      <g transform="translate(199.746898 694.765297) rotate(-290) scale(0.1 -0.1)">
       <defs>
        <path id="DejaVuSans-33" d="M 2597 2516 
Q 3050 2419 3304 2112 
Q 3559 1806 3559 1356 
Q 3559 666 3084 287 
Q 2609 -91 1734 -91 
Q 1441 -91 1130 -33 
Q 819 25 488 141 
L 488 750 
Q 750 597 1062 519 
Q 1375 441 1716 441 
Q 2309 441 2620 675 
Q 2931 909 2931 1356 
Q 2931 1769 2642 2001 
Q 2353 2234 1838 2234 
L 1294 2234 
L 1294 2753 
L 1863 2753 
Q 2328 2753 2575 2939 
Q 2822 3125 2822 3475 
Q 2822 3834 2567 4026 
Q 2313 4219 1838 4219 
Q 1578 4219 1281 4162 
Q 984 4106 628 3988 
L 628 4550 
Q 988 4650 1302 4700 
Q 1616 4750 1894 4750 
Q 2613 4750 3031 4423 
Q 3450 4097 3450 3541 
Q 3450 3153 3228 2886 
Q 3006 2619 2597 2516 
z
" transform="scale(0.015625)"/>
       </defs>
       <use xlink:href="#DejaVuSans-70"/>
       <use xlink:href="#DejaVuSans-30" x="63.476562"/>
       <use xlink:href="#DejaVuSans-33" x="127.099609"/>
      </g>
     </g>
    </g>
    <g id="xtick_4">
     <g id="line2d_4">
      <g>
       <use xlink:href="#mb20bd030ec" x="253.346866" y="685.166478" style="stroke: #000000; stroke-width: 0.8"/>
      </g>
     </g>
     <g id="text_4">
      <!-- p04 -->
      <g transform="translate(247.492152 694.765297) rotate(-290) scale(0.1 -0.1)">
       <defs>
        <path id="DejaVuSans-34" d="M 2419 4116 
L 825 1625 
L 2419 1625 
L 2419 4116 
z
M 2253 4666 
L 3047 4666 
L 3047 1625 
L 3713 1625 
L 3713 1100 
L 3047 1100 
L 3047 0 
L 2419 0 
L 2419 1100 
L 313 1100 
L 313 1709 
L 2253 4666 
z
" transform="scale(0.015625)"/>
       </defs>
       <use xlink:href="#DejaVuSans-70"/>
       <use xlink:href="#DejaVuSans-30" x="63.476562"/>
       <use xlink:href="#DejaVuSans-34" x="127.099609"/>
      </g>
     </g>
    </g>
    <g id="xtick_5">
     <g id="line2d_5">
      <g>
       <use xlink:href="#mb20bd030ec" x="301.092119" y="685.166478" style="stroke: #000000; stroke-width: 0.8"/>
      </g>
     </g>
     <g id="text_5">
      <!-- p05 -->
      <g transform="translate(295.237405 694.765297) rotate(-290) scale(0.1 -0.1)">
       <defs>
        <path id="DejaVuSans-35" d="M 691 4666 
L 3169 4666 
L 3169 4134 
L 1269 4134 
L 1269 2991 
Q 1406 3038 1543 3061 
Q 1681 3084 1819 3084 
Q 2600 3084 3056 2656 
Q 3513 2228 3513 1497 
Q 3513 744 3044 326 
Q 2575 -91 1722 -91 
Q 1428 -91 1123 -41 
Q 819 9 494 109 
L 494 744 
Q 775 591 1075 516 
Q 1375 441 1709 441 
Q 2250 441 2565 725 
Q 2881 1009 2881 1497 
Q 2881 1984 2565 2268 
Q 2250 2553 1709 2553 
Q 1456 2553 1204 2497 
Q 953 2441 691 2322 
L 691 4666 
z
" transform="scale(0.015625)"/>
       </defs>
       <use xlink:href="#DejaVuSans-70"/>
       <use xlink:href="#DejaVuSans-30" x="63.476562"/>
       <use xlink:href="#DejaVuSans-35" x="127.099609"/>
      </g>
     </g>
    </g>
    <g id="xtick_6">
     <g id="line2d_6">
      <g>
       <use xlink:href="#mb20bd030ec" x="348.837373" y="685.166478" style="stroke: #000000; stroke-width: 0.8"/>
      </g>
     </g>
     <g id="text_6">
      <!-- p06 -->
      <g transform="translate(342.982658 694.765297) rotate(-290) scale(0.1 -0.1)">
       <defs>
        <path id="DejaVuSans-36" d="M 2113 2584 
Q 1688 2584 1439 2293 
Q 1191 2003 1191 1497 
Q 1191 994 1439 701 
Q 1688 409 2113 409 
Q 2538 409 2786 701 
Q 3034 994 3034 1497 
Q 3034 2003 2786 2293 
Q 2538 2584 2113 2584 
z
M 3366 4563 
L 3366 3988 
Q 3128 4100 2886 4159 
Q 2644 4219 2406 4219 
Q 1781 4219 1451 3797 
Q 1122 3375 1075 2522 
Q 1259 2794 1537 2939 
Q 1816 3084 2150 3084 
Q 2853 3084 3261 2657 
Q 3669 2231 3669 1497 
Q 3669 778 3244 343 
Q 2819 -91 2113 -91 
Q 1303 -91 875 529 
Q 447 1150 447 2328 
Q 447 3434 972 4092 
Q 1497 4750 2381 4750 
Q 2619 4750 2861 4703 
Q 3103 4656 3366 4563 
z
" transform="scale(0.015625)"/>
       </defs>
       <use xlink:href="#DejaVuSans-70"/>
       <use xlink:href="#DejaVuSans-30" x="63.476562"/>
       <use xlink:href="#DejaVuSans-36" x="127.099609"/>
      </g>
     </g>
    </g>
    <g id="xtick_7">
     <g id="line2d_7">
      <g>
       <use xlink:href="#mb20bd030ec" x="396.582626" y="685.166478" style="stroke: #000000; stroke-width: 0.8"/>
      </g>
     </g>
     <g id="text_7">
      <!-- p07 -->
      <g transform="translate(390.727912 694.765297) rotate(-290) scale(0.1 -0.1)">
       <defs>
        <path id="DejaVuSans-37" d="M 525 4666 
L 3525 4666 
L 3525 4397 
L 1831 0 
L 1172 0 
L 2766 4134 
L 525 4134 
L 525 4666 
z
" transform="scale(0.015625)"/>
       </defs>
       <use xlink:href="#DejaVuSans-70"/>
       <use xlink:href="#DejaVuSans-30" x="63.476562"/>
       <use xlink:href="#DejaVuSans-37" x="127.099609"/>
      </g>
     </g>
    </g>
    <g id="xtick_8">
     <g id="line2d_8">
      <g>
       <use xlink:href="#mb20bd030ec" x="444.32788" y="685.166478" style="stroke: #000000; stroke-width: 0.8"/>
      </g>
     </g>
     <g id="text_8">
      <!-- p08 -->
      <g transform="translate(438.473165 694.765297) rotate(-290) scale(0.1 -0.1)">
       <defs>
        <path id="DejaVuSans-38" d="M 2034 2216 
Q 1584 2216 1326 1975 
Q 1069 1734 1069 1313 
Q 1069 891 1326 650 
Q 1584 409 2034 409 
Q 2484 409 2743 651 
Q 3003 894 3003 1313 
Q 3003 1734 2745 1975 
Q 2488 2216 2034 2216 
z
M 1403 2484 
Q 997 2584 770 2862 
Q 544 3141 544 3541 
Q 544 4100 942 4425 
Q 1341 4750 2034 4750 
Q 2731 4750 3128 4425 
Q 3525 4100 3525 3541 
Q 3525 3141 3298 2862 
Q 3072 2584 2669 2484 
Q 3125 2378 3379 2068 
Q 3634 1759 3634 1313 
Q 3634 634 3220 271 
Q 2806 -91 2034 -91 
Q 1263 -91 848 271 
Q 434 634 434 1313 
Q 434 1759 690 2068 
Q 947 2378 1403 2484 
z
M 1172 3481 
Q 1172 3119 1398 2916 
Q 1625 2713 2034 2713 
Q 2441 2713 2670 2916 
Q 2900 3119 2900 3481 
Q 2900 3844 2670 4047 
Q 2441 4250 2034 4250 
Q 1625 4250 1398 4047 
Q 1172 3844 1172 3481 
z
" transform="scale(0.015625)"/>
       </defs>
       <use xlink:href="#DejaVuSans-70"/>
       <use xlink:href="#DejaVuSans-30" x="63.476562"/>
       <use xlink:href="#DejaVuSans-38" x="127.099609"/>
      </g>
     </g>
    </g>
    <g id="xtick_9">
     <g id="line2d_9">
      <g>
       <use xlink:href="#mb20bd030ec" x="492.073133" y="685.166478" style="stroke: #000000; stroke-width: 0.8"/>
      </g>
     </g>
     <g id="text_9">
      <!-- p09 -->
      <g transform="translate(486.218419 694.765297) rotate(-290) scale(0.1 -0.1)">
       <defs>
        <path id="DejaVuSans-39" d="M 703 97 
L 703 672 
Q 941 559 1184 500 
Q 1428 441 1663 441 
Q 2288 441 2617 861 
Q 2947 1281 2994 2138 
Q 2813 1869 2534 1725 
Q 2256 1581 1919 1581 
Q 1219 1581 811 2004 
Q 403 2428 403 3163 
Q 403 3881 828 4315 
Q 1253 4750 1959 4750 
Q 2769 4750 3195 4129 
Q 3622 3509 3622 2328 
Q 3622 1225 3098 567 
Q 2575 -91 1691 -91 
Q 1453 -91 1209 -44 
Q 966 3 703 97 
z
M 1959 2075 
Q 2384 2075 2632 2365 
Q 2881 2656 2881 3163 
Q 2881 3666 2632 3958 
Q 2384 4250 1959 4250 
Q 1534 4250 1286 3958 
Q 1038 3666 1038 3163 
Q 1038 2656 1286 2365 
Q 1534 2075 1959 2075 
z
" transform="scale(0.015625)"/>
       </defs>
       <use xlink:href="#DejaVuSans-70"/>
       <use xlink:href="#DejaVuSans-30" x="63.476562"/>
       <use xlink:href="#DejaVuSans-39" x="127.099609"/>
      </g>
     </g>
    </g>
    <g id="xtick_10">
     <g id="line2d_10">
      <g>
       <use xlink:href="#mb20bd030ec" x="539.818387" y="685.166478" style="stroke: #000000; stroke-width: 0.8"/>
      </g>
     </g>
     <g id="text_10">
      <!-- p10 -->
      <g transform="translate(533.963672 694.765297) rotate(-290) scale(0.1 -0.1)">
       <use xlink:href="#DejaVuSans-70"/>
       <use xlink:href="#DejaVuSans-31" x="63.476562"/>
       <use xlink:href="#DejaVuSans-30" x="127.099609"/>
      </g>
     </g>
    </g>
    <g id="xtick_11">
     <g id="line2d_11">
      <g>
       <use xlink:href="#mb20bd030ec" x="587.56364" y="685.166478" style="stroke: #000000; stroke-width: 0.8"/>
      </g>
     </g>
     <g id="text_11">
      <!-- p11 -->
      <g transform="translate(581.708926 694.765297) rotate(-290) scale(0.1 -0.1)">
       <use xlink:href="#DejaVuSans-70"/>
       <use xlink:href="#DejaVuSans-31" x="63.476562"/>
       <use xlink:href="#DejaVuSans-31" x="127.099609"/>
      </g>
     </g>
    </g>
    <g id="xtick_12">
     <g id="line2d_12">
      <g>
       <use xlink:href="#mb20bd030ec" x="635.308894" y="685.166478" style="stroke: #000000; stroke-width: 0.8"/>
      </g>
     </g>
     <g id="text_12">
      <!-- p12 -->
      <g transform="translate(629.454179 694.765297) rotate(-290) scale(0.1 -0.1)">
       <use xlink:href="#DejaVuSans-70"/>
       <use xlink:href="#DejaVuSans-31" x="63.476562"/>
       <use xlink:href="#DejaVuSans-32" x="127.099609"/>
      </g>
     </g>
    </g>
    <g id="xtick_13">
     <g id="line2d_13">
      <g>
       <use xlink:href="#mb20bd030ec" x="683.054147" y="685.166478" style="stroke: #000000; stroke-width: 0.8"/>
      </g>
     </g>
     <g id="text_13">
      <!-- p13 -->
      <g transform="translate(677.199433 694.765297) rotate(-290) scale(0.1 -0.1)">
       <use xlink:href="#DejaVuSans-70"/>
       <use xlink:href="#DejaVuSans-31" x="63.476562"/>
       <use xlink:href="#DejaVuSans-33" x="127.099609"/>
      </g>
     </g>
    </g>
    <g id="xtick_14">
     <g id="line2d_14">
      <g>
       <use xlink:href="#mb20bd030ec" x="730.7994" y="685.166478" style="stroke: #000000; stroke-width: 0.8"/>
      </g>
     </g>
     <g id="text_14">
      <!-- p14 -->
      <g transform="translate(724.944686 694.765297) rotate(-290) scale(0.1 -0.1)">
       <use xlink:href="#DejaVuSans-70"/>
       <use xlink:href="#DejaVuSans-31" x="63.476562"/>
       <use xlink:href="#DejaVuSans-34" x="127.099609"/>
      </g>
     </g>
    </g>
    <g id="xtick_15">
     <g id="line2d_15">
      <g>
       <use xlink:href="#mb20bd030ec" x="778.544654" y="685.166478" style="stroke: #000000; stroke-width: 0.8"/>
      </g>
     </g>
     <g id="text_15">
      <!-- p15 -->
      <g transform="translate(772.68994 694.765297) rotate(-290) scale(0.1 -0.1)">
       <use xlink:href="#DejaVuSans-70"/>
       <use xlink:href="#DejaVuSans-31" x="63.476562"/>
       <use xlink:href="#DejaVuSans-35" x="127.099609"/>
      </g>
     </g>
    </g>
    <g id="xtick_16">
     <g id="line2d_16">
      <g>
       <use xlink:href="#mb20bd030ec" x="826.289907" y="685.166478" style="stroke: #000000; stroke-width: 0.8"/>
      </g>
     </g>
     <g id="text_16">
      <!-- p16 -->
      <g transform="translate(820.435193 694.765297) rotate(-290) scale(0.1 -0.1)">
       <use xlink:href="#DejaVuSans-70"/>
       <use xlink:href="#DejaVuSans-31" x="63.476562"/>
       <use xlink:href="#DejaVuSans-36" x="127.099609"/>
      </g>
     </g>
    </g>
    <g id="xtick_17">
     <g id="line2d_17">
      <g>
       <use xlink:href="#mb20bd030ec" x="874.035161" y="685.166478" style="stroke: #000000; stroke-width: 0.8"/>
      </g>
     </g>
     <g id="text_17">
      <!-- p17 -->
      <g transform="translate(868.180447 694.765297) rotate(-290) scale(0.1 -0.1)">
       <use xlink:href="#DejaVuSans-70"/>
       <use xlink:href="#DejaVuSans-31" x="63.476562"/>
       <use xlink:href="#DejaVuSans-37" x="127.099609"/>
      </g>
     </g>
    </g>
    <g id="xtick_18">
     <g id="line2d_18">
      <g>
       <use xlink:href="#mb20bd030ec" x="921.780414" y="685.166478" style="stroke: #000000; stroke-width: 0.8"/>
      </g>
     </g>
     <g id="text_18">
      <!-- p18 -->
      <g transform="translate(915.9257 694.765297) rotate(-290) scale(0.1 -0.1)">
       <use xlink:href="#DejaVuSans-70"/>
       <use xlink:href="#DejaVuSans-31" x="63.476562"/>
       <use xlink:href="#DejaVuSans-38" x="127.099609"/>
      </g>
     </g>
    </g>
    <g id="xtick_19">
     <g id="line2d_19">
      <g>
       <use xlink:href="#mb20bd030ec" x="969.525668" y="685.166478" style="stroke: #000000; stroke-width: 0.8"/>
      </g>
     </g>
     <g id="text_19">
      <!-- p19 -->
      <g transform="translate(963.670954 694.765297) rotate(-290) scale(0.1 -0.1)">
       <use xlink:href="#DejaVuSans-70"/>
       <use xlink:href="#DejaVuSans-31" x="63.476562"/>
       <use xlink:href="#DejaVuSans-39" x="127.099609"/>
      </g>
     </g>
    </g>
    <g id="xtick_20">
     <g id="line2d_20">
      <g>
       <use xlink:href="#mb20bd030ec" x="1017.270921" y="685.166478" style="stroke: #000000; stroke-width: 0.8"/>
      </g>
     </g>
     <g id="text_20">
      <!-- p20 -->
      <g transform="translate(1011.416207 694.765297) rotate(-290) scale(0.1 -0.1)">
       <use xlink:href="#DejaVuSans-70"/>
       <use xlink:href="#DejaVuSans-32" x="63.476562"/>
       <use xlink:href="#DejaVuSans-30" x="127.099609"/>
      </g>
     </g>
    </g>
    <g id="xtick_21">
     <g id="line2d_21">
      <g>
       <use xlink:href="#mb20bd030ec" x="1065.016175" y="685.166478" style="stroke: #000000; stroke-width: 0.8"/>
      </g>
     </g>
     <g id="text_21">
      <!-- p21 -->
      <g transform="translate(1059.16146 694.765297) rotate(-290) scale(0.1 -0.1)">
       <use xlink:href="#DejaVuSans-70"/>
       <use xlink:href="#DejaVuSans-32" x="63.476562"/>
       <use xlink:href="#DejaVuSans-31" x="127.099609"/>
      </g>
     </g>
    </g>
    <g id="xtick_22">
     <g id="line2d_22">
      <g>
       <use xlink:href="#mb20bd030ec" x="1112.761428" y="685.166478" style="stroke: #000000; stroke-width: 0.8"/>
      </g>
     </g>
     <g id="text_22">
      <!-- p22 -->
      <g transform="translate(1106.906714 694.765297) rotate(-290) scale(0.1 -0.1)">
       <use xlink:href="#DejaVuSans-70"/>
       <use xlink:href="#DejaVuSans-32" x="63.476562"/>
       <use xlink:href="#DejaVuSans-32" x="127.099609"/>
      </g>
     </g>
    </g>
    <g id="xtick_23">
     <g id="line2d_23">
      <g>
       <use xlink:href="#mb20bd030ec" x="1160.506682" y="685.166478" style="stroke: #000000; stroke-width: 0.8"/>
      </g>
     </g>
     <g id="text_23">
      <!-- p23 -->
      <g transform="translate(1154.651967 694.765297) rotate(-290) scale(0.1 -0.1)">
       <use xlink:href="#DejaVuSans-70"/>
       <use xlink:href="#DejaVuSans-32" x="63.476562"/>
       <use xlink:href="#DejaVuSans-33" x="127.099609"/>
      </g>
     </g>
    </g>
    <g id="xtick_24">
     <g id="line2d_24">
      <g>
       <use xlink:href="#mb20bd030ec" x="1208.251935" y="685.166478" style="stroke: #000000; stroke-width: 0.8"/>
      </g>
     </g>
     <g id="text_24">
      <!-- p24 -->
      <g transform="translate(1202.397221 694.765297) rotate(-290) scale(0.1 -0.1)">
       <use xlink:href="#DejaVuSans-70"/>
       <use xlink:href="#DejaVuSans-32" x="63.476562"/>
       <use xlink:href="#DejaVuSans-34" x="127.099609"/>
      </g>
     </g>
    </g>
   </g>
   <g id="matplotlib.axis_2">
    <g id="ytick_1">
     <g id="line2d_25">
      <defs>
       <path id="m1027e5e534" d="M 0 0 
L -3.5 0 
" style="stroke: #000000; stroke-width: 0.8"/>
      </defs>
      <g>
       <use xlink:href="#m1027e5e534" x="41.278365" y="628.067723" style="stroke: #000000; stroke-width: 0.8"/>
      </g>
     </g>
     <g id="text_25">
      <!-- $\mathdefault{10^{0}}$ -->
      <g transform="translate(16.678365 631.866941) scale(0.1 -0.1)">
       <use xlink:href="#DejaVuSans-31" transform="translate(0 0.765625)"/>
       <use xlink:href="#DejaVuSans-30" transform="translate(63.623047 0.765625)"/>
       <use xlink:href="#DejaVuSans-30" transform="translate(128.203125 39.046875) scale(0.7)"/>
      </g>
     </g>
    </g>
    <g id="ytick_2">
     <g id="line2d_26">
      <g>
       <use xlink:href="#m1027e5e534" x="41.278365" y="467.466278" style="stroke: #000000; stroke-width: 0.8"/>
      </g>
     </g>
     <g id="text_26">
      <!-- $\mathdefault{10^{1}}$ -->
      <g transform="translate(16.678365 471.265497) scale(0.1 -0.1)">
       <use xlink:href="#DejaVuSans-31" transform="translate(0 0.684375)"/>
       <use xlink:href="#DejaVuSans-30" transform="translate(63.623047 0.684375)"/>
       <use xlink:href="#DejaVuSans-31" transform="translate(128.203125 38.965625) scale(0.7)"/>
      </g>
     </g>
    </g>
    <g id="ytick_3">
     <g id="line2d_27">
      <g>
       <use xlink:href="#m1027e5e534" x="41.278365" y="306.864833" style="stroke: #000000; stroke-width: 0.8"/>
      </g>
     </g>
     <g id="text_27">
      <!-- $\mathdefault{10^{2}}$ -->
      <g transform="translate(16.678365 310.664052) scale(0.1 -0.1)">
       <use xlink:href="#DejaVuSans-31" transform="translate(0 0.765625)"/>
       <use xlink:href="#DejaVuSans-30" transform="translate(63.623047 0.765625)"/>
       <use xlink:href="#DejaVuSans-32" transform="translate(128.203125 39.046875) scale(0.7)"/>
      </g>
     </g>
    </g>
    <g id="ytick_4">
     <g id="line2d_28">
      <g>
       <use xlink:href="#m1027e5e534" x="41.278365" y="146.263389" style="stroke: #000000; stroke-width: 0.8"/>
      </g>
     </g>
     <g id="text_28">
      <!-- $\mathdefault{10^{3}}$ -->
      <g transform="translate(16.678365 150.062607) scale(0.1 -0.1)">
       <use xlink:href="#DejaVuSans-31" transform="translate(0 0.765625)"/>
       <use xlink:href="#DejaVuSans-30" transform="translate(63.623047 0.765625)"/>
       <use xlink:href="#DejaVuSans-33" transform="translate(128.203125 39.046875) scale(0.7)"/>
      </g>
     </g>
    </g>
    <g id="ytick_5">
     <g id="line2d_29">
      <defs>
       <path id="m341062d462" d="M 0 0 
L -2 0 
" style="stroke: #000000; stroke-width: 0.6"/>
      </defs>
      <g>
       <use xlink:href="#m341062d462" x="41.278365" y="676.413575" style="stroke: #000000; stroke-width: 0.6"/>
      </g>
     </g>
    </g>
    <g id="ytick_6">
     <g id="line2d_30">
      <g>
       <use xlink:href="#m341062d462" x="41.278365" y="663.696952" style="stroke: #000000; stroke-width: 0.6"/>
      </g>
     </g>
    </g>
    <g id="ytick_7">
     <g id="line2d_31">
      <g>
       <use xlink:href="#m341062d462" x="41.278365" y="652.945201" style="stroke: #000000; stroke-width: 0.6"/>
      </g>
     </g>
    </g>
    <g id="ytick_8">
     <g id="line2d_32">
      <g>
       <use xlink:href="#m341062d462" x="41.278365" y="643.631611" style="stroke: #000000; stroke-width: 0.6"/>
      </g>
     </g>
    </g>
    <g id="ytick_9">
     <g id="line2d_33">
      <g>
       <use xlink:href="#m341062d462" x="41.278365" y="635.416442" style="stroke: #000000; stroke-width: 0.6"/>
      </g>
     </g>
    </g>
    <g id="ytick_10">
     <g id="line2d_34">
      <g>
       <use xlink:href="#m341062d462" x="41.278365" y="579.721871" style="stroke: #000000; stroke-width: 0.6"/>
      </g>
     </g>
    </g>
    <g id="ytick_11">
     <g id="line2d_35">
      <g>
       <use xlink:href="#m341062d462" x="41.278365" y="551.44136" style="stroke: #000000; stroke-width: 0.6"/>
      </g>
     </g>
    </g>
    <g id="ytick_12">
     <g id="line2d_36">
      <g>
       <use xlink:href="#m341062d462" x="41.278365" y="531.376018" style="stroke: #000000; stroke-width: 0.6"/>
      </g>
     </g>
    </g>
    <g id="ytick_13">
     <g id="line2d_37">
      <g>
       <use xlink:href="#m341062d462" x="41.278365" y="515.81213" style="stroke: #000000; stroke-width: 0.6"/>
      </g>
     </g>
    </g>
    <g id="ytick_14">
     <g id="line2d_38">
      <g>
       <use xlink:href="#m341062d462" x="41.278365" y="503.095508" style="stroke: #000000; stroke-width: 0.6"/>
      </g>
     </g>
    </g>
    <g id="ytick_15">
     <g id="line2d_39">
      <g>
       <use xlink:href="#m341062d462" x="41.278365" y="492.343757" style="stroke: #000000; stroke-width: 0.6"/>
      </g>
     </g>
    </g>
    <g id="ytick_16">
     <g id="line2d_40">
      <g>
       <use xlink:href="#m341062d462" x="41.278365" y="483.030166" style="stroke: #000000; stroke-width: 0.6"/>
      </g>
     </g>
    </g>
    <g id="ytick_17">
     <g id="line2d_41">
      <g>
       <use xlink:href="#m341062d462" x="41.278365" y="474.814997" style="stroke: #000000; stroke-width: 0.6"/>
      </g>
     </g>
    </g>
    <g id="ytick_18">
     <g id="line2d_42">
      <g>
       <use xlink:href="#m341062d462" x="41.278365" y="419.120426" style="stroke: #000000; stroke-width: 0.6"/>
      </g>
     </g>
    </g>
    <g id="ytick_19">
     <g id="line2d_43">
      <g>
       <use xlink:href="#m341062d462" x="41.278365" y="390.839915" style="stroke: #000000; stroke-width: 0.6"/>
      </g>
     </g>
    </g>
    <g id="ytick_20">
     <g id="line2d_44">
      <g>
       <use xlink:href="#m341062d462" x="41.278365" y="370.774574" style="stroke: #000000; stroke-width: 0.6"/>
      </g>
     </g>
    </g>
    <g id="ytick_21">
     <g id="line2d_45">
      <g>
       <use xlink:href="#m341062d462" x="41.278365" y="355.210686" style="stroke: #000000; stroke-width: 0.6"/>
      </g>
     </g>
    </g>
    <g id="ytick_22">
     <g id="line2d_46">
      <g>
       <use xlink:href="#m341062d462" x="41.278365" y="342.494063" style="stroke: #000000; stroke-width: 0.6"/>
      </g>
     </g>
    </g>
    <g id="ytick_23">
     <g id="line2d_47">
      <g>
       <use xlink:href="#m341062d462" x="41.278365" y="331.742312" style="stroke: #000000; stroke-width: 0.6"/>
      </g>
     </g>
    </g>
    <g id="ytick_24">
     <g id="line2d_48">
      <g>
       <use xlink:href="#m341062d462" x="41.278365" y="322.428722" style="stroke: #000000; stroke-width: 0.6"/>
      </g>
     </g>
    </g>
    <g id="ytick_25">
     <g id="line2d_49">
      <g>
       <use xlink:href="#m341062d462" x="41.278365" y="314.213552" style="stroke: #000000; stroke-width: 0.6"/>
      </g>
     </g>
    </g>
    <g id="ytick_26">
     <g id="line2d_50">
      <g>
       <use xlink:href="#m341062d462" x="41.278365" y="258.518981" style="stroke: #000000; stroke-width: 0.6"/>
      </g>
     </g>
    </g>
    <g id="ytick_27">
     <g id="line2d_51">
      <g>
       <use xlink:href="#m341062d462" x="41.278365" y="230.238471" style="stroke: #000000; stroke-width: 0.6"/>
      </g>
     </g>
    </g>
    <g id="ytick_28">
     <g id="line2d_52">
      <g>
       <use xlink:href="#m341062d462" x="41.278365" y="210.173129" style="stroke: #000000; stroke-width: 0.6"/>
      </g>
     </g>
    </g>
    <g id="ytick_29">
     <g id="line2d_53">
      <g>
       <use xlink:href="#m341062d462" x="41.278365" y="194.609241" style="stroke: #000000; stroke-width: 0.6"/>
      </g>
     </g>
    </g>
    <g id="ytick_30">
     <g id="line2d_54">
      <g>
       <use xlink:href="#m341062d462" x="41.278365" y="181.892618" style="stroke: #000000; stroke-width: 0.6"/>
      </g>
     </g>
    </g>
    <g id="ytick_31">
     <g id="line2d_55">
      <g>
       <use xlink:href="#m341062d462" x="41.278365" y="171.140867" style="stroke: #000000; stroke-width: 0.6"/>
      </g>
     </g>
    </g>
    <g id="ytick_32">
     <g id="line2d_56">
      <g>
       <use xlink:href="#m341062d462" x="41.278365" y="161.827277" style="stroke: #000000; stroke-width: 0.6"/>
      </g>
     </g>
    </g>
    <g id="ytick_33">
     <g id="line2d_57">
      <g>
       <use xlink:href="#m341062d462" x="41.278365" y="153.612108" style="stroke: #000000; stroke-width: 0.6"/>
      </g>
     </g>
    </g>
    <g id="ytick_34">
     <g id="line2d_58">
      <g>
       <use xlink:href="#m341062d462" x="41.278365" y="97.917537" style="stroke: #000000; stroke-width: 0.6"/>
      </g>
     </g>
    </g>
    <g id="ytick_35">
     <g id="line2d_59">
      <g>
       <use xlink:href="#m341062d462" x="41.278365" y="69.637026" style="stroke: #000000; stroke-width: 0.6"/>
      </g>
     </g>
    </g>
    <g id="ytick_36">
     <g id="line2d_60">
      <g>
       <use xlink:href="#m341062d462" x="41.278365" y="49.571684" style="stroke: #000000; stroke-width: 0.6"/>
      </g>
     </g>
    </g>
    <g id="ytick_37">
     <g id="line2d_61">
      <g>
       <use xlink:href="#m341062d462" x="41.278365" y="34.007796" style="stroke: #000000; stroke-width: 0.6"/>
      </g>
     </g>
    </g>
    <g id="ytick_38">
     <g id="line2d_62">
      <g>
       <use xlink:href="#m341062d462" x="41.278365" y="21.291174" style="stroke: #000000; stroke-width: 0.6"/>
      </g>
     </g>
    </g>
    <g id="ytick_39">
     <g id="line2d_63">
      <g>
       <use xlink:href="#m341062d462" x="41.278365" y="10.539423" style="stroke: #000000; stroke-width: 0.6"/>
      </g>
     </g>
    </g>
    <g id="text_29">
     <!-- Time (s) -->
     <g transform="translate(10.598678 364.412265) rotate(-90) scale(0.1 -0.1)">
      <defs>
       <path id="DejaVuSans-54" d="M -19 4666 
L 3928 4666 
L 3928 4134 
L 2272 4134 
L 2272 0 
L 1638 0 
L 1638 4134 
L -19 4134 
L -19 4666 
z
" transform="scale(0.015625)"/>
       <path id="DejaVuSans-69" d="M 603 3500 
L 1178 3500 
L 1178 0 
L 603 0 
L 603 3500 
z
M 603 4863 
L 1178 4863 
L 1178 4134 
L 603 4134 
L 603 4863 
z
" transform="scale(0.015625)"/>
       <path id="DejaVuSans-6d" d="M 3328 2828 
Q 3544 3216 3844 3400 
Q 4144 3584 4550 3584 
Q 5097 3584 5394 3201 
Q 5691 2819 5691 2113 
L 5691 0 
L 5113 0 
L 5113 2094 
Q 5113 2597 4934 2840 
Q 4756 3084 4391 3084 
Q 3944 3084 3684 2787 
Q 3425 2491 3425 1978 
L 3425 0 
L 2847 0 
L 2847 2094 
Q 2847 2600 2669 2842 
Q 2491 3084 2119 3084 
Q 1678 3084 1418 2786 
Q 1159 2488 1159 1978 
L 1159 0 
L 581 0 
L 581 3500 
L 1159 3500 
L 1159 2956 
Q 1356 3278 1631 3431 
Q 1906 3584 2284 3584 
Q 2666 3584 2933 3390 
Q 3200 3197 3328 2828 
z
" transform="scale(0.015625)"/>
       <path id="DejaVuSans-65" d="M 3597 1894 
L 3597 1613 
L 953 1613 
Q 991 1019 1311 708 
Q 1631 397 2203 397 
Q 2534 397 2845 478 
Q 3156 559 3463 722 
L 3463 178 
Q 3153 47 2828 -22 
Q 2503 -91 2169 -91 
Q 1331 -91 842 396 
Q 353 884 353 1716 
Q 353 2575 817 3079 
Q 1281 3584 2069 3584 
Q 2775 3584 3186 3129 
Q 3597 2675 3597 1894 
z
M 3022 2063 
Q 3016 2534 2758 2815 
Q 2500 3097 2075 3097 
Q 1594 3097 1305 2825 
Q 1016 2553 972 2059 
L 3022 2063 
z
" transform="scale(0.015625)"/>
       <path id="DejaVuSans-20" transform="scale(0.015625)"/>
       <path id="DejaVuSans-28" d="M 1984 4856 
Q 1566 4138 1362 3434 
Q 1159 2731 1159 2009 
Q 1159 1288 1364 580 
Q 1569 -128 1984 -844 
L 1484 -844 
Q 1016 -109 783 600 
Q 550 1309 550 2009 
Q 550 2706 781 3412 
Q 1013 4119 1484 4856 
L 1984 4856 
z
" transform="scale(0.015625)"/>
       <path id="DejaVuSans-73" d="M 2834 3397 
L 2834 2853 
Q 2591 2978 2328 3040 
Q 2066 3103 1784 3103 
Q 1356 3103 1142 2972 
Q 928 2841 928 2578 
Q 928 2378 1081 2264 
Q 1234 2150 1697 2047 
L 1894 2003 
Q 2506 1872 2764 1633 
Q 3022 1394 3022 966 
Q 3022 478 2636 193 
Q 2250 -91 1575 -91 
Q 1294 -91 989 -36 
Q 684 19 347 128 
L 347 722 
Q 666 556 975 473 
Q 1284 391 1588 391 
Q 1994 391 2212 530 
Q 2431 669 2431 922 
Q 2431 1156 2273 1281 
Q 2116 1406 1581 1522 
L 1381 1569 
Q 847 1681 609 1914 
Q 372 2147 372 2553 
Q 372 3047 722 3315 
Q 1072 3584 1716 3584 
Q 2034 3584 2315 3537 
Q 2597 3491 2834 3397 
z
" transform="scale(0.015625)"/>
       <path id="DejaVuSans-29" d="M 513 4856 
L 1013 4856 
Q 1481 4119 1714 3412 
Q 1947 2706 1947 2009 
Q 1947 1309 1714 600 
Q 1481 -109 1013 -844 
L 513 -844 
Q 928 -128 1133 580 
Q 1338 1288 1338 2009 
Q 1338 2731 1133 3434 
Q 928 4138 513 4856 
z
" transform="scale(0.015625)"/>
      </defs>
      <use xlink:href="#DejaVuSans-54"/>
      <use xlink:href="#DejaVuSans-69" x="57.958984"/>
      <use xlink:href="#DejaVuSans-6d" x="85.742188"/>
      <use xlink:href="#DejaVuSans-65" x="183.154297"/>
      <use xlink:href="#DejaVuSans-20" x="244.677734"/>
      <use xlink:href="#DejaVuSans-28" x="276.464844"/>
      <use xlink:href="#DejaVuSans-73" x="315.478516"/>
      <use xlink:href="#DejaVuSans-29" x="367.578125"/>
     </g>
    </g>
   </g>
   <g id="patch_123">
    <path d="M 41.278365 685.166478 
L 41.278365 3.00024 
" style="fill: none; stroke: #000000; stroke-width: 0.8; stroke-linejoin: miter; stroke-linecap: square"/>
   </g>
   <g id="patch_124">
    <path d="M 1292.99976 685.166478 
L 1292.99976 3.00024 
" style="fill: none; stroke: #000000; stroke-width: 0.8; stroke-linejoin: miter; stroke-linecap: square"/>
   </g>
   <g id="patch_125">
    <path d="M 41.278365 685.166478 
L 1292.99976 685.166478 
" style="fill: none; stroke: #000000; stroke-width: 0.8; stroke-linejoin: miter; stroke-linecap: square"/>
   </g>
   <g id="patch_126">
    <path d="M 41.278365 3.00024 
L 1292.99976 3.00024 
" style="fill: none; stroke: #000000; stroke-width: 0.8; stroke-linejoin: miter; stroke-linecap: square"/>
   </g>
   <g id="legend_1">
    <g id="patch_127">
     <path d="M 48.278365 40.91274 
L 487.148678 40.91274 
Q 489.148678 40.91274 489.148678 38.91274 
L 489.148678 10.00024 
Q 489.148678 8.00024 487.148678 8.00024 
L 48.278365 8.00024 
Q 46.278365 8.00024 46.278365 10.00024 
L 46.278365 38.91274 
Q 46.278365 40.91274 48.278365 40.91274 
z
" style="fill: #ffffff; opacity: 0.8; stroke: #cccccc; stroke-linejoin: miter"/>
    </g>
    <g id="patch_128">
     <path d="M 50.278365 19.598678 
L 70.278365 19.598678 
L 70.278365 12.598678 
L 50.278365 12.598678 
z
" style="fill: #1f77b4"/>
    </g>
    <g id="text_30">
     <!-- solve_external_yices -->
     <g transform="translate(78.278365 19.598678) scale(0.1 -0.1)">
      <defs>
       <path id="DejaVuSans-6f" d="M 1959 3097 
Q 1497 3097 1228 2736 
Q 959 2375 959 1747 
Q 959 1119 1226 758 
Q 1494 397 1959 397 
Q 2419 397 2687 759 
Q 2956 1122 2956 1747 
Q 2956 2369 2687 2733 
Q 2419 3097 1959 3097 
z
M 1959 3584 
Q 2709 3584 3137 3096 
Q 3566 2609 3566 1747 
Q 3566 888 3137 398 
Q 2709 -91 1959 -91 
Q 1206 -91 779 398 
Q 353 888 353 1747 
Q 353 2609 779 3096 
Q 1206 3584 1959 3584 
z
" transform="scale(0.015625)"/>
       <path id="DejaVuSans-6c" d="M 603 4863 
L 1178 4863 
L 1178 0 
L 603 0 
L 603 4863 
z
" transform="scale(0.015625)"/>
       <path id="DejaVuSans-76" d="M 191 3500 
L 800 3500 
L 1894 563 
L 2988 3500 
L 3597 3500 
L 2284 0 
L 1503 0 
L 191 3500 
z
" transform="scale(0.015625)"/>
       <path id="DejaVuSans-5f" d="M 3263 -1063 
L 3263 -1509 
L -63 -1509 
L -63 -1063 
L 3263 -1063 
z
" transform="scale(0.015625)"/>
       <path id="DejaVuSans-78" d="M 3513 3500 
L 2247 1797 
L 3578 0 
L 2900 0 
L 1881 1375 
L 863 0 
L 184 0 
L 1544 1831 
L 300 3500 
L 978 3500 
L 1906 2253 
L 2834 3500 
L 3513 3500 
z
" transform="scale(0.015625)"/>
       <path id="DejaVuSans-74" d="M 1172 4494 
L 1172 3500 
L 2356 3500 
L 2356 3053 
L 1172 3053 
L 1172 1153 
Q 1172 725 1289 603 
Q 1406 481 1766 481 
L 2356 481 
L 2356 0 
L 1766 0 
Q 1100 0 847 248 
Q 594 497 594 1153 
L 594 3053 
L 172 3053 
L 172 3500 
L 594 3500 
L 594 4494 
L 1172 4494 
z
" transform="scale(0.015625)"/>
       <path id="DejaVuSans-72" d="M 2631 2963 
Q 2534 3019 2420 3045 
Q 2306 3072 2169 3072 
Q 1681 3072 1420 2755 
Q 1159 2438 1159 1844 
L 1159 0 
L 581 0 
L 581 3500 
L 1159 3500 
L 1159 2956 
Q 1341 3275 1631 3429 
Q 1922 3584 2338 3584 
Q 2397 3584 2469 3576 
Q 2541 3569 2628 3553 
L 2631 2963 
z
" transform="scale(0.015625)"/>
       <path id="DejaVuSans-6e" d="M 3513 2113 
L 3513 0 
L 2938 0 
L 2938 2094 
Q 2938 2591 2744 2837 
Q 2550 3084 2163 3084 
Q 1697 3084 1428 2787 
Q 1159 2491 1159 1978 
L 1159 0 
L 581 0 
L 581 3500 
L 1159 3500 
L 1159 2956 
Q 1366 3272 1645 3428 
Q 1925 3584 2291 3584 
Q 2894 3584 3203 3211 
Q 3513 2838 3513 2113 
z
" transform="scale(0.015625)"/>
       <path id="DejaVuSans-61" d="M 2194 1759 
Q 1497 1759 1228 1600 
Q 959 1441 959 1056 
Q 959 750 1161 570 
Q 1363 391 1709 391 
Q 2188 391 2477 730 
Q 2766 1069 2766 1631 
L 2766 1759 
L 2194 1759 
z
M 3341 1997 
L 3341 0 
L 2766 0 
L 2766 531 
Q 2569 213 2275 61 
Q 1981 -91 1556 -91 
Q 1019 -91 701 211 
Q 384 513 384 1019 
Q 384 1609 779 1909 
Q 1175 2209 1959 2209 
L 2766 2209 
L 2766 2266 
Q 2766 2663 2505 2880 
Q 2244 3097 1772 3097 
Q 1472 3097 1187 3025 
Q 903 2953 641 2809 
L 641 3341 
Q 956 3463 1253 3523 
Q 1550 3584 1831 3584 
Q 2591 3584 2966 3190 
Q 3341 2797 3341 1997 
z
" transform="scale(0.015625)"/>
       <path id="DejaVuSans-79" d="M 2059 -325 
Q 1816 -950 1584 -1140 
Q 1353 -1331 966 -1331 
L 506 -1331 
L 506 -850 
L 844 -850 
Q 1081 -850 1212 -737 
Q 1344 -625 1503 -206 
L 1606 56 
L 191 3500 
L 800 3500 
L 1894 763 
L 2988 3500 
L 3597 3500 
L 2059 -325 
z
" transform="scale(0.015625)"/>
       <path id="DejaVuSans-63" d="M 3122 3366 
L 3122 2828 
Q 2878 2963 2633 3030 
Q 2388 3097 2138 3097 
Q 1578 3097 1268 2742 
Q 959 2388 959 1747 
Q 959 1106 1268 751 
Q 1578 397 2138 397 
Q 2388 397 2633 464 
Q 2878 531 3122 666 
L 3122 134 
Q 2881 22 2623 -34 
Q 2366 -91 2075 -91 
Q 1284 -91 818 406 
Q 353 903 353 1747 
Q 353 2603 823 3093 
Q 1294 3584 2113 3584 
Q 2378 3584 2631 3529 
Q 2884 3475 3122 3366 
z
" transform="scale(0.015625)"/>
      </defs>
      <use xlink:href="#DejaVuSans-73"/>
      <use xlink:href="#DejaVuSans-6f" x="52.099609"/>
      <use xlink:href="#DejaVuSans-6c" x="113.28125"/>
      <use xlink:href="#DejaVuSans-76" x="141.064453"/>
      <use xlink:href="#DejaVuSans-65" x="200.244141"/>
      <use xlink:href="#DejaVuSans-5f" x="261.767578"/>
      <use xlink:href="#DejaVuSans-65" x="311.767578"/>
      <use xlink:href="#DejaVuSans-78" x="371.541016"/>
      <use xlink:href="#DejaVuSans-74" x="430.720703"/>
      <use xlink:href="#DejaVuSans-65" x="469.929688"/>
      <use xlink:href="#DejaVuSans-72" x="531.453125"/>
      <use xlink:href="#DejaVuSans-6e" x="570.816406"/>
      <use xlink:href="#DejaVuSans-61" x="634.195312"/>
      <use xlink:href="#DejaVuSans-6c" x="695.474609"/>
      <use xlink:href="#DejaVuSans-5f" x="723.257812"/>
      <use xlink:href="#DejaVuSans-79" x="773.257812"/>
      <use xlink:href="#DejaVuSans-69" x="832.4375"/>
      <use xlink:href="#DejaVuSans-63" x="860.220703"/>
      <use xlink:href="#DejaVuSans-65" x="915.201172"/>
      <use xlink:href="#DejaVuSans-73" x="976.724609"/>
     </g>
    </g>
    <g id="patch_129">
     <path d="M 50.278365 34.554928 
L 70.278365 34.554928 
L 70.278365 27.554928 
L 50.278365 27.554928 
z
" style="fill: #ff7f0e"/>
    </g>
    <g id="text_31">
     <!-- solve_z3 -->
     <g transform="translate(78.278365 34.554928) scale(0.1 -0.1)">
      <defs>
       <path id="DejaVuSans-7a" d="M 353 3500 
L 3084 3500 
L 3084 2975 
L 922 459 
L 3084 459 
L 3084 0 
L 275 0 
L 275 525 
L 2438 3041 
L 353 3041 
L 353 3500 
z
" transform="scale(0.015625)"/>
      </defs>
      <use xlink:href="#DejaVuSans-73"/>
      <use xlink:href="#DejaVuSans-6f" x="52.099609"/>
      <use xlink:href="#DejaVuSans-6c" x="113.28125"/>
      <use xlink:href="#DejaVuSans-76" x="141.064453"/>
      <use xlink:href="#DejaVuSans-65" x="200.244141"/>
      <use xlink:href="#DejaVuSans-5f" x="261.767578"/>
      <use xlink:href="#DejaVuSans-7a" x="311.767578"/>
      <use xlink:href="#DejaVuSans-33" x="364.257812"/>
     </g>
    </g>
    <g id="patch_130">
     <path d="M 201.164303 19.598678 
L 221.164303 19.598678 
L 221.164303 12.598678 
L 201.164303 12.598678 
z
" style="fill: #2ca02c"/>
    </g>
    <g id="text_32">
     <!-- solve_external_bitwuzla -->
     <g transform="translate(229.164303 19.598678) scale(0.1 -0.1)">
      <defs>
       <path id="DejaVuSans-62" d="M 3116 1747 
Q 3116 2381 2855 2742 
Q 2594 3103 2138 3103 
Q 1681 3103 1420 2742 
Q 1159 2381 1159 1747 
Q 1159 1113 1420 752 
Q 1681 391 2138 391 
Q 2594 391 2855 752 
Q 3116 1113 3116 1747 
z
M 1159 2969 
Q 1341 3281 1617 3432 
Q 1894 3584 2278 3584 
Q 2916 3584 3314 3078 
Q 3713 2572 3713 1747 
Q 3713 922 3314 415 
Q 2916 -91 2278 -91 
Q 1894 -91 1617 61 
Q 1341 213 1159 525 
L 1159 0 
L 581 0 
L 581 4863 
L 1159 4863 
L 1159 2969 
z
" transform="scale(0.015625)"/>
       <path id="DejaVuSans-77" d="M 269 3500 
L 844 3500 
L 1563 769 
L 2278 3500 
L 2956 3500 
L 3675 769 
L 4391 3500 
L 4966 3500 
L 4050 0 
L 3372 0 
L 2619 2869 
L 1863 0 
L 1184 0 
L 269 3500 
z
" transform="scale(0.015625)"/>
       <path id="DejaVuSans-75" d="M 544 1381 
L 544 3500 
L 1119 3500 
L 1119 1403 
Q 1119 906 1312 657 
Q 1506 409 1894 409 
Q 2359 409 2629 706 
Q 2900 1003 2900 1516 
L 2900 3500 
L 3475 3500 
L 3475 0 
L 2900 0 
L 2900 538 
Q 2691 219 2414 64 
Q 2138 -91 1772 -91 
Q 1169 -91 856 284 
Q 544 659 544 1381 
z
M 1991 3584 
L 1991 3584 
z
" transform="scale(0.015625)"/>
      </defs>
      <use xlink:href="#DejaVuSans-73"/>
      <use xlink:href="#DejaVuSans-6f" x="52.099609"/>
      <use xlink:href="#DejaVuSans-6c" x="113.28125"/>
      <use xlink:href="#DejaVuSans-76" x="141.064453"/>
      <use xlink:href="#DejaVuSans-65" x="200.244141"/>
      <use xlink:href="#DejaVuSans-5f" x="261.767578"/>
      <use xlink:href="#DejaVuSans-65" x="311.767578"/>
      <use xlink:href="#DejaVuSans-78" x="371.541016"/>
      <use xlink:href="#DejaVuSans-74" x="430.720703"/>
      <use xlink:href="#DejaVuSans-65" x="469.929688"/>
      <use xlink:href="#DejaVuSans-72" x="531.453125"/>
      <use xlink:href="#DejaVuSans-6e" x="570.816406"/>
      <use xlink:href="#DejaVuSans-61" x="634.195312"/>
      <use xlink:href="#DejaVuSans-6c" x="695.474609"/>
      <use xlink:href="#DejaVuSans-5f" x="723.257812"/>
      <use xlink:href="#DejaVuSans-62" x="773.257812"/>
      <use xlink:href="#DejaVuSans-69" x="836.734375"/>
      <use xlink:href="#DejaVuSans-74" x="864.517578"/>
      <use xlink:href="#DejaVuSans-77" x="903.726562"/>
      <use xlink:href="#DejaVuSans-75" x="985.513672"/>
      <use xlink:href="#DejaVuSans-7a" x="1048.892578"/>
      <use xlink:href="#DejaVuSans-6c" x="1101.382812"/>
      <use xlink:href="#DejaVuSans-61" x="1129.166016"/>
     </g>
    </g>
    <g id="patch_131">
     <path d="M 201.164303 34.554928 
L 221.164303 34.554928 
L 221.164303 27.554928 
L 201.164303 27.554928 
z
" style="fill: #d62728"/>
    </g>
    <g id="text_33">
     <!-- solve_external_cvc5 -->
     <g transform="translate(229.164303 34.554928) scale(0.1 -0.1)">
      <use xlink:href="#DejaVuSans-73"/>
      <use xlink:href="#DejaVuSans-6f" x="52.099609"/>
      <use xlink:href="#DejaVuSans-6c" x="113.28125"/>
      <use xlink:href="#DejaVuSans-76" x="141.064453"/>
      <use xlink:href="#DejaVuSans-65" x="200.244141"/>
      <use xlink:href="#DejaVuSans-5f" x="261.767578"/>
      <use xlink:href="#DejaVuSans-65" x="311.767578"/>
      <use xlink:href="#DejaVuSans-78" x="371.541016"/>
      <use xlink:href="#DejaVuSans-74" x="430.720703"/>
      <use xlink:href="#DejaVuSans-65" x="469.929688"/>
      <use xlink:href="#DejaVuSans-72" x="531.453125"/>
      <use xlink:href="#DejaVuSans-6e" x="570.816406"/>
      <use xlink:href="#DejaVuSans-61" x="634.195312"/>
      <use xlink:href="#DejaVuSans-6c" x="695.474609"/>
      <use xlink:href="#DejaVuSans-5f" x="723.257812"/>
      <use xlink:href="#DejaVuSans-63" x="773.257812"/>
      <use xlink:href="#DejaVuSans-76" x="828.238281"/>
      <use xlink:href="#DejaVuSans-63" x="887.417969"/>
      <use xlink:href="#DejaVuSans-35" x="942.398438"/>
     </g>
    </g>
    <g id="patch_132">
     <path d="M 368.209615 19.598678 
L 388.209615 19.598678 
L 388.209615 12.598678 
L 368.209615 12.598678 
z
" style="fill: #9467bd"/>
    </g>
    <g id="text_34">
     <!-- solve_external_z3 -->
     <g transform="translate(396.209615 19.598678) scale(0.1 -0.1)">
      <use xlink:href="#DejaVuSans-73"/>
      <use xlink:href="#DejaVuSans-6f" x="52.099609"/>
      <use xlink:href="#DejaVuSans-6c" x="113.28125"/>
      <use xlink:href="#DejaVuSans-76" x="141.064453"/>
      <use xlink:href="#DejaVuSans-65" x="200.244141"/>
      <use xlink:href="#DejaVuSans-5f" x="261.767578"/>
      <use xlink:href="#DejaVuSans-65" x="311.767578"/>
      <use xlink:href="#DejaVuSans-78" x="371.541016"/>
      <use xlink:href="#DejaVuSans-74" x="430.720703"/>
      <use xlink:href="#DejaVuSans-65" x="469.929688"/>
      <use xlink:href="#DejaVuSans-72" x="531.453125"/>
      <use xlink:href="#DejaVuSans-6e" x="570.816406"/>
      <use xlink:href="#DejaVuSans-61" x="634.195312"/>
      <use xlink:href="#DejaVuSans-6c" x="695.474609"/>
      <use xlink:href="#DejaVuSans-5f" x="723.257812"/>
      <use xlink:href="#DejaVuSans-7a" x="773.257812"/>
      <use xlink:href="#DejaVuSans-33" x="825.748047"/>
     </g>
    </g>
   </g>
  </g>
 </g>
 <defs>
  <clipPath id="p68e67e6034">
   <rect x="41.278365" y="3.00024" width="1251.721395" height="682.166238"/>
  </clipPath>
 </defs>
</svg>
